<svg height="436pt" viewBox="-13 0 436 436.90667" width="436pt" xmlns="http://www.w3.org/2000/svg"><path d="m341.964844 320.851562h-265.507813c-38.203125 0-69.175781 22.886719-69.175781 51.117188v58.109375h395.945312v-63.957031c0-25-27.425781-45.269532-61.261718-45.269532zm0 0" fill="#ff927d"/><path d="m341.964844 320.851562v-6.824218h-265.507813c-20.464843.011718-39.113281 6.085937-52.972656 16.308594-13.816406 10.160156-23.03125 24.914062-23.03125 41.632812v58.109375c0 1.800781.730469 3.558594 2 4.828125 1.273437 1.273438 3.03125 2 4.828125 2h395.945312c1.796876 0 3.554688-.726562 4.828126-2 1.269531-1.269531 2-3.027344 2-4.824219v-63.960937c0-15.105469-8.332032-28.394532-20.714844-37.5-12.425782-9.160156-29.09375-14.582032-47.371094-14.59375v13.652344c15.550781-.011719 29.515625 4.703124 39.257812 11.921874 9.789063 7.28125 15.171876 16.621094 15.171876 26.519532v57.132812h-382.292969v-51.28125c0-11.511718 6.273437-22.316406 17.496093-30.65625 11.175782-8.277344 27.117188-13.648437 44.855469-13.636718h265.511719v-6.828126zm0 0" fill="#54596e"/><path d="m109.695312 430.078125h191.148438l-15.925781-109.226563h-159.289063zm0 0" fill="#8065c4"/><path d="m109.695312 430.078125v6.828125h191.148438c1.972656 0 3.871094-.867188 5.164062-2.359375 1.292969-1.492187 1.878907-3.496094 1.59375-5.453125l-15.929687-109.226562c-.488281-3.363282-3.351563-5.839844-6.753906-5.839844h-159.289063c-3.398437 0-6.265625 2.476562-6.753906 5.839844l-15.929688 109.226562c-.285156 1.957031.296876 3.957031 1.589844 5.453125 1.292969 1.496094 3.1875 2.359375 5.160156 2.359375v-6.828125l6.757813.988281 15.078125-103.386718h147.484375l13.933594 95.574218h-183.253907v6.824219l6.757813.988281zm0 0" fill="#54596e"/><path d="m362.265625 184.320312c0 15.082032-12.222656 27.304688-27.304687 27.304688-15.082032 0-27.308594-12.222656-27.308594-27.304688 0-15.082031 12.226562-27.308593 27.308594-27.308593 15.082031 0 27.304687 12.226562 27.304687 27.308593zm0 0" fill="#ffd578"/><path d="m362.265625 184.320312h6.828125c-.003906-18.855468-15.28125-34.128906-34.132812-34.132812-18.855469.003906-34.128907 15.277344-34.132813 34.132812.003906 18.851563 15.277344 34.128907 34.132813 34.132813 18.851562-.003906 34.128906-15.28125 34.132812-34.132813h-13.652344c-.023437 11.304688-9.175781 20.460938-20.480468 20.480469-11.308594-.019531-20.460938-9.175781-20.480469-20.480469.019531-11.308593 9.171875-20.460937 20.480469-20.480468 11.304687.019531 20.457031 9.171875 20.480468 20.480468zm0 0" fill="#54596e"/><path d="m102.851562 184.320312c0 15.082032-12.222656 27.304688-27.304687 27.304688s-27.308594-12.222656-27.308594-27.304688c0-15.082031 12.226563-27.308593 27.308594-27.308593s27.304687 12.226562 27.304687 27.308593zm0 0" fill="#ffd578"/><path d="m102.851562 184.320312h6.828126c-.003907-18.855468-15.28125-34.128906-34.132813-34.132812-18.855469.003906-34.128906 15.277344-34.132813 34.132812.003907 18.851563 15.277344 34.128907 34.132813 34.132813 18.851563-.003906 34.128906-15.28125 34.132813-34.132813h-13.652344c-.019532 11.304688-9.175782 20.460938-20.480469 20.480469-11.308594-.019531-20.460937-9.175781-20.480469-20.480469.019532-11.308593 9.171875-20.460937 20.480469-20.480468 11.304687.019531 20.460937 9.171875 20.480469 20.480468zm0 0" fill="#54596e"/><path d="m218.210938 409.601562h-25.914063c-27.671875-11.652343-71.167969-48.058593-93.757813-88.734374-21.660156-39-22.992187-81.925782-22.992187-110.714844v-32.660156h259.414063v32.660156c0 28.785156-1.332032 71.707031-22.988282 110.703125-22.589844 40.679687-66.089844 77.09375-93.761718 88.746093zm0 0" fill="#fff"/><path d="m218.210938 409.601562v-6.828124h-25.914063v6.828124l2.648437-6.292968c-12.730468-5.332032-30.160156-17.003906-46.832031-32.234375-16.710937-15.226563-32.800781-34.046875-43.605469-53.523438-20.699218-37.203125-22.164062-78.839843-22.132812-107.398437v-25.835938h245.757812v25.835938c.03125 28.554687-1.429687 70.1875-22.128906 107.390625-10.800781 19.476562-26.894531 38.296875-43.605468 53.527343-16.675782 15.234376-34.105469 26.90625-46.839844 32.238282l2.652344 6.292968v-6.828124 6.828124l2.648437 6.289063c14.941406-6.320313 33.09375-18.675781 50.738281-34.730469 17.601563-16.0625 34.558594-35.789062 46.34375-56.988281 22.617188-40.796875 23.816406-85.007813 23.847656-114.019531v-32.660156c0-1.796876-.730468-3.554688-2-4.828126-1.273437-1.269531-3.03125-1.996093-4.828124-1.996093h-259.414063c-1.796875 0-3.558594.726562-4.828125 1.996093-1.269531 1.273438-2 3.03125-2 4.828126v32.660156c.03125 29.015625 1.234375 73.234375 23.855469 114.027344 11.785156 21.199218 28.738281 40.925781 46.339843 56.984374 17.640626 16.050782 35.792969 28.410157 50.734376 34.726563.835937.355469 1.738281.535156 2.648437.535156h25.914063c.90625 0 1.808593-.183593 2.648437-.535156zm0 0" fill="#54596e"/><path d="m75.546875 201.652344c0 13.046875 13.402344 23.628906 29.933594 23.628906h199.546875c16.535156 0 29.933594-10.582031 29.933594-23.632812v-85.59375h-259.414063zm0 0" fill="#ffd578"/><g fill="#54596e"><path d="m75.546875 201.652344h-6.828125c-.003906 8.941406 4.644531 16.800781 11.363281 22.066406 6.75 5.3125 15.671875 8.378906 25.398438 8.390625h199.546875c9.722656-.011719 18.648437-3.078125 25.394531-8.390625 6.722656-5.265625 11.371094-13.125 11.363281-22.066406v-85.597656c0-1.800782-.726562-3.558594-2-4.828126-1.269531-1.273437-3.027344-2-4.824218-2h-259.414063c-1.796875 0-3.558594.726563-4.828125 2-1.269531 1.269532-2 3.03125-2 4.828126v85.59375h13.65625v-78.769532h245.757812v78.769532c-.007812 4.109374-2.054687 8.0625-6.167968 11.351562-4.085938 3.238281-10.128906 5.460938-16.9375 5.453125h-199.546875c-6.808594.007813-12.851563-2.214844-16.9375-5.453125-4.113281-3.289062-6.164063-7.242188-6.167969-11.351562h-6.828125zm0 0"/><path d="m171.121094 252.585938c0 18.851562 15.28125 34.132812 34.132812 34.132812 18.847656 0 34.132813-15.28125 34.132813-34.132812zm0 0"/><path d="m171.121094 252.585938h-6.828125c.003906 22.625 18.335937 40.957031 40.960937 40.960937 22.621094-.003906 40.953125-18.335937 40.960938-40.960937 0-1.796876-.730469-3.554688-2-4.828126-1.273438-1.269531-3.03125-1.996093-4.828125-1.996093h-68.265625c-1.796875 0-3.558594.726562-4.828125 1.996093-1.269531 1.273438-2 3.03125-2 4.828126h6.828125v6.828124h68.265625v-6.828124h-6.828125c-.003906 7.5625-3.046875 14.34375-7.996094 19.308593-4.964844 4.953125-11.75 7.996094-19.308594 8-7.5625-.003906-14.34375-3.046875-19.308594-8-4.953124-4.964843-7.996093-11.746093-8-19.308593h-6.824218v6.828124zm0 0"/></g><path d="m218.90625 273.066406c0-3.769531-6.113281-6.828125-13.652344-6.828125-7.542968 0-13.652344 3.058594-13.652344 6.828125 0 3.769532 6.109376 6.828125 13.652344 6.828125 7.539063 0 13.652344-3.058593 13.652344-6.828125zm0 0" fill="#ff927d"/><path d="m171.121094 174.078125c0 5.65625-4.585938 10.242187-10.242188 10.242187s-10.238281-4.585937-10.238281-10.242187c0-5.652344 4.582031-10.238281 10.238281-10.238281s10.242188 4.585937 10.242188 10.238281zm0 0" fill="#54596e"/><path d="m259.867188 174.078125c0 5.65625-4.585938 10.242187-10.242188 10.242187-5.652344 0-10.238281-4.585937-10.238281-10.242187 0-5.652344 4.585937-10.238281 10.238281-10.238281 5.65625 0 10.242188 4.585937 10.242188 10.238281zm0 0" fill="#54596e"/><path d="m198.425781 382.292969v20.480469c0 3.769531 3.058594 6.828124 6.828125 6.828124 3.769532 0 6.824219-3.058593 6.824219-6.828124v-20.480469c0-3.769531-3.054687-6.828125-6.824219-6.828125-3.769531 0-6.828125 3.058594-6.828125 6.828125" fill="#54596e"/><path d="m78.960938 34.132812-3.414063 54.898438h47.785156zm0 0" fill="#fff35f"/><path d="m78.960938 34.132812-6.8125-.425781-3.414063 54.898438c-.117187 1.871093.554687 3.730469 1.835937 5.097656 1.285157 1.367187 3.101563 2.152344 4.976563 2.152344h47.785156c2.632813 0 5.027344-1.507813 6.160157-3.886719 1.136718-2.375.804687-5.183594-.851563-7.230469l-44.371094-54.898437c-1.777343-2.195313-4.695312-3.070313-7.386719-2.210938-2.691406.859375-4.5625 3.261719-4.738281 6.078125l6.816407.425781-5.308594 4.292969 35.386718 43.777344h-26.230468l2.964844-47.648437-6.8125-.421876-5.308594 4.292969zm0 0" fill="#54596e"/><path d="m133.574219 13.652344-10.242188 75.09375h47.789063zm0 0" fill="#fff35f"/><path d="m133.574219 13.652344-6.765625-.921875-10.238282 75.09375c-.265624 1.957031.320313 3.921875 1.621094 5.410156 1.296875 1.492187 3.164063 2.339844 5.140625 2.339844h47.789063c2.371094 0 4.558594-1.21875 5.808594-3.238281 1.246093-2.015626 1.359374-4.519532.296874-6.640626l-37.546874-75.09375c-1.339844-2.675781-4.273438-4.171874-7.222657-3.683593s-5.242187 2.851562-5.648437 5.8125l6.765625.921875-6.105469 3.054687 32.605469 65.210938h-28.921875l9.183594-67.34375-6.761719-.921875-6.105469 3.054687zm0 0" fill="#54596e"/><path d="m231.859375 88.746094-26.605469-81.917969-26.609375 81.917969h-116.75l6.824219 47.789062 136.535156-6.828125 136.53125 6.828125 6.828125-47.789062zm0 0" fill="#fff35f"/><path d="m231.859375 88.746094 6.492187-2.109375-26.605468-81.917969c-.910156-2.804688-3.542969-4.71875-6.492188-4.71875-2.949218 0-5.582031 1.914062-6.492187 4.71875l-25.074219 77.203125h-111.792969c-1.976562 0-3.863281.859375-5.160156 2.351563-1.292969 1.492187-1.878906 3.480468-1.597656 5.4375l6.824219 47.789062c.5 3.484375 3.582031 6.027344 7.101562 5.851562l136.191406-6.808593 136.191406 6.808593c3.519532.175782 6.601563-2.367187 7.101563-5.851562l6.828125-47.789062c.277344-1.953126-.308594-3.945313-1.601562-5.4375-1.292969-1.492188-3.183594-2.351563-5.160157-2.351563h-116.753906v6.824219l6.492187-2.109375-6.492187 2.109375v6.828125h108.882813l-4.832032 33.832031-130.316406-6.519531h-.683594l-130.3125 6.515625-4.832031-33.832032h108.878906c2.949219 0 5.585938-1.914062 6.492188-4.714843l20.117187-61.929688 20.113282 61.929688c.914062 2.804687 3.546874 4.714843 6.492187 4.714843zm0 0" fill="#54596e"/><path d="m276.933594 13.652344-37.546875 74.527344h47.785156zm0 0" fill="#fff35f"/><path d="m276.933594 13.652344-6.097656-3.070313-37.546876 74.527344c-1.066406 2.117187-.960937 4.628906.285157 6.648437 1.246093 2.019532 3.441406 3.246094 5.8125 3.246094h47.789062c1.972657 0 3.847657-.851562 5.144531-2.339844 1.300782-1.488281 1.886719-3.457031 1.617188-5.414062l-10.238281-74.527344c-.410157-2.960937-2.695313-5.3125-5.644531-5.804687-2.949219-.492188-5.871094.992187-7.214844 3.664062l6.09375 3.070313-6.765625.929687 9.175781 66.769531h-28.875l32.5625-64.625-6.097656-3.074218-6.765625.929687zm0 0" fill="#54596e"/><path d="m331.546875 33-44.375 54.898438h47.789063zm0 0" fill="#fff35f"/><path d="m331.546875 33-5.308594-4.292969-44.375 54.898438c-1.65625 2.046875-1.984375 4.855469-.851562 7.230469 1.136719 2.378906 3.527343 3.886718 6.160156 3.886718h47.789063c1.875 0 3.6875-.785156 4.972656-2.152344 1.285156-1.367187 1.957031-3.226562 1.839844-5.097656l-3.414063-54.898437c-.175781-2.816407-2.046875-5.222657-4.738281-6.078125-2.691406-.859375-5.609375.015625-7.386719 2.210937l5.3125 4.292969-6.8125.421875 2.960937 47.648437h-26.226562l35.386719-43.78125-5.308594-4.289062-6.8125.421875zm0 0" fill="#54596e"/></svg>