<?xml version="1.0" encoding="iso-8859-1"?>
<!-- Generator: Adobe Illustrator 21.0.0, SVG Export Plug-In . SVG Version: 6.00 Build 0)  -->
<svg version="1.1" id="Layer_1" xmlns="http://www.w3.org/2000/svg" xmlns:xlink="http://www.w3.org/1999/xlink" x="0px" y="0px"
	 viewBox="0 0 100.353 100.353" style="enable-background:new 0 0 100.353 100.353;" xml:space="preserve">
<path d="M78.68,27.971l-11.23-0.125v-7.359c0-9.725-7.913-17.636-17.638-17.636c-9.724,0-17.635,7.912-17.635,17.636v6.965
	l-10.823-0.121c-0.41,0.009-0.787,0.152-1.071,0.434c-0.285,0.282-0.445,0.666-0.445,1.066v66.818c0,0.829,0.671,1.5,1.5,1.5h57.327
	c0.829,0,1.5-0.671,1.5-1.5V29.472C80.164,28.65,79.502,27.981,78.68,27.971z M35.177,20.487c0-8.07,6.565-14.636,14.635-14.636
	c8.071,0,14.638,6.566,14.638,14.636v7.325l-29.273-0.327V20.487z M77.164,94.149H22.837V30.348l9.34,0.104v4.493
	c-2.069,0.677-3.579,2.603-3.579,4.896c0,2.853,2.321,5.173,5.173,5.173s5.173-2.321,5.173-5.173c0-2.362-1.601-4.338-3.768-4.955
	v-4.4l29.273,0.327v4.103c-2.118,0.648-3.673,2.598-3.673,4.925c0,2.853,2.321,5.173,5.173,5.173s5.173-2.321,5.173-5.173
	c0-2.327-1.555-4.278-3.673-4.925v-4.069l9.714,0.109v63.193H77.164z M33.771,37.668c1.198,0,2.173,0.975,2.173,2.173
	s-0.975,2.173-2.173,2.173s-2.173-0.975-2.173-2.173S32.573,37.668,33.771,37.668z M65.95,37.668c1.198,0,2.173,0.975,2.173,2.173
	s-0.975,2.173-2.173,2.173s-2.173-0.975-2.173-2.173S64.752,37.668,65.95,37.668z"/>
</svg>
