<?xml version="1.0" encoding="iso-8859-1"?>
<!-- Generator: Adobe Illustrator 21.0.2, SVG Export Plug-In . SVG Version: 6.00 Build 0)  -->
<svg version="1.1" id="Layer_1" xmlns="http://www.w3.org/2000/svg" xmlns:xlink="http://www.w3.org/1999/xlink" x="0px" y="0px"
	 viewBox="0 0 100.353 100.352" style="enable-background:new 0 0 100.353 100.352;" xml:space="preserve">
<g>
	<path d="M84.395,7.881H15.959c-0.829,0-1.5,0.671-1.5,1.5v81.591c0,0.828,0.671,1.5,1.5,1.5h68.437c0.828,0,1.5-0.672,1.5-1.5
		V9.381C85.895,8.552,85.223,7.881,84.395,7.881z M82.895,89.471H17.459v-78.59h65.437L82.895,89.471L82.895,89.471z"/>
	<path d="M25.254,40.175h50.3c0.829,0,1.5-0.672,1.5-1.5V18.216c0-0.829-0.671-1.5-1.5-1.5h-50.3c-0.829,0-1.5,0.671-1.5,1.5v20.458
		C23.754,39.503,24.425,40.175,25.254,40.175z M26.754,19.717h47.3v17.458h-47.3C26.754,37.175,26.754,19.717,26.754,19.717z"/>
	<path d="M35.968,47.476H25.782c-0.829,0-1.5,0.672-1.5,1.5v10.187c0,0.828,0.671,1.5,1.5,1.5h10.186c0.829,0,1.5-0.672,1.5-1.5
		V48.976C37.468,48.148,36.796,47.476,35.968,47.476z M34.468,57.663h-7.186v-7.187h7.186V57.663z"/>
	<path d="M35.968,67.214H25.782c-0.829,0-1.5,0.672-1.5,1.5V78.9c0,0.828,0.671,1.5,1.5,1.5h10.186c0.829,0,1.5-0.672,1.5-1.5
		V68.714C37.468,67.885,36.796,67.214,35.968,67.214z M34.468,77.4h-7.186v-7.187h7.186V77.4z"/>
	<path d="M75.025,47.476H64.84c-0.829,0-1.5,0.672-1.5,1.5v10.187c0,0.828,0.671,1.5,1.5,1.5h10.186c0.829,0,1.5-0.672,1.5-1.5
		V48.976C76.525,48.148,75.854,47.476,75.025,47.476z M73.525,57.663H66.34v-7.187h7.186L73.525,57.663L73.525,57.663z"/>
	<path d="M75.025,67.214H64.84c-0.829,0-1.5,0.672-1.5,1.5V78.9c0,0.828,0.671,1.5,1.5,1.5h10.186c0.829,0,1.5-0.672,1.5-1.5V68.714
		C76.525,67.885,75.854,67.214,75.025,67.214z M73.525,77.4H66.34v-7.187h7.186L73.525,77.4L73.525,77.4z"/>
	<path d="M55.831,47.141H45.648c-0.829,0-1.5,0.672-1.5,1.5v10.187c0,0.828,0.671,1.5,1.5,1.5h10.183c0.829,0,1.5-0.672,1.5-1.5
		V48.641C57.331,47.813,56.659,47.141,55.831,47.141z M54.331,57.328h-7.183v-7.187h7.183V57.328z"/>
	<path d="M55.831,66.878H45.648c-0.829,0-1.5,0.672-1.5,1.5v10.188c0,0.828,0.671,1.5,1.5,1.5h10.183c0.829,0,1.5-0.672,1.5-1.5
		V68.378C57.331,67.55,56.659,66.878,55.831,66.878z M54.331,77.065h-7.183v-7.188h7.183V77.065z"/>
</g>
</svg>
