<?xml version="1.0" encoding="iso-8859-1"?>
<!-- Generator: Adobe Illustrator 21.0.0, SVG Export Plug-In . SVG Version: 6.00 Build 0)  -->
<svg version="1.1" id="Layer_1" xmlns="http://www.w3.org/2000/svg" xmlns:xlink="http://www.w3.org/1999/xlink" x="0px" y="0px"
	 viewBox="0 0 100.353 100.353" style="enable-background:new 0 0 100.353 100.353;" xml:space="preserve">
<g>
	<path d="M54.85,40.543c-0.621-0.548-1.568-0.49-2.117,0.132L31.942,64.229c-0.548,0.621-0.489,1.569,0.132,2.117
		c0.285,0.252,0.639,0.375,0.992,0.375c0.415,0,0.829-0.171,1.125-0.507L54.982,42.66C55.53,42.039,55.471,41.092,54.85,40.543z"/>
	<path d="M35.893,50.725c1.686-0.72,2.992-2.055,3.678-3.757c0.686-1.704,0.667-3.572-0.051-5.261
		c-0.719-1.69-2.054-2.999-3.756-3.684c-3.511-1.417-7.525,0.292-8.95,3.811c-0.686,1.704-0.665,3.573,0.06,5.264
		c0.723,1.689,2.061,2.996,3.763,3.681c0.829,0.334,1.696,0.5,2.563,0.5C34.113,51.28,35.027,51.095,35.893,50.725z M29.631,45.918
		c-0.408-0.953-0.42-2.005-0.035-2.96c0.612-1.512,2.07-2.433,3.605-2.433c0.48,0,0.969,0.09,1.441,0.281
		c0.96,0.386,1.711,1.123,2.117,2.075s0.415,2.005,0.028,2.965c-0.387,0.961-1.123,1.713-2.073,2.119
		c-0.951,0.405-2,0.416-2.957,0.031C30.795,47.61,30.04,46.871,29.631,45.918z"/>
	<path d="M86.57,43.795c-0.011-0.398-0.181-0.775-0.471-1.049c-0.289-0.273-0.666-0.42-1.075-0.408l-8.622,0.263l1.946-6.125
		c0.12-0.379,0.085-0.791-0.098-1.144c-0.183-0.354-0.499-0.62-0.878-0.74L63.13,30.067L60.703,3.913
		c-0.072-0.771-0.805-1.361-1.58-1.361c-0.626,0-1.186,0.389-1.405,0.975l-8.294,22.186l-24.732-7.859
		c-0.786-0.249-1.632,0.186-1.884,0.976L6.069,71.508c-0.251,0.79,0.186,1.633,0.976,1.884l26.876,8.541l0.398,14.06
		c0.023,0.813,0.69,1.458,1.499,1.458c0.015,0,0.029,0,0.043,0l50.682-1.429c0.397-0.011,0.774-0.18,1.048-0.469
		c0.273-0.289,0.42-0.675,0.409-1.073L86.57,43.795z M58.305,10.526l1.721,18.554l-7.739-2.459L58.305,10.526z M25.214,21.167
		l49.821,15.83l-15.83,49.821L9.383,70.986L25.214,21.167z M37.276,94.406L36.95,82.893l22.776,7.238
		c0.148,0.047,0.301,0.07,0.454,0.07c0.238,0,0.475-0.057,0.689-0.168c0.354-0.183,0.62-0.499,0.74-0.878l13.829-43.523l8.174-0.25
		l1.346,47.68L37.276,94.406z"/>
	<path d="M53.864,58.533c-1.703-0.687-3.573-0.67-5.265,0.051c-1.69,0.72-2.999,2.054-3.685,3.758
		c-0.686,1.702-0.666,3.57,0.055,5.26c0.721,1.69,2.058,2.998,3.761,3.681c0.83,0.335,1.7,0.502,2.568,0.502
		c0.913,0,1.825-0.185,2.689-0.553c1.69-0.719,2.998-2.054,3.684-3.759c0.686-1.704,0.667-3.572-0.051-5.259
		C56.902,60.525,55.567,59.218,53.864,58.533z M54.889,66.353c-0.386,0.96-1.123,1.712-2.075,2.118
		c-0.951,0.406-2.002,0.415-2.964,0.028c-0.961-0.385-1.714-1.122-2.121-2.075c-0.406-0.952-0.417-2.004-0.031-2.962
		c0.386-0.96,1.124-1.713,2.077-2.119c0.488-0.208,1.002-0.312,1.517-0.312c0.491,0,0.982,0.095,1.452,0.284
		c0.96,0.386,1.712,1.123,2.117,2.073C55.265,64.339,55.275,65.392,54.889,66.353z"/>
</g>
</svg>
