<?xml version="1.0" encoding="utf-8"?>
<!-- Generator: Adobe Illustrator 21.1.0, SVG Export Plug-In . SVG Version: 6.00 Build 0)  -->
<svg version="1.1" id="Layer_1" xmlns="http://www.w3.org/2000/svg" xmlns:xlink="http://www.w3.org/1999/xlink" x="0px" y="0px"
	 viewBox="0 0 100.4 100.4" style="enable-background:new 0 0 100.4 100.4;" xml:space="preserve">
<g>
	<path d="M50,49.5c-20.9,0-37.9,17-37.9,37.9c0,0.8,0.7,1.5,1.5,1.5h19.9c3.3,5.5,9.3,9.3,16.1,9.3s12.9-3.7,16.1-9.3h20.6
		c0.8,0,1.5-0.7,1.5-1.5C87.9,66.5,70.9,49.5,50,49.5z M15.2,85.9c0.5-11.6,6.6-21.7,15.7-27.7v21.2c0,2.3,0.4,4.4,1.2,6.5H15.2z
		 M49.6,95.1c-8.7,0-15.7-7.1-15.7-15.7v-23c4.8-2.5,10.3-4,16.1-4c5.5,0,10.7,1.3,15.4,3.6v23.3c0,2.6-0.6,5-1.7,7.1
		c-0.1,0.1-0.1,0.2-0.2,0.3C60.8,91.8,55.6,95.1,49.6,95.1z M67.2,85.9c0.7-2,1.2-4.2,1.2-6.5V57.7c9.5,5.9,16,16.3,16.5,28.1H67.2z
		"/>
	<path d="M49.4,45.4c12,0,21.8-9.8,21.8-21.8c0-0.5,0-1-0.1-1.5h8.5c0.8,0,1.5-0.7,1.5-1.5s-0.7-1.5-1.5-1.5h-8.9
		C68.6,9.3,59.8,1.9,49.4,1.9c-12,0-21.8,9.8-21.8,21.8C27.6,35.6,37.4,45.4,49.4,45.4z M49.4,4.9c8.8,0,16.2,6.1,18.2,14.3H31.2
		C33.2,11,40.6,4.9,49.4,4.9z M30.7,22.2H68c0,0.5,0.1,1,0.1,1.5c0,10.3-8.4,18.8-18.8,18.8S30.6,34,30.6,23.6
		C30.6,23.1,30.6,22.6,30.7,22.2z"/>
</g>
</svg>
