<?xml version="1.0" encoding="iso-8859-1"?>
<!-- Generator: Adobe Illustrator 21.1.0, SVG Export Plug-In . SVG Version: 6.00 Build 0)  -->
<svg version="1.1" id="Layer_1" xmlns="http://www.w3.org/2000/svg" xmlns:xlink="http://www.w3.org/1999/xlink" x="0px" y="0px"
	 viewBox="0 0 100.176 100.178" style="enable-background:new 0 0 100.176 100.178;" xml:space="preserve">
<path d="M84.5,34.481c0-0.005-0.002-0.01-0.002-0.016c-0.001-0.06-0.01-0.119-0.018-0.179c-0.005-0.04-0.006-0.081-0.015-0.121
	c-0.009-0.039-0.025-0.078-0.036-0.117c-0.017-0.057-0.033-0.115-0.057-0.17c-0.002-0.005-0.003-0.01-0.005-0.015
	C78.211,20.223,65.363,12.079,50,12.079c-20.911,0-37.924,17.012-37.924,37.922c0,20.91,17.013,37.921,37.924,37.921
	c7.945,0,15.553-2.432,21.999-7.031c0.675-0.48,0.831-1.418,0.35-2.092c-0.48-0.675-1.419-0.831-2.092-0.35
	c-5.936,4.234-12.94,6.473-20.257,6.473c-19.257,0-34.924-15.666-34.924-34.921c0-19.256,15.667-34.922,34.924-34.922
	c14.257,0,25.716,7.198,31.5,19.75l0.007,20.228c0,4.461-3.629,8.091-8.089,8.091c-4.352,0-8.313-3.977-8.468-8.415
	c0.454-1.499,0.704-3.087,0.704-4.732c0-9.018-7.337-16.354-16.354-16.354s-16.354,7.336-16.354,16.354
	c0,9.018,7.336,16.354,16.354,16.354c5.682,0,10.692-2.916,13.624-7.326c1.822,4.102,5.948,7.119,10.494,7.119
	c6.114,0,11.089-4.976,11.089-11.092L84.5,34.481z M49.3,63.355c-7.363,0-13.354-5.99-13.354-13.354
	c0-7.363,5.991-13.354,13.354-13.354s13.354,5.991,13.354,13.354c0,1.323-0.2,2.599-0.56,3.807
	c-0.063,0.129-0.109,0.266-0.134,0.412C60.189,59.52,55.188,63.355,49.3,63.355z"/>
</svg>
