<?xml version="1.0" encoding="utf-8"?>
<!-- Generator: Adobe Illustrator 21.1.0, SVG Export Plug-In . SVG Version: 6.00 Build 0)  -->
<svg version="1.1" id="Layer_1" xmlns="http://www.w3.org/2000/svg" xmlns:xlink="http://www.w3.org/1999/xlink" x="0px" y="0px"
	 viewBox="0 0 100.4 100.4" style="enable-background:new 0 0 100.4 100.4;" xml:space="preserve">
<g>
	<path d="M50,54.1c-20.9,0-37.9,17-37.9,37.9c0,0.8,0.7,1.5,1.5,1.5h72.7c0.8,0,1.5-0.7,1.5-1.5C87.9,71.1,70.9,54.1,50,54.1z
		 M50,57.1c4.6,0,9.1,0.9,13.1,2.6L50.5,69L37,59.7C41,58,45.4,57.1,50,57.1z M15.2,90.5c0.5-12.7,8-23.7,18.6-29.4L49.7,72
		c0.3,0.2,0.6,0.3,0.8,0.3c0.3,0,0.6-0.1,0.9-0.3l14.8-10.9c10.7,5.6,18.1,16.6,18.6,29.4H15.2z"/>
	<path d="M49.4,50c12,0,21.8-9.8,21.8-21.8c0-12-9.8-21.8-21.8-21.8s-21.8,9.8-21.8,21.8C27.6,40.3,37.4,50,49.4,50z M49.4,9.5
		c8,0,14.8,5,17.5,12c-0.9-0.5-2-1.1-3-1.7c-4.2-2.5-7.1-4.1-9-3.9c-3.8,0.3-6,1.8-8.4,3.3c-1.3,0.8-2.7,1.7-4.4,2.4l-0.5,0.2
		c-3.7,1.5-6,2.5-10.5,3C32.6,16.1,40.2,9.5,49.4,9.5z M30.6,27.8c5.4-0.5,8.1-1.6,12-3.3l0.5-0.2c2-0.8,3.5-1.8,4.9-2.7
		c2.2-1.4,4.1-2.6,7.1-2.8c1.1-0.1,4.9,2.2,7.2,3.5c2.3,1.4,4.2,2.5,5.6,2.9c0.2,1,0.3,2,0.3,3c0,10.3-8.4,18.8-18.8,18.8
		s-18.8-8.4-18.8-18.8C30.6,28.1,30.6,28,30.6,27.8z"/>
</g>
</svg>
