<?xml version="1.0" encoding="iso-8859-1"?>
<!-- Generator: Adobe Illustrator 21.1.0, SVG Export Plug-In . SVG Version: 6.00 Build 0)  -->
<svg version="1.1" id="Layer_1" xmlns="http://www.w3.org/2000/svg" xmlns:xlink="http://www.w3.org/1999/xlink" x="0px" y="0px"
	 viewBox="0 0 100.353 100.352" style="enable-background:new 0 0 100.353 100.352;" xml:space="preserve">
<g>
	<path d="M8.218,39.791c0.136,0.038,0.273,0.057,0.408,0.057c0.654,0,1.256-0.432,1.443-1.093
		c3.682-13.05,13.748-23.566,26.523-27.908L34.5,16.461c-0.289,0.776,0.106,1.64,0.882,1.93c0.173,0.064,0.35,0.095,0.524,0.095
		c0.608,0,1.181-0.373,1.406-0.977l3.296-8.845c0.288-0.774-0.103-1.635-0.875-1.927l-8.99-3.398
		c-0.776-0.293-1.641,0.098-1.934,0.873c-0.292,0.775,0.098,1.641,0.873,1.934l5.392,2.038c-13.44,4.77-23.995,15.948-27.891,29.757
		C6.957,38.737,7.42,39.566,8.218,39.791z"/>
	<path d="M38.585,89.808C25.528,86.11,15.009,76.01,10.689,63.21l5.91,2.098c0.78,0.28,1.638-0.131,1.916-0.911
		s-0.131-1.639-0.912-1.915l-8.895-3.158c-0.78-0.279-1.633,0.129-1.913,0.904L3.537,69.27c-0.281,0.779,0.124,1.64,0.903,1.92
		c0.168,0.061,0.339,0.089,0.508,0.089c0.614,0,1.191-0.38,1.411-0.991l1.838-5.1c4.84,13.245,15.914,23.64,29.571,27.508
		c0.137,0.039,0.274,0.057,0.41,0.057c0.654,0,1.255-0.431,1.442-1.091C39.846,90.863,39.382,90.033,38.585,89.808z"/>
	<path d="M91.532,60.254c-0.794-0.229-1.626,0.236-1.852,1.035C85.995,74.318,75.942,84.82,63.188,89.164l2.602-5.866
		c0.336-0.758-0.006-1.644-0.763-1.979c-0.762-0.338-1.645,0.006-1.979,0.763l-3.827,8.629c-0.335,0.755,0.003,1.639,0.757,1.977
		l8.768,3.938c0.199,0.09,0.408,0.132,0.613,0.132c0.572,0,1.119-0.329,1.369-0.886c0.34-0.755,0.002-1.644-0.754-1.982
		l-4.906-2.204c13.244-4.842,23.636-15.917,27.5-29.579C92.793,61.309,92.329,60.48,91.532,60.254z"/>
	<path d="M95.669,28.216c-0.757-0.34-1.644-0.003-1.983,0.751l-2.366,5.253C86.364,21.27,75.432,11.131,61.988,7.323
		c-0.795-0.225-1.626,0.237-1.853,1.035c-0.226,0.797,0.237,1.626,1.034,1.852c12.648,3.581,22.915,13.171,27.474,25.401
		l-5.554-2.47c-0.759-0.337-1.644,0.004-1.979,0.761c-0.337,0.757,0.004,1.643,0.761,1.98l8.625,3.836
		c0.198,0.088,0.405,0.13,0.608,0.13c0.572,0,1.118-0.329,1.368-0.884L96.42,30.2C96.761,29.445,96.424,28.556,95.669,28.216z"/>
	<path d="M62.299,61.814c0.053-0.052,0.102-0.104,0.138-0.149c3.383-4.291,6.417-16.077,6.874-19.066
		c0.477-3.14,2.158-13.941,2.158-13.942c0.097-0.625-0.22-1.232-0.775-1.536c-0.554-0.303-1.252-0.215-1.726,0.205
		c-0.014,0.012-1.41,1.219-6.537,3.218c-5.39,2.102-20.588,9.203-21.316,9.547c-5.109,2.792-8.284,8.095-8.284,13.838
		c0,3.991,1.497,7.631,3.944,10.418l-4.329,4.998c-0.542,0.627-0.475,1.574,0.152,2.116c0.284,0.246,0.633,0.366,0.981,0.366
		c0.42,0,0.838-0.176,1.134-0.518l4.246-4.903c2.681,2.088,6.04,3.344,9.694,3.344C54.258,69.751,59.461,66.717,62.299,61.814z
		 M35.831,53.929c0-4.646,2.576-8.94,6.638-11.163c0.157-0.073,15.752-7.361,21.051-9.427c0.061-0.024,0.111-0.045,0.171-0.069
		l-24.94,28.795C36.928,59.85,35.831,57.015,35.831,53.929z M48.654,66.751c-2.903,0-5.576-0.981-7.728-2.614l26.802-30.945
		c-0.508,3.272-1.124,7.246-1.383,8.954c-0.524,3.432-3.527,14.02-6.171,17.54c-0.056,0.047-0.108,0.095-0.146,0.135
		c-0.084,0.09-0.156,0.189-0.216,0.296C57.535,64.209,53.26,66.751,48.654,66.751z"/>
</g>
</svg>
