<?xml version="1.0" encoding="iso-8859-1"?>
<!-- Generator: Adobe Illustrator 21.1.0, SVG Export Plug-In . SVG Version: 6.00 Build 0)  -->
<svg version="1.1" id="Layer_1" xmlns="http://www.w3.org/2000/svg" xmlns:xlink="http://www.w3.org/1999/xlink" x="0px" y="0px"
	 viewBox="0 0 100.353 100.352" style="enable-background:new 0 0 100.353 100.352;" xml:space="preserve">
<g>
	<path d="M41.76,45.383c-7.691,0-13.949,6.258-13.949,13.949s6.257,13.948,13.949,13.948s13.949-6.257,13.949-13.948
		S49.451,45.383,41.76,45.383z M41.76,70.281c-6.037,0-10.949-4.911-10.949-10.948s4.912-10.949,10.949-10.949
		c6.038,0,10.949,4.912,10.949,10.949S47.797,70.281,41.76,70.281z"/>
	<path d="M12.399,45.384c-0.829,0-1.5,0.671-1.5,1.5v24.896c0,0.828,0.671,1.5,1.5,1.5s1.5-0.672,1.5-1.5V46.884
		C13.899,46.055,13.228,45.384,12.399,45.384z"/>
	<path d="M70.648,45.384c-0.828,0-1.5,0.671-1.5,1.5v24.896c0,0.828,0.672,1.5,1.5,1.5s1.5-0.672,1.5-1.5V46.884
		C72.148,46.055,71.477,45.384,70.648,45.384z"/>
	<path d="M95.287,19.142H21.869c-0.829,0-1.5,0.671-1.5,1.5v7.419h-6.72c-0.829,0-1.5,0.671-1.5,1.5v8.248H4.714
		c-0.829,0-1.5,0.671-1.5,1.5v40.047c0,0.828,0.671,1.5,1.5,1.5h73.419c0.828,0,1.5-0.672,1.5-1.5v-8.248h7.436
		c0.828,0,1.5-0.672,1.5-1.5v-7.419h6.719c0.828,0,1.5-0.672,1.5-1.5V20.642C96.787,19.813,96.115,19.142,95.287,19.142z
		 M6.214,77.856V40.809h70.419v28.789c0,0.003-0.001,0.006-0.001,0.01s0.001,0.006,0.001,0.01v8.238H6.214z M85.568,68.108h-5.936
		V39.309c0-0.829-0.672-1.5-1.5-1.5H15.149v-6.748h70.419V68.108z M93.787,59.189h-5.219V29.561c0-0.829-0.672-1.5-1.5-1.5H23.369
		v-5.919h70.418V59.189z"/>
</g>
</svg>
