<?xml version="1.0" encoding="iso-8859-1"?>
<!-- Generator: Adobe Illustrator 21.1.0, SVG Export Plug-In . SVG Version: 6.00 Build 0)  -->
<svg version="1.1" id="Layer_1" xmlns="http://www.w3.org/2000/svg" xmlns:xlink="http://www.w3.org/1999/xlink" x="0px" y="0px"
	 viewBox="0 0 100.353 100.353" style="enable-background:new 0 0 100.353 100.353;" xml:space="preserve">
<g>
	<path d="M88.8,32.914L80.494,7.996C80.29,7.383,79.717,6.97,79.071,6.97H20.93c-0.646,0-1.219,0.413-1.423,1.026l-8.306,24.918
		c-0.051,0.153-0.077,0.313-0.077,0.474v58.141c0,0.828,0.671,1.5,1.5,1.5h74.753c0.828,0,1.5-0.672,1.5-1.5V33.388
		C88.877,33.227,88.851,33.067,88.8,32.914z M85.498,32.493c-3.075,2.249-6.513,3.316-10.757,3.316
		c-3.841,0-7.548-1.195-10.781-3.439V9.97H77.99L85.498,32.493z M39.042,9.97h21.917v22.403c-3.23,2.242-6.937,3.437-10.779,3.437
		c-3.99,0-7.822-1.291-11.138-3.712V9.97z M22.011,9.97h14.031v22.128c-3.316,2.421-7.147,3.712-11.138,3.712
		c-3.761,0-7.352-1.088-10.461-3.135L22.011,9.97z M14.124,90.029V35.987c3.279,1.843,6.953,2.823,10.78,2.823
		c4.523,0,8.869-1.405,12.638-4.076c3.769,2.671,8.115,4.076,12.638,4.076c4.373,0,8.596-1.314,12.28-3.811
		c3.687,2.497,7.909,3.811,12.28,3.811c4.232,0,7.894-0.986,11.137-2.967v54.186H14.124z"/>
	<path d="M64.807,45.888H35.194c-0.829,0-1.5,0.671-1.5,1.5v27.529c0,0.828,0.671,1.5,1.5,1.5h29.613c0.828,0,1.5-0.672,1.5-1.5
		V47.388C66.307,46.559,65.635,45.888,64.807,45.888z M36.694,48.888h11.959v24.529H36.694V48.888z M63.307,73.417H51.652V48.888
		h11.654V73.417z"/>
</g>
</svg>
