<?xml version="1.0" encoding="iso-8859-1"?>
<!-- Generator: Adobe Illustrator 21.1.0, SVG Export Plug-In . SVG Version: 6.00 Build 0)  -->
<svg version="1.1" id="Layer_1" xmlns="http://www.w3.org/2000/svg" xmlns:xlink="http://www.w3.org/1999/xlink" x="0px" y="0px"
	 viewBox="0 0 100.354 100.352" style="enable-background:new 0 0 100.354 100.352;" xml:space="preserve">
<path d="M94.384,49.638h-7.759V36.544c0-0.829-0.672-1.5-1.5-1.5H60.824V21.977c0-0.829-0.672-1.5-1.5-1.5H5.618
	c-0.829,0-1.5,0.671-1.5,1.5v49.185c0,0.828,0.671,1.5,1.5,1.5h12.538c0.52,3.867,3.832,6.861,7.838,6.861s7.318-2.994,7.838-6.861
	h25.492h9.686c0.52,3.867,3.834,6.861,7.844,6.861s7.324-2.994,7.845-6.861h9.686c0.828,0,1.5-0.672,1.5-1.5V51.138
	C95.884,50.309,95.212,49.638,94.384,49.638z M25.994,76.523c-2.711,0-4.917-2.207-4.917-4.92s2.206-4.92,4.917-4.92
	s4.917,2.207,4.917,4.92S28.706,76.523,25.994,76.523z M25.994,63.683c-3.695,0-6.797,2.549-7.666,5.979H7.118V23.477h50.706v13.067
	v14.594v18.523H33.661C32.792,66.232,29.689,63.683,25.994,63.683z M76.854,76.523c-2.715,0-4.923-2.207-4.923-4.92
	s2.208-4.92,4.923-4.92s4.924,2.207,4.924,4.92S79.568,76.523,76.854,76.523z M92.884,69.661h-8.357
	c-0.87-3.43-3.975-5.979-7.673-5.979s-6.803,2.549-7.672,5.979h-8.357V51.138V38.044h22.801v13.094c0,0.828,0.672,1.5,1.5,1.5h7.759
	V69.661z"/>
</svg>
