<?xml version="1.0" encoding="utf-8"?>
<!-- Generator: Adobe Illustrator 21.1.0, SVG Export Plug-In . SVG Version: 6.00 Build 0)  -->
<svg version="1.1" id="Layer_1" xmlns="http://www.w3.org/2000/svg" xmlns:xlink="http://www.w3.org/1999/xlink" x="0px" y="0px"
	 viewBox="0 0 100.4 100.4" style="enable-background:new 0 0 100.4 100.4;" xml:space="preserve">
<g>
	<path d="M32.4,45.1c0.1,0,0.1,0,0.2,0c0.1,0,0.2,0,0.3,0c3.9,5.6,10.3,9.1,17.4,9.1c7.5,0,14.1-3.9,17.9-9.8c2.7-0.6,5.5-4.7,6-5.6
		c1.6-2.7,2.3-5.1,2.3-8.2C76.5,16,64.6,4.2,50.1,4.2h-0.1C35.4,4.2,23.5,16,23.5,30.6v5.6c0,2.4,1,4.7,2.7,6.4
		C27.9,44.2,30.1,45.1,32.4,45.1z M50.3,51.2c-7.1,0-13.5-4.1-16.5-10.6l1.6-1c5-3.2,10.8-6.8,14.2-10.4c5.4-5.6,9.4-9.9,10.8-11.4
		c5.1,3.3,8.2,9,8.2,15.2C68.5,43,60.3,51.2,50.3,51.2z M26.5,30.6C26.5,17.7,37,7.2,49.9,7.2h0.1c12.9,0,23.4,10.5,23.4,23.4
		c0,2.1-0.3,4-1.8,6.6c-0.3,0.4-0.6,0.8-0.9,1.3c0.5-1.7,0.7-3.5,0.7-5.4c0-7.2-3.7-13.9-9.7-17.8c-0.7-0.5-1.4-0.6-2-0.6
		c-0.7,0.1-1.1,0.6-1.8,1.3c-1.5,1.6-5.4,5.7-10.6,11.2c-3.2,3.3-9,7-13.6,9.9L32,38.2c-0.6,0.4-1,1-1.2,1.7
		c-0.2,0.3-0.3,0.8-0.1,1.2c0,0.3,0,0.5,0,0.8c-0.9-0.3-1.8-0.8-2.5-1.5c-1.1-1.1-1.8-2.6-1.8-4.2L26.5,30.6L26.5,30.6z"/>
	<path d="M50,57.5c-20.3,0-36.8,16.5-36.8,36.8c0,0.8,0.7,1.5,1.5,1.5h70.7c0.8,0,1.5-0.7,1.5-1.5C86.8,74,70.3,57.5,50,57.5z
		 M68.5,66C65.8,73.9,58.4,79.2,50,79.2c-8.4,0-15.8-5.3-18.5-13.2c5.3-3.5,11.7-5.5,18.5-5.5S63.2,62.5,68.5,66z M16.2,92.8
		c0.4-10.1,5.3-19.1,12.8-25c3.4,8.7,11.6,14.4,21,14.4c9.4,0,17.7-5.7,21-14.4c7.4,5.9,12.3,14.9,12.8,25L16.2,92.8L16.2,92.8z"/>
</g>
</svg>
