<?xml version="1.0" encoding="iso-8859-1"?>
<!-- Generator: Adobe Illustrator 19.0.0, SVG Export Plug-In . SVG Version: 6.00 Build 0)  -->
<svg version="1.1" id="Layer_1" xmlns="http://www.w3.org/2000/svg" xmlns:xlink="http://www.w3.org/1999/xlink" x="0px" y="0px"
	 viewBox="0 0 512 512" style="enable-background:new 0 0 512 512;" xml:space="preserve">
<path style="fill:#0E7886;" d="M256.001,0.001c141.385,0,255.999,114.615,255.999,256S397.386,511.999,256.001,511.999
	S0,397.385,0,256.001S114.616,0.001,256.001,0.001z"/>
<path style="fill:#15BDB1;" d="M275.563,56.883c-0.213-2.695-0.244-5.422,0.138-8.105c15.522,1.353,30.941,3.698,46.436,5.395
	c5.04,0.573,10.128,0.961,15.103,2.005c0.805,7.726,0.825,15.511,1.393,23.263c0.553,10.519,1.547,21.026,1.809,31.558
	c0.227,5.689,1.386,11.554-0.329,17.119c-0.984,3.381-2.803,6.752-5.872,8.647c-5.526,3.243-12.56,4.194-18.629,1.953
	c-4.225-1.3-7.914-4.51-9.434-8.704c-2.343-4.617-1.198-10.591,2.435-14.215c6.437-7.083,19.115-6.184,24.833,1.384
	c-0.599-12.455-0.947-24.914-1.498-37.368c-16.253-1.521-32.527-2.928-48.786-4.412c-0.129,2.607,0.001,5.211,0.229,7.805
	c0.456,7.628,0.829,15.261,1.331,22.882c0.147,4.992,0.976,10.118-0.556,14.988c-0.865,3.425-3.2,6.26-5.863,8.475
	c-2.966,2.281-6.81,2.627-10.405,2.874c-4.317,0.342-8.695-0.851-12.346-3.131c-3.561-2.416-6.181-6.452-6.304-10.817
	c-0.444-5.25,2.556-10.79,7.477-12.859c6.328-3.321,15.33-2.445,19.895,3.437c0.311-0.105,0.632-0.206,0.957-0.283
	C276.903,91.476,276.31,74.172,275.563,56.883L275.563,56.883z"/>
<path style="fill:#20D0C2;" d="M275.562,56.883c-0.212-2.695-0.242-5.422,0.142-8.105c15.521,1.353,30.939,3.699,46.434,5.396
	c4.442,0.504,8.918,0.864,13.322,1.659c0.468,6.362,0.562,12.755,1.03,19.124c0.552,10.52,1.548,21.027,1.808,31.559
	c0.231,5.689,1.387,11.553-0.328,17.119c-0.985,3.382-2.803,6.751-5.87,8.647c-5.53,3.242-12.562,4.194-18.633,1.953
	c-3.181-0.981-6.065-3.048-7.941-5.802c-1.406-4.33-0.143-9.411,3.087-12.634c6.438-7.082,19.116-6.181,24.834,1.384
	c-0.599-12.455-0.946-24.914-1.498-37.368l-1.963-0.184l-0.181-4.3c-16.253-1.521-32.527-2.925-48.787-4.412
	c-0.129,2.607,0.002,5.212,0.227,7.806c0.458,7.627,0.83,15.26,1.333,22.881c0.148,4.992,0.976,10.12-0.556,14.988
	c-0.864,3.427-3.2,6.263-5.864,8.478c-2.965,2.278-6.809,2.627-10.404,2.873c-4.314,0.342-8.695-0.851-12.346-3.132
	c-1.446-0.982-2.739-2.231-3.772-3.664c-0.229-0.869-0.362-1.761-0.388-2.67c-0.446-5.25,2.556-10.79,7.478-12.859
	c6.325-3.322,15.328-2.445,19.894,3.437c0.311-0.105,0.632-0.206,0.957-0.283C276.903,91.477,276.309,74.173,275.562,56.883
	L275.562,56.883z"/>
<path style="fill:#FF5B61;" d="M268.936,221.739c-11.885-9.676-23.77-19.352-36.558-21.187
	c-12.793-1.837-26.489,4.168-34.447,13.925c-7.959,9.754-10.179,23.26-16.575,31.481c-6.396,8.221-16.967,11.156-32.378,15.226
	c-15.411,4.069-35.659,9.27-52.386,23.639c-16.725,14.369-29.928,37.903-28.059,60.061c3.276,38.801,60.684,96.211,99.486,99.485
	c22.158,1.87,45.693-11.334,60.06-28.059c14.369-16.725,19.571-36.975,23.639-52.386c4.07-15.409,7.005-25.98,15.226-32.377
	c8.221-6.396,21.727-8.616,31.481-16.576c9.757-7.957,15.761-21.654,13.925-34.446c-1.783-12.428-10.968-24.003-20.364-35.551
	C291.71,244.638,269.21,222.075,268.936,221.739L268.936,221.739z"/>
<path style="fill:#666666;" d="M434.174,98.899l-20.172-20.17L267.228,220.053c2.609,2.656,20.398,20.493,25.551,25.69
	L434.174,98.899L434.174,98.899z"/>
<path style="fill:#FBB429;" d="M197.281,371.077l-55.457-55.457l-10.082,10.084l55.455,55.455L197.281,371.077z"/>
<path style="fill:#EC4B53;" d="M434.174,98.899L423.525,88.25l-9.523-9.521l9.22-22.843l33.775,33.809L434.174,98.899
	L434.174,98.899z"/>
<path style="fill:#FF5B61;" d="M491.164,55.528l-33.791-33.791l-34.151,34.15c2.627,2.637,28.607,28.629,33.775,33.809
	L491.164,55.528z"/>
<path style="fill:#EC4B53;" d="M242.962,269.939c-12.485-12.484-32.728-12.484-45.215,0c-12.484,12.487-12.483,32.731,0,45.215
	c12.487,12.484,32.728,12.484,45.215,0C255.446,302.668,255.446,282.426,242.962,269.939z"/>
<path style="fill:#FBB429;" d="M178.939,372.861l-38.899-38.897l-6.843,6.842l38.899,38.898L178.939,372.861L178.939,372.861z"/>
<path style="fill:#FFFFFF;" d="M178.939,372.861l-38.899-38.897l1.981-1.981c1.09-1.089,2.873-1.089,3.962,0l34.935,34.935
	c1.09,1.09,1.09,2.873,0,3.962L178.939,372.861z"/>
<path style="fill:#EC4B53;" d="M240.124,202.597c-12.53-1.437-25.776,4.511-33.55,14.039c-7.959,9.757-10.18,23.262-16.576,31.482
	c-6.396,8.222-16.967,11.157-32.377,15.225c-15.41,4.07-35.66,9.273-52.385,23.64c-16.725,14.369-29.93,37.902-28.059,60.062
	c2.937,34.811,49.445,84.598,86.999,96.834c-38.636-6.496-92.477-61.456-95.644-98.996c-0.946-11.217,1.97-22.787,7.249-33.342
	c5.152-10.295,12.553-19.625,20.81-26.719c5.532-4.753,11.448-8.5,17.449-11.539c12.141-6.146,24.623-9.377,34.937-12.1
	c15.411-4.07,25.982-7.005,32.378-15.226c6.396-8.221,8.616-21.727,16.575-31.481c7.958-9.757,21.654-15.761,34.447-13.925
	C234.995,200.927,237.575,201.63,240.124,202.597L240.124,202.597z"/>
<path style="fill:#FFFFFF;" d="M173.202,360.606l258.332-264.38l-2.328-2.26l-258.334,264.38L173.202,360.606z M154.555,342.03
	L154.555,342.03l-2.26-2.33l264.38-258.332l2.26,2.328L154.555,342.03z M161.438,347.483L161.438,347.483l-2.286-2.309
	L420.865,85.578l2.283,2.307L161.438,347.483z M167.728,353.749L167.728,353.749l-2.308-2.286l259.596-261.71l2.307,2.283
	L167.728,353.749z"/>
<path style="fill:#ECF0F1;" d="M489.487,66.228l-43.674-43.674l-2.919,2.92l43.673,43.673L489.487,66.228L489.487,66.228z"/>
<g>
	<path style="fill:#20D0C2;" d="M491.977,65.708l-2.303-2.304c-0.411-0.411-1.079-0.41-1.49,0.002l-4.245,4.244
		c-0.41,0.411-0.411,1.081-0.004,1.49l2.304,2.304c0.411,0.409,1.081,0.41,1.492,0l4.245-4.246
		C492.388,66.786,492.387,66.116,491.977,65.708z"/>
	<path style="fill:#20D0C2;" d="M448.636,22.366l-2.304-2.303c-0.409-0.411-1.077-0.409-1.49,0.001l-4.244,4.246
		c-0.411,0.409-0.413,1.079-0.004,1.489l2.306,2.304c0.409,0.409,1.08,0.41,1.491,0l4.245-4.246
		C449.046,23.447,449.046,22.776,448.636,22.366z"/>
</g>
<path style="fill:#ECF0F1;" d="M478.89,76.824l-43.673-43.672l-2.921,2.92l43.675,43.673L478.89,76.824L478.89,76.824z"/>
<g>
	<path style="fill:#20D0C2;" d="M481.381,76.304l-2.306-2.304c-0.409-0.409-1.079-0.408-1.49,0.004l-4.244,4.245
		c-0.411,0.409-0.413,1.079-0.002,1.49l2.304,2.302c0.409,0.411,1.081,0.412,1.49,0l4.247-4.244
		C481.79,77.385,481.789,76.714,481.381,76.304L481.381,76.304z"/>
	<path style="fill:#20D0C2;" d="M438.04,32.964l-2.304-2.306c-0.411-0.409-1.08-0.409-1.49,0.004L430,34.906
		c-0.409,0.411-0.41,1.081-0.001,1.489l2.303,2.304c0.411,0.411,1.082,0.411,1.491,0l4.247-4.244
		C438.449,34.043,438.448,33.372,438.04,32.964L438.04,32.964z"/>
</g>
<path style="fill:#ECF0F1;" d="M468.294,87.422l-43.675-43.673l-2.919,2.919l43.673,43.673L468.294,87.422L468.294,87.422z"/>
<g>
	<path style="fill:#20D0C2;" d="M470.783,86.902l-2.303-2.304c-0.411-0.411-1.079-0.41-1.49,0.001l-4.246,4.245
		c-0.409,0.41-0.41,1.081-0.002,1.49l2.304,2.304c0.411,0.409,1.081,0.41,1.492,0l4.245-4.246
		C471.194,87.98,471.193,87.31,470.783,86.902z"/>
	<path style="fill:#20D0C2;" d="M427.442,43.56l-2.304-2.303c-0.409-0.411-1.077-0.409-1.49,0.001l-4.244,4.246
		c-0.411,0.409-0.411,1.079-0.004,1.489l2.306,2.304c0.409,0.409,1.08,0.411,1.491,0l4.245-4.246
		C427.853,44.641,427.852,43.971,427.442,43.56z"/>
</g>
<g>
	<path style="fill:#FBB429;" d="M479.635,52.037c-1.951-1.95-5.114-1.95-7.064,0c-1.952,1.951-1.952,5.115,0,7.064
		c1.951,1.952,5.114,1.952,7.064,0C481.585,57.151,481.585,53.987,479.635,52.037z"/>
	<path style="fill:#FBB429;" d="M461.488,33.891c-1.95-1.952-5.114-1.952-7.064,0c-1.95,1.95-1.95,5.114,0,7.065
		c1.951,1.949,5.115,1.949,7.064,0C463.439,39.005,463.439,35.841,461.488,33.891z"/>
	<path style="fill:#FBB429;" d="M469.037,62.635c-1.949-1.952-5.112-1.952-7.064,0c-1.95,1.949-1.95,5.112,0,7.064
		c1.952,1.95,5.116,1.95,7.064,0C470.989,67.747,470.989,64.583,469.037,62.635z"/>
	<path style="fill:#FBB429;" d="M450.892,44.487c-1.952-1.95-5.114-1.95-7.064,0c-1.952,1.952-1.952,5.116,0,7.065
		c1.951,1.951,5.112,1.951,7.064,0C452.842,49.603,452.842,46.439,450.892,44.487z"/>
	<path style="fill:#FBB429;" d="M458.441,73.231c-1.951-1.95-5.115-1.95-7.064,0c-1.952,1.951-1.952,5.115,0,7.064
		c1.95,1.951,5.114,1.951,7.064,0C460.39,78.345,460.39,75.182,458.441,73.231z"/>
	<path style="fill:#FBB429;" d="M440.294,55.085c-1.95-1.952-5.112-1.952-7.064,0c-1.95,1.95-1.95,5.114,0,7.065
		c1.952,1.949,5.115,1.949,7.064,0C442.246,60.199,442.246,57.035,440.294,55.085z"/>
	<path style="fill:#FBB429;" d="M279.454,152.87c-0.068-0.861-0.078-1.731,0.045-2.586c4.952,0.433,9.872,1.181,14.815,1.722
		c1.609,0.181,3.233,0.307,4.82,0.639c0.256,2.465,0.262,4.951,0.446,7.424c0.174,3.357,0.493,6.708,0.576,10.068
		c0.073,1.816,0.443,3.687-0.105,5.462c-0.314,1.081-0.896,2.156-1.874,2.761c-1.762,1.034-4.007,1.337-5.944,0.623
		c-1.347-0.415-2.525-1.441-3.009-2.779c-0.749-1.471-0.383-3.378,0.777-4.535c2.053-2.26,6.1-1.973,7.922,0.442
		c-0.19-3.974-0.302-7.948-0.477-11.924c-5.185-0.486-10.378-0.934-15.566-1.406c-0.041,0.832,0.001,1.662,0.072,2.489
		c0.147,2.434,0.264,4.868,0.425,7.3c0.046,1.595,0.31,3.23-0.178,4.783c-0.276,1.094-1.022,1.998-1.871,2.705
		c-0.945,0.727-2.174,0.837-3.319,0.916c-1.378,0.11-2.775-0.272-3.939-1c-1.136-0.771-1.973-2.058-2.011-3.45
		c-0.143-1.676,0.813-3.443,2.386-4.104c2.018-1.059,4.891-0.779,6.348,1.096c0.099-0.032,0.2-0.065,0.305-0.088
		C279.882,163.908,279.691,158.388,279.454,152.87L279.454,152.87z"/>
</g>
<g>
</g>
<g>
</g>
<g>
</g>
<g>
</g>
<g>
</g>
<g>
</g>
<g>
</g>
<g>
</g>
<g>
</g>
<g>
</g>
<g>
</g>
<g>
</g>
<g>
</g>
<g>
</g>
<g>
</g>
</svg>
