<?xml version="1.0" encoding="iso-8859-1"?>
<!-- Generator: Adobe Illustrator 19.0.0, SVG Export Plug-In . SVG Version: 6.00 Build 0)  -->
<svg version="1.1" id="Layer_1" xmlns="http://www.w3.org/2000/svg" xmlns:xlink="http://www.w3.org/1999/xlink" x="0px" y="0px"
	 viewBox="0 0 512 512" style="enable-background:new 0 0 512 512;" xml:space="preserve">
<path style="fill:#1A91A1;" d="M256.001,512C397,512,512,397,512,256.001C512,115,397,0,256.001,0C115.001,0,0,115,0,256.001
	C0,397,115.001,512,256.001,512z"/>
<path style="fill:#ECF0F1;" d="M175.224,138.128l7.815-4.719l10.986,18.196l-7.815,4.717L175.224,138.128z M336.37,138.128
	L336.37,138.128l-7.816-4.719l-10.987,18.196l7.816,4.717L336.37,138.128z"/>
<path style="fill:#FFFFFF;" d="M347.575,103.419c-19.006-9.216-42.081-1.911-52.228,16.854l-0.143,0.272l69.852,37.767l0.15-0.27
	c10.146-18.765,3.622-42.074-14.499-52.931l1.374-2.539c2.098,0.308,4.258-0.698,5.323-2.669c1.365-2.526,0.424-5.679-2.099-7.041
	c-2.521-1.363-5.676-0.424-7.038,2.098c-1.067,1.972-0.723,4.331,0.68,5.916L347.575,103.419z"/>
<g>
	<path style="fill:#ECF0F1;" d="M360.669,155.939l4.386,2.373l0.151-0.27c10.144-18.765,3.623-42.074-14.5-52.931
		C350.707,105.112,376.658,129.621,360.669,155.939z M350.707,105.112L350.707,105.112l1.092-3.552c0,0,2.664-0.034,4.484-2.632
		c1.821-2.6-0.975-6.065-0.975-6.065c2.521,1.361,3.461,4.517,2.096,7.041c-1.064,1.971-3.224,2.975-5.322,2.669L350.707,105.112z"
		/>
	<path style="fill:#ECF0F1;" d="M250.727,131.18h9.877v-27.551h-9.877V131.18z"/>
</g>
<path style="fill:#FF5B61;" d="M241.289,103.629h28.754c1.669,0,3.036,1.367,3.036,3.036v12.56h-34.827v-12.56
	C238.253,104.996,239.619,103.629,241.289,103.629L241.289,103.629z"/>
<path style="fill:#20D0C2;" d="M255.798,129.11c84.113,0,152.302,68.188,152.302,152.306c0,53.05-27.131,99.76-68.266,127.027
	l-0.008-0.033c-24.11,16.163-52.985,25.58-84.027,25.58c-31.045,0-59.921-9.417-84.032-25.582l-0.009,0.033
	c-41.134-27.265-68.266-73.976-68.266-127.025C103.491,197.298,171.682,129.11,255.798,129.11L255.798,129.11z"/>
<path style="fill:#FF5B61;" d="M339.826,408.41l9.889,40.479l-12.81,0.253c-6.046,0.117-9.602-7.868-15.14-8.347
	c-38.381-3.319-93.556-3.319-131.938,0c-5.534,0.477-9.093,8.465-15.14,8.347l-12.812-0.253l9.891-40.482
	c24.111,16.165,52.987,25.582,84.032,25.582C286.841,433.99,315.716,424.573,339.826,408.41L339.826,408.41z"/>
<path style="fill:#15BDB1;" d="M255.796,146.184c74.687,0,135.233,60.545,135.233,135.232c0,74.687-60.547,135.23-135.233,135.23
	s-135.231-60.543-135.231-135.23S181.109,146.184,255.796,146.184z"/>
<path style="fill:#FFFFFF;" d="M255.796,155.906c69.318,0,125.511,56.191,125.511,125.51c0,69.318-56.193,125.509-125.511,125.509
	c-69.317,0-125.509-56.191-125.509-125.509C130.287,212.097,186.479,155.906,255.796,155.906z"/>
<g>
	<path style="fill:#807D7D;" d="M251.575,185.365l4.269-4.826l4.173,4.826v96.052h-8.442V185.365z"/>
	<path style="fill:#807D7D;" d="M333.452,276.586l4.856,4.232l-4.793,4.211l-77.577,0.721l-0.064-8.442L333.452,276.586z"/>
</g>
<g>
	<path style="fill:#FF5B61;" d="M255.795,291.274c5.432,0,9.86-4.429,9.86-9.859s-4.429-9.86-9.86-9.86
		c-5.43,0-9.859,4.43-9.859,9.86S250.364,291.274,255.795,291.274z"/>
	<path style="fill:#FF5B61;" d="M168.11,352.551l-6.869,1.346l3.246-6.178l90.108-67.542l3.622,4.832L168.11,352.551z"/>
</g>
<g>
	<path style="fill:#ECF0F1;" d="M98.188,94.57L98.188,94.57c-7.494,10.67-11.877,23.57-11.877,37.464
		c0,13.893,4.383,26.792,11.877,37.463l2.835-1.875c-7.12-10.137-11.285-22.392-11.285-35.588c0-13.198,4.166-25.453,11.285-35.587
		L98.188,94.57z M107.799,100.935L107.799,100.935l2.833,1.875c-5.848,8.323-9.266,18.385-9.266,29.224
		c0,10.836,3.421,20.897,9.267,29.221l-2.834,1.875c-6.22-8.856-9.861-19.564-9.861-31.097
		C97.938,120.501,101.579,109.794,107.799,100.935z M117.375,107.278L117.375,107.278c-4.952,7.05-7.849,15.576-7.849,24.756
		s2.897,17.704,7.849,24.756l2.833-1.877c-4.577-6.517-7.255-14.395-7.255-22.88s2.678-16.365,7.255-22.881L117.375,107.278z"/>
	<path style="fill:#ECF0F1;" d="M413.812,94.57L413.812,94.57c7.494,10.67,11.878,23.57,11.878,37.464
		c0,13.893-4.384,26.792-11.878,37.463l-2.835-1.875c7.121-10.137,11.285-22.392,11.285-35.588c0-13.198-4.165-25.453-11.285-35.587
		L413.812,94.57z M404.2,100.935L404.2,100.935l-2.831,1.875c5.847,8.323,9.267,18.385,9.267,29.224
		c0,10.836-3.422,20.897-9.267,29.221l2.831,1.875c6.221-8.856,9.863-19.564,9.863-31.097
		C414.062,120.501,410.421,109.794,404.2,100.935z M394.625,107.278L394.625,107.278c4.953,7.05,7.849,15.576,7.849,24.756
		s-2.896,17.704-7.849,24.756l-2.833-1.877c4.577-6.517,7.254-14.395,7.254-22.88s-2.677-16.365-7.254-22.881L394.625,107.278z"/>
</g>
<g>
	<path style="fill:#FF5B61;" d="M252.808,172.768h5.979v-11.435h-5.979V172.768z"/>
	<path style="fill:#FF5B61;" d="M135.714,284.403v-5.976h11.435v5.976H135.714z"/>
	<path style="fill:#FF5B61;" d="M258.785,401.498h-5.979v-11.435h5.979V401.498z"/>
	<path style="fill:#FF5B61;" d="M375.878,278.428v5.976h-11.435v-5.976H375.878z"/>
</g>
<path style="fill:#FFFFFF;" d="M163.97,103.419c19.006-9.216,42.081-1.911,52.227,16.854l0.143,0.272l-69.851,37.767l-0.15-0.27
	c-10.145-18.765-3.622-42.074,14.499-52.931l-1.373-2.539c-2.101,0.308-4.259-0.698-5.324-2.669
	c-1.365-2.526-0.425-5.679,2.099-7.041c2.521-1.363,5.676-0.424,7.038,2.098c1.066,1.972,0.723,4.331-0.681,5.916L163.97,103.419
	L163.97,103.419z"/>
<path style="fill:#ECF0F1;" d="M150.875,155.939l-4.386,2.373l-0.151-0.27c-10.144-18.765-3.623-42.074,14.5-52.931
	C160.838,105.112,134.887,129.621,150.875,155.939z M160.838,105.112L160.838,105.112l-1.093-3.552c0,0-2.663-0.034-4.484-2.632
	c-1.82-2.6,0.976-6.065,0.976-6.065c-2.522,1.361-3.461,4.517-2.096,7.041c1.064,1.971,3.223,2.975,5.323,2.669L160.838,105.112z"/>
<g>
	<path style="fill:#807D7D;" d="M218.285,169.613l2.065-0.671l2.195,6.755l-2.065,0.671L218.285,169.613z"/>
	<path style="fill:#807D7D;" d="M185.529,186.684l1.757-1.275l4.174,5.745l-1.756,1.275L185.529,186.684L185.529,186.684z"/>
	<path style="fill:#807D7D;" d="M159.655,213.038l1.277-1.754l5.745,4.173l-1.275,1.757L159.655,213.038L159.655,213.038z"/>
	<path style="fill:#807D7D;" d="M143.189,246.101l0.672-2.063l6.753,2.194l-0.671,2.065L143.189,246.101z"/>
	<path style="fill:#807D7D;" d="M143.86,319.061l-0.671-2.065l6.753-2.195l0.671,2.065L143.86,319.061z"/>
	<path style="fill:#807D7D;" d="M160.928,351.816l-1.275-1.757l5.745-4.175l1.277,1.757L160.928,351.816L160.928,351.816z"/>
	<path style="fill:#807D7D;" d="M187.284,377.691l-1.755-1.277l4.175-5.745l1.755,1.275L187.284,377.691L187.284,377.691z"/>
	<path style="fill:#807D7D;" d="M220.346,394.157l-2.063-0.672l2.195-6.753l2.063,0.671L220.346,394.157z"/>
	<path style="fill:#807D7D;" d="M293.305,393.486l-2.063,0.671l-2.195-6.753l2.063-0.671L293.305,393.486z"/>
	<path style="fill:#807D7D;" d="M326.061,376.418l-1.756,1.275l-4.175-5.745l1.755-1.277L326.061,376.418L326.061,376.418z"/>
	<path style="fill:#807D7D;" d="M351.937,350.062l-1.277,1.755l-5.745-4.175l1.275-1.755L351.937,350.062L351.937,350.062z"/>
	<path style="fill:#807D7D;" d="M368.403,316.998l-0.673,2.064l-6.753-2.195l0.671-2.063L368.403,316.998z"/>
	<path style="fill:#807D7D;" d="M367.733,244.04l0.671,2.063l-6.755,2.195l-0.671-2.063L367.733,244.04z"/>
	<path style="fill:#807D7D;" d="M350.662,211.284l1.277,1.756l-5.746,4.175l-1.275-1.755L350.662,211.284L350.662,211.284z"/>
	<path style="fill:#807D7D;" d="M324.307,185.408l1.754,1.277l-4.173,5.745l-1.757-1.275L324.307,185.408L324.307,185.408z"/>
	<path style="fill:#807D7D;" d="M291.245,168.942l2.063,0.673l-2.194,6.753l-2.064-0.669L291.245,168.942z"/>
</g>
<g>
</g>
<g>
</g>
<g>
</g>
<g>
</g>
<g>
</g>
<g>
</g>
<g>
</g>
<g>
</g>
<g>
</g>
<g>
</g>
<g>
</g>
<g>
</g>
<g>
</g>
<g>
</g>
<g>
</g>
</svg>
