<?xml version="1.0" encoding="iso-8859-1"?>
<!-- Generator: Adobe Illustrator 19.0.0, SVG Export Plug-In . SVG Version: 6.00 Build 0)  -->
<svg version="1.1" id="Layer_1" xmlns="http://www.w3.org/2000/svg" xmlns:xlink="http://www.w3.org/1999/xlink" x="0px" y="0px"
	 viewBox="0 0 512 512" style="enable-background:new 0 0 512 512;" xml:space="preserve">
<path style="fill:#FFCA4F;" d="M256.001,512C397,512,512,397,512,255.999C512,115,397,0,256.001,0C115,0,0,115,0,255.999
	C0,397,115,512,256.001,512z"/>
<path style="fill:#FF5B61;" d="M369.747,430.029l-19.94-85.457c0,0,68.234-65.651,60.586-149.81
	c-7.654-84.153-92.45-137.07-178.521-114.129c-86.073,22.943-100.327,91.894-100.731,103.207
	c-0.407,11.313,10.196,40.242,2.542,60.009c-7.651,19.767-35.062,50.684-32.512,59.93c2.552,9.241,26.138,10.836,26.138,10.836
	s0.275,8.942-2.859,10.838c-3.137,1.896-1.367,9.33,3.795,13.464c5.157,4.134,13.734,6.94,13.734,6.94s-9.886,2.232-8.606,9.243
	c1.275,7.017,4.782,10.523,12.113,10.838c7.334,0.32,9.249-3.179,10.521,0.648c1.275,3.819,2.075,4.136,2.075,4.136
	s-7.323,18.969-0.947,32.992c6.382,14.025,16.257,14.038,27.738,11.163c11.478-2.877,33.789-9.251,33.789-9.251l6.109,31.109
	c6.387,45.273-24.444,68.547-25.094,69.032c18.122,4.068,36.968,6.23,56.321,6.23c57.011,0,109.662-18.647,152.21-50.159
	C404.106,459.86,371.208,431.49,369.747,430.029z"/>
<path style="fill:#EC4B53;" d="M159.239,407.647c6.35,10.062,15.347,9.805,25.632,7.229c11.478-2.877,33.789-9.251,33.789-9.251
	l6.109,31.109c2.18,15.447,0.024,28.334-3.785,38.629l0.003-0.005c21.312-30.411,5.592-53.651,8.401-65.192
	c2.807-11.541,47.408-22.455,56.764-29.627c9.356-7.174,16.058-26.977,16.058-26.977s-9.356,14.348-19.334,23.08
	c-9.98,8.732-87.482,31.494-102.297,36.486c-14.067,4.74-20.706-4.53-21.341-5.477V407.647z"/>
<path style="fill:#807D7D;" d="M275.262,303.152c24.152,0,43.851-19.696,43.851-43.849s-19.699-43.851-43.851-43.851
	s-43.851,19.699-43.851,43.851S251.109,303.152,275.262,303.152z"/>
<path style="fill:#ECF0F1;" d="M275.262,298.992c21.86,0,39.688-17.828,39.688-39.688s-17.828-39.691-39.688-39.691
	s-39.691,17.828-39.691,39.691C235.571,281.164,253.399,298.992,275.262,298.992z"/>
<path style="fill:#FFFFFF;" d="M275.262,293.799c18.998,0,34.495-15.497,34.495-34.495s-15.497-34.495-34.495-34.495
	s-34.495,15.497-34.495,34.495S256.264,293.799,275.262,293.799z"/>
<path style="fill:#FFCA4F;" d="M271.579,201.065h7.302v54.587c0,2.009-1.642,3.651-3.651,3.651c-2.009,0-3.651-1.642-3.651-3.651
	V201.065z"/>
<path style="fill:#EC4B53;" d="M210.708,87.729c53.606-19.641,117.096-9.049,155.606,30.338
	c45.892,46.933,56.586,132.333-23.554,222.697l26.991,89.266l-19.94-85.457c0,0,68.234-65.651,60.586-149.81
	c-7.654-84.153-92.45-137.07-178.521-114.129C224.268,82.661,217.234,85.053,210.708,87.729z"/>
<path style="fill:#FFFFFF;" d="M267.272,72.072h17.472c2.649,0,4.818,2.167,4.818,4.818v124.178h-27.106V76.89
	c0-2.652,2.169-4.818,4.818-4.818H267.272z"/>
<path style="fill:#F5A209;" d="M271.579,207.022h7.302v-5.954h-7.302V207.022z"/>
<path style="fill:#ECF0F1;" d="M275.262,272.072c7.032,0,12.769-5.739,12.769-12.769c0-7.035-5.739-12.769-12.769-12.769
	c-7.035,0-12.769,5.734-12.769,12.769C262.493,266.336,268.227,272.072,275.262,272.072z"/>
<path style="fill:#FFFFFF;" d="M275.262,267.8c4.679,0,8.496-3.819,8.496-8.496c0-4.682-3.819-8.496-8.496-8.496
	c-4.682,0-8.496,3.814-8.496,8.496C266.766,263.983,270.58,267.8,275.262,267.8z"/>
<g>
</g>
<g>
</g>
<g>
</g>
<g>
</g>
<g>
</g>
<g>
</g>
<g>
</g>
<g>
</g>
<g>
</g>
<g>
</g>
<g>
</g>
<g>
</g>
<g>
</g>
<g>
</g>
<g>
</g>
</svg>
