<?xml version="1.0" encoding="iso-8859-1"?>
<!-- Generator: Adobe Illustrator 19.0.0, SVG Export Plug-In . SVG Version: 6.00 Build 0)  -->
<svg version="1.1" id="Layer_1" xmlns="http://www.w3.org/2000/svg" xmlns:xlink="http://www.w3.org/1999/xlink" x="0px" y="0px"
	 viewBox="0 0 512.005 512.005" style="enable-background:new 0 0 512.005 512.005;" xml:space="preserve">
<path style="fill:#5DDDD3;" d="M256.002,512c141.002,0,256-115.003,256-256c0-141.002-114.998-256-256-256s-256,114.998-256,256
	S115.005,512,256.002,512z"/>
<path style="fill:#666666;" d="M350.682,269.528c7.884-13.256,20.313-28.646,7.69-52.035c-18.577-81.235,67.046-97.71,79.992-64.182
	c21.066,7.944,20.507,51.675,9.672,74.556c-0.485,9.418-10.272,17.63,7.418,41.925l1.275-0.277l0,0
	C433.779,276.166,374.95,273.103,350.682,269.528z"/>
<path style="fill:#FED198;" d="M373.181,227.451c6.457,13.561,8.84,18.858,16.863,24.951c-1.875,34.539-28.396,18.036-47.79,49.352
	c-1.677,2.702-6.919,16.216-11.542,29.352c21.491,14.073,47.176,22.262,74.783,22.262c27.602,0,53.291-8.189,74.783-22.262
	c-4.623-13.14-9.866-26.65-11.542-29.352c-19.394-31.315-45.92-14.812-47.79-49.352c8.018-6.097,10.406-11.39,16.863-24.951
	c1.58,0.827,3.238,1.949,4.522,0.503c1.284-1.446,7.399-20.207,6.3-22.743c-1.099-2.531-2.171-0.919-3.815,0.231
	c0.088-0.545-1.293,6.78-1.275,5.667c0.157-8.854-6.189-16.66-8.18-40.096c-18.415,34.054-71.448,20.05-69.185,34.433
	c-10.328-7.233,2.222,22.216,2.485,22.507C369.943,229.4,371.596,228.278,373.181,227.451z"/>
<path style="fill:#ECF0F1;" d="M385.762,268.531c-2.272,3.57-5.312,5.852-8.84,7.736l0.005,0.005l29.588,56.081l27.459-56.123
	c-3.931-2.111-7.251-4.73-9.57-9.09l-0.005-0.005l-18.771,9.339l-0.577,0.042l-16.655-8.914l-2.633,0.933V268.531z"/>
<path style="fill:#FFCA4F;" d="M400.875,276.692l1.751,5.219l-3.889,59.481l6.716,6.208l6.716-6.208l-3.894-59.481l1.75-5.219
	l-4.573-0.222l-4.573,0.222H400.875z"/>
<path style="fill:#15BDB1;" d="M376.926,276.263c-9.833,5.256-23.45,7.372-34.678,25.491c-1.677,2.702-6.919,16.216-11.542,29.352
	c21.491,14.073,47.176,22.262,74.783,22.262c27.602,0,53.291-8.189,74.783-22.262c-4.623-13.14-9.866-26.65-11.542-29.352
	c-11.256-18.175-24.914-20.244-34.761-25.528l-28.276,55.435l-28.766-55.393l-0.005-0.005H376.926z"/>
<path style="fill:#FFFFFF;" d="M387.882,261.88l-4.457,9.302l13.26,22.276l8.674-16.988l-17.473-14.591H387.882z M423.096,261.88
	L423.096,261.88l4.54,9.085l-13.339,22.493l-8.669-16.988L423.096,261.88z"/>
<path style="fill:#20D0C2;" d="M379.18,274.951l26.521,51.656l26.124-51.633c1.312,0.836,2.711,1.575,4.18,2.282l-30.304,59.217
	l-30.59-59.287c1.427-0.688,2.79-1.413,4.069-2.231V274.951z"/>
<path style="fill:#F0B97D;" d="M127.471,243.566h10.318h31.301h10.318l4.208,43.777l7.473,5.995l15.759,10.037l-53.411,126.162
	l-53.411-126.162l15.759-10.037l7.478-5.991l4.203-43.777L127.471,243.566z"/>
<path style="fill:#ECF0F1;" d="M110.336,296.576l-43.052,13.741l86.159,119.22l73.3-123.22l-30.415-9.644l-26.784,18.909h-32.11
	l-27.098-19.011V296.576z"/>
<path style="fill:#FFCA4F;" d="M143.831,313.85l3.681,9.081l-8.18,103.46l14.115,10.799l14.11-10.799l-8.18-103.46l3.681-9.081
	l-9.612-0.383l-9.612,0.383H143.831z"/>
<path style="fill:#15BDB1;" d="M111.075,296.345l-76.145,24.304c0,0-9.921,5.455-12.831,20.711
	c-0.554,2.914-0.854,8.808-0.984,16.563c36.331,83.614,115.991,144.032,210.639,152.927l4.355-72.496l4.125,73.152
	c5.215,0.319,10.471,0.499,15.764,0.499c12.868,0,25.505-0.961,37.86-2.794c-2.388-35.837-6.411-153.897-9.071-167.851
	c-2.914-15.256-12.831-20.711-12.831-20.711l-75.628-23.971l-42.262,138.563L111.075,296.35V296.345z"/>
<path style="fill:#20D0C2;" d="M111.075,296.345l-16.424,5.242l-3.155,41.675c0,0,0.868,3.423,3.478,3.118l14.822,5.575
	c0,0,0.975,0.97,0.106,2.199l-12.688,8.693l57.772,104.869l54.691-104.869l-12.688-8.693c-0.868-1.229,0.102-2.199,0.102-2.199
	l14.822-5.575c2.61,0.309,3.478-3.118,3.478-3.118l-3.145-41.541l-15.921-5.048l-42.262,138.563L111.07,296.345H111.075z"/>
<path style="fill:#FED198;" d="M90.031,152.909c0,4.263-1.557,8.438-1.441,12.531c-14.591-2.707-7.542,40.631,0.711,46.59
	c0.656,0.471,2.272-0.582,3.63-1.45c2.864,15.939,27.302,58.534,42.844,76.459c4.314,4.979,30.701,4.896,34.973,0.189
	c15.916-17.524,40.326-60.621,43.204-76.653c1.363,0.868,2.974,1.921,3.63,1.45c8.254-5.958,15.302-49.296,0.711-46.59
	c0.115-4.092-1.441-8.268-1.441-12.531c-0.808-33.652-31.301-50.455-63.411-50.599c-32.11,0.143-62.603,16.946-63.416,50.599
	L90.031,152.909z"/>
<path style="fill:#666666;" d="M109.583,109.765c-4.6-0.536-21.223,4.554-23.219,22.142c-1.995,17.584-1.044,33.791-1.044,33.791
	s9.736,2.457,10.965,12.438c1.224,9.981,0.351,9.981,0.351,9.981l3.529-0.794l2.513-17.113c14.568-9.131-0.111-22.65,14.461-25.819
	c39.352,28.045,74.076,23.246,89.733,10.05c0,0-3.658,13.801-0.836,18.72c2.817,4.924,1.136,12.674,1.136,12.674l3.663-0.176
	c0,0-0.66-20.323,7.464-20.23c30.872-50.977-66.866-114.291-108.712-55.675L109.583,109.765z"/>
<g>
	<path style="fill:#FFFFFF;" d="M122.908,281.094c1.09,0.079-12.711,15.644-12.711,15.644l11.75,40.234l31.5-23.505
		C136.117,304.964,125.781,293.952,122.908,281.094z"/>
	<path style="fill:#FFFFFF;" d="M183.982,281.094c-1.09,0.079,12.711,15.644,12.711,15.644l-11.75,40.234l-31.5-23.505
		C170.768,304.964,181.114,293.952,183.982,281.094z"/>
	<path style="fill:#FFFFFF;" d="M327.649,168.848l23.56,24.179l-6.425-24.179h1.944c2.956,0,5.376-2.42,5.376-5.376v-43.883
		c0-2.956-2.416-5.376-5.376-5.376h-81.05c-2.956,0-5.376,2.416-5.376,5.376v43.883c0,2.956,2.416,5.376,5.376,5.376h61.965H327.649
		z"/>
</g>
<path style="fill:#C8CACC;" d="M272.223,121.742H334.6v3.187h-62.377V121.742z M272.223,143.759L272.223,143.759h36.959v3.187
	h-36.959V143.759z M272.223,136.42L272.223,136.42H334.6v3.187h-62.377V136.42z M272.223,129.081L272.223,129.081H334.6v3.187
	h-62.377V129.081z"/>
<path style="fill:#FFFFFF;" d="M261.919,260.069l-27.773,28.502l7.57-28.502h-2.296c-3.483,0-6.332-2.85-6.332-6.332v-51.726
	c0-3.483,2.85-6.332,6.332-6.332h95.535c3.483,0,6.332,2.85,6.332,6.332v51.726c0,3.483-2.85,6.332-6.332,6.332h-73.041H261.919z"/>
<path style="fill:#C8CACC;" d="M327.247,204.547h-73.526v3.755h73.526V204.547z M327.247,230.5L327.247,230.5h-43.564v3.755h43.564
	V230.5z M327.247,221.849L327.247,221.849h-73.526v3.755h73.526V221.849z M327.247,213.198L327.247,213.198h-73.526v3.755h73.526
	V213.198z"/>
<g>
</g>
<g>
</g>
<g>
</g>
<g>
</g>
<g>
</g>
<g>
</g>
<g>
</g>
<g>
</g>
<g>
</g>
<g>
</g>
<g>
</g>
<g>
</g>
<g>
</g>
<g>
</g>
<g>
</g>
</svg>
