<?xml version="1.0" encoding="iso-8859-1"?>
<!-- Generator: Adobe Illustrator 19.0.0, SVG Export Plug-In . SVG Version: 6.00 Build 0)  -->
<svg version="1.1" id="Layer_1" xmlns="http://www.w3.org/2000/svg" xmlns:xlink="http://www.w3.org/1999/xlink" x="0px" y="0px"
	 viewBox="0 0 512 512" style="enable-background:new 0 0 512 512;" xml:space="preserve">
<path style="fill:#5DDDD3;" d="M256,512c140.999,0,256-115.001,256-256S396.999,0,256,0S0,115.001,0,256S115.001,512,256,512z"/>
<path style="fill:#F0B97D;" d="M232.664,205.605h9.269h28.126h9.269l3.783,39.328l6.714,5.388l14.16,9.018l-47.989,113.355
	l-47.989-113.355l14.16-9.018l6.714-5.383l3.779-39.332H232.664z"/>
<path style="fill:#F1F1F1;" d="M217.266,253.232l-38.678,12.347l77.408,107.115l65.858-110.708l-27.328-8.666l-24.064,16.988
	h-28.849l-24.351-17.077H217.266z"/>
<path style="fill:#FF5B61;" d="M247.362,268.751l3.306,8.156l-7.349,92.954l12.676,9.704l12.681-9.704l-7.349-92.954l3.306-8.156
	l-8.638-0.343L247.362,268.751z"/>
<path style="fill:#15BDB1;" d="M217.929,253.023l-68.413,21.838c0,0-8.856,4.604-11.527,18.607
	c-2.564,13.414-3.885,27.119-5.907,45.615c32.632,29.943,76.137,48.225,123.917,48.225s91.29-18.282,123.922-48.23
	c-2.026-18.495-3.348-32.201-5.912-45.615c-2.675-14.007-11.531-18.607-11.531-18.607L294.53,253.32L256,366.323l-38.066-113.3
	H217.929z"/>
<path style="fill:#20D0C2;" d="M217.929,253.023l-14.758,4.711l-2.833,37.445c0,0,0.784,3.074,3.125,2.801l13.316,5.008
	c0,0,0.872,0.876,0.093,1.975l-11.397,7.808l39.379,74.223c3.691,0.213,7.405,0.32,11.142,0.32c3.742,0,7.456-0.107,11.142-0.32
	l39.383-74.223l-11.397-7.808c-0.784-1.099,0.093-1.975,0.093-1.975l13.316-5.008c2.341,0.274,3.125-2.801,3.125-2.801
	l-2.828-37.325l-14.304-4.535l-38.53,113.003L217.929,253.023z"/>
<path style="fill:#FED198;" d="M201.65,125.624c0,3.658-1.335,7.233-1.233,10.743c-12.505-2.323-6.468,34.825,0.612,39.93
	c0.561,0.408,1.943-0.501,3.111-1.243c2.453,13.659,23.401,50.168,36.717,65.534c3.7,4.266,26.317,4.196,29.976,0.162
	c13.641-15.013,34.561-51.953,37.028-65.696c1.168,0.742,2.55,1.651,3.111,1.243c7.075-5.105,13.112-42.253,0.607-39.93
	c0.097-3.51-1.233-7.085-1.233-10.743c-0.691-28.844-26.827-43.241-54.35-43.366c-27.518,0.125-53.655,14.522-54.35,43.366H201.65z"
	/>
<path style="fill:#666666;" d="M218.407,88.647c-3.941-0.459-18.185,3.904-19.896,18.978s-0.895,28.96-0.895,28.96
	s8.346,2.105,9.398,10.66c1.048,8.559,0.301,8.559,0.301,8.559l3.023-0.682l2.151-14.666c12.486-7.827-0.093-19.413,12.394-22.126
	c33.727,24.036,63.489,19.923,76.907,8.615c0,0-3.13,11.828-0.714,16.043c2.411,4.219,0.974,10.864,0.974,10.864l3.134-0.148
	c0,0-0.57-17.42,6.394-17.341C338.04,92.672,254.271,38.405,218.407,88.647z"/>
<g>
	<path style="fill:#FFFFFF;" d="M228.561,239.322c0.978,0.065-11.425,14.053-11.425,14.053l10.558,36.147l28.302-21.115
		C240.43,260.766,231.139,250.872,228.561,239.322z"/>
	<path style="fill:#FFFFFF;" d="M283.439,239.322c-0.983,0.065,11.415,14.053,11.415,14.053l-10.558,36.147l-28.302-21.115
		c15.57-7.641,24.861-17.536,27.439-29.085H283.439z"/>
</g>
<path style="fill:#666666;" d="M240.597,206.829l7.743-5.267c2.379,2.216,13.446,2.184,15.811-0.023l7.14,5.29
	c3.464,2.564,7.034,3.445,7.924,7.423l2.833,12.718c0.89,3.987-7.001,17.392-11.346,17.392h-30.694
	c-4.344,0-10.307-12.792-9.616-16.826l2.281-13.284C233.364,210.218,237.027,209.259,240.597,206.829z M253.997,209.801
	L253.997,209.801l-15.018,7.891c0,0,0.695,8.726,2.643,11.462c1.943,2.731,9.593-0.529,9.593-0.529s0-6.834,2.226-6.728
	c0.023,0,4.984,0,5.003,0c2.221-0.107,2.221,6.728,2.221,6.728s7.65,3.26,9.598,0.529c1.943-2.736,2.643-11.462,2.643-11.462
	l-15.018-7.891l-1.947,0.547l-1.947-0.547H253.997z"/>
<path style="fill:#FFFFFF;" d="M155.669,232.168l45.986-10.46v7.905l-44.242,10.46c-1.085,0.093-8.295,3.028-10.558,5.29
	c-2.263,2.263-3.672,5.383-3.672,8.814c0,22.52,0.037,45.021,0.037,67.504h-3.992h-3.95v-3.955v-63.549
	c0-5.61,2.29-10.715,5.986-14.406c3.695-3.695,11.411-7.247,14.406-7.609V232.168z"/>
<g>
	<path style="fill:#0E7886;" d="M175.087,223.052l35.493-7.483c2.958-0.621,5.888,1.284,6.514,4.242l1.085,5.165
		c0.626,2.958-1.284,5.888-4.242,6.51l-35.493,7.483c-2.958,0.621-5.888-1.289-6.51-4.242l-1.09-5.165
		C170.223,226.604,172.129,223.674,175.087,223.052z"/>
	<path style="fill:#0E7886;" d="M139.218,305.106c10.525,0,19.056,8.531,19.056,19.056l-0.005,0.125h-38.103l-0.005-0.125
		C120.162,313.642,128.693,305.106,139.218,305.106z"/>
</g>
<g>
	<path style="fill:#FBB429;" d="M80.028,321.566h351.94v25.784H80.028V321.566z"/>
	<path style="fill:#FBB429;" d="M125.795,347.35h260.409v164.645H125.795V347.35z"/>
</g>
<g>
	<path style="fill:#FBAB08;" d="M80.028,347.35l45.768,29.007V347.35H80.028z M431.968,347.35L431.968,347.35L386.2,376.357V347.35
		H431.968z"/>
	<path style="fill:#FBAB08;" d="M125.795,347.35h260.409v10.956H125.795V347.35z"/>
</g>
<rect x="125.795" y="419.686" style="fill:#F7A713;" width="259.496" height="40.501"/>
<circle style="fill:#FAAC1B;" cx="255.546" cy="439.938" r="46.644"/>
<g>
</g>
<g>
</g>
<g>
</g>
<g>
</g>
<g>
</g>
<g>
</g>
<g>
</g>
<g>
</g>
<g>
</g>
<g>
</g>
<g>
</g>
<g>
</g>
<g>
</g>
<g>
</g>
<g>
</g>
</svg>
