<?xml version="1.0" encoding="iso-8859-1"?>
<!-- Generator: Adobe Illustrator 19.0.0, SVG Export Plug-In . SVG Version: 6.00 Build 0)  -->
<svg version="1.1" id="Layer_1" xmlns="http://www.w3.org/2000/svg" xmlns:xlink="http://www.w3.org/1999/xlink" x="0px" y="0px"
	 viewBox="0 0 512.005 512.005" style="enable-background:new 0 0 512.005 512.005;" xml:space="preserve">
<path style="fill:#FF757C;" d="M256.002,0c141.385,0,256.002,114.613,256.002,256.002c0,141.385-114.618,256.002-256.002,256.002
	S0,397.387,0,256.002S114.618,0,256.002,0z"/>
<path style="fill:#C8CACC;" d="M223.105,376.049l-9.626,37.802l-32.359,27.143v5.814h74.882h74.882v-5.814l-32.359-27.143
	l-9.626-37.802l-32.892-0.482l-32.892,0.482H223.105z"/>
<path style="fill:#FFFFFF;" d="M181.121,440.999v5.814h74.882h74.882v-5.814H181.125H181.121z"/>
<path style="fill:#666666;" d="M88.926,114.845h334.153c10.98,0,19.961,8.981,19.961,19.961v205.839H68.97V134.805
	c0-10.98,8.981-19.961,19.961-19.961H88.926z"/>
<path style="fill:#15BDB1;" d="M82.518,327.091h346.964V134.805c0-3.496-2.907-6.403-6.408-6.403H88.921
	c-3.496,0-6.403,2.907-6.403,6.403V327.091z"/>
<path style="fill:#FFFFFF;" d="M443.035,340.644v21.829c0,10.98-9.899,19.961-22.001,19.961H90.971
	c-12.106,0-22.005-8.981-22.005-19.961v-21.829H443.035z"/>
<path style="fill:#DFE1E3;" d="M419.536,101.83H255.998v208.426h163.539V101.83z"/>
<path style="fill:#FFFFFF;" d="M409.813,101.83c-49.983,0-97.722-21.862-149.953,0v195.235h149.953V101.83z"/>
<path style="fill:#DFE1E3;" d="M92.464,101.83h163.534v208.426H92.464V101.83z"/>
<path style="fill:#FFFFFF;" d="M102.191,101.83c51.267,0,125.361-21.482,153.811,0v195.235H102.191V101.83z"/>
<path style="fill:#FFBA1B;" d="M115.336,112.638h82.119v11.281h-82.119V112.638z"/>
<path style="fill:#C8CACC;" d="M115.332,191.947h118.726v4.015H115.332V191.947z M273.543,191.947L273.543,191.947h118.726v4.015
	H273.543V191.947z M273.543,138.988L273.543,138.988h118.726v4.015H273.543V138.988z M273.543,179.475L273.543,179.475h51.986v4.015
	h-51.986V179.475z M273.543,171.375L273.543,171.375h118.726v4.015H273.543V171.375z M273.543,163.274L273.543,163.274h118.726
	v4.015H273.543V163.274z M273.543,155.179L273.543,155.179h51.986v4.015h-51.986V155.179z M273.543,147.079L273.543,147.079h118.726
	v4.015H273.543V147.079z M273.543,232.43L273.543,232.43h40.863v4.015h-40.863V232.43z M273.543,224.334L273.543,224.334h118.726
	v4.015H273.543V224.334z M273.543,216.234L273.543,216.234h118.726v4.015H273.543V216.234z M273.543,208.138L273.543,208.138
	h118.726v4.015H273.543V208.138z M273.543,200.038L273.543,200.038h118.726v4.015H273.543V200.038z M115.332,138.983
	L115.332,138.983h118.726v4.015H115.332V138.983z M115.332,179.47L115.332,179.47h51.986v4.015h-51.986V179.47z M115.332,171.37
	L115.332,171.37h118.726v4.015H115.332V171.37z M115.332,163.27L115.332,163.27h118.726v4.015H115.332V163.27z M115.332,155.174
	L115.332,155.174h118.726v4.015H115.332V155.174z M115.332,147.074L115.332,147.074h118.726v4.015H115.332V147.074z
	 M115.332,232.425L115.332,232.425h40.863v4.015h-40.863V232.425z M115.332,224.329L115.332,224.329h118.726v4.015H115.332V224.329z
	 M115.332,216.229L115.332,216.229h118.726v4.015H115.332V216.229z M115.332,208.134L115.332,208.134h118.726v4.015H115.332V208.134
	z M115.332,200.034L115.332,200.034h118.726v4.015H115.332V200.034z"/>
<g>
</g>
<g>
</g>
<g>
</g>
<g>
</g>
<g>
</g>
<g>
</g>
<g>
</g>
<g>
</g>
<g>
</g>
<g>
</g>
<g>
</g>
<g>
</g>
<g>
</g>
<g>
</g>
<g>
</g>
</svg>
