<?xml version="1.0" encoding="iso-8859-1"?>
<!-- Generator: Adobe Illustrator 19.0.0, SVG Export Plug-In . SVG Version: 6.00 Build 0)  -->
<svg version="1.1" id="Layer_1" xmlns="http://www.w3.org/2000/svg" xmlns:xlink="http://www.w3.org/1999/xlink" x="0px" y="0px"
	 viewBox="0 0 511.998 511.998" style="enable-background:new 0 0 511.998 511.998;" xml:space="preserve">
<path style="fill:#FFCA4F;" d="M511.998,256c0-141.386-114.612-256-256-256C114.614,0,0,114.617,0,256
	c0,141.386,114.614,255.998,255.998,255.998C397.386,511.998,511.998,397.383,511.998,256z"/>
<path style="fill:#0E7886;" d="M79.026,20.988h187.923c2.959,0,5.371,2.412,5.371,5.371v360.957c0,2.957-2.412,5.369-5.371,5.369
	H79.026c-2.957,0-5.369-2.412-5.369-5.369V26.359C73.657,23.4,76.069,20.988,79.026,20.988z"/>
<path style="fill:#FF5B61;" d="M87.261,71.148h171.451c2.295,0,4.169,1.879,4.169,4.169v263.033c0,2.293-1.874,4.169-4.169,4.169
	H87.261c-2.295,0-4.169-1.879-4.169-4.169V75.317C83.092,73.027,84.966,71.148,87.261,71.148z"/>
<path style="fill:#ECF0F1;" d="M127.861,43.936h90.242c2.064,0,3.748,1.693,3.748,3.753c0,2.059-1.684,3.755-3.748,3.755h-90.242
	c-2.062,0-3.75-1.696-3.75-3.755C124.111,45.631,125.8,43.936,127.861,43.936z"/>
<path style="fill:#076673;" d="M172.988,355.024c7.971,0,14.437,6.465,14.437,14.437c0,7.97-6.465,14.437-14.437,14.437
	c-7.973,0-14.437-6.465-14.437-14.437S165.015,355.024,172.988,355.024z"/>
<path style="fill:#FFFFFF;" d="M430.194,71.148H192.917v381.639h237.276V71.148z"/>
<path style="fill:#5DDDD3;" d="M430.194,71.148H192.917v26.326h237.276V71.148z"/>
<g>
	<path style="fill:#FFFFFF;" d="M360.263,78.47H205.527c-3.215,0-5.845,2.628-5.845,5.841c0,3.215,2.63,5.843,5.845,5.843h154.736
		c3.215,0,5.845-2.628,5.845-5.843C366.108,81.099,363.477,78.47,360.263,78.47z"/>
	<path style="fill:#FFFFFF;" d="M380.272,79.319c2.754,0,4.992,2.236,4.992,4.994c0,2.754-2.236,4.992-4.992,4.992
		c-2.758,0-4.994-2.236-4.994-4.992C375.278,81.557,377.513,79.319,380.272,79.319z"/>
	<path style="fill:#FFFFFF;" d="M398.951,79.319c2.756,0,4.992,2.236,4.992,4.994c0,2.754-2.233,4.992-4.992,4.992
		c-2.756,0-4.992-2.236-4.992-4.992C393.959,81.557,396.193,79.319,398.951,79.319z"/>
	<path style="fill:#FFFFFF;" d="M417.63,79.319c2.756,0,4.992,2.236,4.992,4.994c0,2.754-2.236,4.992-4.992,4.992
		c-2.756,0-4.992-2.236-4.992-4.992C412.639,81.557,414.874,79.319,417.63,79.319z"/>
</g>
<path style="fill:#ECF0F1;" d="M207.796,113.164h101.888v120.226H207.796V113.164z"/>
<path style="fill:#C8CACC;" d="M322.247,210.807h49.234v4.714h-49.234V210.807z M239.909,404.734L239.909,404.734h143.295v4.714
	H239.909V404.734z M222.244,385.21L222.244,385.21h178.63v4.716h-178.63V385.21z M222.244,365.687L222.244,365.687h178.63v4.716
	h-178.63V365.687z M207.796,324.24L207.796,324.24h178.63v4.716h-178.63V324.24z M207.796,304.716L207.796,304.716h178.63v4.716
	h-178.63V304.716z M207.796,285.192L207.796,285.192h143.295v4.716H207.796V285.192z M207.796,265.668L207.796,265.668h178.63v4.716
	h-178.63V265.668z M207.796,246.144L207.796,246.144h178.63v4.716h-178.63V246.144z M322.249,113.186L322.249,113.186h87.623v4.716
	h-87.623V113.186z M322.249,132.71L322.249,132.71h87.623v4.716h-87.623V132.71z M322.249,152.233L322.249,152.233h70.288v4.716
	h-70.288V152.233z M322.249,171.757L322.249,171.757h87.623v4.716h-87.623V171.757z M322.249,191.281L322.249,191.281h87.623v4.714
	h-87.623V191.281z"/>
<path style="fill:#15BDB1;" d="M261.373,343.764H361.74v4.716H261.373V343.764z"/>
<path style="fill:#FED198;" d="M437.302,231.304l-0.002,0.002c-7.115-0.701-11.699,4.979-13.972,11.769l-14.107,42.157l-6.601-6.138
	l-13.112-17.18l-22.944-40.715l-23.27-40.97c-3.647-6.416-11.84-8.952-18.051-5.241c-6.209,3.709-8.509,11.706-4.879,18.128
	l39.78,70.319l-2.935,1.901l-8.586-16.801c-3.358-6.568-11.745-8.782-18.049-5.245c-6.301,3.548-8.235,11.564-4.882,18.133
	l9.333,18.26l-3.323,2.152l-5.821-11.889c-3.243-6.619-11.84-8.949-18.044-5.241c-6.211,3.711-8.123,11.507-4.879,18.133
	l6.54,13.361l-3.982,2.577l-3.612-6.667c-3.51-6.482-11.836-8.947-18.044-5.239c-6.211,3.713-8.392,11.646-4.882,18.128
	l7.481,13.813l1.058,2.476l46.225,71.025c6.271,9.64,15.16,15.659,22.324,17.941c2.053,0.653,3.958,1.003,5.627,1.038l43.235,74.625
	l81.037-45.812l-52.239-75.849c12.629-19.032,13.439-93.108,15.471-118.643c0.569-7.17-4.787-13.608-11.897-14.307L437.302,231.304z
	"/>
<path style="fill:#F0B97D;" d="M479.518,443.745l6.451-3.647l-52.239-75.849c12.632-19.034,13.439-93.108,15.471-118.643
	c0.104-1.285,0.013-2.549-0.243-3.759c-5.23,35.822-5.933,101.934-20.573,122.534l51.133,79.361V443.745z"/>
<path style="fill:#5DDDD3;" d="M467.987,399.158l-91.455,53.19l19.381,38.664l96.255-54.413l-24.178-37.44H467.987z"/>
<path style="fill:#ECF0F1;" d="M455.505,384.198l-86.132,49.514l9.973,16.882l86.132-49.512L455.505,384.198z"/>
<g>
	<path style="fill:#FFFFFF;" d="M395.814,455.81c-4.714,2.756-6.317,8.786-3.581,13.474c2.734,4.688,8.777,6.253,13.489,3.501
		c4.712-2.756,6.317-8.791,3.583-13.478C406.567,454.621,400.525,453.056,395.814,455.81z"/>
	<path style="fill:#FFFFFF;" d="M322.225,189.841l5.578,10.142l15.383-8.691l-5.574-10.149c-4.388-7.986-20.492,1.232-15.388,8.696
		V189.841z M428.304,240.61L428.304,240.61l-3.367,13.469l17.255,4.575l3.367-13.469c2.187-8.755-15.088-13.256-17.255-4.573V240.61
		z"/>
</g>
<path style="fill:#ECF0F1;" d="M172.137,355.024c7.503,0,13.588,6.083,13.588,13.588c0,7.501-6.083,13.588-13.588,13.588
	c-7.501,0-13.588-6.085-13.588-13.588S164.633,355.024,172.137,355.024z"/>
<path style="fill:#5DDDD3;" d="M77.505,163.849c28.612,0,51.805,23.195,51.805,51.805c0,28.608-23.193,51.805-51.805,51.805
	c-28.608,0-51.803-23.195-51.803-51.805S48.897,163.849,77.505,163.849z"/>
<g>
	<path style="fill:#FFFFFF;" d="M77.505,163.644c14.362,0,27.367,5.823,36.777,15.233s15.233,22.412,15.233,36.777
		c0,14.362-5.823,27.367-15.233,36.777s-22.414,15.231-36.777,15.231s-27.367-5.821-36.777-15.231s-15.231-22.414-15.231-36.777
		c0-14.365,5.821-27.367,15.231-36.777S63.142,163.644,77.505,163.644z M118.208,242.537L118.208,242.537
		c0.291,0.157,0.489,0.419,0.571,0.714c5.082-7.582,8.127-16.642,8.359-26.399h-19.68c-0.154,7.13-1.568,14.243-4.244,20.902
		c6.015,1.147,11.225,2.738,14.993,4.782H118.208z M117.739,244.749L117.739,244.749c-0.22,0.02-0.448-0.024-0.655-0.139
		c-3.678-1.995-8.833-3.541-14.814-4.641c-0.538,1.193-1.118,2.37-1.74,3.528c-4.676,8.703-11.721,16.327-21.122,21.771
		c12.953-0.489,24.637-5.94,33.205-14.506C114.473,248.898,116.191,246.887,117.739,244.749z M75.602,265.267L75.602,265.267
		c-9.399-5.444-16.442-13.068-21.12-21.771c-0.62-1.153-1.195-2.324-1.733-3.512c-5.969,1.102-11.128,2.644-14.83,4.626
		c-0.207,0.11-0.432,0.152-0.648,0.134c1.548,2.139,3.263,4.15,5.128,6.015c8.568,8.566,20.251,14.016,33.205,14.506L75.602,265.267
		z M36.234,243.256L36.234,243.256c0.082-0.298,0.282-0.562,0.578-0.719c3.79-2.033,8.996-3.62,14.993-4.762
		c-2.681-6.665-4.099-13.785-4.251-20.924h-19.68C28.103,226.609,31.154,235.671,36.234,243.256z M27.871,214.492L27.871,214.492
		h19.676c0.134-7.721,1.748-15.414,4.844-22.531c-6.211-1.144-11.613-2.758-15.522-4.837
		C31.399,194.897,28.105,204.318,27.871,214.492z M38.285,185.207L38.285,185.207c3.812,1.96,9.071,3.479,15.123,4.551
		c0.37-0.765,0.763-1.526,1.171-2.275c4.676-8.59,11.677-16.095,21.003-21.44c-12.947,0.496-24.621,5.944-33.185,14.506
		c-1.464,1.468-2.838,3.023-4.112,4.661V185.207z M79.427,166.04L79.427,166.04c9.326,5.345,16.329,12.85,21.003,21.44
		c0.412,0.756,0.805,1.524,1.182,2.295c6.063-1.076,11.322-2.597,15.112-4.571c-1.274-1.638-2.648-3.195-4.112-4.661
		c-8.561-8.561-20.238-14.01-33.185-14.506V166.04z M118.142,187.123L118.142,187.123c-3.885,2.092-9.287,3.713-15.518,4.857
		c3.089,7.113,4.701,14.799,4.837,22.511h19.678c-0.234-10.173-3.528-19.59-8.996-27.367L118.142,187.123z M78.686,168.333
		L78.686,168.333v23.36c7.108-0.049,14.171-0.556,20.498-1.519c-0.265-0.529-0.538-1.049-0.82-1.57
		c-4.401-8.087-10.96-15.172-19.676-20.274L78.686,168.333z M78.686,194.055L78.686,194.055v20.437h26.425
		c-0.139-7.585-1.766-15.141-4.875-22.101c-6.643,1.063-14.08,1.614-21.548,1.665H78.686z M78.686,216.851L78.686,216.851v18.719
		c7.697,0.051,15.359,0.637,22.154,1.762c2.683-6.511,4.108-13.485,4.264-20.481H78.686z M78.686,237.931L78.686,237.931v25.029
		c8.771-5.192,15.363-12.389,19.769-20.58c0.498-0.928,0.97-1.87,1.411-2.822c-6.5-1.034-13.813-1.576-21.18-1.625V237.931z
		 M76.325,262.961L76.325,262.961v-25.029c-7.358,0.057-14.669,0.604-21.175,1.64c0.441,0.946,0.911,1.885,1.404,2.807
		c4.405,8.193,10.996,15.388,19.771,20.58V262.961z M76.325,235.57L76.325,235.57v-18.719H49.907
		c0.159,7.003,1.581,13.985,4.271,20.503C60.979,236.225,68.637,235.627,76.325,235.57z M76.325,214.492L76.325,214.492v-20.437
		c-7.461-0.057-14.892-0.617-21.541-1.682c-3.118,6.965-4.747,14.528-4.884,22.119H76.325z M76.325,191.694L76.325,191.694v-23.36
		c-8.718,5.102-15.28,12.186-19.68,20.274c-0.278,0.514-0.549,1.032-0.811,1.552C62.168,191.125,69.221,191.638,76.325,191.694z"/>
	<path style="fill:#FFFFFF;" d="M136.129,252.715l18.245,3.565l1.407,0.273l-0.434,1.371l-6.046,19.03l-2.436-0.774l4.888-15.383
		c-3.578,2.43-7.549,4.758-11.818,6.917c-16.77,8.484-38.221,14.38-58.891,13.591c-20.807-0.794-40.825-8.345-54.568-26.787
		c-2.419-3.25-4.648-6.842-6.645-10.788l2.289-1.151c1.929,3.814,4.079,7.28,6.414,10.416
		c13.209,17.727,32.515,24.985,52.599,25.755c20.216,0.772,41.217-5.009,57.65-13.322c4.436-2.242,8.535-4.67,12.191-7.201
		l-15.335-2.994l0.489-2.516L136.129,252.715z"/>
</g>
<path style="fill:#ECF0F1;" d="M99.577,38.355c5.274,0,9.551,4.277,9.551,9.551c0,5.276-4.277,9.551-9.551,9.551
	c-5.276,0-9.551-4.275-9.551-9.551C90.026,42.633,94.301,38.355,99.577,38.355z"/>
<path style="fill:#C8CACC;" d="M99.577,40.181c4.269,0,7.726,3.459,7.726,7.726s-3.459,7.728-7.726,7.728s-7.728-3.462-7.728-7.728
	C91.849,43.638,95.311,40.181,99.577,40.181z"/>
<path style="fill:#ECF0F1;" d="M99.577,45.327c1.424,0,2.577,1.155,2.577,2.58c0,1.424-1.153,2.577-2.577,2.577
	c-1.424,0-2.577-1.153-2.577-2.577C97,46.483,98.153,45.327,99.577,45.327z"/>
<g>
</g>
<g>
</g>
<g>
</g>
<g>
</g>
<g>
</g>
<g>
</g>
<g>
</g>
<g>
</g>
<g>
</g>
<g>
</g>
<g>
</g>
<g>
</g>
<g>
</g>
<g>
</g>
<g>
</g>
</svg>
