<?xml version="1.0" encoding="iso-8859-1"?>
<!-- Generator: Adobe Illustrator 19.0.0, SVG Export Plug-In . SVG Version: 6.00 Build 0)  -->
<svg version="1.1" id="Layer_1" xmlns="http://www.w3.org/2000/svg" xmlns:xlink="http://www.w3.org/1999/xlink" x="0px" y="0px"
	 viewBox="0 0 512 512" style="enable-background:new 0 0 512 512;" xml:space="preserve">
<path style="fill:#FFCA4F;" d="M256,0c141.385,0,256,114.615,256,256S397.385,512,256,512S0,397.385,0,256S114.615,0,256,0z"/>
<path style="fill:#20D0C2;" d="M227.535,12.304l-54.557,270.295l-85.586-30.932L99.308,53.564
	c24.817-19.237,53.259-34.017,84.136-43.125l44.095,1.871L227.535,12.304z"/>
<path style="fill:#FFFFFF;" d="M227.535,12.304l-2.794,13.852l-74.358-3.409c10.651-4.831,21.69-8.956,33.061-12.314l44.095,1.871
	H227.535z"/>
<path style="fill:#15BDB1;" d="M215.863,25.75c-0.462,3.367-0.919,6.73-1.367,10.092c-1.58,11.806-3.09,23.648-4.573,35.477
	l-4.573-0.199c1.464-12.078,2.961-24.156,4.522-36.22c0.406-3.122,0.813-6.249,1.224-9.371l4.767,0.217V25.75z M104.523,49.629
	L104.523,49.629c1.598-1.173,3.205-2.332,4.831-3.469c-0.259,6.933-0.499,13.87-0.73,20.808l-4.619-0.199
	c0.171-5.718,0.342-11.427,0.522-17.136L104.523,49.629z M116.398,41.398L116.398,41.398c1.612-1.048,3.238-2.083,4.877-3.095
	c-0.476,9.713-0.915,19.427-1.339,29.149l-4.619-0.199C115.659,58.635,116.014,50.012,116.398,41.398z M128.388,34.026
	L128.388,34.026c1.63-0.942,3.279-1.857,4.933-2.762c-0.748,12.212-1.432,24.433-2.088,36.673l-4.619-0.199
	c0.568-11.242,1.141-22.484,1.774-33.708V34.026z M140.512,27.482L140.512,27.482c1.644-0.831,3.298-1.654,4.961-2.453l-0.471,6.494
	c-0.882,12.286-1.69,24.586-2.485,36.895l-4.596-0.199c0.753-12.554,1.533-25.098,2.379-37.634l0.212-3.108V27.482z M157.389,23.066
	L157.389,23.066c-0.259,3.062-0.517,6.124-0.767,9.182c-0.998,12.212-1.935,24.429-2.841,36.655l-4.6-0.199
	c0.878-12.471,1.787-24.937,2.757-37.394c0.217-2.822,0.439-5.644,0.67-8.466l4.785,0.217L157.389,23.066z M169.112,23.602
	L169.112,23.602c-0.296,3.122-0.587,6.24-0.878,9.362c-1.113,12.134-2.166,24.276-3.196,36.424l-4.586-0.199
	c0.993-12.392,2.023-24.78,3.104-37.144c0.254-2.887,0.508-5.773,0.771-8.66l4.78,0.217H169.112z M180.816,24.138L180.816,24.138
	c-0.333,3.178-0.665,6.36-0.993,9.538c-1.229,12.046-2.406,24.115-3.547,36.188l-4.577-0.194
	c1.113-12.304,2.259-24.623,3.464-36.918c0.286-2.942,0.582-5.889,0.878-8.831L180.816,24.138z M192.51,24.673L192.51,24.673
	c-0.374,3.238-0.744,6.471-1.109,9.709c-1.349,11.976-2.637,23.971-3.898,35.966l-4.568-0.199c1.233-12.244,2.494-24.47,3.82-36.696
	c0.323-3.002,0.656-6.004,0.988-9.002l4.771,0.217L192.51,24.673z M204.187,25.209L204.187,25.209
	c-0.416,3.298-0.827,6.596-1.233,9.893c-1.46,11.898-2.859,23.81-4.24,35.731l-4.573-0.199c1.349-12.157,2.734-24.322,4.175-36.461
	c0.365-3.062,0.73-6.124,1.104-9.182L204.187,25.209z"/>
<path style="fill:#FFFFFF;" d="M215.6,71.434l-1.182,5.866L98.255,71.027l0.356-5.912L215.6,71.434z"/>
<path style="fill:#C8CACC;" d="M383.229,31.791C454.344,31.791,512,89.442,512,160.558s-57.652,128.767-128.771,128.767
	c-71.115,0-128.767-57.652-128.767-128.767S312.113,31.791,383.229,31.791z"/>
<path style="fill:#ECF0F1;" d="M382.54,32.428c70.381,0,127.436,57.056,127.436,127.437S452.921,287.301,382.54,287.301
	s-127.437-57.056-127.437-127.436S312.16,32.428,382.54,32.428z"/>
<path style="fill:#FFFFFF;" d="M382.54,32.428c37.523,0,71.254,16.221,94.574,42.026c13.362,20.503,21.131,44.987,21.131,71.281
	c0,72.21-58.534,130.744-130.744,130.744c-23.366,0-45.301-6.138-64.284-16.877c-29.315-23.348-48.114-59.347-48.114-99.738
	C255.104,89.484,312.16,32.428,382.54,32.428z"/>
<path style="fill:#4D4D4D;" d="M383.436,51.873c-3.667-0.527-11.316-5.21-24.073-6.263L383.436,51.873z"/>
<g>
	<path style="fill:#ECF0F1;" d="M383.621,57.873l0.582,43.938l-2.993,0.023l-0.577-43.938L383.621,57.873z"/>
	<path style="fill:#ECF0F1;" d="M344.736,50.391c-0.078,0.023-33.911,10.346-50.968,36.105l-2.499-1.654
		c17.69-26.72,52.608-37.324,52.691-37.347l0.771,2.896H344.736z"/>
	<path style="fill:#ECF0F1;" d="M294.521,118.287c0.065,0.005,28.059,3.219,47.199,12.905l-1.349,2.674
		c-18.591-9.404-45.984-12.582-46.049-12.586l0.199-2.988V118.287z"/>
	<path style="fill:#ECF0F1;" d="M273.357,153.436c-0.014,0.088-1.769,37.717,15.815,61.97l-2.429,1.76
		c-18.332-25.283-16.355-64.141-16.341-64.233L273.357,153.436z"/>
	<path style="fill:#ECF0F1;" d="M345.267,256.73c0.356,0.014,1.035,0.18,2.115,0.443c7.182,1.76,43.532,8.051,69.443-2.254
		l1.099,2.781c-26.793,10.655-63.873,4.189-71.245,2.383c-0.896-0.222-1.46-0.36-1.506-0.36l0.092-2.988V256.73z"/>
	<path style="fill:#ECF0F1;" d="M494.509,152.138c0.009,0.097,0.157,42.169-17.819,63.965l-2.309-1.903
		c17.191-20.845,17.145-61.739,17.136-61.831l2.993-0.236V152.138z"/>
	<path style="fill:#ECF0F1;" d="M468.136,120.73c-0.06,0.009-22.969,2.711-41.587,12.134l-0.887-2.637
		c19.108-9.667,41.606-12.129,41.671-12.134L468.136,120.73z"/>
	<path style="fill:#ECF0F1;" d="M358.227,181.749l-33.814,44.613l-2.369-1.843l33.814-44.613L358.227,181.749z"/>
	<path style="fill:#ECF0F1;" d="M408.119,179.194l32.645,43.389l-2.416,1.769l-32.645-43.389l2.416-1.774V179.194z"/>
	<path style="fill:#ECF0F1;" d="M423.814,49.014c0.083,0.023,30.248,7.598,47.938,34.313l-2.499,1.654
		c-17.052-25.754-46.308-33.592-46.386-33.615l0.942-2.351H423.814z"/>
</g>
<g>
	<path style="fill:#C8CACC;" d="M328.325,264.055c0.032,0.042,5.566,7.658,13.108,16.471c-1.898-0.647-3.778-1.335-5.635-2.069
		c-5.838-7.057-9.806-12.512-9.833-12.549l2.356-1.852H328.325z"/>
	<path style="fill:#C8CACC;" d="M438.677,264.923c-2.272,4.72-4.984,9.03-7.93,12.937c-1.834,0.753-3.695,1.46-5.57,2.129
		c4.074-4.753,7.843-10.212,10.803-16.369L438.677,264.923z"/>
</g>
<path style="fill:#ECF0F1;" d="M263.261,144.475c-0.018,0.018-3.769,3.492-7.977,8.6c0.088-1.681,0.217-3.353,0.37-5.016
	c3.386-3.829,6.027-6.3,6.041-6.314l1.566,2.725V144.475z"/>
<path style="fill:#C8CACC;" d="M289.643,238.661c-0.023,0-3.099-0.005-8.027-0.988c-0.933-1.21-1.852-2.434-2.739-3.677
	c6.503,1.672,10.762,1.677,10.789,1.677L289.643,238.661z"/>
<g>
	<path style="fill:#ECF0F1;" d="M357.673,41.126l-8.115-4.379c1.427-0.379,2.859-0.744,4.3-1.076l5.09,2.748L357.673,41.126z"/>
	<path style="fill:#ECF0F1;" d="M406.401,39.056l6.439-2.988c1.524,0.37,3.044,0.762,4.545,1.187l-9.921,4.605l-1.067-2.804H406.401
		z"/>
	<path style="fill:#ECF0F1;" d="M278.004,94.089l-0.915-5.792c0.804-1.182,1.63-2.346,2.471-3.496l1.423,8.984L278.004,94.089z"/>
</g>
<g>
	<path style="fill:#C8CACC;" d="M482.897,92.14l1.82-8.438c0.799,1.072,1.575,2.157,2.342,3.252l-1.169,5.432l-2.988-0.245H482.897z
		"/>
	<path style="fill:#C8CACC;" d="M503.035,141.501l6.189,4.476c0.143,1.316,0.272,2.637,0.374,3.968l-8.328-6.027l1.769-2.416
		H503.035z"/>
	<path style="fill:#C8CACC;" d="M474.246,234.283l13.644-2.697c-0.818,1.201-1.658,2.383-2.517,3.552l-10.448,2.065L474.246,234.283
		z"/>
</g>
<g>
	<path style="fill:#999999;" d="M382.54,98.897l22.267,16.175l22.267,16.18l-8.503,26.175l-8.508,26.175H382.54h-27.523
		l-8.503-26.175l-8.503-26.175l22.267-16.18l22.267-16.175H382.54z"/>
	<path style="fill:#999999;" d="M382.129,59.795c14.12-5.196,28.812-8.526,44.534-8.48l-17.011-13.722
		c-18.35-3.506-36.696-3.501-55.047,0l-17.011,13.722C353.11,50.899,368.038,53.324,382.129,59.795z"/>
	<path style="fill:#999999;" d="M285.482,211.484c0,0,17.561,12.605,39.32,11.03c0,0,6.249,20.166,25.897,36.086
		c0,0-7.025,6.905-22.803,9.833c0,0-25.74-7.986-40.871-30.895c0,0-3.723-11.348-1.547-26.059L285.482,211.484z M437.605,220.994
		L437.605,220.994c0,0,20.253,0.254,40.479-10.494c0,0,4.069,12.974-0.499,26.064c0,0-11.067,19.658-41.361,31.458
		c0,0-15.417-1.746-22.826-11.043c0,0,24.258-20.549,24.207-35.989V220.994z"/>
	<path style="fill:#999999;" d="M278.156,92.015c0,0,7.981-6.291,17.588-9.875c0,0-6.425,15.279,1.076,38.091
		c0,0-17.168,12.027-23.893,36.479c0,0-5.695-2.517-11.612-12.669C260.545,124.896,272.281,98.846,278.156,92.015z M468.293,81.272
		L468.293,81.272c6.605,1.27,12.822,4.018,18.355,9.418c10.614,17.316,16.12,34.913,17.154,52.756l-10.937,13.39
		c-5.82-13.722-13.551-26.613-26.327-37.306c2.55-10.323,3.487-22.637,1.755-38.253V81.272z"/>
</g>
<path style="fill:#5DDDD3;" d="M18.905,352.68h474.186C454.944,446.136,363.169,512,256,512
	c-107.174,0-198.944-65.864-237.091-159.32H18.905z"/>
<path style="fill:#666666;" d="M321.152,412.895l-14.66-2.794c-1.275-0.24-2.693,0.85-2.462,2.443l1.344,9.076
	c0.236,1.589,0.887,3.21,2.175,3.326l9.99,0.891c1.289,0.115,1.824-1.058,2.462-2.443l3.316-7.178
	c0.642-1.39-0.901-3.085-2.175-3.326L321.152,412.895z M72.362,312.469L72.362,312.469l-16.193-9.672
	c-1.404-0.841-3.968-0.42-4.586,1.363l-3.968,11.427c-0.619,1.783-0.928,3.704,0.531,4.42l12.919,6.365
	c1.469,0.721,3.289,0.092,4.591-1.367l7.242-8.111c1.298-1.455,0.873-3.58-0.536-4.42V312.469z M110.795,331.092L110.795,331.092
	l-16.942-8.457c-1.473-0.734-3.806-0.065-4.328,1.76l-2.933,10.425c-0.517,1.829-0.443,3.704,1.03,4.439l12.831,6.406
	c1.473,0.739,3.09-0.291,4.323-1.764l7.048-8.369C113.063,334.057,112.268,331.826,110.795,331.092z M209.42,375.155L209.42,375.155
	l-17.27-7.783c-1.506-0.674-3.774,0.102-4.175,1.968l-2.272,10.637c-0.397,1.871-0.208,3.755,1.289,4.429l13.085,5.898
	c1.496,0.674,3.035-0.43,4.171-1.968l6.466-8.748c1.136-1.538,0.212-3.755-1.289-4.429L209.42,375.155z M247.968,389.833
	L247.968,389.833l-17.773-6.448c-1.547-0.559-3.677,0.416-3.852,2.342l-0.998,10.97c-0.18,1.926,0.226,3.82,1.769,4.379
	l13.464,4.882c1.547,0.563,2.919-0.688,3.852-2.342l5.312-9.404c0.933-1.654-0.222-3.82-1.769-4.379H247.968z M288.918,404.082
	L288.918,404.082l-17.935-5.894c-1.561-0.508-3.626,0.545-3.713,2.49l-0.48,11.071c-0.083,1.944,0.402,3.838,1.958,4.351
	l13.584,4.462c1.557,0.513,2.864-0.79,3.709-2.49l4.827-9.644c0.85-1.7-0.397-3.838-1.954-4.346H288.918z"/>
<path style="fill:#FFFFFF;" d="M346.888,407.154c5.182-21.685-11.353-28.738-53.707-70.806
	c-42.359-42.072-82.847-86.108-88.011-94.191c-5.168-8.083-22.868-16.743-32.867-8.439c-10,8.309-27.606,32.839-47.208,26.696
	c-44.215-13.847-29.121-54.968-35.001-55.093c-14.124-0.3-42.497,63.614-45.938,77.637c0.919,1.533,1.021,13.847,1.478,14.24
	C86.399,332.09,272.6,412.941,340.085,416.077c1.312,0.06,5.663-8.402,6.808-8.928L346.888,407.154z"/>
<path style="fill:#ECF0F1;" d="M144.623,257.644c-6.111,3.326-12.702,4.914-19.533,2.776c-39.911-12.498-31.5-47.213-33.805-53.947
	l-1.192-1.145c-14.124-0.3-42.497,63.614-45.943,77.637c0.924,1.533,1.025,13.847,1.483,14.244
	c35.172,30.105,178.488,95.89,260.503,115.391L144.628,257.644H144.623z"/>
<path style="fill:#FF5B61;" d="M346.888,407.154c5.182-21.681-11.348-28.738-53.707-70.806
	c-5.395-5.353-10.753-10.743-16.018-16.083c-19.731-2.605-46.714-3.561-57.647,8.106c-18.147,19.367-77.24-1.427-107.978-19.159
	c-30.738-17.731-17.561-64.644-30.479-72.117c-4.051-2.342-8.522-5.076-12.762-7.727c-11.367,19.588-22.11,45.306-24.147,53.592
	c0.924,1.529,1.025,13.852,1.483,14.24c40.761,34.895,241.16,124.425,293.158,118.647c1.307-0.143,6.951-8.171,8.097-8.697V407.154z
	"/>
<path style="fill:#EC4B53;" d="M218.944,328.944c-18.775,18.369-76.976-2.175-107.405-19.731
	c-30.738-17.731-17.561-64.644-30.479-72.117c-4.046-2.342-8.526-5.076-12.766-7.727c-11.362,19.588-22.11,45.301-24.142,53.592
	c0.924,1.533,1.025,13.847,1.483,14.244c35.172,30.105,178.488,95.89,260.503,115.391l-87.193-83.655V328.944z"/>
<path style="fill:#666666;" d="M296.696,339.821c-1.155-1.127-2.328-2.286-3.52-3.473c-42.359-42.072-82.847-86.108-88.011-94.191
	c-0.333-0.527-0.725-1.048-1.155-1.57l-4.767,3.787c-5.321,4.231-6.272,11.81-1.843,16.581l76.224,82.099
	c4.425,4.767,12.194,5.422,17.51,1.187l5.561-4.425V339.821z"/>
<path style="fill:#C8CACC;" d="M343.165,410.641c-35.389,18.535-268.041-86.362-296.627-118.153
	c-0.503-0.554-1.94-12.115-3.039-9.376c-2.725,6.762-5.201,12.521-1.496,16.004c15.293,14.364,121.723,69.586,206.815,99.202
	c35.976,12.521,91.064,24.489,95.562,16.166c4.586-8.489,3.575-9.205,3.071-10.559c-0.466-1.261-3.016,6.055-4.286,6.72V410.641z"/>
<g>
	<path style="fill:#FFFFFF;" d="M275.015,318.45l-6.928,5.025c-2.162,1.566-2.457,4.476-0.665,6.471
		c1.792,1.995,5.025,2.346,7.187,0.776l6.928-5.025c2.162-1.566,2.457-4.476,0.665-6.471s-5.025-2.346-7.187-0.781V318.45z"/>
	<path style="fill:#FFFFFF;" d="M255.898,298.59l-6.928,5.025c-2.162,1.566-2.457,4.476-0.665,6.471
		c1.792,1.995,5.025,2.346,7.187,0.781l6.928-5.025c2.162-1.566,2.457-4.476,0.665-6.471c-1.792-1.995-5.025-2.346-7.187-0.776
		V298.59z"/>
	<path style="fill:#FFFFFF;" d="M236.781,278.724l-6.933,5.025c-2.162,1.566-2.457,4.476-0.665,6.471
		c1.792,1.995,5.025,2.346,7.187,0.776l6.928-5.025c2.162-1.566,2.457-4.476,0.665-6.471s-5.025-2.342-7.182-0.781V278.724z"/>
	<path style="fill:#FFFFFF;" d="M217.664,258.859l-6.928,5.025c-2.162,1.566-2.457,4.476-0.665,6.471
		c1.797,1.995,5.025,2.346,7.187,0.781l6.928-5.025c2.162-1.566,2.457-4.476,0.665-6.471c-1.792-1.995-5.025-2.346-7.182-0.781
		H217.664z"/>
	<path style="fill:#FFFFFF;" d="M191.85,281.819l-77.812,7.566l84.196,4.448l-6.383-12.018V281.819z M202.048,305.453
		L202.048,305.453l-78.136-2.573l82.912,15.316L202.048,305.453z"/>
</g>
<g>
	<path style="fill:#C8CACC;" d="M393.621,308.326c-10.692,12.933-35.671,24.332-53.915,25.884
		c35.223-8.822,50.137-28.692,50.183-28.752l3.732,2.864V308.326z"/>
	<path style="fill:#C8CACC;" d="M368.878,305.652c-6.679,8.799-31.163,23.445-53.915,25.884
		c35.223-8.826,50.137-28.692,50.183-28.752l3.732,2.864V305.652z"/>
</g>
<path style="fill:#FED198;" d="M183.439,10.434l44.095,1.871l2.217-10.97c-15.912,1.621-31.394,4.697-46.308,9.104L183.439,10.434z"
	/>
<g>
</g>
<g>
</g>
<g>
</g>
<g>
</g>
<g>
</g>
<g>
</g>
<g>
</g>
<g>
</g>
<g>
</g>
<g>
</g>
<g>
</g>
<g>
</g>
<g>
</g>
<g>
</g>
<g>
</g>
</svg>
