<?xml version="1.0" encoding="iso-8859-1"?>
<!-- Generator: Adobe Illustrator 19.0.0, SVG Export Plug-In . SVG Version: 6.00 Build 0)  -->
<svg version="1.1" id="Layer_1" xmlns="http://www.w3.org/2000/svg" xmlns:xlink="http://www.w3.org/1999/xlink" x="0px" y="0px"
	 viewBox="0 0 512 512" style="enable-background:new 0 0 512 512;" xml:space="preserve">
<path style="fill:#1A91A1;" d="M256,0c141.385,0,256,114.615,256,256S397.385,512,256,512S0,397.385,0,256S114.615,0,256,0z"/>
<path style="fill:#20D0C2;" d="M261.395,151.962c81.84,0,148.184,66.339,148.184,148.179c0,81.835-66.339,148.184-148.184,148.184
	c-81.835,0-148.179-66.344-148.179-148.184S179.559,151.962,261.395,151.962z"/>
<path style="fill:#15BDB1;" d="M379.885,211.152c18.641,24.78,29.689,55.592,29.689,88.99c0,81.835-66.339,148.179-148.184,148.179
	c-81.835,0-148.179-66.344-148.179-148.179c0-12.734,1.607-25.085,4.628-36.876c-1.196,7.441-1.829,15.066-1.829,22.844
	c0,78.741,63.836,142.577,142.577,142.577c78.745,0,142.577-63.836,142.577-142.577c0-27.5-7.792-53.176-21.279-74.953V211.152z"/>
<path style="fill:#FFFFFF;" d="M353.973,184.446c27.556,22.078,47.056,53.79,53.384,90.034c-0.448-0.688-0.901-1.589-1.363-2.924
	c-2.896,0.947-2.988,1.025-6.406,1.593l-0.148,0.208c-1.358,1.935,0.069,1.113-2.319,3.136c-2.845,2.393-4.697,5.658-7.87,7.593
	c-0.383,3.386,0.282,4.143-0.568,8.171c-0.333,1.483-1.995,5.473-3.94,5.168c-0.614-0.115-3.229-6.573-3.843-8.36
	c-1.044-3.039-2.231-5.284-2.988-8.776c-0.43-1.866-0.716-5.436-1.141-6.688c-2.037,0.305-1.944,1.603-3.894,0.231
	c-1.376-0.988-0.757-1.598-1.52-3.081c-1.612-1.52-3.27-3.039-4.933-4.559c-1.284-0.416-6.217,0.305-8.305,0.079
	c-3.75-0.346-4.078-0.115-6.309-3.118c-3.94,0.194-3.607,1.672-7.45-1.635c-2.517-2.129-2.041-5.547-5.69-3.612
	c-0.143,3.118,1.376,3.806,2.753,5.247c0.993,1.104,2.231,1.866,2.748,3.344c0.051,0.042,0.291,1.446,0.337,1.635
	c3.556,0.231,4.411-1.478,6.355-2.924c1.903,1.783,0.046,2.092,2.799,3.492c2.18,1.104,1.755,0.457,3.178,2.24
	c0.711,2.393-4.887,8.891-6.739,10.069c-1.418,0.91-2.18,0.379-3.459,1.441c-1.894,1.598,0.236,1.367-3.081,2.587
	c-3.556,1.293-7.071,4.028-10.817,4.254c-0.808-2.203-1.617-4.443-2.416-6.683c-2.374-7.639-2.277-4.674-4.702-8.623
	c-1.136-1.714-0.665-2.813-1.423-4.332c-0.527-1.141-1.326-1.635-2.042-3.035c-1.09-2.166-2.369-5.547-4.887-5.205
	c-0.522,1.709,2.328,7.482,3.035,8.891c0.711,1.404,1.848,2.014,2.185,4.028c0.476,2.771-0.097,2.429,1.423,4.286
	c3.182,3.838-0.143,3.159,4.794,6.914c3.7,2.813,2.753,3.649,4.319,7.409c2.416,0.684,9.63-2.545,10.859-1.598
	c1.473,2.623-1.704,6.799-2.513,9.081c-2.656,7.635-7.307,7.524-10.863,13.371c-1.944,3.155-2.845,3.575-4.646,7.372
	c-2.041,4.291,4.125,16.184,0.43,21.159c-0.808,1.141-3.418,1.824-6.693,5.284c-3.464,3.76,0.092,3.113-1.238,9.381
	c-1.039,1.446-2.323,1.52-3.603,2.55c-0.471,1.478-0.092,2.651-0.901,4.48c-0.854,2.203-0.993,1.025-2.231,2.813
	c-0.901,1.399-0.804,1.972-1.848,3.265c-0.901,1.178-1.381,1.515-2.231,2.282c-4.129,3.801-13.002,3.912-13.759,3.381
	c-2.092-1.783-0.665-2.24-1.187-4.748c-0.508-2.203-1.677-4.051-2.656-5.75l-0.102-0.18c-0.471-0.831-0.901-1.63-1.141-2.393
	c-1.709-5.395-1.085-9.492-4.074-14.965c-3.75-7.071,2.083-10.753,1.848-14.743c-0.097-1.062-0.476-1.709-0.573-2.545
	c-0.711-4.406-1.136-8.355-4.078-11.815c-3.229-3.76-2.799-2.434-1.76-8.623c1.33-7.104-1.709-5.284-5.977-5.469
	c-2.092-6.457-6.171-3.307-10.249-1.404c-2.563,1.173-3.51-0.342-6.406,0.074c-6.452,0.873-1.376,3.649-10.009-3.192
	c-3.603-2.85-1.182-1.404-3.321-4.974c-0.711-1.293-2.896-3.002-3.894-4.295c-3.27-4.101,0.619-8.24,0.046-12.951
	c-0.998-8.739-2.42-1.141,2.466-11.699c2.563-5.621,6.452-5.663,7.45-8.171c0.854-2.235,0.282-3.838,1.898-5.884
	c1.423-1.672,3.464-1.33,4.268-3.954c1.136-3.229-1.044-3.644-3.418-3.723c-0.993-3.381-0.993-2.545-0.236-5.663
	c0.43-1.746,0.046-2.587,0.43-4.332c0.947-4.365,8.397-0.032,10.535-1.82c0.993-1.861,1.136-3.681,0-5.473
	c-1.192-1.783-2.753-1.557-3.556-3.265c1.801-1.215,0.471-0.152,2.042-0.499c1.848-0.416,1.612-0.947,3.792-1.363
	c1.945-0.383,3.182-2.166,5.076-3.381c2.707-1.746,1.423-3.307,4.697-3.838c5.27-0.915,1.848-0.762,2.42-5.667
	c0.799-0.3,1.561-0.647,2.319-0.984c1.663,2.166-0.425,1.293,1.566,2.734c0.522-0.3,1.141-0.605,1.709-0.905
	c-0.286-2.36-1.376-1.903-2.088-4.827c-2.61,0.416-3.556,2.619-5.644,1.824c-2.042-0.762-2.134-3.686-2.042-6.115
	c0.757-1.824,4.554-2.813,6.023-3.27c2.374-0.799,2.042-2.393,4.226-4.559c2.845-2.85,0.757,0.037,2.134-3.644
	c3.132-0.115,1.663-0.231,3.51-1.178l0.092-0.037l0.189-0.079c1.095-0.494,2.517-0.61,3.94-1.099
	c5.215-1.746,7.348-0.873,11.145,0.679c2.942,1.219,11.815,1.256,12.48,4.984c-2.134,2.235-4.175,0.605-7.261,0.794
	c0.568,2.882,0.808,2.882,3.418,3.681c0.43-1.367-0.189-0.831,0.522-1.709c0.854,0.189,1.709,0.342,2.559,0.494
	c0.859-2.928,1.852-2.508,4.748-2.85c-0.476-2.018-0.998-1.446,0.092-3.039c2.993,0.305,0.573,0.042,2.042,2.434
	c2.088-0.268,4.129-2.587,7.021-2.887c1.801-0.189,1.709,0.494,4.268,0.226c2.088-0.226,1.995-0.988,4.083-0.115
	c0.757-1.404,0-1.372,1.852-1.709c2.841-0.494,5.312,1.252,8.064,1.635c-2.037-2.508-3.981-2.014-1.473-6.194
	c3.178-0.647,3.464-0.189,4.84,2.203c0.781-0.439,1.113-0.878,1.496-1.104L353.973,184.446z M116.679,268.184L116.679,268.184
	c6.674-30.373,22.664-57.254,44.821-77.489c1.723,0.6,4,0.203,5.709,0.134c0.614-1.141,0.998-2.129,2.088-2.545
	c0.43-0.152,0.951-0.189,1.658-0.152c0.092,0.568,0.24,1.141,0.379,1.709c0,0.042,0.097,0.42,0.051,0.346
	c0.046-0.079,0.092,0.226,0.139,0.342c2.988-1.746,0.476-1.787,2.088-4.937c-2.517-0.494-2.185-0.194-3.75-1.787
	c1.52-1.672,4.457-2.24,6.646-2.088c-0.148,1.52-0.854,1.483-0.286,2.771c1.709-1.062,2.896-3.907,5.644-3.376
	c0.522,0.379,1.141,0.721,1.704,1.062c-1.423,1.33-3.556,1.404-5.404,2.166c-0.808,8.245,2.61,1.33,1.469,6.988
	c2.037-0.152,4.032-1.63,4.79-3.15c-0.757-0.988-1.848-0.988-2.466-2.166c0.48-1.52,1.501-2.67,2.942-3.353
	c0.975-0.467,2.143-0.711,3.464-0.711c15.085,0.115,7.921,0.799,12.572,2.928c1.039,0.453,2.891,0.684,3.51,1.598
	c0.947,1.441,0.046,2.808,1.561,3.949c1.33,0.984,1.52-0.037,3.275,2.166c-0.379,1.252-1.279,2.545-3.127,2.582
	c-2.563,0.037-1.044-1.709-3.797-1.446c0.046,2.582,2.61,3.575,0.236,4.974c-2.088,1.256-0.762-0.453-2.323,0.42
	c-0.046,0.037-0.194,0.115-0.24,0.152c-0.092,0.079-0.189,0.189-0.236,0.263c-0.286,0.305-0.522,0.573-0.757,0.836
	c-3.797-1.025-3.085-0.568-5.362-3.076c-0.854-0.951-0.993-1.178-2.517-1.062c-0.947,0.032-2.18,0.448-3.085-0.383
	c1.852-2.319,2.753-0.074,5.459-1.446c0.476-0.231,3.464-2.545,3.94-3.076c-0.808-1.82-0.097-0.305-1.279-1.483
	c-2.66-2.697-3.423-2.014-7.021-2.014c-1.69,1.945-2.951,4.342-4.79,5.399c-1.109,0.642-2.429,0.781-4.175,0.037
	c0.808,3.265,2.891,0.757,3.081,4.711c-1.376-0.268-2.088-0.951-3.51-0.457c-3.035,1.141-0.333,1.025-0.092,1.635
	c0,0.037,1.423,0.189,0,0.721c-1.566,0.568-0.24-0.305-3.275-2.092c0.425-0.757,0.854-1.552,1.279-2.356
	c-2.466,0.762-5.552,1.977-8.443,3.381c-3.275,1.635-6.36,3.496-8.212,5.205c-0.046,2.85,0.476,0.951,0.757,4.332
	c4.411,0.263,2.988,1.589,7.404,2.85c0.85,0.231,1.945,0.457,3.275,0.684c0,2.129-1.898,3.723-0.573,5.926
	c3.085,2.162,3.182-2.055,3.94-4.748c10.438-2.18,5.409-5.252,8.106-10.993c0.406-0.859,0.979-1.774,1.811-2.762
	c0.804,0.037,4.074,0.379,4.79,0.531c2.374,0.416,1.095,0.988,3.653,2.125c-0.051,2.051-1.09,4.711,1.945,4.217
	c2.323-0.416,1.806-2.24,4.646-2.697c1.279,3.002,0.947,4.295,1.52,7.903c6.836,2.66,3.797,4.827,2.466,9.806
	c0.854,0.416,1.755,0.799,2.656,1.173c-0.046,1.446-0.097,2.85-0.143,4.259c-0.143,0-7.307-1.561-7.783-1.709
	c1.095-3.122,3.085-3.155,4.369-6.346c-2.563,0.453-2.374,1.252-4.226,1.82c-1.658,0.494-2.938,0.152-4.697,0.383
	c-0.619,2.051-0.046-1.787,0.143,0.831c0.092,0.993,0.568,0.042-0.097,1.104c-2.369-1.104-1.561-3.686-5.977-1.293
	c0.993,0.457,1.991,0.873,3.035,1.293c-0.139,2.919-0.379,0.716-0.993,2.656c-1.52,4.974,4.125,1.898,5.598,1.635
	c-0.379,2.623-1.991,2.623-4.272,3.339c-2.513,0.762-3.27,1.787-5.265,2.245c0-3.118-0.471-0.494,0.901-2.66
	c-1.995,0.189-3.464,1.099-5.362,1.903l-0.189,0.074c-2.439,0.993-2.808,1.141-3.085,4.254c-2.088,0.642-4.508,1.372-5.977,2.891
	c-1.469,1.404-2.942,2.808-4.369,4.175c-0.139,0.115-0.24,0.226-0.328,0.305c0.522,3.912,0,3.986-2.374,5.51
	c-1.995,1.289-2.656,1.252-4.503,2.887c-5.93,5.321-3.081,2.845-2.753,12.004c-1.233-0.379-2.42-0.799-3.556-1.215
	c-0.905-6.078,0.328-4.065-4.554-5.469c-5.265-1.52-4.554,1.062-6.739,1.52c-2.42,0.527-3.607-2.203-7.118,0.074
	c-1.94,1.33-3.792,2.203-4.268,4.559c-0.568,2.85-1.852,4.937-1.663,8.092c0.333,8.549,8.115,9.039,10.106,5.053
	c1.326-2.66,0.998-4.101,5.316-3.418c0.43,2.282-0.24,3.954-0.808,5.7c-0.379,1.025-1.423,2.882-0.901,4.295
	c3.085,1.252,3.178-1.104,7.261,1.326c0.286,4.065-1.848,8.623,1.279,10.983c2.416,1.783,2.559,0.189,4.697-0.189
	c2.374-0.416,1.949,1.062,4.129,1.404c1.233-1.52,0.711-0.568,1.52-2.434c1.423-3.229,1.801-1.709,5.173-3.686
	c0.328-0.189,0.614-0.379,0.947-0.605c0.379,0.799,0.808,1.557,1.182,2.319c2.466-2.928,2.753-0.079,5.598,0.721
	c1.224,0.337,2.097,0.457,2.771,0.466c2.069,0.032,2.277-0.975,5.104,0.028c0.333,0.157,0.757,0.268,1.141,0.383
	c0.046,0,0.189,0.074,0.189,0.152c0.051,0.037,0.189,0.148,0.24,0.194c0.471,0.527,0.522,1.062,0.901,1.63
	c1.949,1.861,3.894,3.723,5.787,5.547c3.746,1.483,3.746-1.293,8.018,2.845c1.801,1.709,0.993,1.677,1.991,3.875
	c0.143,0.346,0.425,0.684,0.619,1.104c0.379,1.025,0.808,2.009,1.233,2.998c1.945,2.55,4.6,0.951,7.307,3.575
	c1.561,1.52,0.379,1.062,3.843,1.672c5.362,0.873,3.275,0.383,7.358,3.459c1.561,1.136,1.94,0.49,3.413,1.478
	c2.042,2.85,1.515,5.926-0.189,8.434c-5.265,7.676-3.464,6.42-3.704,12.498c-0.189,3.492-1.182,10.711-4.462,11.584
	c-11.907,3.349-4.984,5.663-8.111,11.552c-0.901,1.677-1.566,2.088-2.134,3.423c-2.369,5.543-0.711,7.409-7.732,6.152
	c0.665,1.178,0.236,0.379,0.905,1.441c2.083,3.229,2.42,5.667-1.852,6.457c-3.556,0.684-2.041,0-2.374,3.949
	c-1.376,0.573-1.991,0-2.896,0.914c1.233,2.282,0.092,0.383,2.185,1.672c-0.379,1.252-0.665,2.471-0.998,3.686
	c-0.804,2.965-1.044,0.231-1.326,3.686c1.233,0.568,2.088,0.453,3.178,1.94c-0.143,1.141-1.279,4.254-1.612,6.037
	c1.755,2.623,3.178,5.432,6.928,5.704c-0.046,2.199,0.471,1.972-1.423,2.425c-1.617,0.383-5.03-1.136-6.457-1.898
	c-2.466-1.33-4.743-3.076-6.402-5.584c-0.947-1.409-0.568-0.725-1.566-2.051c-1.801-2.314-1.085-3.381-1.612-4.942
	c-0.286-0.914-1.755-1.898-1.141-4.864c0.143-0.836,1.473-4.827-0.139-4.143c-1.617,0.647,1.233,0.379-0.998,1.446
	c-0.527-1.446-0.947-3.57-1.233-5.358c-0.568-3.002-1.279-3.118-1.617-4.937c-0.711-4.222,1.095-4.679-0.901-11.709
	c-1.312-4.651-0.781-15.658-2.166-21.306c-0.222-0.901-0.49-1.663-0.822-2.245c-1.279-2.125-4.411-3.108-6.924-4.822
	c-0.143-0.032-0.236-0.074-0.286-0.152c-3.464-2.429-6.739-11.967-9.492-15.533c-1.279-1.714-2.088-0.951-2.656-3.649
	c-0.614-2.471,0.333-2.051,1.141-4.106c-4.222-7.746,5.459-7.63,3.464-16.942c-0.425-1.709-1.658-4.101-2.702-4.859
	c-1.995,0.873-1.044,1.367-2.088,3.035c-1.612-0.91-3.229-1.824-4.79-2.73c-4.887-4.711-2.277-1.293-3.653-4.369
	c-2.938-6.457-5.741-2.85-9.251-6.037c-1.57-1.33-1.852-3.423-4.457-3.039c-3.935,0.531-1.755,1.141-5.838-0.762
	c-3.464-1.63-7.067-3.529-9.487-5.737c-0.097-3.418,1.141-3.575-0.998-6.762c-0.379-0.591-0.804-1.141-1.233-1.663V268.184z
	 M163.13,189.236L163.13,189.236c0.919-0.12,0.919-0.522,3.321-1.104c-0.194-0.799-0.337-0.799-0.527-1.099l-0.074-0.148
	c-0.919,0.771-1.824,1.557-2.725,2.356L163.13,189.236z M289.943,233.29L289.943,233.29l-0.092-0.065
	c-0.333-0.226-0.665-0.453-0.947-0.721c-2.088-1.861-2.517-3.529-4.836-3.118c-0.051,1.751,0.185,1.824,1.044,2.965
	c3.224,4.028,2.231,2.66,4.743,4.143l0.092,0.051c0.596,0.342,1.284,0.822,2.231,1.506c-3.224,2.845-0.236,3.145-2.231,4.097
	l-0.092,0.046c-0.189,0.074-0.379,0.152-0.517,0.226c-0.665-1.672,0.804-0.873-0.905-3.302c-0.951-1.256-1.852-1.635-3.321-2.323
	c-3.704-1.746-3.229-3.108-5.506-5.395c-2.563,0.079-1.991,0.878-3.797,1.787c-2.18,1.062-1.848-0.189-4.416,0.037
	c-2.088,3.69,0.901,0.61-2.896,3.649c-4.554,3.533-0.808,7.219-8.111,8.323c-0.522,0.074-0.711,0-1.229,0.189
	c-1.381,0.49-0.573,0.079-1.381,0.873c0.619,1.446-0.236,1.215,2.231,1.557c4.503,0.605,5.081-2.166,8.351-2.85
	c1.612-0.342,11.718-0.757,12.429-0.573c2.18,2.439,0.379,4.148,0.379,6.194c2.374,1.256,5.741,1.557,7.122,2.85
	c1.561,1.483,0.808,1.252,1.561,1.515l0.092,0.032c0.286,0.083,0.702,0.231,1.427,0.503c1.898,0.642,1.797,1.025,3.838,1.178
	c1.852-6.194-0.046-5.547,8.873-2.702c9.298,3.044,5.122,0.268,9.062,0.684c1.949,0.194,1.427,0.799,4.129,0.457
	c0.527-1.062,4.365-10.716-0.619-9.496c-1.473,0.379-0.471,0.91-2.559,0.379c-2.185-0.568-0.092-0.984-2.513-0.647
	c-2.374,0.346-5.219,2.434-7.071-4.743c-0.711-2.587-1.995-4.827-4.933-0.915c0.757,1.33,1.279,1.446,2.129,2.739
	c-0.236,0.379-1.039,1.33-1.326,1.635c-1.612,1.593,0.665,0.836-1.945,1.173c-1.423-1.062-1.136-2.429-2.513-4.328
	c-2.42-3.533-0.854-1.903-2.088-5.284C292.867,234.768,291.26,234.126,289.943,233.29z M340.611,335.572L340.611,335.572
	c-2.083,1.062-2.369,3.496-3.935,4.864c-1.709,1.557-3.986,0.836-4.651,3.723c-0.854,3.607,1.427,2.508-1.09,7.219
	c-0.896,1.746-0.947,6.111,0.43,7.409c4.125,3.986,6.36-6.078,7.307-9.233c0.711-2.245,1.376-4.785,2.134-6.877
	c0.762-2.24,1.852-4.217-0.189-7.104H340.611z M333.78,229.576L333.78,229.576c0.333,4.642,3.085,6.425,5.03,8.549
	c-0.24,2.203-0.762,1.63-0.711,4.711c2.323,1.677,4.032,2.697,7.067,1.861c0.425-3.723-0.762-3.533-1.898-6.078
	c0.189-0.305,0.711-0.684,0.804-0.757c0.854-1.141,0.43,0.453,0.854-1.483c-2.226-0.721-5.838-3.002-6.115-6.004
	c1.09-0.873,0.757-0.342,1.561-0.873c1.755-1.141,0.43,0.6,1.473-1.33c-0.896-1.746-1.898-2.055-4.078-1.178
	C336.819,227.373,334.302,229.16,333.78,229.576z M314.377,230.795L314.377,230.795c-1.469-2.051-1.376-3.076-4.222-3.155
	c-1.136,1.219-2.466,3.039-3.085,4.901c-0.947,2.813-0.286,0.873-0.189,3.912c-0.046,0.111,0,0.268,0,0.379
	c-0.046,1.824-0.476-0.342-0.194,1.33c2.231-0.457,0.522-0.42,2.185-0.951c1.566-0.531,6.36-1.977,7.736-1.63
	c3.27,0.762,6.023,3.344,9.727,0.762c-0.189-3.307-4.175-4.559-6.928-6.004c0.143-3.035,0.947-0.642,0.757-3.57
	c-0.947-0.037-1.52-0.189-2.42,0.189c-2.134,0.947-0.951,1.219-0.951,1.557c0.097,1.635,2.134-0.342-0.046,1.677
	c-0.619,0.531-1.617,0.531-2.374,0.605H314.377z M258.961,207.775L258.961,207.775c-0.088,5.321,1.76,3.533,3.515,6.157
	c-0.804,2.24-0.947,0.494-1.848,2.808c-0.808,1.94,0.189,0.194-0.333,3.575c1.376,0.074,3.413-0.416,5.219-0.573
	c2.563-0.226,2.517-0.457,3.418-3.081c-1.423-1.746-2.845-3.492-4.319-5.238c-1.852-2.813,0-0.878-0.568-3.233
	c-0.425-0.836-0.808-1.667-1.187-2.508c-2.466,0.841-2.226,0.61-3.894,2.088L258.961,207.775z"/>
<path style="fill:#666666;" d="M360.675,132.85l2.54,59.504c-55.956,57-156.895,50.857-203.646,1.815l-0.24-58.141l96.666,40.317
	l104.675-43.495H360.675z"/>
<path style="fill:#807D7D;" d="M88.486,122.166L256,63.674l167.514,58.492L256,180.654L88.486,122.166z"/>
<path style="fill:#FFCA4F;" d="M257.912,106.338l-112.499,30.479c-1.104,0.189-1.69,0.808-1.593,1.991l-0.619,50.077
	c3.644,1.399,6.254,5.131,6.254,9.519c0,5.584-4.226,10.11-9.445,10.11s-9.45-4.531-9.45-10.11c0-4.101,2.282-7.63,5.561-9.219
	l0.633-54.885c-0.111-1.732,0.596-3.044,2.693-3.663l114.153-30.475c4.069-1.275,8.332,3.39,4.314,6.185V106.338z M143.122,195.102
	L143.122,195.102l-0.014-0.014l-0.023-0.023l-0.037-0.042l-0.014-0.014l-0.023-0.023l-0.042-0.042l-0.014-0.014l-0.023-0.023
	l-0.042-0.037l-0.014-0.014l-0.023-0.023l-0.042-0.037l-0.014-0.014l-0.028-0.023l-0.042-0.037l-0.014-0.009l-0.028-0.023
	l-0.042-0.037l-0.014-0.014l-0.028-0.023l-0.042-0.032l-0.014-0.009l-0.028-0.023l-0.06-0.042l-0.032-0.023l-0.046-0.032
	l-0.014-0.009l-0.032-0.023l-0.046-0.028l-0.014-0.009l-0.032-0.023l-0.046-0.028l-0.014-0.009l-0.037-0.018l-0.046-0.028
	l-0.014-0.009l-0.037-0.023l-0.046-0.028l-0.009-0.005l-0.037-0.018l-0.046-0.028l-0.014-0.005l-0.037-0.018l-0.051-0.023
	l-0.009-0.005l-0.037-0.018l-0.051-0.023l-0.014-0.005l-0.037-0.014l-0.051-0.023l-0.014-0.005l-0.037-0.014l-0.051-0.023
	l-0.009-0.005l-0.042-0.014l-0.051-0.018l-0.009-0.005l-0.042-0.014l-0.051-0.018h-0.009l-0.042-0.014l-0.051-0.018l-0.009-0.005
	l-0.046-0.009l-0.051-0.018l-0.009-0.005l-0.046-0.014l-0.051-0.014l-0.009-0.005l-0.046-0.014l-0.051-0.009h-0.005l-0.051-0.014
	l-0.055-0.009h-0.005l-0.051-0.009l-0.055-0.009h-0.005l-0.051-0.009l-0.055-0.009h-0.005l-0.051-0.009l-0.055-0.009h-0.005
	l-0.051-0.005l-0.055-0.005h-0.005l-0.055-0.005l-0.055-0.005h-0.005h-0.051l-0.055-0.005l0,0l-0.055-0.005h-0.055l-0.083,0.005
	h-0.032l-0.051,0.005h-0.065h-0.018l-0.083,0.005h-0.009l-0.069,0.009l-0.042,0.005l-0.042,0.005l-0.069,0.009h-0.009l-0.079,0.009
	l-0.023,0.005l-0.06,0.009l-0.051,0.009l-0.028,0.005l-0.079,0.018l0,0l-0.079,0.014l-0.032,0.009l-0.046,0.014l-0.06,0.014
	l-0.014,0.005l-0.079,0.023l-0.014,0.005l-0.06,0.018l-0.042,0.014l-0.037,0.014l-0.065,0.023l-0.083,0.028l-0.023,0.009
	l-0.051,0.018l-0.046,0.023l-0.023,0.009l-0.069,0.032h-0.005l-0.069,0.032l-0.028,0.014l-0.042,0.023l-0.055,0.028l-0.014,0.009
	L138,194.201l-0.014,0.005l-0.055,0.032l-0.037,0.023l-0.028,0.018l-0.065,0.037l-0.005,0.005l-0.065,0.042l-0.023,0.014
	l-0.042,0.028l-0.046,0.028l-0.018,0.014l-0.065,0.046l-0.005,0.005l-0.06,0.042l-0.028,0.023l-0.037,0.028l-0.051,0.037
	l-0.009,0.009l-0.06,0.051l-0.014,0.014l-0.046,0.037l-0.032,0.032l-0.028,0.023l-0.055,0.051l-0.005,0.005l-0.06,0.055
	l-0.018,0.018l-0.037,0.037l-0.037,0.037l-0.018,0.018l-0.055,0.055l-0.005,0.005l-0.046,0.055l-0.023,0.028l-0.028,0.032
	l-0.042,0.051l-0.009,0.009l-0.051,0.06l-0.009,0.014l-0.037,0.051l-0.028,0.037l-0.018,0.023l-0.046,0.065l0,0l-0.046,0.069
	l-0.046,0.065l-0.032,0.046l-0.014,0.018l-0.042,0.069l-0.005,0.009l-0.037,0.06l-0.042,0.069l-0.037,0.06l-0.005,0.009
	l-0.037,0.069l-0.009,0.018l-0.028,0.055l-0.023,0.042l-0.014,0.028l-0.037,0.074l0,0l-0.032,0.074l-0.014,0.028l-0.018,0.046
	c-0.263,0.6-0.411,1.275-0.411,1.986c0,2.591,1.963,4.693,4.383,4.693c2.42,0,4.383-2.102,4.383-4.693
	c0-1.293-0.485-2.457-1.27-3.302L143.122,195.102z"/>
<path style="fill:#FF5B61;" d="M138.933,202.953l-12.771,81.706c-0.208,1.326,4.286,3.132,6.429,0.471
	c2.817,3.372,6.545,1.991,7.663-0.337c1.413,2.309,4.743,3.589,7.164,0.134c2.143,2.66,6.933,0.808,6.582-1.423l-12.692-80.63
	c-0.319-1.201-2.212-0.998-2.379,0.074L138.933,202.953z"/>
<g>
</g>
<g>
</g>
<g>
</g>
<g>
</g>
<g>
</g>
<g>
</g>
<g>
</g>
<g>
</g>
<g>
</g>
<g>
</g>
<g>
</g>
<g>
</g>
<g>
</g>
<g>
</g>
<g>
</g>
</svg>
