<?xml version="1.0" encoding="iso-8859-1"?>
<!-- Generator: Adobe Illustrator 19.0.0, SVG Export Plug-In . SVG Version: 6.00 Build 0)  -->
<svg version="1.1" id="Layer_1" xmlns="http://www.w3.org/2000/svg" xmlns:xlink="http://www.w3.org/1999/xlink" x="0px" y="0px"
	 viewBox="0 0 512 512" style="enable-background:new 0 0 512 512;" xml:space="preserve">
<path style="fill:#FFCA4F;" d="M256.001,512C397,512,512,397,512,256.001S397,0,256.001,0C115,0,0,115.002,0,256.001
	S115,512,256.001,512z"/>
<path style="fill:#EC4B53;" d="M264.744,0.168l-30.012,177.005h41.052L305.025,4.711C291.923,2.172,278.472,0.627,264.744,0.168z"/>
<path style="fill:#FFFFFF;" d="M109.709,198.652h95.178V185.65c0-11.027,9.02-22.054,20.048-22.054h62.131
	c11.024,0,20.048,11.027,20.048,22.054v13.002h95.175c10.985,0,19.971,8.984,19.971,19.974v178.602
	c0,10.99-8.986,19.977-19.971,19.977H109.707c-10.985,0-19.974-8.986-19.974-19.977V218.626c0-10.99,8.989-19.974,19.974-19.974
	H109.709z M222.514,198.652L222.514,198.652h66.97v-14.985c0-6.182-5.91-7.499-13.136-7.499h-40.701
	c-7.226,0-13.136,1.317-13.136,7.499v14.985H222.514z"/>
<path style="fill:#20D0C2;" d="M121.854,212.163h268.293c10.075,0,18.319,7.877,18.319,17.508v156.511
	c0,9.632-8.241,17.503-18.319,17.503H121.854c-10.078,0-18.319-7.872-18.319-17.503V229.672
	C103.535,220.04,111.776,212.163,121.854,212.163z"/>
<path style="fill:#F0B97D;" d="M173.532,296.393h4.249h12.884h4.244l1.736,18.017l3.074,2.468l6.487,4.129l-21.986,51.927
	l-21.983-51.927l6.487-4.129l3.077-2.468l1.729-18.02L173.532,296.393z"/>
<path style="fill:#ECF0F1;" d="M166.481,318.211l-17.718,5.655l35.46,49.071l30.17-50.718l-12.52-3.969l-11.022,7.782h-13.217
	l-11.156-7.822H166.481z"/>
<path style="fill:#FF5B61;" d="M180.268,325.319l1.516,3.735l-3.368,42.587l5.81,4.441l5.807-4.441l-3.365-42.587l1.513-3.735
	l-3.958-0.157l-3.958,0.157H180.268z"/>
<path style="fill:#666666;" d="M166.788,318.114l-31.342,10.007c0,0-4.058,2.106-5.283,8.525c-1.172,6.14-1.781,12.422-2.704,20.895
	c14.948,13.716,34.878,22.091,56.767,22.091c21.891,0,41.818-8.375,56.772-22.093c-0.926-8.472-1.534-14.754-2.71-20.892
	c-1.225-6.418-5.28-8.525-5.28-8.525l-31.13-9.868l-17.65,51.767l-17.435-51.906H166.788z"/>
<path style="fill:#807D7D;" d="M166.788,318.114l-6.762,2.159l-1.301,17.154c0,0,0.362,1.409,1.432,1.283l6.101,2.295
	c0,0,0.399,0.399,0.045,0.905l-5.222,3.578l18.041,34.002c1.689,0.094,3.392,0.144,5.104,0.144s3.415-0.05,5.104-0.144
	l18.041-34.002l-5.222-3.578c-0.357-0.506,0.045-0.905,0.045-0.905l6.101-2.295c1.075,0.129,1.432-1.283,1.432-1.283l-1.296-17.099
	l-6.555-2.077l-17.65,51.767l-17.435-51.906L166.788,318.114z"/>
<path style="fill:#FED198;" d="M159.326,259.752c0,1.673-0.609,3.313-0.567,4.921c-5.729-1.062-2.961,15.953,0.281,18.295
	c0.257,0.186,0.889-0.231,1.427-0.572c1.123,6.261,10.718,22.988,16.819,30.023c1.692,1.954,12.055,1.923,13.731,0.073
	c6.251-6.88,15.832-23.801,16.963-30.096c0.538,0.344,1.17,0.758,1.427,0.572c3.245-2.34,6.009-19.355,0.281-18.295
	c0.047-1.608-0.564-3.247-0.564-4.921c-0.317-13.212-12.291-19.809-24.897-19.864c-12.606,0.055-24.58,6.652-24.897,19.864H159.326z
	"/>
<path style="fill:#666666;" d="M167.006,242.813c-1.81-0.21-8.333,1.789-9.118,8.695c-0.782,6.904-0.407,13.267-0.407,13.267
	s3.824,0.963,4.302,4.881c0.483,3.919,0.142,3.919,0.142,3.919l1.382-0.31l0.986-6.72c5.721-3.583-0.042-8.892,5.679-10.135
	c15.452,11.014,29.084,9.128,35.232,3.945c0,0-1.435,5.419-0.328,7.352c1.107,1.931,0.443,4.973,0.443,4.973l1.437-0.068
	c0,0-0.262-7.979,2.93-7.945c12.121-20.013-26.254-44.874-42.681-21.857V242.813z"/>
<g>
	<path style="fill:#FFFFFF;" d="M171.656,311.837c0.449,0.031-5.233,6.439-5.233,6.439l4.834,16.559l12.965-9.674
		c-7.132-3.499-11.389-8.034-12.569-13.325H171.656z"/>
	<path style="fill:#FFFFFF;" d="M196.793,311.837c-0.446,0.031,5.233,6.439,5.233,6.439l-4.834,16.559l-12.968-9.674
		C191.355,321.663,195.612,317.128,196.793,311.837z"/>
	<path style="fill:#FFFFFF;" d="M255.999,240.806h132.765v7.389H255.999V240.806z M309.736,375.5L309.736,375.5h79.028v7.224
		h-79.028V375.5z M255.999,292.592L255.999,292.592h75.629v7.389h-75.629V292.592z M255.999,275.33L255.999,275.33h132.765v7.392
		H255.999V275.33z M255.999,258.071L255.999,258.071h132.765v7.386H255.999V258.071z"/>
</g>
<path style="fill:#FF5B61;" d="M246.514,0.197l30.01,176.978h-41.052L206.251,4.853c13.091-2.578,26.539-4.155,40.26-4.653
	L246.514,0.197z"/>
<g>
</g>
<g>
</g>
<g>
</g>
<g>
</g>
<g>
</g>
<g>
</g>
<g>
</g>
<g>
</g>
<g>
</g>
<g>
</g>
<g>
</g>
<g>
</g>
<g>
</g>
<g>
</g>
<g>
</g>
</svg>
