<?xml version="1.0" encoding="iso-8859-1"?>
<!-- Generator: Adobe Illustrator 19.0.0, SVG Export Plug-In . SVG Version: 6.00 Build 0)  -->
<svg version="1.1" id="Layer_1" xmlns="http://www.w3.org/2000/svg" xmlns:xlink="http://www.w3.org/1999/xlink" x="0px" y="0px"
	 viewBox="0 0 512 512" style="enable-background:new 0 0 512 512;" xml:space="preserve">
<path style="fill:#5DDDD3;" d="M256,0c141.385,0,256,114.615,256,256S397.385,512,256,512S0,397.385,0,256S114.615,0,256,0z"/>
<path style="fill:#807D7D;" d="M14.087,370.541h483.826v16.577c0,9.117-7.455,16.577-16.577,16.577H30.659
	c-9.117,0-16.577-7.459-16.577-16.577v-16.577H14.087z"/>
<path style="fill:#666666;" d="M189.711,370.541h132.573v4.873c0,2.679-2.189,4.873-4.873,4.873H194.58
	c-2.679,0-4.873-2.194-4.873-4.873v-4.873H189.711z"/>
<path style="fill:#807D7D;" d="M60.751,108.306h390.494c4.767,0,8.669,3.903,8.669,8.669v239.257c0,4.767-3.898,8.669-8.669,8.669
	H60.751c-4.767,0-8.669-3.903-8.669-8.669V116.975C52.081,112.208,55.98,108.306,60.751,108.306z"/>
<path style="fill:#FFFFFF;" d="M70.307,125.714h371.474v226.389H70.307V125.714z"/>
<path style="fill:#ECF0F1;" d="M95.479,152.835h211.59v135.057H95.479V152.835z"/>
<g>
	<path style="fill:#C3CCCF;" d="M322.718,202.404h50.317v32.119h-50.317V202.404z"/>
	<path style="fill:#C3CCCF;" d="M322.718,152.835h50.317v32.114h-50.317V152.835z"/>
	<path style="fill:#C3CCCF;" d="M322.718,251.972h50.317v32.114h-50.317V251.972z"/>
</g>
<g>
	<path style="fill:#FFFFFF;" d="M341.456,160.387l12.836,8.512l-12.836,8.512v-17.02V160.387z"/>
	<path style="fill:#FFFFFF;" d="M341.456,209.951l12.836,8.512l-12.836,8.512v-17.02V209.951z"/>
	<path style="fill:#FFFFFF;" d="M341.456,259.52l12.836,8.512l-12.836,8.512v-17.02V259.52z"/>
</g>
<path style="fill:#FF5B61;" d="M70.307,125.718h37.832v14.217H70.307V125.718z"/>
<path style="fill:#F0B97D;" d="M189.189,226.394h4.799h14.568h4.804l1.958,20.373l3.473,2.79l7.335,4.665l-14.258,33.671h-21.196
	l-14.249-33.671l7.33-4.665l3.478-2.79L189.189,226.394z"/>
<path style="fill:#F1F1F1;" d="M181.217,251.063l-20.032,6.392l21.999,30.438h32.987l19.214-32.299l-14.157-4.489l-12.461,8.799
	h-14.942l-12.609-8.845V251.063z"/>
<path style="fill:#FF5B61;" d="M196.801,259.099l1.714,4.226l-1.945,24.572h9.408l-1.945-24.572l1.714-4.226l-4.476-0.176
	l-4.476,0.176H196.801z"/>
<path style="fill:#15BDB1;" d="M181.559,250.952l-35.431,11.307c0,0-4.586,2.383-5.967,9.635c-0.951,4.97-1.57,10.018-2.231,15.995
	h56.04l-12.411-36.941V250.952z M264.619,287.893L264.619,287.893c-0.66-5.977-1.284-11.025-2.231-15.995
	c-1.381-7.251-5.967-9.635-5.967-9.635l-35.195-11.154l-12.545,36.788h55.938V287.893z"/>
<path style="fill:#20D0C2;" d="M181.559,250.952l-7.644,2.439l-1.469,19.39c0,0,0.406,1.593,1.617,1.45l6.9,2.591
	c0,0,0.448,0.453,0.046,1.025l-5.898,4.046l3.182,6h15.676L181.559,250.952z M224.255,287.893L224.255,287.893l3.182-6l-5.903-4.046
	c-0.402-0.573,0.046-1.025,0.046-1.025l6.896-2.591c1.215,0.143,1.621-1.45,1.621-1.45l-1.464-19.325l-7.409-2.351l-12.545,36.789
	H224.255z"/>
<path style="fill:#FED198;" d="M173.13,184.973c0,1.894-0.693,3.741-0.637,5.566c-6.476-1.206-3.349,18.036,0.314,20.678
	c0.291,0.212,1.007-0.259,1.612-0.642c1.27,7.076,12.12,25.981,19.015,33.939c1.912,2.208,13.625,2.171,15.524,0.083
	c7.062-7.778,17.898-26.904,19.177-34.022c0.605,0.383,1.321,0.854,1.617,0.642c3.663-2.642,6.79-21.879,0.314-20.678
	c0.051-1.82-0.642-3.672-0.642-5.566c-0.356-14.937-13.893-22.392-28.147-22.461C187.028,162.576,173.49,170.035,173.13,184.973z"/>
<path style="fill:#666666;" d="M181.809,165.823c-2.042-0.236-9.422,2.023-10.304,9.829s-0.466,14.997-0.466,14.997
	s4.323,1.095,4.868,5.524c0.54,4.434,0.152,4.434,0.152,4.434l1.561-0.351l1.118-7.598c6.466-4.055-0.046-10.05,6.42-11.459
	c17.468,12.452,32.881,10.318,39.832,4.462c0,0-1.621,6.129-0.369,8.309c1.247,2.185,0.503,5.626,0.503,5.626l1.626-0.079
	c0,0-0.296-9.02,3.316-8.979C243.769,167.911,200.39,139.806,181.809,165.823z"/>
<g>
	<path style="fill:#FFFFFF;" d="M187.069,243.857c0.503,0.037-5.917,7.284-5.917,7.284l5.469,18.715l14.655-10.933
		C193.217,254.965,188.404,249.843,187.069,243.857z"/>
	<path style="fill:#FFFFFF;" d="M215.484,243.857c-0.503,0.037,5.917,7.284,5.917,7.284l-5.469,18.715l-14.66-10.933
		c8.064-3.958,12.877-9.081,14.207-15.066H215.484z"/>
</g>
<path style="fill:#666666;" d="M193.3,227.031l4.009-2.73c1.229,1.15,6.96,1.132,8.189-0.014l3.7,2.744
	c1.792,1.33,3.644,1.783,4.106,3.843l1.469,6.586c0.462,2.069-3.626,9.011-5.875,9.011h-15.893c-2.249,0-5.344-6.628-4.984-8.716
	l1.182-6.882c0.356-2.083,2.254-2.587,4.101-3.843H193.3z M200.242,228.574L200.242,228.574l-7.778,4.083
	c0,0,0.36,4.522,1.372,5.935c1.007,1.418,4.965-0.268,4.965-0.268s0-3.543,1.155-3.487c0.009,0,2.582,0,2.591,0
	c1.155-0.055,1.155,3.487,1.155,3.487s3.958,1.686,4.965,0.268c1.007-1.413,1.372-5.935,1.372-5.935l-7.778-4.083l-1.007,0.282
	l-1.007-0.282H200.242z"/>
<path style="fill:#FBB429;" d="M95.479,297.43h211.59v-9.538H95.479V297.43z"/>
<path style="fill:#ECF0F1;" d="M95.479,270.295c12.355,0,22.369,10.013,22.369,22.369c0,12.351-10.018,22.369-22.369,22.369
	s-22.364-10.013-22.364-22.369C73.115,280.309,83.129,270.295,95.479,270.295z"/>
<path style="fill:#FF5B61;" d="M95.479,271.75c11.552,0,20.914,9.362,20.914,20.914s-9.362,20.909-20.914,20.909
	c-11.547,0-20.909-9.362-20.909-20.909C74.57,281.112,83.932,271.75,95.479,271.75z"/>
<path style="fill:#FFFFFF;" d="M87.627,280.128l18.905,12.535l-18.905,12.535V280.128z"/>
<g>
	<path style="fill:#C8CACC;" d="M241.104,297.43h65.965v-9.538h-65.965V297.43z"/>
	<path style="fill:#C8CACC;" d="M129.593,314.123h149.704v4.716H129.593V314.123z M129.593,328.469L129.593,328.469h91.382v4.716
		h-91.382V328.469z"/>
	<path style="fill:#C8CACC;" d="M383.769,153.44h44.599v4.716h-44.599V153.44z M383.769,163.726L383.769,163.726h27.223v4.716
		h-27.223V163.726z"/>
	<path style="fill:#C8CACC;" d="M383.769,200.746h44.599v4.716h-44.599V200.746z M383.769,211.032L383.769,211.032h27.223v4.716
		h-27.223V211.032z"/>
	<path style="fill:#C8CACC;" d="M383.769,252.31h44.599v4.716h-44.599V252.31z M383.769,262.596L383.769,262.596h27.223v4.716
		h-27.223V262.596z"/>
</g>
<path style="fill:#C3CCCF;" d="M322.718,301.139h50.317v32.114h-50.317V301.139z"/>
<path style="fill:#FFFFFF;" d="M341.456,308.686l12.836,8.512l-12.836,8.512v-17.02V308.686z"/>
<path style="fill:#C8CACC;" d="M383.769,301.476h44.599v4.716h-44.599V301.476z M383.769,311.767L383.769,311.767h27.223v4.716
	h-27.223V311.767z"/>
<path style="fill:#ECF0F1;" d="M441.781,125.718H108.139v14.217h333.642V125.718z"/>
<path style="fill:#666666;" d="M104.019,364.897h27.011v5.644h-27.011V364.897z M380.97,364.897L380.97,364.897h27.011v5.644H380.97
	V364.897z"/>
<g>
</g>
<g>
</g>
<g>
</g>
<g>
</g>
<g>
</g>
<g>
</g>
<g>
</g>
<g>
</g>
<g>
</g>
<g>
</g>
<g>
</g>
<g>
</g>
<g>
</g>
<g>
</g>
<g>
</g>
</svg>
