<?xml version="1.0" encoding="iso-8859-1"?>
<!-- Generator: Adobe Illustrator 19.0.0, SVG Export Plug-In . SVG Version: 6.00 Build 0)  -->
<svg version="1.1" id="Layer_1" xmlns="http://www.w3.org/2000/svg" xmlns:xlink="http://www.w3.org/1999/xlink" x="0px" y="0px"
	 viewBox="0 0 512 512" style="enable-background:new 0 0 512 512;" xml:space="preserve">
<path style="fill:#5DDDD3;" d="M255.999,512C397,512,512,397,512,256.001S397,0,255.999,0C115,0,0,115.002,0,256.001
	S115,512,255.999,512z"/>
<path style="fill:#076673;" d="M372.059,250.948l114.164,117.11c-5.433,11.137-11.646,21.815-18.569,31.974l-121.098-124.22
	c-3.559-3.651-3.486-9.551,0.168-13.112l12.226-11.919c3.651-3.561,9.551-3.484,13.11,0.165V250.948z"/>
<path style="fill:#0E7886;" d="M395.843,218.257c-0.586,0.981-1.257,1.94-2.006,2.857l-7.091,8.658l0.739,0.756
	c2.948,3.023,2.884,7.904-0.139,10.852l-50.48,49.212c-3.023,2.948-7.904,2.884-10.852-0.139l-0.803-0.822l-8.773,6.932
	c-0.752,0.598-1.53,1.135-2.326,1.621c1.043,2.732,0.448,5.953-1.773,8.116l-0.002,0.004c-2.974,2.902-7.776,2.84-10.678-0.139
	l-46.202-47.395c-2.902-2.974-2.84-7.776,0.137-10.678v-0.002c2.295-2.238,5.675-2.714,8.434-1.449
	c0.485-0.752,1.023-1.486,1.61-2.194l7.115-8.634l-0.966-0.992c-2.946-3.025-2.886-7.904,0.139-10.852l50.48-49.212
	c3.023-2.946,7.904-2.884,10.85,0.141l0.897,0.919l8.881-6.824c0.913-0.701,1.856-1.327,2.824-1.872
	c-1.296-2.822-0.761-6.286,1.583-8.57l0.002-0.002c2.977-2.899,7.776-2.84,10.678,0.134l46.204,47.395
	c2.902,2.974,2.84,7.776-0.134,10.678l-0.004,0.002c-2.269,2.211-5.598,2.701-8.339,1.49L395.843,218.257z"/>
<path style="fill:#FFCA4F;" d="M382.537,246.071l-2.873,2.798l-64.937-66.626l2.864-2.791L382.537,246.071z M344.527,283.121
	L344.527,283.121l-64.937-66.623l-2.864,2.791l64.943,66.619l2.857-2.785V283.121z"/>
<path style="fill:#076673;" d="M226.335,26.595v52.12v174.413H45.162c-13.225,0-24.044,11.728-24.044,26.059V52.656
	c0-14.334,10.819-26.061,24.044-26.061H226.335z M21.118,280.832L21.118,280.832h0.049c-0.031-0.542-0.049-1.091-0.049-1.645
	V280.832z"/>
<path style="fill:#20D0C2;" d="M45.162,253.126h181.173c-9.057,16.997-9.265,34.362,0,52.12H45.162
	c-13.225,0-24.044-11.728-24.044-26.061C21.118,264.854,31.937,253.126,45.162,253.126z"/>
<path style="fill:#FFFFFF;" d="M223.323,299.509c-4.901-12.429-4.626-26.041,0-40.648H49.282c-11.088,0-20.172,9.152-20.172,20.324
	s9.084,20.324,20.172,20.324H223.323z"/>
<path style="fill:#0E7886;" d="M54.656,38.836h159.299v200.62H54.656V38.836z"/>
<path style="fill:#FFCA4F;" d="M202.988,325.29l-19.378-11.619l-13.637,11.619v-49.829h33.013v49.829H202.988z"/>
<g>
	<path style="fill:#ECF0F1;" d="M100.192,126.555h81.383v7.161h-81.383V126.555z"/>
	<path style="fill:#ECF0F1;" d="M100.192,146.172h81.383v7.161h-81.383V146.172z"/>
	<path style="fill:#ECF0F1;" d="M100.192,165.793h57.738v7.161h-57.738V165.793z"/>
</g>
<path style="fill:#076673;" d="M183.691,415.32h177.066v-25.036H183.691V415.32z"/>
<path style="fill:#FFCA4F;" d="M199.401,376.127h145.647c3.894,0,7.078,3.186,7.078,7.08v7.08H192.319v-7.08
	c0-3.894,3.184-7.08,7.08-7.08H199.401z"/>
<g>
	<path style="fill:#FFFFFF;" d="M379.664,248.868l-64.937-66.626l-35.138,34.254l64.937,66.623l6.637-6.467l21.881-21.33
		L379.664,248.868z"/>
	<path style="fill:#FFFFFF;" d="M402.433,195.979c8.903-8.325,18.992-15.057,29.807-20.066c10.984-5.089,22.719-8.411,34.724-9.836
		l0.278,2.339c-11.763,1.398-23.259,4.652-34.016,9.635c-10.599,4.908-20.481,11.5-29.19,19.643l-1.603-1.713V195.979z
		 M368.146,153.518L368.146,153.518c8.903-8.325,18.992-15.057,29.807-20.066c10.982-5.089,22.719-8.411,34.724-9.838l0.276,2.339
		c-11.761,1.398-23.257,4.65-34.014,9.635c-10.599,4.908-20.481,11.5-29.19,19.643L368.146,153.518z M414.077,140.924
		L414.077,140.924l-0.736-2.229c-6.934,2.3-13.513,5.303-19.667,8.916c-6.271,3.68-12.105,7.999-17.416,12.854l1.585,1.731
		c5.188-4.74,10.89-8.96,17.021-12.561c6.013-3.53,12.444-6.465,19.215-8.711H414.077z M448.364,183.383L448.364,183.383
		l-0.736-2.227c-6.934,2.3-13.513,5.303-19.667,8.914c-6.273,3.682-12.105,7.999-17.418,12.856l1.585,1.729
		c5.188-4.74,10.887-8.96,17.021-12.561C435.162,188.564,441.593,185.627,448.364,183.383z"/>
</g>
<g>
</g>
<g>
</g>
<g>
</g>
<g>
</g>
<g>
</g>
<g>
</g>
<g>
</g>
<g>
</g>
<g>
</g>
<g>
</g>
<g>
</g>
<g>
</g>
<g>
</g>
<g>
</g>
<g>
</g>
</svg>
