<?xml version="1.0" encoding="iso-8859-1"?>
<!-- Generator: Adobe Illustrator 19.0.0, SVG Export Plug-In . SVG Version: 6.00 Build 0)  -->
<svg version="1.1" id="Layer_1" xmlns="http://www.w3.org/2000/svg" xmlns:xlink="http://www.w3.org/1999/xlink" x="0px" y="0px"
	 viewBox="0 0 512 512" style="enable-background:new 0 0 512 512;" xml:space="preserve">
<path style="fill:#FFCA4F;" d="M256,512c141.002,0,256-115.003,256-256C512,114.998,397.002,0,256,0S0,115.003,0,256
	S115.003,512,256,512z"/>
<path style="fill:#FF5B61;" d="M369.746,430.031l-19.939-85.461c0,0,68.238-65.651,60.584-149.81
	c-7.653-84.154-92.449-137.071-178.52-114.13s-100.329,91.895-100.731,103.206c-0.406,11.316,10.198,40.243,2.54,60.007
	c-7.649,19.768-35.061,50.686-32.512,59.929c2.554,9.242,26.138,10.836,26.138,10.836s0.277,8.942-2.859,10.84
	s-1.367,9.325,3.792,13.459c5.159,4.134,13.736,6.942,13.736,6.942s-9.889,2.231-8.605,9.242c1.275,7.016,4.78,10.522,12.115,10.836
	c7.335,0.319,9.247-3.178,10.517,0.647c1.275,3.82,2.074,4.138,2.074,4.138s-7.325,18.969-0.947,32.992
	c6.379,14.027,16.258,14.036,27.736,11.164c11.478-2.873,33.791-9.247,33.791-9.247l6.106,31.107
	c6.388,45.273-24.443,68.547-25.094,69.032c18.124,4.069,36.969,6.231,56.321,6.231c57.014,0,109.663-18.646,152.212-50.16
	c-4.101-1.977-37.001-30.35-38.461-31.809L369.746,430.031z"/>
<g>
	<path style="fill:#EC4B53;" d="M159.241,407.648c6.351,10.06,15.348,9.806,25.634,7.228c11.478-2.873,33.791-9.247,33.791-9.247
		l6.106,31.107c2.18,15.45,0.023,28.332-3.787,38.627l0.005-0.005c21.311-30.41,5.593-53.652,8.402-65.189
		c2.808-11.542,47.407-22.456,56.765-29.629c9.358-7.173,16.059-26.978,16.059-26.978s-9.358,14.346-19.334,23.08
		c-9.981,8.734-87.484,31.495-102.297,36.488c-14.069,4.739-20.706-4.531-21.339-5.478L159.241,407.648z"/>
	<path style="fill:#EC4B53;" d="M210.708,87.729c53.605-19.639,117.095-9.048,155.606,30.341
		c45.892,46.931,56.585,132.332-23.556,222.699l26.992,89.267l-19.939-85.461c0,0,68.238-65.651,60.584-149.81
		c-7.653-84.154-92.449-137.071-178.52-114.13C224.269,82.662,217.235,85.055,210.708,87.729z"/>
</g>
<path style="fill:#FBB429;" d="M180.252,134.785h171.056v111.996H180.252V134.785z"/>
<path style="fill:#DFE1E3;" d="M347.951,134.785h-82.168V242.19h82.168V134.785z"/>
<path style="fill:#FFFFFF;" d="M345.041,134.785c-26.419,0-51.656-11.265-79.263,0v100.606h79.263V134.785z"/>
<path style="fill:#DFE1E3;" d="M183.61,134.785h82.168V242.19H183.61V134.785z"/>
<path style="fill:#FFFFFF;" d="M186.52,134.785c26.419,0,64.598-11.071,79.258,0v100.606H186.52V134.785z"/>
<path style="fill:#ECF0F1;" d="M264.438,134.785h2.688v100.606h-2.688V134.785z"/>
<path style="fill:#20D0C2;" d="M193.296,143.284h30.59v4.203h-30.59V143.284z"/>
<path style="fill:#DFE1E3;" d="M193.296,179.31h61.18v1.986h-61.18V179.31z M274.822,179.31L274.822,179.31h61.18v1.986h-61.18
	V179.31z M274.822,153.089L274.822,153.089h61.18v1.986h-61.18V153.089z M274.822,173.135L274.822,173.135h26.789v1.986h-26.789
	V173.135z M274.822,169.126L274.822,169.126h61.18v1.986h-61.18V169.126z M274.822,165.116L274.822,165.116h61.18v1.991h-61.18
	V165.116z M274.822,161.107L274.822,161.107h26.789v1.991h-26.789V161.107z M274.822,157.098L274.822,157.098h61.18v1.991h-61.18
	V157.098z M274.822,199.355L274.822,199.355h21.057v1.986h-21.057V199.355z M274.822,195.346L274.822,195.346h61.18v1.986h-61.18
	V195.346z M274.822,191.337L274.822,191.337h61.18v1.991h-61.18V191.337z M274.822,187.328L274.822,187.328h61.18v1.991h-61.18
	V187.328z M274.822,183.319L274.822,183.319h61.18v1.991h-61.18V183.319z M193.296,153.094L193.296,153.094h61.18v1.986h-61.18
	V153.094z M193.296,173.139L193.296,173.139h26.789v1.986h-26.789V173.139z M193.296,169.13L193.296,169.13h61.18v1.986h-61.18
	V169.13z M193.296,165.121L193.296,165.121h61.18v1.991h-61.18V165.121z M193.296,161.112L193.296,161.112h61.18v1.991h-61.18
	V161.112z M193.296,157.103L193.296,157.103h61.18v1.991h-61.18V157.103z M193.296,199.36L193.296,199.36h21.057v1.986h-21.057
	V199.36z M193.296,195.351L193.296,195.351h61.18v1.986h-61.18V195.351z M193.296,191.342L193.296,191.342h61.18v1.991h-61.18
	V191.342z M193.296,187.333L193.296,187.333h61.18v1.991h-61.18V187.333z M193.296,183.324L193.296,183.324h61.18v1.991h-61.18
	V183.324z"/>
<path style="fill:#20D0C2;" d="M281.131,130.397l8.277-0.711v42.968l-4.166-3.035l-4.111,3.035V130.397z"/>
<g>
</g>
<g>
</g>
<g>
</g>
<g>
</g>
<g>
</g>
<g>
</g>
<g>
</g>
<g>
</g>
<g>
</g>
<g>
</g>
<g>
</g>
<g>
</g>
<g>
</g>
<g>
</g>
<g>
</g>
</svg>
