<?xml version="1.0" encoding="iso-8859-1"?>
<!-- Generator: Adobe Illustrator 19.0.0, SVG Export Plug-In . SVG Version: 6.00 Build 0)  -->
<svg version="1.1" id="Layer_1" xmlns="http://www.w3.org/2000/svg" xmlns:xlink="http://www.w3.org/1999/xlink" x="0px" y="0px"
	 viewBox="0 0 512 512" style="enable-background:new 0 0 512 512;" xml:space="preserve">
<path style="fill:#FF757C;" d="M255.999,512C397,512,512,397,512,255.999C512,115,397,0,255.999,0C115,0,0,115,0,255.999
	C0,397,115,512,255.999,512z"/>
<path style="fill:#F0B97D;" d="M243.213,104.408h5.08h15.412h5.078l2.073,21.55l3.68,2.952l7.759,4.941l-26.295,62.11l-26.293-62.11
	l7.759-4.941l3.68-2.95l2.07-21.55L243.213,104.408z"/>
<path style="fill:#ECF0F1;" d="M234.775,130.504l-21.193,6.764l42.414,58.69l36.087-60.662l-14.973-4.745l-13.187,9.307h-15.806
	L234.775,130.504z"/>
<path style="fill:#FF5B61;" d="M251.265,139.004l1.812,4.469l-4.026,50.932l6.947,5.318l6.947-5.318l-4.026-50.932l1.812-4.469
	l-4.734-0.187L251.265,139.004z"/>
<path style="fill:#15BDB1;" d="M235.139,130.387l-37.487,11.963c0,0-4.853,2.522-6.319,10.195
	c-1.402,7.349-2.13,14.858-3.237,24.992c17.881,16.408,41.718,26.425,67.898,26.425s50.021-10.017,67.9-26.425
	c-1.109-10.133-1.834-17.643-3.237-24.992c-1.466-7.673-6.319-10.195-6.319-10.195l-37.231-11.8l-21.113,61.916l-20.858-62.079
	H235.139z"/>
<path style="fill:#20D0C2;" d="M235.139,130.387l-8.085,2.582l-1.554,20.516c0,0,0.428,1.684,1.711,1.535l7.298,2.743
	c0,0,0.478,0.478,0.051,1.083l-6.244,4.28l21.577,40.668c2.02,0.115,4.057,0.174,6.105,0.174c2.05,0,4.083-0.057,6.105-0.174
	l21.579-40.668l-6.244-4.28c-0.428-0.604,0.053-1.083,0.053-1.083l7.296-2.743c1.283,0.15,1.713-1.535,1.713-1.535l-1.548-20.45
	l-7.836-2.483l-21.113,61.916l-20.858-62.079L235.139,130.387z"/>
<path style="fill:#FED198;" d="M226.218,60.58c0,2.002-0.732,3.962-0.677,5.887c-6.853-1.272-3.543,19.078,0.333,21.879
	c0.309,0.223,1.065-0.271,1.704-0.681c1.343,7.485,12.821,27.49,20.117,35.908c2.028,2.337,14.422,2.3,16.426,0.09
	c7.477-8.228,18.937-28.467,20.289-35.996c0.639,0.41,1.398,0.904,1.704,0.681c3.878-2.798,7.188-23.151,0.335-21.879
	c0.055-1.925-0.677-3.885-0.677-5.887c-0.379-15.804-14.7-23.693-29.778-23.761c-15.079,0.066-29.399,7.957-29.779,23.761
	L226.218,60.58z"/>
<path style="fill:#666666;" d="M235.401,40.322c-2.159-0.251-9.966,2.139-10.903,10.398c-0.935,8.259-0.487,15.868-0.487,15.868
	s4.571,1.155,5.148,5.843c0.575,4.687,0.165,4.687,0.165,4.687l1.656-0.37l1.18-8.039c6.842-4.286-0.051-10.636,6.791-12.122
	c18.479,13.169,34.786,10.916,42.139,4.721c0,0-1.718,6.48-0.392,8.791c1.321,2.311,0.534,5.953,0.534,5.953l1.72-0.082
	c0,0-0.313-9.545,3.504-9.501c14.499-23.938-31.399-53.672-51.051-26.145L235.401,40.322z"/>
<g>
	<path style="fill:#FFFFFF;" d="M240.964,122.88c0.538,0.04-6.257,7.704-6.257,7.704l5.785,19.806l15.504-11.571
		C247.468,134.634,242.375,129.21,240.964,122.88z"/>
	<path style="fill:#FFFFFF;" d="M271.031,122.88c-0.536,0.04,6.257,7.704,6.257,7.704l-5.783,19.806l-15.509-11.571
		C264.529,134.634,269.62,129.21,271.031,122.88z"/>
</g>
<path style="fill:#666666;" d="M247.561,105.078l4.24-2.886c1.303,1.217,7.369,1.197,8.667-0.011l3.911,2.897
	c1.896,1.404,3.854,1.887,4.341,4.07l1.554,6.967c0.487,2.185-3.836,9.529-6.218,9.529h-16.816c-2.381,0-5.651-7.007-5.272-9.218
	l1.25-7.278C243.599,106.939,245.605,106.412,247.561,105.078z M254.903,106.71L254.903,106.71l-8.228,4.321
	c0,0,0.384,4.782,1.449,6.279c1.065,1.499,5.259-0.287,5.259-0.287s0-3.746,1.219-3.686c0.009,0.002,2.732,0.002,2.743,0
	c1.217-0.06,1.217,3.686,1.217,3.686s4.191,1.786,5.259,0.287c1.067-1.499,1.449-6.279,1.449-6.279l-8.228-4.321l-1.067,0.3
	l-1.065-0.3H254.903z"/>
<path style="fill:#CCCCCC;" d="M201.026,118.962l25.197-5.73v4.33l-24.242,5.73c-0.593,0.049-4.546,1.658-5.785,2.899
	c-1.239,1.239-2.011,2.95-2.011,4.831c0,12.338,0.02,24.668,0.02,36.986h-2.187h-2.167v-2.167v-34.819
	c0-3.076,1.259-5.871,3.281-7.893C195.154,121.107,199.383,119.16,201.026,118.962z"/>
<path style="fill:#FBB429;" d="M211.664,113.966l19.449-4.099c1.623-0.342,3.226,0.706,3.567,2.324l0.595,2.831
	c0.342,1.623-0.703,3.228-2.324,3.567l-19.449,4.101c-1.621,0.342-3.223-0.706-3.565-2.324l-0.598-2.831
	c-0.342-1.621,0.706-3.226,2.324-3.567V113.966z"/>
<path style="fill:#666666;" d="M192.01,158.927c5.766,0,10.442,4.674,10.442,10.442l-0.002,0.068h-20.878l-0.002-0.068
	C181.57,163.603,186.242,158.927,192.01,158.927z"/>
<g>
	<path style="fill:#FBB429;" d="M159.579,167.944h192.839v14.131H159.579V167.944z"/>
	<path style="fill:#FBB429;" d="M184.655,182.073h142.686v90.213c-21.122,11.769-45.446,18.479-71.342,18.479
		c-25.894,0-50.22-6.712-71.342-18.479v-90.213H184.655z"/>
</g>
<g>
	<path style="fill:#F5A209;" d="M159.579,182.073l25.076,15.892v-15.892H159.579z M352.418,182.073L352.418,182.073l-25.078,15.892
		v-15.892H352.418z"/>
	<path style="fill:#F5A209;" d="M184.655,182.073h142.686v6.002H184.655V182.073z"/>
</g>
<path style="fill:#FED198;" d="M157.423,283.522c0,1.632-0.593,3.228-0.551,4.791c-9.035-4.941-0.897,15.859,2.256,18.133
	c0.871,0.624,2.597-1.852,2.906-0.794c2.377,8.217,5.128,12.801,8.25,16.741l-0.708,7.366l-2.999,2.403l-6.317,4.024h42.816
	l-6.317-4.024l-2.994-2.403l-0.708-7.366c3.118-3.94,5.869-8.524,8.248-16.741c0.306-1.058,2.033,1.42,2.904,0.794
	c3.153-2.273,11.291-23.074,2.253-18.133c0.046-1.563-0.549-3.16-0.549-4.791c-0.309-12.867-0.706-26.279-24.244-26.335
	c-23.539,0.055-23.938,13.467-24.244,26.335H157.423z"/>
<path style="fill:#666666;" d="M199.366,260.038c9.909-1.155,13.461,20.838,7.503,28.059l-8.683,26.048l-5.894,5.924l-20.628,0.09
	l-5.973-4.899l-8.819-26.945c-11.805-19.489,16.51-48.134,42.492-28.275L199.366,260.038z"/>
<path style="fill:#15BDB1;" d="M164.686,333.364l-30.517,9.743c0,0-3.953,2.053-5.146,8.301c-1.142,5.982-1.733,12.098-2.635,20.351
	h110.561l0.002-0.004c-0.904-8.248-1.495-14.365-2.637-20.346c-1.193-6.246-5.139-8.301-5.139-8.301l-30.314-9.609l-34.171-0.132
	L164.686,333.364z"/>
<path style="fill:#FFFFFF;" d="M169.946,324.212h23.523c1.36,0,2.013,1.078,2.476,2.196l2.91,7.091l-34.173-0.132l2.785-6.956
	c0.452-1.131,1.116-2.196,2.476-2.196L169.946,324.212z"/>
<path style="fill:#FED198;" d="M306.084,283.522c0,1.632-0.595,3.228-0.551,4.791c-9.035-4.941-0.897,15.859,2.256,18.133
	c0.871,0.624,2.595-1.852,2.904-0.794c2.379,8.217,5.128,12.801,8.25,16.741l-0.706,7.366l-3.001,2.403l-6.317,4.024h42.816
	l-6.315-4.024l-2.994-2.403l-0.708-7.366c3.118-3.94,5.869-8.524,8.248-16.741c0.306-1.058,2.035,1.42,2.904,0.794
	c3.153-2.273,11.291-23.074,2.253-18.133c0.044-1.563-0.549-3.16-0.549-4.791c-0.309-12.867-0.706-26.279-24.247-26.335
	C306.789,257.242,306.393,270.654,306.084,283.522z"/>
<path style="fill:#666666;" d="M348.026,260.038c9.909-1.155,13.461,20.838,7.503,28.059l-8.685,26.048l-5.896,5.924l-20.626,0.09
	l-5.973-4.899l-8.819-26.945c-11.805-19.489,16.51-48.134,42.492-28.275L348.026,260.038z"/>
<path style="fill:#15BDB1;" d="M313.347,333.364l-30.519,9.743c0,0-3.951,2.053-5.144,8.301c-1.142,5.982-1.733,12.098-2.637,20.351
	h110.561l0.002-0.004c-0.904-8.248-1.495-14.365-2.637-20.346c-1.191-6.246-5.139-8.301-5.139-8.301l-30.314-9.609l-34.171-0.132
	L313.347,333.364z"/>
<path style="fill:#FFFFFF;" d="M318.607,324.212h23.523c1.363,0,2.013,1.078,2.476,2.196l2.908,7.091l-34.171-0.132l2.783-6.956
	c0.454-1.131,1.116-2.196,2.478-2.196L318.607,324.212z"/>
<path style="fill:#FED198;" d="M74.473,335.466c0,2.05-0.75,4.059-0.695,6.026c-11.362-6.215-1.129,19.941,2.838,22.8
	c1.096,0.789,3.265-2.328,3.651-0.997c2.988,10.332,6.447,16.095,10.374,21.05l-0.889,9.267l-3.77,3.023l-7.946,5.058h53.842
	l-7.942-5.058l-3.766-3.023l-0.891-9.267c3.922-4.952,7.382-10.718,10.374-21.05c0.386-1.332,2.56,1.786,3.651,0.997
	c3.964-2.86,14.199-29.013,2.835-22.8c0.057-1.967-0.69-3.975-0.69-6.026c-0.39-16.186-0.891-33.048-30.491-33.117
	c-29.604,0.071-30.103,16.931-30.488,33.117H74.473z"/>
<path style="fill:#666666;" d="M127.217,305.934c12.46-1.455,16.927,26.204,9.437,35.286l-10.918,32.753l-7.415,7.452l-25.938,0.112
	l-7.51-6.16l-11.09-33.888C58.94,316.982,94.545,280.962,127.217,305.934z"/>
<path style="fill:#15BDB1;" d="M83.605,398.142l-38.375,12.25c0,0-4.967,2.584-6.471,10.44c-1.435,7.523-2.181,15.213-3.314,25.589
	H174.48l0.002-0.002c-1.135-10.374-1.881-18.064-3.318-25.587c-1.499-7.856-6.462-10.44-6.462-10.44l-38.122-12.08l-42.972-0.168
	L83.605,398.142z"/>
<path style="fill:#FFFFFF;" d="M90.222,386.631h29.582c1.715,0,2.533,1.358,3.115,2.765l3.658,8.916l-42.974-0.168l3.501-8.747
	c0.569-1.422,1.402-2.765,3.115-2.765L90.222,386.631z"/>
<path style="fill:#FED198;" d="M225.51,335.466c0,2.05-0.75,4.059-0.695,6.026c-11.362-6.215-1.131,19.941,2.838,22.8
	c1.094,0.789,3.265-2.328,3.651-0.997c2.99,10.332,6.449,16.095,10.374,21.05l-0.889,9.267l-3.77,3.023l-7.946,5.058h53.842
	l-7.942-5.058l-3.766-3.023l-0.891-9.267c3.922-4.952,7.384-10.718,10.372-21.05c0.386-1.332,2.56,1.786,3.651,0.997
	c3.964-2.86,14.199-29.013,2.835-22.8c0.055-1.967-0.692-3.975-0.692-6.026c-0.388-16.186-0.889-33.048-30.488-33.117
	c-29.6,0.071-30.1,16.931-30.486,33.117H225.51z"/>
<path style="fill:#666666;" d="M278.252,305.934c12.46-1.455,16.927,26.204,9.439,35.286l-10.921,32.753l-7.413,7.452l-25.938,0.112
	l-7.512-6.16l-11.09-33.888C209.975,316.982,245.581,280.962,278.252,305.934z"/>
<path style="fill:#15BDB1;" d="M234.641,398.142l-38.377,12.25c0,0-4.967,2.584-6.471,10.44c-1.433,7.523-2.181,15.213-3.314,25.589
	h139.035l0.002-0.002c-1.133-10.374-1.881-18.064-3.318-25.587c-1.497-7.856-6.462-10.44-6.462-10.44l-38.122-12.08l-42.972-0.168
	V398.142z"/>
<path style="fill:#FFFFFF;" d="M241.257,386.631h29.582c1.715,0,2.536,1.358,3.115,2.765l3.658,8.916l-42.972-0.168l3.501-8.747
	c0.569-1.422,1.402-2.765,3.113-2.765L241.257,386.631z"/>
<path style="fill:#FED198;" d="M376.544,335.466c0,2.05-0.747,4.059-0.695,6.026c-11.362-6.215-1.129,19.941,2.838,22.8
	c1.096,0.789,3.265-2.328,3.651-0.997c2.988,10.332,6.449,16.095,10.376,21.05l-0.889,9.267l-3.77,3.023l-7.946,5.058h53.842
	l-7.94-5.058l-3.768-3.023l-0.891-9.267c3.922-4.952,7.384-10.718,10.374-21.05c0.384-1.332,2.56,1.786,3.651,0.997
	c3.969-2.86,14.199-29.013,2.835-22.8c0.057-1.967-0.69-3.975-0.69-6.026c-0.388-16.186-0.889-33.048-30.488-33.117
	c-29.6,0.071-30.1,16.931-30.488,33.117H376.544z"/>
<path style="fill:#666666;" d="M429.286,305.934c12.462-1.455,16.929,26.204,9.439,35.286l-10.921,32.753l-7.413,7.452
	l-25.938,0.112l-7.512-6.16l-11.088-33.888C361.006,316.982,396.614,280.962,429.286,305.934z"/>
<path style="fill:#15BDB1;" d="M385.676,398.142l-38.377,12.25c0,0-4.967,2.584-6.467,10.44c-1.438,7.523-2.183,15.213-3.316,25.589
	h139.035l0.002-0.002c-1.133-10.374-1.879-18.064-3.316-25.587c-1.499-7.856-6.465-10.44-6.465-10.44l-38.122-12.08l-42.97-0.168
	L385.676,398.142z"/>
<path style="fill:#FFFFFF;" d="M392.293,386.631h29.58c1.715,0,2.533,1.358,3.115,2.765l3.66,8.916l-42.974-0.168l3.501-8.747
	c0.569-1.422,1.402-2.765,3.115-2.765L392.293,386.631z"/>
<g>
</g>
<g>
</g>
<g>
</g>
<g>
</g>
<g>
</g>
<g>
</g>
<g>
</g>
<g>
</g>
<g>
</g>
<g>
</g>
<g>
</g>
<g>
</g>
<g>
</g>
<g>
</g>
<g>
</g>
</svg>
