<?xml version="1.0" encoding="iso-8859-1"?>
<!-- Generator: Adobe Illustrator 19.0.0, SVG Export Plug-In . SVG Version: 6.00 Build 0)  -->
<svg version="1.1" id="Layer_1" xmlns="http://www.w3.org/2000/svg" xmlns:xlink="http://www.w3.org/1999/xlink" x="0px" y="0px"
	 viewBox="0 0 512 512" style="enable-background:new 0 0 512 512;" xml:space="preserve">
<path style="fill:#5DDDD3;" d="M256.001,512C397,512,512,396.998,512,255.999S397,0,256.001,0C115,0,0,115,0,255.999
	S115,512,256.001,512z"/>
<path style="fill:#666666;" d="M164.231,252.956c12.451-20.929,32.074-45.226,12.147-82.16
	C147.042,42.537,282.231,16.53,302.675,69.465c33.26,12.543,32.376,81.586,15.268,117.715
	c-0.763,14.867-16.221,27.833,11.712,66.191l2.012-0.438l0,0c-36.237,10.502-129.125,5.668-167.433,0.024H164.231z"/>
<path style="fill:#FED198;" d="M199.749,186.524c10.193,21.414,13.965,29.776,26.623,39.397
	c-2.959,54.535-44.835,28.478-75.461,77.921c-2.641,4.268-10.92,25.6-18.217,46.348c33.928,22.219,74.488,35.148,118.071,35.148
	c43.581,0,84.14-12.931,118.069-35.148c-7.297-20.748-15.575-42.081-18.217-46.348c-30.623-49.443-72.502-23.389-75.461-77.921
	c12.661-9.624,16.43-17.983,26.623-39.397c2.5,1.304,5.11,3.077,7.14,0.795c2.028-2.282,11.683-31.906,9.946-35.904
	s-3.431-1.453-6.022,0.362c0.134-0.863-2.041,10.704-2.012,8.944c0.247-13.986-9.779-26.309-12.916-63.309
	c-29.073,53.769-112.807,31.654-109.234,54.361c-16.307-11.418,3.51,35.075,3.927,35.542c2.028,2.282,4.64,0.509,7.137-0.795
	L199.749,186.524z"/>
<path style="fill:#ECF0F1;" d="M219.618,251.38c-3.588,5.637-8.391,9.246-13.952,12.218l0.005,0.008l46.715,88.539l43.35-88.61
	c-6.203-3.329-11.447-7.468-15.111-14.353h-0.005l-29.64,14.741l-0.91,0.063l-26.298-14.075L219.618,251.38z"/>
<path style="fill:#FF5B61;" d="M243.482,264.269l2.765,8.241l-6.146,93.916l10.602,9.805l10.6-9.805l-6.143-93.916l2.765-8.241
	l-7.221-0.349L243.482,264.269z"/>
<path style="fill:#F0B97D;" d="M226.461,225.923c-0.729,12.666-3.851,20.682-8.598,26.288l33.12,11.709l33.795-10.437
	c-5.39-5.65-8.829-13.902-9.618-27.56c0,0-14.083,9.7-24.84,9.794C239.563,235.812,226.461,225.923,226.461,225.923z"/>
<path style="fill:#15BDB1;" d="M205.666,263.598c-15.531,8.297-37.021,11.633-54.752,40.247c-2.641,4.268-10.92,25.6-18.217,46.348
	c33.928,22.219,74.488,35.148,118.071,35.148c43.581,0,84.14-12.931,118.069-35.148c-7.297-20.748-15.575-42.081-18.217-46.348
	c-17.771-28.696-39.334-31.961-54.881-40.31l-44.649,87.527l-45.417-87.456l-0.005-0.008H205.666z"/>
<path style="fill:#FFFFFF;" d="M222.967,240.885l-7.043,14.684l20.934,35.174l13.692-26.823L222.967,240.885z M278.57,240.885
	L278.57,240.885l7.166,14.345l-21.057,35.513l-13.695-26.823L278.57,240.885z"/>
<path style="fill:#20D0C2;" d="M209.228,261.523l41.876,81.557l41.241-81.52c2.072,1.317,4.286,2.489,6.602,3.599l-47.846,93.494
	l-48.297-93.607c2.253-1.086,4.401-2.235,6.421-3.523H209.228z"/>
<path style="fill:#FFFFFF;" d="M133.668,221.26l47.883-10.891v8.234l-46.065,10.891c-1.128,0.092-8.635,3.15-10.993,5.508
	c-2.358,2.355-3.822,5.605-3.822,9.175c0,23.447,0.037,46.875,0.037,70.283h-4.155h-4.115v-4.115v-66.168
	c0-5.844,2.39-11.156,6.232-14.998c3.848-3.845,11.885-7.544,15.001-7.919H133.668z"/>
<path style="fill:#FBB429;" d="M153.886,211.772l36.953-7.79c3.079-0.648,6.13,1.34,6.778,4.42l1.133,5.377
	c0.65,3.079-1.34,6.13-4.42,6.778l-36.953,7.79c-3.079,0.651-6.13-1.34-6.778-4.417l-1.133-5.377
	c-0.648-3.079,1.338-6.13,4.417-6.778L153.886,211.772z"/>
<path style="fill:#807D7D;" d="M116.542,297.203c10.954,0,19.838,8.884,19.838,19.838l-0.003,0.134H96.704l-0.003-0.134
	C96.702,306.085,105.586,297.203,116.542,297.203z"/>
<g>
	<path style="fill:#FBB429;" d="M72.783,313.725h366.432v26.846H72.783V313.725z"/>
	<path style="fill:#FBB429;" d="M120.435,340.572h271.133v171.426h-142.68H120.435V340.572z"/>
</g>
<g>
	<path style="fill:#F5A209;" d="M72.783,340.572l47.652,30.199v-30.199H72.783z M439.215,340.572L439.215,340.572l-47.652,30.199
		v-30.199H439.215z"/>
	<path style="fill:#F5A209;" d="M120.435,340.572h271.133v11.405H120.435V340.572z"/>
</g>
<rect x="120.435" y="416.012" style="fill:#F7A713;" width="271.133" height="43.662"/>
<circle style="fill:#FAAC1B;" cx="255.999" cy="437.843" r="50.285"/>
<g>
</g>
<g>
</g>
<g>
</g>
<g>
</g>
<g>
</g>
<g>
</g>
<g>
</g>
<g>
</g>
<g>
</g>
<g>
</g>
<g>
</g>
<g>
</g>
<g>
</g>
<g>
</g>
<g>
</g>
</svg>
