<?xml version="1.0" encoding="iso-8859-1"?>
<!-- Generator: Adobe Illustrator 19.0.0, SVG Export Plug-In . SVG Version: 6.00 Build 0)  -->
<svg version="1.1" id="Layer_1" xmlns="http://www.w3.org/2000/svg" xmlns:xlink="http://www.w3.org/1999/xlink" x="0px" y="0px"
	 viewBox="0 0 512.008 512.008" style="enable-background:new 0 0 512.008 512.008;" xml:space="preserve">
<path style="fill:#5DDDD3;" d="M256.004,0.008c141.385,0,256,114.615,256,256s-114.615,256-256,256s-256-114.615-256-256
	S114.619,0.008,256.004,0.008z"/>
<path style="fill:#C8CACC;" d="M144.003,412.122h6.526c38.364,0.393,75.374,7.718,104.301,25.246
	c28.983-17.528,68.284-24.849,106.647-25.246H368c33.177,0.323,67.623,5.63,99.904,13.833v14.794
	c-77.803-19.519-159.948-18.803-195.143,4.365c-6.203,7.205-14.637,6.706-17.833,5.667c-2.628,1.035-9.482,1.538-15.685-5.667
	c-35.195-23.168-117.34-23.884-195.143-4.365v-14.794C76.38,417.752,110.827,412.45,144.003,412.122z"/>
<path style="fill:#FFFFFF;" d="M44.104,149.028c73.632-22.47,168.156-22.323,211.9,12.614
	c43.749-34.936,138.272-35.084,211.9-12.614v276.923c-72.741-18.48-156.489-22.276-211.9,12.554
	c-55.407-34.83-139.154-31.034-211.9-12.554V149.028z"/>
<path style="fill:#ECF0F1;" d="M241.644,152.307c4.582,2.342,10.517,6.194,14.355,9.335c4.143-3.307,8.739-6.3,13.727-8.997v278.276
	c-4.739,2.291-9.325,4.813-13.727,7.579l-13.113-7.288l-1.242-278.909V152.307z"/>
<path style="fill:#20D0C2;" d="M256.004,189.959c-47.287-46.663-152.941-32.174-211.9-17.214v-3.242
	c59.263-14.905,162.844-28.715,211.9,16.558c49.056-45.273,152.637-31.468,211.9-16.558v3.242
	C408.945,157.785,303.295,143.296,256.004,189.959z M256.004,210.656L256.004,210.656c47.292-46.659,152.941-32.174,211.9-17.214
	v-3.242c-59.263-14.905-162.844-28.715-211.9,16.563c-49.056-45.278-152.632-31.468-211.9-16.563v3.242
	C103.062,178.482,208.717,163.993,256.004,210.656z M256.004,231.353L256.004,231.353c47.292-46.659,152.941-32.174,211.9-17.214
	v-3.242c-59.263-14.905-162.844-28.715-211.9,16.558c-49.056-45.278-152.632-31.468-211.9-16.558v3.242
	C103.062,199.178,208.717,184.689,256.004,231.353z M256.004,252.049L256.004,252.049c-47.287-46.663-152.941-32.174-211.9-17.214
	v-3.242c59.263-14.905,162.844-28.715,211.9,16.558c49.056-45.273,152.637-31.468,211.9-16.558v3.242
	C408.945,219.875,303.295,205.386,256.004,252.049z M256.004,272.746L256.004,272.746c-47.287-46.663-152.941-32.174-211.9-17.214
	v-3.242c59.263-14.905,162.844-28.715,211.9,16.558c49.056-45.278,152.637-31.468,211.9-16.558v3.242
	C408.945,240.572,303.295,226.083,256.004,272.746z M256.004,293.443L256.004,293.443c47.292-46.659,152.941-32.174,211.9-17.214
	v-3.242c-59.263-14.905-162.844-28.715-211.9,16.558c-49.056-45.278-152.632-31.468-211.9-16.558v3.242
	C103.062,261.268,208.717,246.779,256.004,293.443z M256.004,314.14L256.004,314.14c47.292-46.659,152.941-32.174,211.9-17.214
	v-3.242c-59.263-14.905-162.844-28.715-211.9,16.558c-49.056-45.278-152.632-31.468-211.9-16.558v3.242
	C103.062,281.965,208.717,267.476,256.004,314.14z M256.004,334.836L256.004,334.836c-47.287-46.663-152.941-32.174-211.9-17.214
	v-3.242c59.263-14.905,162.844-28.715,211.9,16.558c49.056-45.278,152.637-31.468,211.9-16.558v3.242
	C408.945,302.662,303.295,288.173,256.004,334.836z M256.004,355.533L256.004,355.533c-47.287-46.659-152.941-32.174-211.9-17.214
	v-3.242c59.263-14.909,162.844-28.715,211.9,16.558c49.056-45.278,152.637-31.468,211.9-16.558v3.242
	C408.945,323.359,303.295,308.874,256.004,355.533z M256.004,376.23L256.004,376.23c47.292-46.659,152.941-32.174,211.9-17.214
	v-3.242c-59.263-14.905-162.844-28.715-211.9,16.558c-49.056-45.278-152.632-31.468-211.9-16.558v3.242
	C103.062,344.055,208.717,329.566,256.004,376.23z M256.004,396.926L256.004,396.926c47.292-46.663,152.941-32.174,211.9-17.214
	v-3.242c-59.263-14.905-162.844-28.715-211.9,16.558c-49.056-45.273-152.632-31.468-211.9-16.558v3.242
	C103.062,364.752,208.717,350.263,256.004,396.926z M256.004,417.623L256.004,417.623c-47.287-46.663-152.941-32.174-211.9-17.214
	v-3.242c59.263-14.905,162.844-28.715,211.9,16.558c49.056-45.278,152.637-31.468,211.9-16.558v3.242
	C408.945,385.449,303.295,370.96,256.004,417.623z"/>
<g>
	<path style="fill:#FF5B61;" d="M91.326,138.178l3.381-0.531v278.295l-3.381,0.49V138.178z"/>
	<path style="fill:#FF5B61;" d="M420.681,138.178l-3.381-0.531v278.295l3.381,0.49V138.178z"/>
</g>
<g>
	<path style="fill:#C8CACC;" d="M296.437,14.501l115.871,55.887c6.129,4.67,4.351,33.528,3.607,38.899
		c-0.748,5.372-4.402,3.492-8.429-0.697c-4.028-4.189,8.568-28.576-1.709-33.033L277.749,20.021
		c1.252-2.286,3.173-4.633,5.409-5.362c3.215-1.048,6.85-1.316,13.274-0.157H296.437z"/>
	<path style="fill:#C8CACC;" d="M450.085,67.003L324.242,40.297c-7.704-0.055-23.958,23.851-26.66,28.558
		c-2.697,4.707,1.344,5.455,7.094,4.605c5.746-0.845,10.711-27.842,21.565-25.08l135.242,34.419
		c0.406-2.573,0.323-5.603-0.998-7.552C458.583,72.453,455.877,70.014,450.085,67.003z"/>
</g>
<path style="fill:#FFFFFF;" d="M459.318,89.136c-1.275,2.286-2.531,4.586-3.787,6.84c-2.342,4.212-4.674,8.434-6.997,12.655
	c-9.653,17.561-43.948,10.304-56.534-0.106c-0.545-0.453-1.058-0.947-1.538-1.473c-3.113-3.409-4.896-8.226-5.958-12.646
	c-1.289-5.353-1.755-10.997-1.898-16.498c-0.088-3.423,0.143-7.247-0.042-10.679c0.12-0.54,0.254-1.067,0.393-1.575l22.831,9.903
	c10.272,4.457-2.319,28.844,1.709,33.033c4.028,4.189,7.681,6.069,8.425,0.697c0.748-5.372,2.522-34.225-3.607-38.899l-0.453-0.217
	l49.629,12.632c-0.319,2.102-1.039,4.309-2.162,6.337L459.318,89.136z M389.399,54.121L389.399,54.121l60.681,12.877
	c-16.189-8.425-45.255-14.799-57.102-15.607c-1.169,0.688-2.388,1.575-3.58,2.725V54.121z M275.587,26.353L275.587,26.353
	c-0.388,2.587-0.804,5.178-1.192,7.732c-0.725,4.762-1.46,9.529-2.212,14.29c-3.108,19.791,28.456,35.043,44.779,34.507
	c0.711-0.023,1.418-0.102,2.12-0.222c4.545-0.79,8.91-3.51,12.457-6.36c4.295-3.446,8.12-7.621,11.598-11.884
	c2.162-2.656,4.323-5.815,6.563-8.42c0.236-0.503,0.453-0.998,0.651-1.483l-24.115-6.138c-10.854-2.762-15.815,24.235-21.565,25.08
	c-5.746,0.845-9.792,0.097-7.09-4.605c2.697-4.702,18.951-28.613,26.66-28.558l0.494,0.106l-46.982-20.378
	C276.724,21.878,275.938,24.062,275.587,26.353z M352.314,41.447L352.314,41.447l-55.878-26.951
	c17.962,3.242,44.848,15.995,54.714,22.6C351.654,38.353,352.074,39.808,352.314,41.447z"/>
<path style="fill:#0E7886;" d="M275.851,1.241c14.06,0.3,72.626,19.034,78.607,25.727c0.665,0.744,13.884,9.496,13.87,9.524
	l5.579,2.365l5.861,1.547c0.009-0.028,15.819,1.136,16.803,0.951c8.799-1.63,66.252,19.256,77.808,27.676
	c3.233,1.284,6.531,2.748,6.448,3.376c0.388,1.603-4.037,11.431-4.485,11.755c-0.351,0.125-1.949,0.111-4.42-0.005
	c-0.54,0.48-1.109,1.155-1.667,2.069c-2.323,3.81-11.561,20.54-14.706,26.262c-12.392,22.54-52.118,15.884-68.649,2.199
	c-14.923-12.351-11.889-42.363-12.401-48.095c-0.102-1.127,0.046-2.831,0.342-4.84c-2.203-2.55-5.025-5.293-6.956-5.27
	c-1.51-1.201-5.422-0.757-8.725-0.088c-0.993,1.769-1.921,3.205-2.693,4.037c-3.907,4.222-19.875,29.814-39.236,30.447
	c-21.45,0.707-56.945-18.337-52.95-43.749c1.012-6.452,3.944-25.334,4.434-29.768c0.125-1.118,0.129-2.051,0.055-2.813
	c-1.718-1.219-2.79-2.046-2.974-2.332c-0.152-0.531,2.36-11.011,3.644-12.046c0.296-0.503,3.312,0.194,6.406,1.062L275.851,1.241z
	 M275.587,26.358L275.587,26.358c-0.388,2.591-0.799,5.178-1.192,7.732c-0.725,4.762-1.46,9.529-2.208,14.29
	c-3.113,19.796,28.456,35.047,44.779,34.511c0.711-0.023,1.418-0.097,2.12-0.222c4.545-0.79,8.91-3.51,12.457-6.355
	c4.291-3.446,8.12-7.626,11.593-11.889c2.166-2.656,4.323-5.815,6.568-8.42c3.903-8.351,3.127-14.697,1.446-18.895
	c-13.219-8.859-57.009-28.743-68.917-21.999c-3.025,1.714-5.875,6.212-6.646,11.251V26.358z M459.322,89.141L459.322,89.141
	c2.471-4.457,2.974-9.759,1.63-12.965c-5.293-12.618-52.095-23.69-67.97-24.775c-3.898,2.296-8.397,6.836-10.42,15.829
	c0.18,3.436-0.046,7.256,0.042,10.679c0.143,5.501,0.61,11.145,1.898,16.498c1.062,4.42,2.85,9.242,5.963,12.651
	c0.48,0.527,0.993,1.021,1.543,1.473c12.586,10.415,46.881,17.667,56.534,0.106c2.323-4.222,4.656-8.443,6.997-12.655
	c1.256-2.259,2.513-4.559,3.787-6.84H459.322z"/>
<path style="fill:#FED198;" d="M217.317,252.41l-40.253-21.681l18.586-18.591l21.662,40.271H217.317z"/>
<path style="fill:#FF5B61;" d="M182.505,225.288c4.642-0.425,7.399-2.804,7.713-7.713L44.852,72.204l-7.713,7.718L182.505,225.288z"
	/>
<path style="fill:#EC4B53;" d="M182.505,225.288c0.393,3.713-1.201,5.718-5.436,5.436L31.698,85.353l5.436-5.436l145.367,145.367
	L182.505,225.288z"/>
<path style="fill:#ECF0F1;" d="M50.284,66.767L31.698,85.353l-4.591-4.591l18.586-18.586L50.284,66.767z"/>
<path style="fill:#20D0C2;" d="M31.92,57.585l-9.404,9.404c-2.526,2.526-2.526,6.656,0,9.182l4.591,4.591l18.586-18.586
	l-4.591-4.591C38.575,55.063,34.446,55.059,31.92,57.585z"/>
<path style="fill:#666666;" d="M219.936,254.262l-0.776,0.771l-16.937-10.757l6.933-6.933l10.78,16.914V254.262z"/>
<path style="fill:#EC4B53;" d="M190.219,217.575c3.714,0.393,5.718-1.196,5.436-5.436L50.284,66.772l-5.436,5.436L190.214,217.58
	L190.219,217.575z"/>
<g>
</g>
<g>
</g>
<g>
</g>
<g>
</g>
<g>
</g>
<g>
</g>
<g>
</g>
<g>
</g>
<g>
</g>
<g>
</g>
<g>
</g>
<g>
</g>
<g>
</g>
<g>
</g>
<g>
</g>
</svg>
