<?xml version="1.0" encoding="iso-8859-1"?>
<!-- Generator: Adobe Illustrator 19.0.0, SVG Export Plug-In . SVG Version: 6.00 Build 0)  -->
<svg version="1.1" id="Layer_1" xmlns="http://www.w3.org/2000/svg" xmlns:xlink="http://www.w3.org/1999/xlink" x="0px" y="0px"
	 viewBox="0 0 512 512" style="enable-background:new 0 0 512 512;" xml:space="preserve">
<path style="fill:#FFCA4F;" d="M255.999,0c141.388,0,256,114.614,256,256s-114.612,256-256,256C114.615,512,0.001,397.386,0.001,256
	S114.615,0,255.999,0z"/>
<path style="fill:#0E7886;" d="M163.173,72.398h185.652c2.915,0,5.307,2.39,5.307,5.305v356.596c0,2.915-2.392,5.305-5.307,5.305
	H163.173c-2.913,0-5.305-2.39-5.305-5.305V77.703C157.868,74.788,160.26,72.398,163.173,72.398z"/>
<path style="fill:#FFFFFF;" d="M167.192,121.954H344.81v268.094H167.192V121.954z"/>
<path style="fill:#20D0C2;" d="M211.421,95.068h89.148c2.037,0,3.704,1.676,3.704,3.709c0,2.035-1.665,3.706-3.704,3.706h-89.148
	c-2.039,0-3.704-1.673-3.704-3.706S209.382,95.068,211.421,95.068z"/>
<path style="fill:#076673;" d="M255.999,400.239c8.674,0,15.71,7.036,15.71,15.71s-7.036,15.707-15.71,15.707
	c-8.676,0-15.71-7.033-15.71-15.707S247.325,400.239,255.999,400.239z"/>
<path style="fill:#20D0C2;" d="M255.075,400.239c8.165,0,14.788,6.621,14.788,14.783c0,8.165-6.623,14.786-14.788,14.786
	c-8.165,0-14.786-6.621-14.786-14.786C240.289,406.86,246.911,400.239,255.075,400.239z"/>
<path style="fill:#ECF0F1;" d="M183.477,90.833c4.507,0,8.158,3.651,8.158,8.16c0,4.507-3.651,8.158-8.158,8.158
	c-4.507,0-8.16-3.651-8.16-8.158C175.317,94.486,178.968,90.833,183.477,90.833z"/>
<path style="fill:#20D0C2;" d="M183.477,91.358c4.216,0,7.633,3.415,7.633,7.633c0,4.216-3.418,7.633-7.633,7.633
	c-4.218,0-7.633-3.418-7.633-7.633C175.844,94.773,179.259,91.358,183.477,91.358z"/>
<path style="fill:#ECF0F1;" d="M183.477,96.444c1.407,0,2.547,1.14,2.547,2.549c0,1.407-1.14,2.547-2.547,2.547
	c-1.409,0-2.549-1.14-2.549-2.547C180.928,97.584,182.068,96.444,183.477,96.444z"/>
<path style="fill:#15BDB1;" d="M255.999,165.63c30.081,0,54.468,24.386,54.468,54.466c0,30.083-24.388,54.468-54.468,54.468
	c-30.083,0-54.471-24.388-54.471-54.468C201.528,190.013,225.916,165.63,255.999,165.63z"/>
<path style="fill:#20D0C2;" d="M255.999,165.628c9.831,0,19.052,2.608,27.014,7.161c12.307,9.988,20.174,25.232,20.174,42.315
	c0,30.083-24.388,54.466-54.468,54.466c-9.829,0-19.052-2.606-27.012-7.161c-12.305-9.986-20.174-25.23-20.174-42.313
	c0-30.083,24.388-54.468,54.468-54.468H255.999z"/>
<path style="fill:#ECF0F1;" d="M255.999,165.412c15.101,0,28.773,6.123,38.669,16.016c9.895,9.895,16.016,23.568,16.016,38.669
	c0,15.103-6.123,28.775-16.016,38.669c-9.895,9.895-23.568,16.016-38.669,16.016c-15.103,0-28.775-6.121-38.669-16.016
	c-9.895-9.893-16.016-23.565-16.016-38.669c0-15.101,6.121-28.773,16.016-38.669C227.223,171.532,240.896,165.412,255.999,165.412z
	 M298.795,248.36L298.795,248.36c0.304,0.165,0.514,0.441,0.604,0.754c5.34-7.973,8.542-17.5,8.786-27.757h-20.692
	c-0.161,7.499-1.649,14.975-4.463,21.976C289.356,244.537,294.835,246.213,298.795,248.36z M298.301,250.689L298.301,250.689
	c-0.232,0.018-0.47-0.026-0.69-0.148c-3.865-2.097-9.289-3.722-15.575-4.882c-0.567,1.255-1.177,2.494-1.83,3.711
	c-4.919,9.148-12.323,17.165-22.209,22.888c13.622-0.514,25.905-6.244,34.914-15.253c1.958-1.958,3.761-4.07,5.389-6.319
	L298.301,250.689z M253.997,272.261L253.997,272.261c-9.882-5.724-17.288-13.741-22.207-22.888c-0.65-1.21-1.259-2.445-1.823-3.691
	c-6.275,1.155-11.701,2.778-15.593,4.862c-0.216,0.115-0.454,0.161-0.684,0.143c1.629,2.251,3.433,4.363,5.393,6.324
	c9.007,9.009,21.292,14.739,34.909,15.253L253.997,272.261z M212.603,249.119L212.603,249.119c0.088-0.313,0.298-0.591,0.609-0.758
	c3.986-2.134,9.459-3.803,15.765-5.003c-2.818-7.009-4.308-14.492-4.471-22h-20.692
	C204.055,231.617,207.261,241.146,212.603,249.119z M203.812,218.875L203.812,218.875h20.688c0.143-8.118,1.843-16.208,5.095-23.691
	c-6.531-1.202-12.21-2.897-16.32-5.087C207.525,198.275,204.059,208.177,203.812,218.875z M214.762,188.084L214.762,188.084
	c4.011,2.064,9.538,3.658,15.899,4.787c0.395-0.807,0.803-1.605,1.232-2.394c4.917-9.033,12.279-16.924,22.084-22.542
	c-13.611,0.518-25.887,6.246-34.889,15.249C217.546,184.724,216.1,186.362,214.762,188.084z M258.023,167.934L258.023,167.934
	c9.805,5.618,17.167,13.509,22.082,22.542c0.434,0.796,0.847,1.601,1.241,2.412c6.376-1.129,11.906-2.732,15.888-4.807
	c-1.336-1.722-2.78-3.358-4.322-4.899C283.91,174.18,271.633,168.452,258.023,167.934z M298.729,190.102L298.729,190.102
	c-4.088,2.2-9.765,3.903-16.316,5.106c3.248,7.479,4.943,15.557,5.084,23.669h20.69
	C307.941,208.179,304.477,198.277,298.729,190.102z M257.242,170.346L257.242,170.346v24.56c7.477-0.049,14.9-0.582,21.552-1.596
	c-0.278-0.553-0.567-1.102-0.862-1.647C273.307,183.159,266.41,175.711,257.242,170.346z M257.242,197.391L257.242,197.391v21.486
	h27.783c-0.146-7.975-1.854-15.917-5.126-23.239c-6.985,1.118-14.803,1.7-22.657,1.751V197.391z M257.242,221.36L257.242,221.36
	v19.68c8.094,0.053,16.148,0.672,23.296,1.854c2.822-6.848,4.315-14.177,4.482-21.533h-27.779V221.36z M257.242,243.523
	L257.242,243.523v26.317c9.223-5.461,16.153-13.026,20.785-21.643c0.525-0.977,1.019-1.967,1.486-2.968
	c-6.835-1.089-14.523-1.66-22.271-1.709V243.523z M254.76,269.84L254.76,269.84v-26.317c-7.737,0.057-15.423,0.635-22.262,1.724
	c0.465,0.997,0.957,1.982,1.477,2.952c4.632,8.617,11.562,16.181,20.785,21.643V269.84z M254.76,241.04L254.76,241.04v-19.68
	h-27.779c0.165,7.362,1.662,14.702,4.491,21.555c7.153-1.188,15.205-1.812,23.285-1.874H254.76z M254.76,218.877L254.76,218.877
	v-21.488c-7.843-0.06-15.659-0.65-22.648-1.768c-3.279,7.327-4.992,15.275-5.137,23.259h27.785V218.877z M254.76,194.906
	L254.76,194.906v-24.56c-9.166,5.364-16.064,12.812-20.692,21.316c-0.293,0.54-0.578,1.083-0.851,1.632
	C239.875,194.311,247.292,194.851,254.76,194.906z"/>
<path style="fill:#666666;" d="M286.911,161.578l0.789,13.794c-4.485,7.6-18.798,13.242-32.892,13.099
	c-13.43-0.134-26.683-5.708-30.325-12.726l-0.075-13.509l30.008,8.284l32.493-8.936L286.911,161.578z"/>
<path style="fill:#807D7D;" d="M205.896,156.782l48.522-16.391l48.522,16.391l-48.522,16.391L205.896,156.782z"/>
<path style="fill:#FF5B61;" d="M223.145,190.335l-2.22,14.226c-0.037,0.232,0.743,0.545,1.118,0.084
	c0.489,0.587,1.138,0.346,1.334-0.06c0.247,0.403,0.825,0.624,1.246,0.022c0.373,0.463,1.206,0.141,1.147-0.245l-2.209-14.038
	c-0.055-0.212-0.384-0.176-0.412,0.011H223.145z"/>
<path style="fill:#FBB429;" d="M254.751,152.628c0.293-0.088,0.602,0.079,0.688,0.373c0.088,0.293-0.079,0.604-0.373,0.69
	l-31.207,9.382v27.212c0,0.306-0.247,0.556-0.553,0.556s-0.556-0.249-0.556-0.556V162.66h0.002c0-0.238,0.157-0.459,0.395-0.531
	l31.604-9.503V152.628z"/>
<path style="fill:#FFFFFF;" d="M223.345,187.742c1.217,0,2.203,0.986,2.203,2.203s-0.983,2.203-2.203,2.203
	c-1.215,0-2.203-0.983-2.203-2.203C221.143,188.73,222.128,187.742,223.345,187.742z"/>
<path style="fill:#ECF0F1;" d="M225.131,189.383c0,0.922-0.586,1.707-1.404,2c-0.225,0.082-0.467,0.126-0.723,0.126
	c-0.011,0-0.026,0-0.04,0c-0.725-0.013-1.36-0.39-1.735-0.957c0.223,0.772,0.853,1.369,1.643,1.541
	c0.152,0.035,0.311,0.051,0.474,0.051c0.17,0,0.333-0.018,0.489-0.053c0.981-0.225,1.711-1.1,1.711-2.15
	c0-0.628-0.265-1.195-0.686-1.596c0.172,0.306,0.269,0.661,0.269,1.036L225.131,189.383z"/>
<path style="fill:#20D0C2;" d="M186.738,303.232h122.428v4.13c-5.797,7.391-4.84,15.608,0,21.764v4.13H186.738
	C167.613,333.256,167.611,303.232,186.738,303.232z"/>
<path style="fill:#FFFFFF;" d="M309.169,329.126c-4.941-7.254-5.314-14.51,0-21.764H186.74c-5.757,0-10.48,4.906-10.48,10.883
	c0,5.977,4.725,10.881,10.48,10.881H309.169z"/>
<g>
	<path style="fill:#ECF0F1;" d="M307.996,309.112c0.355-0.584,0.743-1.169,1.173-1.753H186.74c-11.708,0-14.993,16.783-3.182,21.241
		c-8.065-3.925-5.054-17.304,3.409-19.489H307.996z"/>
	<path style="fill:#ECF0F1;" d="M306.785,311.185H178.783c0.236-0.287,0.489-0.562,0.752-0.822h127.663
		c-0.146,0.273-0.284,0.547-0.414,0.822H306.785z M177.716,312.733L177.716,312.733c-0.15,0.267-0.293,0.54-0.423,0.822h128.575
		c0.084-0.273,0.176-0.547,0.273-0.822H177.714H177.716z M176.708,315.105L176.708,315.105c-0.077,0.269-0.148,0.542-0.207,0.82
		h128.836c0.042-0.271,0.086-0.549,0.143-0.82H176.708z M176.287,317.475L176.287,317.475c-0.02,0.254-0.029,0.509-0.029,0.769
		v0.055h128.915c-0.002-0.276,0.004-0.547,0.015-0.822H176.287V317.475z M176.373,319.848L176.373,319.848
		c0.042,0.278,0.093,0.551,0.15,0.822h128.842c-0.044-0.271-0.079-0.547-0.108-0.822H176.371H176.373z M176.988,322.22
		L176.988,322.22c0.108,0.28,0.225,0.551,0.353,0.822h128.578c-0.084-0.271-0.163-0.547-0.234-0.822H176.988z M178.243,324.59
		L178.243,324.59c0.198,0.284,0.412,0.558,0.633,0.822h127.974c-0.128-0.271-0.251-0.545-0.366-0.822H178.243z M180.492,326.963
		L180.492,326.963c0.388,0.302,0.798,0.578,1.228,0.822h126.479c-0.179-0.269-0.351-0.542-0.518-0.822H180.492z"/>
</g>
<path style="fill:#FF5B61;" d="M319.666,333.253H177.652v5.274c6.723,9.441,5.614,19.941,0,27.81v5.274h142.014
	c22.187,0,22.19-38.36,0-38.36V333.253z"/>
<path style="fill:#FFFFFF;" d="M177.652,366.339c5.733-9.271,6.165-18.541,0-27.81h142.014c6.678,0,12.158,6.268,12.158,13.904
	c0,7.638-5.479,13.906-12.158,13.906H177.652z"/>
<g>
	<path style="fill:#ECF0F1;" d="M179.012,340.77c-0.41-0.747-0.864-1.495-1.36-2.24h142.014c13.582,0,17.392,21.442,3.691,27.142
		c9.355-5.018,5.863-22.112-3.955-24.902H179.012z"/>
	<path style="fill:#ECF0F1;" d="M180.417,343.415h148.479c-0.276-0.368-0.567-0.719-0.873-1.049H179.936
		C180.106,342.714,180.265,343.065,180.417,343.415z M330.135,345.395L330.135,345.395c0.176,0.342,0.342,0.69,0.494,1.05H181.477
		c-0.095-0.351-0.201-0.701-0.315-1.05H330.135z M331.303,348.425L331.303,348.425c0.09,0.344,0.172,0.692,0.238,1.049H182.095
		c-0.046-0.348-0.099-0.699-0.163-1.049H331.303z M331.79,351.452L331.79,351.452c0.02,0.326,0.031,0.653,0.031,0.981v0.071H182.284
		c0.002-0.348-0.007-0.699-0.02-1.052H331.79z M331.689,354.482L331.689,354.482c-0.046,0.355-0.106,0.706-0.174,1.052H182.059
		c0.049-0.348,0.093-0.699,0.126-1.052H331.689z M330.977,357.511L330.977,357.511c-0.126,0.357-0.262,0.708-0.412,1.052H181.418
		c0.097-0.348,0.19-0.697,0.271-1.052h149.286H330.977z M329.522,360.54L329.522,360.54c-0.232,0.364-0.474,0.717-0.732,1.052
		H180.342c0.15-0.348,0.293-0.697,0.426-1.052H329.522z M326.915,363.57L326.915,363.57c-0.45,0.388-0.928,0.739-1.422,1.052
		H178.779c0.209-0.348,0.41-0.697,0.602-1.052H326.915z"/>
</g>
<path style="fill:#FBB429;" d="M298.092,273.158h-94.53v4.13c4.476,7.386,3.735,15.606,0,21.764v4.127h94.53
	c14.766,0,14.768-30.023,0-30.023V273.158z"/>
<path style="fill:#FFFFFF;" d="M203.561,299.052c3.814-7.256,4.101-14.512,0-21.764h94.53c4.445,0,8.092,4.906,8.092,10.881
	c0,5.98-3.649,10.883-8.092,10.883H203.561z"/>
<g>
	<path style="fill:#ECF0F1;" d="M204.465,279.041c-0.276-0.584-0.575-1.169-0.906-1.753h94.53c9.042,0,11.578,16.781,2.456,21.241
		c6.229-3.927,3.903-17.306-2.633-19.489h-93.45H204.465z"/>
	<path style="fill:#ECF0F1;" d="M205.4,281.111h98.832c-0.181-0.284-0.375-0.56-0.578-0.82H205.08
		C205.193,280.562,205.301,280.838,205.4,281.111z M305.059,282.663L305.059,282.663c0.119,0.267,0.229,0.538,0.329,0.822h-99.28
		c-0.064-0.276-0.134-0.549-0.209-0.822H305.059z M305.837,285.033L305.837,285.033c0.062,0.271,0.115,0.542,0.161,0.822h-99.48
		c-0.031-0.271-0.068-0.549-0.11-0.822h99.427H305.837z M306.166,287.406L306.166,287.406c0.013,0.251,0.02,0.507,0.02,0.767v0.055
		h-99.54c0.002-0.273-0.004-0.549-0.013-0.822h99.531H306.166z M306.095,289.776L306.095,289.776
		c-0.031,0.278-0.068,0.553-0.115,0.822h-99.483c0.031-0.271,0.06-0.545,0.082-0.822H306.095z M305.621,292.148L305.621,292.148
		c-0.084,0.278-0.176,0.551-0.271,0.82h-99.28c0.066-0.271,0.126-0.545,0.179-0.82H305.621z M304.653,294.519L304.653,294.519
		c-0.154,0.284-0.318,0.56-0.489,0.822h-98.812c0.099-0.271,0.194-0.547,0.284-0.822H304.653z M302.92,296.891L302.92,296.891
		c-0.302,0.302-0.617,0.578-0.948,0.82h-97.661c0.141-0.269,0.271-0.542,0.399-0.82h98.208H302.92z"/>
</g>
<g>
</g>
<g>
</g>
<g>
</g>
<g>
</g>
<g>
</g>
<g>
</g>
<g>
</g>
<g>
</g>
<g>
</g>
<g>
</g>
<g>
</g>
<g>
</g>
<g>
</g>
<g>
</g>
<g>
</g>
</svg>
