<?xml version="1.0" encoding="iso-8859-1"?>
<!-- Generator: Adobe Illustrator 19.0.0, SVG Export Plug-In . SVG Version: 6.00 Build 0)  -->
<svg version="1.1" id="Layer_1" xmlns="http://www.w3.org/2000/svg" xmlns:xlink="http://www.w3.org/1999/xlink" x="0px" y="0px"
	 viewBox="0 0 512 512" style="enable-background:new 0 0 512 512;" xml:space="preserve">
<path style="fill:#FF757C;" d="M256.001,512C397,512,512,397,512,255.999C512,115,396.998,0,256.001,0C115,0,0,115,0,255.999
	C0,397,115,512,256.001,512z"/>
<path style="fill:#666666;" d="M175.061,242.873c11.646-19.575,29.999-42.301,11.36-76.846
	C158.985,46.065,285.429,21.737,304.548,71.251c31.109,11.73,30.282,76.308,14.282,110.1c-0.711,13.904-15.174,26.033,10.956,61.908
	l1.881-0.409l0,0c-33.894,9.82-120.773,5.298-156.603,0.024H175.061z"/>
<path style="fill:#FED198;" d="M208.284,180.737c9.535,20.029,13.06,27.848,24.9,36.85c-2.765,51.007-41.934,26.634-70.577,72.882
	c-2.471,3.992-10.214,23.945-17.039,43.35c31.736,20.782,69.669,32.877,110.436,32.877c40.764,0,78.7-12.095,110.433-32.877
	c-6.825-19.405-14.568-39.358-17.039-43.35c-28.643-46.249-67.812-21.878-70.579-72.882c11.843-9.002,15.368-16.821,24.9-36.85
	c2.337,1.222,4.779,2.877,6.678,0.745c1.896-2.135,10.927-29.842,9.304-33.582s-3.208-1.359-5.632,0.338
	c0.126-0.805-1.91,10.012-1.883,8.367c0.231-13.081-9.146-24.606-12.079-59.214c-27.193,50.291-105.512,29.606-102.171,50.847
	c-15.253-10.681,3.284,32.806,3.672,33.241c1.899,2.132,4.341,0.477,6.678-0.745L208.284,180.737z"/>
<path style="fill:#F0B97D;" d="M233.184,217.588c-0.685,12.669-3.617,20.682-8.079,26.29l31.825,17.453l31.035-16.181
	c-5.062-5.65-8.412-13.902-9.154-27.56c0,0-13.11,9.7-23.216,9.794c-10.104,0.094-22.413-9.794-22.413-9.794L233.184,217.588z"/>
<path style="fill:#F1F1F1;" d="M228.872,237.724c-7.145,15.415-21.978,17.154-37.907,25.703l64.376,103.265l0.661,0.005
	c4.299,0,8.564-0.136,12.792-0.401l52.358-102.806c-16.606-8.947-32.037-10.447-38.836-27.68l-26.358,17.32l-27.085-15.407V237.724z
	"/>
<path style="fill:#FFFFFF;" d="M229.997,231.581l-6.586,13.731l19.581,32.903l12.805-25.086L229.997,231.581z M282.003,231.581
	L282.003,231.581l6.704,13.417l-19.699,33.218l-12.805-25.086L282.003,231.581z"/>
<path style="fill:#15BDB1;" d="M213.231,252.822c-16.415,7.759-44.037,10.88-62.776,37.65c-1.831,2.615-6.224,12.105-11.213,23.801
	c-23.13,27.224-53.538,64.017-53.981,69.798c-0.719,9.34-2.153,16.163-1.437,17.957c0.719,1.794,16.446,63.859,16.446,63.859
	l56.992,1.146l-17.766-72.19l30.293-26.699v120.275h86.207h86.207V368.145l30.293,26.699l-17.768,72.19l56.995-1.146
	c0,0,15.73-62.063,16.446-63.859c0.719-1.794-0.721-8.619-1.435-17.957c-0.443-5.781-30.852-42.576-53.981-69.803
	c-4.989-11.693-9.382-21.178-11.213-23.796c-18.786-26.838-46.479-29.897-62.91-37.705l-33.094,64.056l-9.54,13.941l-9.104-14.057
	l-33.658-63.878l-0.005-0.01L213.231,252.822z"/>
<path style="fill:#ECF0F1;" d="M131.199,445.232c16.244,0,29.409,8.173,29.409,18.256c0,10.083-13.167,18.256-29.409,18.256
	c-16.244,0-29.412-8.176-29.412-18.256C101.788,453.405,114.955,445.232,131.199,445.232z M131.199,450.053L131.199,450.053
	c-12.643,0-22.888,6.02-22.888,13.435c0,7.418,10.245,13.438,22.888,13.438c12.64,0,22.886-6.02,22.886-13.438
	C154.085,456.073,143.84,450.053,131.199,450.053z"/>
<path style="fill:#377BB9;" d="M131.199,476.923c12.603,0,22.886-6.033,22.886-13.432c0-7.399-10.282-13.438-22.886-13.438
	c-12.606,0-22.888,6.035-22.888,13.438C108.311,470.89,118.593,476.923,131.199,476.923z"/>
<path style="fill:#FBB429;" d="M121.885,471.163v14.71c0,1.826-1.49,3.318-3.315,3.318h-5.852c-1.826,0-3.315-1.49-3.315-3.318
	v-22.765c0-0.349,0.055-0.685,0.155-1.002v-5.013c0-4.262,3.483-7.743,7.746-7.743h47.891c4.262,0,7.746,3.483,7.746,7.743v5.005
	c0.102,0.32,0.157,0.656,0.157,1.01v22.765c0,1.826-1.49,3.318-3.318,3.318h-5.847c-1.828,0-3.318-1.49-3.318-3.318v-14.71h-4.585
	v14.71c0,1.826-1.49,3.318-3.315,3.318h-5.849c-1.828,0-3.318-1.49-3.318-3.318v-14.71h-4.585v14.71c0,1.826-1.49,3.318-3.318,3.318
	h-5.849c-1.826,0-3.318-1.49-3.318-3.318v-14.71h-4.585H121.885z"/>
<path style="fill:#ECF0F1;" d="M380.803,445.232c-16.244,0-29.412,8.173-29.412,18.256c0,10.083,13.167,18.256,29.412,18.256
	c16.244,0,29.412-8.176,29.412-18.256C410.215,453.405,397.047,445.232,380.803,445.232z M380.803,450.053L380.803,450.053
	c12.64,0,22.888,6.02,22.888,13.435c0,7.418-10.248,13.438-22.888,13.438c-12.643,0-22.888-6.02-22.888-13.438
	C357.915,456.073,368.16,450.053,380.803,450.053z"/>
<path style="fill:#377BB9;" d="M380.803,476.923c12.606,0,22.888-6.033,22.888-13.432c0-7.399-10.282-13.438-22.888-13.438
	c-12.609,0-22.888,6.035-22.888,13.438C357.915,470.89,368.197,476.923,380.803,476.923z"/>
<path style="fill:#FBB429;" d="M390.115,471.163v14.71c0,1.826,1.49,3.318,3.318,3.318h5.847c1.828,0,3.318-1.49,3.318-3.318
	v-22.765c0-0.349-0.055-0.685-0.155-1.002v-5.013c0-4.262-3.483-7.743-7.746-7.743h-47.893c-4.26,0-7.743,3.483-7.743,7.743v5.005
	c-0.105,0.32-0.157,0.656-0.157,1.01v22.765c0,1.826,1.49,3.318,3.318,3.318h5.849c1.826,0,3.315-1.49,3.315-3.318v-14.71h4.585
	v14.71c0,1.826,1.49,3.318,3.318,3.318h5.847c1.828,0,3.318-1.49,3.318-3.318v-14.71h4.585v14.71c0,1.826,1.49,3.318,3.318,3.318
	h5.849c1.826,0,3.315-1.49,3.315-3.318v-14.71h4.585H390.115z"/>
<path style="fill:#20D0C2;" d="M217.147,250.884l39.167,76.279l38.574-76.248c1.941,1.233,4.008,2.329,6.175,3.365l-44.748,87.448
	l-45.147-87.98c2.109-1.018,4.087-1.66,5.978-2.867L217.147,250.884z"/>
<path style="fill:#FFFFFF;" d="M124.096,296.993h263.807c8.422,0,15.313,6.893,15.313,15.313v145.804
	c0,8.422-6.893,15.316-15.313,15.316H124.096c-8.422,0-15.313-6.893-15.313-15.316V312.306
	C108.783,303.884,115.677,296.993,124.096,296.993z"/>
<path style="fill:#C8CACC;" d="M114.591,480.944h282.816c3.2,0,5.815,2.615,5.815,5.815v11.208c0,3.203-2.615,5.815-5.815,5.815
	H114.591c-3.197,0-5.813-2.612-5.813-5.815v-11.208C108.778,483.556,111.393,480.944,114.591,480.944z"/>
<g>
	<path style="fill:#ECF0F1;" d="M152.023,469.919h25v17.044h-25V469.919z M334.977,469.919L334.977,469.919h24.997v17.044h-24.997
		V469.919z"/>
	<path style="fill:#ECF0F1;" d="M228.266,363.137h55.466c0.742,0,1.348,0.606,1.348,1.351v12.556c0,0.745-0.606,1.351-1.348,1.351
		h-55.466c-0.742,0-1.348-0.606-1.348-1.351v-12.556C226.918,363.743,227.523,363.137,228.266,363.137z"/>
</g>
<g>
</g>
<g>
</g>
<g>
</g>
<g>
</g>
<g>
</g>
<g>
</g>
<g>
</g>
<g>
</g>
<g>
</g>
<g>
</g>
<g>
</g>
<g>
</g>
<g>
</g>
<g>
</g>
<g>
</g>
</svg>
