<?xml version="1.0" encoding="iso-8859-1"?>
<!-- Generator: Adobe Illustrator 19.0.0, SVG Export Plug-In . SVG Version: 6.00 Build 0)  -->
<svg version="1.1" id="Layer_1" xmlns="http://www.w3.org/2000/svg" xmlns:xlink="http://www.w3.org/1999/xlink" x="0px" y="0px"
	 viewBox="0 0 512 512" style="enable-background:new 0 0 512 512;" xml:space="preserve">
<path style="fill:#FFCA4F;" d="M256.001,511.999c140.999,0,255.999-115,255.999-256C512,115.001,397,0.001,256.001,0.001
	C115.001,0.001,0,115.001,0,255.999C0,396.999,115.001,511.999,256.001,511.999z"/>
<path style="fill:#666666;" d="M233.186,181.447H470.47c7.575,0,13.775,6.2,13.775,13.777v131.143c0,7.577-6.2,13.775-13.775,13.775
	H233.186c-7.577,0-13.777-6.198-13.777-13.775V195.224C219.409,187.647,225.609,181.447,233.186,181.447z"/>
<path style="fill:#FFFFFF;" d="M232.358,191.753h238.941v138.086H232.358V191.753z"/>
<path style="fill:#666666;" d="M279.49,340.143h17.392v5.337H279.49V340.143z M406.776,340.143L406.776,340.143h17.391v5.337
	h-17.391V340.143z"/>
<path style="fill:#F0B97D;" d="M383.157,233.056h-6.989h-21.201h-6.99l-2.851,29.648l-5.059,4.062l-10.676,6.796l23.824,56.279
	h24.702l23.827-56.279l-10.676-6.796l-5.063-4.059L383.157,233.056L383.157,233.056z"/>
<path style="fill:#ECF0F1;" d="M394.765,268.96l29.159,9.305l-37.273,51.576h-38.44l-32.294-54.285l20.602-6.53l18.142,12.806
	h21.749L394.765,268.96z"/>
<path style="fill:#FF5B61;" d="M372.076,280.659l-2.494,6.147l3.404,43.035h-14.844l3.404-43.035l-2.494-6.147l6.511-0.262
	L372.076,280.659L372.076,280.659z"/>
<path style="fill:#15BDB1;" d="M394.263,268.8l51.576,16.464c0,0,6.677,3.469,8.692,14.029c1.749,9.158,2.732,18.505,4.037,30.549
	h-84.812L394.263,268.8z M272.561,329.841L272.561,329.841c1.305-12.046,2.289-21.391,4.041-30.549
	c2.013-10.56,8.69-14.029,8.69-14.029l51.226-16.237l20.738,60.815H272.561L272.561,329.841z"/>
<path style="fill:#20D0C2;" d="M394.263,268.8l11.126,3.552l2.138,28.228c0,0-0.591,2.321-2.358,2.111l-10.039,3.775
	c0,0-0.656,0.658-0.07,1.489l8.593,5.888l-8.488,15.999h-21.41L394.263,268.8L394.263,268.8z M335.968,329.841L335.968,329.841
	l-8.489-15.999l8.592-5.888c0.587-0.831-0.07-1.489-0.07-1.489l-10.039-3.775c-1.767,0.21-2.355-2.111-2.355-2.111l2.13-28.137
	l10.782-3.416l20.738,60.815L335.968,329.841L335.968,329.841z"/>
<path style="fill:#FED198;" d="M406.537,172.759c0,2.755,1.005,5.452,0.931,8.096c9.426-1.748,4.875,26.253-0.461,30.103
	c-0.421,0.307-1.466-0.377-2.345-0.937c-1.849,10.297-17.639,37.82-27.681,49.403c-2.789,3.216-19.84,3.161-22.599,0.121
	c-10.282-11.318-26.055-39.168-27.915-49.524c-0.879,0.56-1.923,1.244-2.346,0.937c-5.333-3.85-9.887-31.851-0.457-30.103
	c-0.077-2.644,0.929-5.341,0.929-8.096c0.523-21.745,20.225-32.601,40.972-32.694C386.312,140.159,406.016,151.014,406.537,172.759z
	"/>
<path style="fill:#666666;" d="M393.904,144.884c2.973-0.345,13.711,2.945,15,14.306c1.291,11.363,0.676,21.833,0.676,21.833
	s-6.293,1.588-7.085,8.036c-0.791,6.45-0.226,6.45-0.226,6.45l-2.28-0.513l-1.622-11.056c-9.414-5.897,0.072-14.635-9.345-16.68
	c-25.426,18.122-47.861,15.02-57.977,6.495c0,0,2.361,8.916,0.541,12.096c-1.822,3.179-0.734,8.19-0.734,8.19l-2.366-0.113
	c0,0,0.428-13.133-4.82-13.074C303.716,147.919,366.865,107.009,393.904,144.884L393.904,144.884z"/>
<g>
	<path style="fill:#FFFFFF;" d="M386.248,258.471c-0.737,0.052,8.611,10.597,8.611,10.597l-7.956,27.249l-21.337-15.92
		C377.302,274.639,384.305,267.18,386.248,258.471L386.248,258.471z"/>
	<path style="fill:#FFFFFF;" d="M344.88,258.471c0.737,0.052-8.61,10.597-8.61,10.597l7.959,27.249l21.337-15.92
		C353.829,274.639,346.824,267.18,344.88,258.471L344.88,258.471z"/>
</g>
<path style="fill:#FF757C;" d="M411.542,186.679c4.462-22.264-4.165-37.821-17.711-46.447c-8.389-5.343-18.668-8.067-28.914-8.112
	c-10.236-0.047-20.424,2.578-28.648,7.931c-13.036,8.487-21.137,23.944-16.593,46.629l-3.467,0.691
	c-4.882-24.355,3.961-41.045,18.142-50.275c8.809-5.735,19.683-8.547,30.58-8.498c10.887,0.048,21.83,2.956,30.791,8.664
	c14.705,9.362,24.087,26.162,19.288,50.109L411.542,186.679L411.542,186.679z"/>
<path style="fill:#807D7D;" d="M319.711,182.686c-2.152,0.251-3.706,2.217-3.453,4.37l3.066,26.139
	c0.253,2.152,2.218,3.706,4.37,3.453c2.152-0.252,3.706-2.218,3.453-4.371l-3.066-26.139
	C323.83,183.987,321.864,182.434,319.711,182.686z"/>
<path style="fill:#FF757C;" d="M312.45,187.578l3.817-0.447l2.994,25.526l-3.844,0.453c-2.086,0.244-3.991-1.261-4.234-3.346
	l-2.103-17.919C308.834,189.743,310.35,187.825,312.45,187.578z"/>
<path style="fill:#807D7D;" d="M411.419,182.686c2.152,0.251,3.706,2.217,3.451,4.37l-3.065,26.139
	c-0.252,2.152-2.218,3.706-4.371,3.453c-2.152-0.252-3.705-2.218-3.451-4.371l3.066-26.139
	C407.301,183.987,409.267,182.434,411.419,182.686L411.419,182.686z"/>
<g>
	<path style="fill:#FF757C;" d="M418.682,187.578l-3.819-0.447l-2.994,25.526l3.845,0.453c2.086,0.244,3.99-1.261,4.234-3.346
		l2.102-17.919C422.297,189.743,420.78,187.825,418.682,187.578L418.682,187.578z"/>
	<path style="fill:#FF757C;" d="M413.43,210.495c-2.509,11.106-9.154,19.441-17.806,24.951c-6.424,4.091-13.954,6.646-21.73,7.641
		v3.548c8.435-1.017,16.633-3.766,23.624-8.217c9.639-6.138,16.991-15.473,19.56-27.922L413.43,210.495L413.43,210.495z"/>
</g>
<path style="fill:#666666;" d="M363.827,239.836h12.006c0.858,0,1.561,0.7,1.561,1.559v6.238c0,0.857-0.702,1.559-1.561,1.559
	h-12.006c-0.859,0-1.559-0.702-1.559-1.559v-6.238C362.268,240.537,362.968,239.836,363.827,239.836z"/>
<path style="fill:#807D7D;" d="M216.321,345.478h288.3v9.747c0,5.361-4.861,9.745-10.805,9.745H227.125
	c-5.943,0-10.804-4.384-10.804-9.745L216.321,345.478L216.321,345.478z"/>
<path style="fill:#666666;" d="M217.25,359.17h286.442c-1.689,3.41-5.488,5.801-9.876,5.801H227.125
	C222.738,364.97,218.939,362.58,217.25,359.17z"/>
<path style="fill:#FED198;" d="M97.14,137.069c0,5.104-1.861,34.618-1.721,39.514c-17.463-3.238-5.522,48.636,4.351,55.754
	c0.772,0.56,2.716-0.698,4.346-1.734c2.593,14.449,16.506,33.135,32.88,50.675l-6.817,57.161l42.876-2.593l42.877,2.593
	l-6.801-57.029c16.481-17.422,30.21-36.35,32.806-50.806c1.631,1.036,3.569,2.294,4.344,1.734
	c9.876-7.117,21.813-58.992,4.353-55.754c0.138-4.896-1.723-34.41-1.723-39.514c-0.965-40.272-37.458-60.379-75.886-60.55
	C134.601,76.69,98.107,96.797,97.14,137.069L97.14,137.069z"/>
<path style="fill:#CCCCCC;" d="M118.946,324.789L64.94,342.028l108.084,149.561l91.96-154.581l-38.159-12.094l-33.6,23.72h-40.283
	L118.946,324.789L118.946,324.789z"/>
<path style="fill:#0E5E9A;" d="M160.968,346.458l4.616,11.39l-10.261,129.79l10.425,7.979c3.29,1.239,6.608,2.412,9.96,3.52
	l15.023-11.499l-10.261-129.79l4.616-11.39l-12.06-0.48L160.968,346.458L160.968,346.458z"/>
<path style="fill:#FF757C;" d="M119.872,324.497l-95.524,30.488c0,0-1.418,0.739-3.437,2.472
	C60.199,448.369,150.662,511.998,256,511.998c35.187,0,68.714-7.106,99.231-19.948c-7.077-47.26-15.306-99.956-17.43-111.081
	c-3.655-19.142-16.099-25.984-16.099-25.984l-94.875-30.071C190.794,307.641,155.115,306.228,119.872,324.497L119.872,324.497z"/>
<path style="fill:#FFFFFF;" d="M137.038,291.55c-13.009,6.125-11.997,12.409-11.997,12.409l-1.469,18.968
	c30.903-15.357,68.001-15.359,98.908,0l-1.469-18.968c0,0,0.666-5.598-11.995-12.409
	C191.124,281.925,158.208,281.579,137.038,291.55z"/>
<path style="fill:#666666;" d="M120.086,88.282c-18.869,13.757-42.202,31.104-33.732,57.991l17.156,54.484
	c7.793,24.751,8.944,69.774,45.455,69.318l24.104-0.302l24.104,0.302c36.511,0.456,37.662-44.563,45.456-69.318l17.157-54.484
	c8.467-26.89-14.869-44.234-33.735-57.991C204.537,72.6,141.602,72.598,120.086,88.282L120.086,88.282z"/>
<path style="fill:#807D7D;" d="M90.355,174.352h-0.001c-3.885,0.62-6.555,4.305-5.936,8.186l7.525,47.202
	c0.62,3.882,4.305,6.554,8.19,5.934h0.001c3.884-0.619,6.555-4.303,5.936-8.186l-7.526-47.2
	C97.923,176.404,94.239,173.732,90.355,174.352z"/>
<path style="fill:#20D0C2;" d="M77.545,183.776l6.893-1.099l7.35,46.093l-6.939,1.106c-3.765,0.6-7.337-1.988-7.937-5.752
	l-5.159-32.357C71.148,187.976,73.756,184.381,77.545,183.776L77.545,183.776z"/>
<path style="fill:#807D7D;" d="M257.655,174.352h0.001c3.885,0.62,6.557,4.305,5.937,8.186l-7.526,47.202
	c-0.618,3.882-4.303,6.554-8.188,5.934h-0.002c-3.883-0.619-6.554-4.303-5.935-8.186l7.526-47.2
	C250.086,176.404,253.771,173.732,257.655,174.352L257.655,174.352z"/>
<g>
	<path style="fill:#20D0C2;" d="M270.464,183.776l-6.893-1.099l-7.35,46.093l6.942,1.106c3.765,0.6,7.337-1.988,7.937-5.752
		l5.159-32.357C276.864,187.976,274.256,184.381,270.464,183.776L270.464,183.776z"/>
	<path style="fill:#20D0C2;" d="M264.129,182.651c8.755-43.687-8.185-74.221-34.784-91.156
		c-16.455-10.477-36.604-15.818-56.69-15.91c-20.069-0.091-40.045,5.06-56.176,15.559c-25.599,16.663-41.517,47.003-32.598,91.507
		l-5.777,1.152c-9.477-47.289,7.667-79.68,35.176-97.586c17.107-11.136,38.224-16.598,59.4-16.5
		c21.154,0.096,42.413,5.746,59.818,16.827c28.528,18.164,46.727,50.768,37.41,97.26L264.129,182.651L264.129,182.651z"/>
</g>
<g>
</g>
<g>
</g>
<g>
</g>
<g>
</g>
<g>
</g>
<g>
</g>
<g>
</g>
<g>
</g>
<g>
</g>
<g>
</g>
<g>
</g>
<g>
</g>
<g>
</g>
<g>
</g>
<g>
</g>
</svg>
