<?xml version="1.0" encoding="iso-8859-1"?>
<!-- Generator: Adobe Illustrator 19.0.0, SVG Export Plug-In . SVG Version: 6.00 Build 0)  -->
<svg version="1.1" id="Layer_1" xmlns="http://www.w3.org/2000/svg" xmlns:xlink="http://www.w3.org/1999/xlink" x="0px" y="0px"
	 viewBox="0 0 512 512" style="enable-background:new 0 0 512 512;" xml:space="preserve">
<path style="fill:#0E7886;" d="M255.999,0c141.386,0,256,114.614,256,256s-114.614,256-256,256S0.001,397.386,0.001,256
	S114.615,0,255.999,0z"/>
<path style="fill:#20D0C2;" d="M338.595,54.892h154.692l-48.923,192.119H289.671L338.595,54.892z"/>
<path style="fill:#15BDB1;" d="M415.268,63.352h0.002c3.199,0,4.624,2.666,3.162,5.92l-2.271,5.06h8.462
	c1.607,0,2.322,1.336,1.587,2.972l-1.334,2.974h-34.396l1.334-2.974c0.734-1.636,2.648-2.972,4.253-2.972h8.458l2.271-5.06
	c1.46-3.257,5.272-5.92,8.469-5.92H415.268z"/>
<path style="fill:#FFFFFF;" d="M349.572,74.83h122.583l-38.77,152.238h-122.58L349.572,74.83z"/>
<path style="fill:#15BDB1;" d="M493.286,54.892l1.149,1.301L445.902,249.48l-154.317-0.368l-1.914-2.103h154.692L493.286,54.89
	V54.892z"/>
<path style="fill:#EC4B53;" d="M324.81,394.907c0.053-0.26,0.117-0.52,0.19-0.783c11.154-21.566,9.743-38.025-1.184-55.125
	c-0.728-1.188-1.499-2.335-2.304-3.426l-0.062-0.086l-0.009-0.011c-2.716-3.825-5.887-7.708-9.492-11.701
	c-4.734-5.245-10.155-9.36-15.394-14.508c-6.919-6.791-10.921-8.361-11.287-17.906l-2.419-1.795c0,0-4.119,7.212-7.889,8.381
	c-9.939,3.089-20.637-6.493-26.745-13.286c-4.211-4.685-7.979-11.265-10.092-16.3c-1.171-2.798-1.843-5.733-0.249-9.181
	c2.125-4.604,5.838-5.122,7.657-5.558c-0.079-2.117-0.185-3.757-0.044-5.962c-6.961-3.521-8.098-3.629-10.685-10.18
	c-5.241-13.282-7.821-26.154-20.095-36.307c-9.225-7.633-19.811-9.999-28.509-9.377c-4.676,0.337-11.333,1.336-16.94,3.369
	l-39.414,24.943c-4.236,4.194-7.99,9.783-10.294,13.866c-4.284,7.593-6.678,18.172-3.728,29.779
	c3.922,15.438,14.453,23.281,24.214,33.701c4.813,5.139,4.423,6.218,4.626,14.014c2.051,0.816,3.49,1.612,5.369,2.593
	c2.397-1.956,3.23-4.593,8.299-4.544c3.799,0.038,6.165,1.901,8.191,4.156c3.647,4.064,7.979,10.286,10.411,16.098
	c3.523,8.427,7.609,22.196,0.56,29.858c-2.67,2.904-4.595,3.402-9.904,3.929c0.346,3.102,0.282,3.21-0.011,5.622
	c8.471,4.421,7.728,5.649,10.903,14.806c2.41,6.939,3.808,13.599,6.524,20.124c2.066,4.963,4.213,9.492,6.511,13.586l0.007,0.013
	l0.051,0.093c0.644,1.197,1.349,2.383,2.11,3.55c10.777,17.191,25.051,25.512,49.314,24.666c0.269,0.046,0.531,0.099,0.789,0.163
	c0.007-0.004,1.162-0.176,3.027-0.478l10.843-1.067c8.328-1.409,15.873-4.064,22.787-9.071c1.859-1.345,2.139-1.288,3.063-2.926
	c0.364,0.225,0.758,0.401,1.193,0.527l0.02,0.007l0.097,0.026l0.011,0.002l0.223,0.055h0.007l0.112,0.024l0.002,0.002l0.112,0.02
	l0.007,0.002l0.229,0.035l0.018,0.004c0.271,0.035,0.551,0.053,0.838,0.055l0.057,0.002l0.073-0.002
	c0.196-0.002,0.397-0.009,0.598-0.029l0.044-0.002l0.09-0.009l0.042-0.004l0.095-0.011l0.035-0.007l0.104-0.011l0.029-0.007
	l0.132-0.02l0.115-0.015l0.02-0.007l0.121-0.022l0.011-0.002l0.126-0.022l0.007-0.004l0.269-0.06h0.004l0.13-0.033l0.009-0.002
	l0.126-0.035l0.015-0.002l0.121-0.035l0.022-0.007l0.112-0.035l0.029-0.009l0.108-0.035l0.035-0.009l0.101-0.035l0.037-0.013
	l0.097-0.033l0.044-0.015l0.09-0.033l0.132-0.046l0.002-0.002l0.057-0.022l0.079-0.035l0.134-0.055l0.071-0.026l0.066-0.029
	l0.075-0.031l0.062-0.029l0.079-0.037l0.055-0.026l0.088-0.04l0.046-0.024l0.09-0.044l0.044-0.022l0.097-0.048l0.038-0.02
	l0.101-0.053l0.033-0.02l0.108-0.057l0.026-0.015l0.112-0.064l0.02-0.011l0.119-0.066l0.015-0.011l0.126-0.075l0.009-0.004
	l0.13-0.079l0.002-0.004l0.128-0.082l0.009-0.007l0.121-0.079l0.015-0.009l0.11-0.077l0.02-0.013l0.108-0.075l0.024-0.015
	l0.099-0.073l0.031-0.022l0.09-0.071l0.035-0.029l0.084-0.064l0.04-0.031l0.079-0.062l0.042-0.035l0.073-0.06l0.046-0.04
	l0.066-0.057l0.051-0.044l0.062-0.053l0.055-0.048l0.055-0.051l0.108-0.097l0.064-0.06l0.044-0.042l0.004-0.002l0.099-0.099
	l0.071-0.066l0.031-0.035l0.073-0.073l0.026-0.029l0.077-0.079l0.022-0.024l0.077-0.084l0.02-0.022l0.079-0.09l0.015-0.015
	l0.082-0.093l0.009-0.013l0.084-0.097l0.004-0.009l0.088-0.106l0.002-0.002l0.168-0.216l0.007-0.007l0.077-0.106l0.007-0.009
	l0.073-0.099l0.011-0.013l0.064-0.097l0.075-0.11l0.018-0.026l0.053-0.086l0.022-0.029l0.051-0.084l0.022-0.033l0.049-0.077
	l0.022-0.04c0.104-0.174,0.198-0.351,0.282-0.529l0.031-0.064l0.022-0.051c0.121-0.26,0.227-0.523,0.311-0.785l0.002-0.015
	l0.068-0.225v-0.007l0.031-0.112v-0.004l0.026-0.11l0.002-0.007l0.044-0.225l0.007-0.011l0.015-0.099l0.007-0.02
	c0.071-0.445,0.084-0.884,0.035-1.305c1.872-0.13,1.942-0.41,3.951-1.513c7.485-4.108,13.117-9.787,17.956-16.711l5.607-9.344
	c1.069-1.554,1.72-2.525,1.726-2.529V394.907z"/>
<path style="fill:#20D0C2;" d="M50.644,80.102l99.663,168.338l14.208-8.991l14.208-8.994L69.249,68.326l-11.353,2.648l-7.25,9.128
	H50.644z"/>
<path style="fill:#FF5B61;" d="M318.237,392.7c0.053-0.262,0.117-0.523,0.19-0.783c11.154-21.566,9.743-38.025-1.184-55.126
	c-0.728-1.188-1.499-2.333-2.306-3.429l-0.062-0.086l-0.009-0.009c-2.716-3.825-5.889-7.71-9.492-11.701
	c-4.734-5.245-10.156-9.36-15.396-14.51c-6.917-6.789-8.345-6.643-8.714-16.19c-2.306-0.767-2.43-0.756-5.087-2.397
	c-2.747,4.573-4.022,6.099-7.79,7.267c-9.939,3.091-20.637-6.495-26.743-13.284c-4.211-4.687-7.982-11.267-10.092-16.303
	c-1.171-2.796-1.843-5.733-0.249-9.181c2.123-4.602,4.862-4.227,7.657-5.556c-0.079-2.117-0.185-3.759-0.044-5.962
	c-6.958-3.521-8.098-3.631-10.685-10.18c-5.239-13.282-7.818-26.154-20.093-36.307c-9.227-7.633-19.811-9.999-28.509-9.375
	c-4.676,0.335-11.333,1.334-16.94,3.367L123.278,217.9c-4.236,4.196-7.988,9.785-10.294,13.866
	c-4.284,7.596-6.678,18.172-3.728,29.779c3.922,15.438,14.455,23.279,24.214,33.699c4.813,5.139,4.423,6.218,4.626,14.016
	c2.051,0.816,3.49,1.612,5.369,2.593c2.397-1.958,3.23-4.593,8.299-4.544c3.799,0.037,6.167,1.901,8.191,4.156
	c3.647,4.064,7.979,10.286,10.413,16.1c3.521,8.427,7.607,22.194,0.558,29.856c-2.67,2.904-4.593,3.402-9.904,3.929
	c0.344,3.104,0.282,3.212-0.011,5.625c8.471,4.421,7.726,5.647,10.903,14.806c2.41,6.939,3.808,13.599,6.524,20.124
	c2.064,4.963,4.213,9.494,6.511,13.586l0.007,0.013l0.051,0.09c0.642,1.197,1.349,2.386,2.11,3.552
	c10.777,17.191,25.051,25.512,49.314,24.666c0.267,0.046,0.529,0.099,0.787,0.161c0.007-0.002,1.162-0.174,3.027-0.476l10.843-1.067
	c8.328-1.409,15.873-4.066,22.787-9.073c1.859-1.347,2.141-1.29,3.063-2.924c0.364,0.225,0.758,0.401,1.193,0.525l0.02,0.004
	l0.097,0.029h0.011l0.223,0.057h0.004l0.115,0.022v0.004l0.115,0.018l0.007,0.002l0.229,0.035l0.018,0.004
	c0.271,0.035,0.551,0.055,0.838,0.055l0.057,0.002l0.073-0.002c0.196-0.004,0.397-0.011,0.598-0.029l0.046-0.004l0.09-0.009
	l0.042-0.007l0.095-0.009l0.035-0.007l0.104-0.013l0.029-0.004l0.134-0.02l0.115-0.02l0.015-0.004l0.121-0.022l0.013-0.004
	l0.128-0.022l0.007-0.004l0.267-0.06h0.004l0.13-0.031l0.011-0.004l0.123-0.031l0.015-0.004l0.119-0.035l0.022-0.007l0.115-0.031
	l0.029-0.009l0.108-0.033l0.035-0.011l0.101-0.035l0.037-0.011l0.097-0.035l0.044-0.015l0.09-0.035l0.132-0.049l0.002-0.002
	l0.057-0.022l0.079-0.035l0.134-0.055l0.071-0.026l0.071-0.029l0.073-0.033l0.062-0.029l0.079-0.037l0.055-0.026l0.088-0.037
	l0.046-0.024l0.09-0.046l0.046-0.022l0.095-0.049l0.037-0.02l0.104-0.053l0.031-0.02l0.106-0.06l0.029-0.013l0.112-0.064l0.02-0.009
	l0.117-0.068l0.015-0.009l0.126-0.077l0.009-0.007l0.128-0.079l0.004-0.002l0.126-0.084l0.009-0.007l0.121-0.079l0.015-0.009
	l0.112-0.077l0.018-0.013l0.106-0.075l0.026-0.02l0.097-0.071l0.031-0.022l0.09-0.071l0.035-0.026l0.084-0.064l0.04-0.031
	l0.079-0.062l0.044-0.035l0.073-0.06l0.046-0.04l0.066-0.057l0.053-0.044l0.062-0.051l0.055-0.049l0.055-0.051l0.108-0.097
	l0.064-0.06l0.044-0.042l0.002-0.002l0.099-0.099l0.071-0.066l0.033-0.035l0.073-0.075l0.026-0.029l0.077-0.079l0.022-0.024
	l0.077-0.084l0.02-0.022l0.079-0.088l0.013-0.018l0.084-0.093l0.009-0.013l0.084-0.097l0.007-0.009l0.086-0.104l0.002-0.004
	l0.17-0.216l0.004-0.007l0.075-0.106l0.007-0.009l0.073-0.099l0.013-0.013l0.064-0.095l0.075-0.112l0.018-0.026l0.053-0.088
	l0.022-0.029l0.051-0.082l0.022-0.035l0.046-0.077l0.022-0.042c0.104-0.174,0.198-0.351,0.282-0.529l0.031-0.064l0.022-0.051
	c0.123-0.258,0.225-0.52,0.311-0.785l0.002-0.015l0.068-0.223v-0.007l0.031-0.112l-0.002-0.002l0.029-0.112l0.002-0.004l0.044-0.225
	l0.004-0.011l0.015-0.099l0.004-0.018c0.073-0.448,0.086-0.884,0.035-1.305c1.874-0.132,1.945-0.412,3.951-1.515
	c7.485-4.105,13.117-9.787,17.956-16.711l5.607-9.342c1.069-1.554,1.718-2.527,1.726-2.529L318.237,392.7z"/>
<path style="fill:#FBB429;" d="M269.942,435.917c1.332-0.776,2.644-1.629,3.929-2.56c1.859-1.347,2.141-1.29,3.063-2.924
	c0.364,0.225,0.758,0.401,1.193,0.525l0.02,0.004l0.097,0.029h0.011l0.223,0.057h0.004l0.115,0.022v0.004l0.115,0.018l0.007,0.002
	l0.229,0.035l0.018,0.004c0.271,0.035,0.551,0.055,0.838,0.055l0.057,0.002l0.073-0.002c0.196-0.004,0.397-0.011,0.598-0.029
	l0.046-0.004l0.09-0.009l0.042-0.007l0.095-0.009l0.035-0.007l0.104-0.013l0.029-0.004l0.135-0.02l0.115-0.02l0.015-0.004
	l0.121-0.022l0.013-0.004l0.128-0.022l0.007-0.004l0.267-0.06h0.004l0.13-0.031l0.011-0.004l0.123-0.031l0.015-0.004l0.119-0.035
	l0.022-0.007l0.115-0.031l0.029-0.009l0.108-0.033l0.035-0.011l0.101-0.035l0.037-0.011l0.097-0.035l0.044-0.015l0.09-0.035
	l0.132-0.048l0.002-0.002l0.057-0.022l0.079-0.035l0.134-0.055l0.071-0.026l0.071-0.029l0.073-0.033l0.062-0.029l0.079-0.038
	l0.055-0.026l0.088-0.037l0.046-0.024l0.09-0.046l0.046-0.022l0.095-0.049l0.037-0.02l0.104-0.053l0.031-0.02l0.106-0.06
	l0.029-0.013l0.112-0.064l0.02-0.009l0.117-0.068l0.015-0.009l0.126-0.077l0.009-0.007l0.128-0.079l0.004-0.002l0.126-0.084
	l0.009-0.007l0.121-0.079l0.015-0.009l0.112-0.077l0.018-0.013l0.106-0.075l0.026-0.02l0.097-0.071l0.031-0.022l0.09-0.071
	l0.035-0.026l0.084-0.064l0.04-0.031l0.079-0.062l0.044-0.035l0.073-0.06l0.046-0.04l0.066-0.057l0.053-0.044l0.062-0.051
	l0.055-0.049l0.055-0.051l0.108-0.097l0.064-0.06l0.044-0.042l0.002-0.002l0.099-0.099l0.071-0.066l0.033-0.035l0.073-0.075
	l0.026-0.029l0.077-0.079l0.022-0.024l0.077-0.084l0.02-0.022l0.079-0.088l0.013-0.018l0.084-0.093l0.009-0.013l0.084-0.097
	l0.007-0.009l0.086-0.104l0.002-0.004l0.17-0.216l0.004-0.007l0.075-0.106l0.007-0.009l0.073-0.099l0.013-0.013l0.064-0.095
	l0.075-0.112l0.018-0.026l0.053-0.088l0.022-0.029l0.051-0.082l0.022-0.035l0.046-0.077l0.022-0.042
	c0.104-0.174,0.198-0.351,0.282-0.529l0.031-0.064l0.022-0.051c0.123-0.258,0.225-0.52,0.311-0.785l0.002-0.015l0.068-0.223v-0.007
	l0.031-0.112l-0.002-0.002l0.029-0.112l0.002-0.004l0.044-0.225l0.004-0.011l0.015-0.099l0.004-0.018
	c0.073-0.448,0.086-0.884,0.035-1.305c1.874-0.132,1.945-0.412,3.951-1.515c1.393-0.763,2.727-1.585,3.997-2.454l-27.525-49.468
	l-32.402,20.505l32.925,46.053L269.942,435.917z"/>
<path style="fill:#FF5B61;" d="M39.353,41.68l0.002-0.002c7.776-4.923,18.168-2.584,23.089,5.19L82.824,79.07
	c4.921,7.776,2.586,18.166-5.19,23.089l-0.004,0.002c-7.774,4.921-18.166,2.586-23.089-5.19L34.163,64.769
	C29.24,56.993,31.577,46.602,39.353,41.68z"/>
<path style="fill:#FBB429;" d="M26.55,78.457L48.858,64.34c1.539-0.975,3.426-0.781,4.194,0.437
	c0.767,1.213,0.139,3.001-1.402,3.973l-22.309,14.12l-2.794-4.412H26.55z"/>
<path style="fill:#20D0C2;" d="M24.44,75.128c3.058-1.936,7.106-1.025,9.044,2.033c1.934,3.058,1.025,7.108-2.035,9.042
	c-3.058,1.936-7.106,1.025-9.042-2.033C20.473,81.112,21.381,77.064,24.44,75.128z"/>
<path style="fill:#FBB429;" d="M37.342,95.512l17.592-11.132c1.213-0.769,2.833-0.403,3.601,0.809
	c0.769,1.213,0.403,2.835-0.809,3.601L40.131,99.924L37.342,95.512z"/>
<path style="fill:#20D0C2;" d="M35.232,92.18c3.058-1.936,7.108-1.025,9.044,2.033c1.934,3.058,1.023,7.106-2.035,9.044
	c-3.058,1.934-7.106,1.023-9.042-2.035C31.264,98.164,32.174,94.116,35.232,92.18z"/>
<path style="fill:#FBB429;" d="M72.236,36.622L49.588,50.954c-1.213,0.769-1.576,2.388-0.809,3.601l0.002,0.002
	c0.767,1.215,2.386,1.579,3.601,0.809L75.03,41.032L72.236,36.622z"/>
<path style="fill:#20D0C2;" d="M70.128,33.289c-3.058,1.936-3.967,5.986-2.033,9.042c1.934,3.058,5.984,3.969,9.042,2.035
	c3.058-1.936,3.969-5.986,2.035-9.044C77.237,32.263,73.186,31.353,70.128,33.289z"/>
<path style="fill:#FBB429;" d="M83.029,53.677L65.436,64.811c-1.213,0.767-1.579,2.388-0.811,3.601l0.002,0.002
	c0.769,1.213,2.388,1.576,3.603,0.807l17.595-11.134l-2.794-4.41H83.029z"/>
<path style="fill:#20D0C2;" d="M80.921,50.343c-3.058,1.936-3.969,5.986-2.033,9.044c1.934,3.058,5.984,3.969,9.042,2.033
	c3.058-1.936,3.969-5.986,2.035-9.044C88.029,49.32,83.979,48.41,80.921,50.343z"/>
<g>
	<path style="fill:#FFFFFF;" d="M249.883,388.114L57.389,83.947l1.632-1.032l192.496,304.167L249.883,388.114z"/>
	<path style="fill:#FFFFFF;" d="M253.49,385.832L50.871,65.671l1.632-1.034l202.619,320.161L253.49,385.832z"/>
	<path style="fill:#FFFFFF;" d="M257.095,383.55L49.308,55.223l1.632-1.032l207.787,328.328L257.095,383.55z"/>
	<path style="fill:#FFFFFF;" d="M260.697,381.27L62.72,68.438l1.632-1.034l197.977,312.832L260.697,381.27z"/>
</g>
<path style="fill:#20D0C2;" d="M259.663,389.847c3.142-1.989,7.3-1.052,9.289,2.088c1.989,3.142,1.054,7.305-2.088,9.291
	c-3.142,1.989-7.3,1.054-9.289-2.088C255.587,395.997,256.521,391.834,259.663,389.847z"/>
<path style="fill:#FBB429;" d="M261.315,101.93l10.438,5.027c3.942,1.898,1.067,7.862-2.873,5.962l-10.332-4.979L127.157,380.585
	c-0.099,0.207-0.212,0.406-0.335,0.595c0.434,0.02,0.869,0.123,1.283,0.322l10.749,5.177c1.64,0.792,2.335,2.778,1.543,4.419
	c-0.789,1.64-2.776,2.335-4.416,1.546l-10.749-5.179c-1.504-0.723-2.211-2.458-1.709-4.004c-1.127,0.251-2.342,0.143-3.457-0.397
	h-0.002c-2.919,0-3.746-4.458-2.478-7.091L251.367,98.365c2.756-5.717,11.439-2.58,9.946,3.563L261.315,101.93z"/>
<path style="fill:#FFFFFF;" d="M270.527,110.535L137.799,389.479c-0.454,0.95-1.612,1.354-2.564,0.895
	c-0.95-0.459-1.349-1.61-0.895-2.562l132.727-278.944c1.091-2.293,4.551-0.626,3.462,1.667H270.527z"/>
<path style="fill:#20D0C2;" d="M131.013,358.801c4.668,2.251,6.645,7.907,4.396,12.572l-24.416,50.672
	c-2.249,4.668-7.907,6.645-12.572,4.396h-0.002c-4.663-2.249-6.643-7.904-4.396-12.572l24.416-50.672
	c2.251-4.663,7.907-6.643,12.572-4.396H131.013z"/>
<path style="fill:#FBB429;" d="M384.46,100.091c0.269-1.775,0.679-3.587,1.393-5.413c11.45-0.65,22.664-0.626,34.038-1.045
	c3.695-0.121,7.457-0.37,11.029-0.172c-0.622,5.067-1.848,10.25-2.652,15.357c-1.257,6.954-2.181,13.851-3.658,20.842
	c-0.734,3.766-0.796,7.556-2.968,11.437c-1.281,2.35-3.182,4.776-5.788,6.348c-4.67,2.712-10.107,4.048-14.312,3.16
	c-2.966-0.441-5.23-2.211-5.704-4.855c-1.027-2.842,0.785-6.936,4.09-9.715c5.964-5.36,15.346-6.026,18.441-1.557
	c1.528-8.237,3.248-16.503,4.815-24.743c-11.972,0.609-23.98,1.299-35.961,1.931c-0.509,1.751-0.829,3.47-1.072,5.177
	c-0.867,5.036-1.801,10.085-2.637,15.11c-0.681,3.309-0.878,6.645-2.802,10.041c-1.193,2.368-3.4,4.489-5.752,6.233
	c-2.591,1.812-5.534,2.428-8.277,2.952c-3.296,0.657-6.396,0.3-8.78-0.855c-2.291-1.255-3.62-3.68-3.016-6.577
	c0.501-3.451,3.634-7.444,7.662-9.313c5.283-2.844,11.908-3.157,14.404,0.304c0.249-0.099,0.507-0.201,0.763-0.284
	c2.245-11.456,4.551-22.924,6.738-34.367L384.46,100.091z"/>
<path style="fill:#FF5B61;" d="M341.622,167.725c0.121-0.864,0.302-1.744,0.622-2.626c5.113-0.123,10.12,0.077,15.198,0.068
	c1.654,0.002,3.332-0.055,4.928,0.104c-0.28,2.467-0.825,4.987-1.184,7.472c-0.562,3.382-0.972,6.742-1.634,10.14
	c-0.329,1.83-0.355,3.684-1.325,5.547c-0.571,1.129-1.42,2.284-2.584,3.007c-2.086,1.248-4.516,1.81-6.392,1.303
	c-1.325-0.269-2.337-1.173-2.547-2.474c-0.461-1.409,0.351-3.382,1.826-4.685c2.663-2.522,6.853-2.688,8.235-0.45
	c0.684-4.004,1.453-8.021,2.152-12.03c-5.347,0.095-10.707,0.229-16.06,0.335c-0.229,0.847-0.37,1.684-0.478,2.516
	c-0.388,2.45-0.805,4.906-1.177,7.351c-0.304,1.61-0.39,3.237-1.252,4.868c-0.531,1.138-1.519,2.139-2.569,2.952
	c-1.155,0.842-2.474,1.094-3.698,1.305c-1.471,0.265-2.855,0.037-3.92-0.569c-1.023-0.653-1.614-1.863-1.347-3.272
	c0.225-1.68,1.623-3.581,3.424-4.427c2.357-1.301,5.316-1.343,6.432,0.395c0.11-0.046,0.227-0.09,0.342-0.126
	c1.001-5.569,2.033-11.143,3.01-16.708V167.725z"/>
<g>
	<path style="fill:#ECF0F1;" d="M451.513,155.882c-8.257,2.311-15.71,5.084-22.467,8.204c-26.282,12.127-42.926,24.8-58.874,35.445
		c-14.537,8.669-27.777,16.117-46.183,20.961c-3.817,1.001-7.867,1.907-12.204,2.725l0.203-0.794
		c3.753-0.745,7.289-1.559,10.636-2.45c17.914-4.756,30.852-12.016,45.023-20.448c16.228-10.815,33.055-23.764,59.824-36.327
		c7.298-3.42,15.403-6.443,24.45-8.916l-0.406,1.596L451.513,155.882z M450.208,161.011L450.208,161.011
		c-7.783,2.192-14.858,4.778-21.316,7.666c-26.648,11.926-43.541,24.397-59.738,34.786c-14.137,8.074-27.069,14.993-44.895,19.385
		c-4.061,1.001-8.398,1.894-13.066,2.688l-0.196,0.769c5.267-0.849,10.122-1.817,14.645-2.915
		c18.307-4.445,31.565-11.551,46.07-19.848c15.945-10.235,32.632-22.434,58.81-33.968c5.883-2.595,12.283-4.932,19.275-6.95
		l0.412-1.616V161.011z M448.588,167.374L448.588,167.374c-6.553,1.901-12.596,4.075-18.192,6.467
		c-26.524,11.346-43.479,23.365-59.61,33.364c-14.102,7.728-27.012,14.358-44.8,18.384c-2.324,0.527-4.732,1.019-7.238,1.477h4.22
		c1.488-0.293,2.943-0.595,4.368-0.913c18.327-4.079,31.56-10.85,45.98-18.787c15.881-9.842,32.656-21.574,58.717-32.594
		c4.998-2.114,10.363-4.048,16.139-5.766l0.415-1.632H448.588z M446.705,174.769L446.705,174.769
		c-4.511,1.389-8.769,2.908-12.792,4.535c-26.478,10.713-43.446,22.242-59.52,31.845c-12.29,6.489-23.795,12.14-38.51,15.919h3.836
		c14.047-3.81,25.287-9.342,37.2-15.65c15.855-9.435,32.563-20.756,58.592-31.137c3.415-1.36,7-2.644,10.768-3.832l0.428-1.68
		H446.705z M444.764,182.387L444.764,182.387l-0.082,0.031c-26.476,9.853-43.416,21.217-59.518,30.733
		c-10.239,5.433-20.068,10.316-31.686,13.917h3.832c11.024-3.587,20.543-8.314,30.414-13.551
		c15.416-9.119,31.684-19.885,56.561-29.252l0.481-1.881L444.764,182.387z"/>
	<path style="fill:#ECF0F1;" d="M407.549,61.127h0.002c3.199,0,5.384,2.994,4.855,6.659l-0.825,5.691h8.462
		c1.607,0,2.703,1.504,2.436,3.343l-0.485,3.345h-34.396l0.485-3.345c0.267-1.839,1.799-3.343,3.406-3.343h8.462l0.822-5.691
		c0.529-3.662,3.581-6.659,6.78-6.659H407.549z"/>
</g>
<path style="fill:#FFFFFF;" d="M374.201,249.297h12.797v226.678c-4.191,2.5-8.458,4.884-12.797,7.148V249.297z"/>
<path style="fill:#C8CACC;" d="M374.201,249.297h12.797v12.594c-1.731-3.001-11.337-3.391-12.797,0V249.297z"/>
<path style="fill:#15BDB1;" d="M98.421,426.441c4.668,2.249,10.323,0.271,12.572-4.396l16.203-33.633l2.873-5.962l5.338-11.077
	c1.008-2.095,1.166-4.385,0.615-6.48c-0.033,1.29-0.333,2.595-0.926,3.828l-6.317,13.106l-2.873,5.962l-15.227,31.604
	c-2.249,4.668-7.907,6.645-12.574,4.396c-2.573-1.241-4.328-3.514-5.007-6.09c-0.09,3.589,1.89,7.089,5.32,8.742H98.421z"/>
<g>
</g>
<g>
</g>
<g>
</g>
<g>
</g>
<g>
</g>
<g>
</g>
<g>
</g>
<g>
</g>
<g>
</g>
<g>
</g>
<g>
</g>
<g>
</g>
<g>
</g>
<g>
</g>
<g>
</g>
</svg>
