<?xml version="1.0" encoding="iso-8859-1"?>
<!-- Generator: Adobe Illustrator 19.0.0, SVG Export Plug-In . SVG Version: 6.00 Build 0)  -->
<svg version="1.1" id="Layer_1" xmlns="http://www.w3.org/2000/svg" xmlns:xlink="http://www.w3.org/1999/xlink" x="0px" y="0px"
	 viewBox="0 0 512 512" style="enable-background:new 0 0 512 512;" xml:space="preserve">
<path style="fill:#FF757C;" d="M256.001,512C397,512,511.999,397,511.999,255.999C511.999,115.001,397,0,256.001,0
	C115.002,0,0.001,115.001,0.001,255.999C0.001,397,115.002,512,256.001,512z"/>
<path style="fill:#C8CACC;" d="M218.59,357.619l-10.949,38.85l-36.803,27.893v5.977h85.164h85.161v-5.977l-36.801-27.893
	l-10.949-38.85l-37.411-0.496L218.59,357.619L218.59,357.619z"/>
<path style="fill:#FFFFFF;" d="M170.838,427.351v2.989h85.164h85.16v-2.989H170.838L170.838,427.351z"/>
<path style="fill:#666666;" d="M65.982,52.788h380.035c12.486,0,22.702,10.216,22.702,22.7v234.105H43.283V75.488
	C43.283,63.004,53.498,52.788,65.982,52.788L65.982,52.788z"/>
<path style="fill:#15BDB1;" d="M58.696,294.179h394.606V75.488c0-3.978-3.309-7.287-7.286-7.287H65.982
	c-3.977,0-7.286,3.309-7.286,7.287V294.179z"/>
<path style="fill:#20D0C2;" d="M183.635,309.594h178.489L227.177,184.034l-63.726,63.262L183.635,309.594z"/>
<path style="fill:#807D7D;" d="M183.635,309.594h178.489l-16.567-15.415H178.641L183.635,309.594z"/>
<path style="fill:#FFFFFF;" d="M208.034,228.48c8.455-8.395,8.357-22.204-0.223-30.844c-5.804-5.847-14.002-7.829-21.318-5.9
	l-7.121-7.173c-0.851-0.856-2.228-0.877-3.065-0.045l-11.224,11.143c-0.838,0.832-0.828,2.209,0.021,3.065l6.706,6.753
	c-2.545,7.585-0.741,16.386,5.382,22.553C185.77,236.674,199.579,236.873,208.034,228.48L208.034,228.48z"/>
<path style="fill:#FBB429;" d="M180.203,168.466l-16.231-16.35c-5.555-5.598-14.679-5.628-20.276-0.074l-11.631,11.544
	c-5.597,5.559-5.63,14.684-0.074,20.279l16.235,16.353c-3.751,14.445-0.147,31.596,15.226,47.083l63.727-63.265
	C211.804,168.546,194.68,164.819,180.203,168.466L180.203,168.466z"/>
<path style="fill:#F5A209;" d="M132.369,163.284l-0.304,0.301c-5.597,5.559-5.63,14.684-0.074,20.279l16.235,16.353
	c-3.751,14.445-0.147,31.596,15.226,47.083l1.937-1.923c-14.099-15.574-17.307-32.505-13.572-46.884l-17.045-17.167
	C129.925,176.444,129.131,169.006,132.369,163.284z"/>
<path style="fill:#FFFFFF;" d="M468.718,309.594v24.827c0,12.489-11.261,22.703-25.026,22.703H68.307
	c-13.763,0-25.024-10.214-25.024-22.703v-24.827H468.718z"/>
<path style="fill:#0E7886;" d="M145.545,171.615l-65.913,114.21v131.9h22.158l-9.327-131.9l61.555-109.779
	C156.294,171.046,148.516,167.231,145.545,171.615z"/>
<path style="fill:#807D7D;" d="M0.011,451.524h511.978V430.34H0.011V451.524z"/>
<g>
	<path style="fill:#FBB429;" d="M168.413,417.725H53.022c-8.515,0-18.812,12.881-10.291,12.881h132.544
		C183.795,430.606,176.932,417.725,168.413,417.725z"/>
	<path style="fill:#FBB429;" d="M86.048,276.896c-5.076,0-9.191,4.114-9.191,9.19c0,5.077,4.115,9.191,9.191,9.191
		s9.19-4.114,9.19-9.191C95.238,281.01,91.124,276.896,86.048,276.896z"/>
</g>
<path style="fill:#FFFFFF;" d="M86.048,281.55c-2.505,0-4.536,2.031-4.536,4.537c0,2.505,2.031,4.535,4.536,4.535
	c2.506,0,4.535-2.03,4.535-4.535C90.583,283.581,88.554,281.55,86.048,281.55z"/>
<path style="fill:#FF5B61;" d="M154.202,413.783l-23.715-3.943v7.885h23.715V413.783z"/>
<path style="fill:#FFFFFF;" d="M223.223,368.181h42.652c2.388,0,4.341,1.954,4.341,4.342v53.473c0,2.388-1.953,4.344-4.341,4.344
	h-42.652c-2.388,0-4.342-1.955-4.342-4.344v-53.473C218.88,370.135,220.834,368.181,223.223,368.181z"/>
<g>
	<path style="fill:#ECF0F1;" d="M270.217,380.4h12.006c3.968,0,7.212,2.811,7.212,6.25v29.536c0,3.437-3.244,6.251-7.212,6.251
		h-12.006v-4.971h12.006c0.676,0,2.158-0.443,2.158-1.28V386.65c0-0.838-1.483-1.28-2.158-1.28h-12.006V380.4z"/>
	<path style="fill:#ECF0F1;" d="M264.369,430.34v-62.159h1.505c2.388,0,4.342,1.923,4.342,4.271v53.615
		c0,2.352-1.954,4.273-4.342,4.273H264.369z"/>
</g>
<path style="fill:#20D0C2;" d="M235.855,397.295h12.925v11.483h-12.925V397.295z"/>
<path style="fill:#15BDB1;" d="M235.855,397.295h12.925l-0.719-2.382H236.91L235.855,397.295z"/>
<path style="fill:#FBB429;" d="M242.848,368.181v27.871c-0.004,0.378-0.899,0.396-0.905,0v-27.871H242.848z"/>
<path style="fill:#666666;" d="M41.008,459.209h429.984v-7.682H41.008V459.209z"/>
<path style="fill:#D0D1D4;" d="M256,339.539c3.95,0,7.171-3.223,7.171-7.171c0-3.95-3.222-7.171-7.171-7.171
	c-3.95,0-7.171,3.222-7.171,7.171C248.828,336.316,252.05,339.539,256,339.539z"/>
<path style="fill:#FBB429;" d="M356.374,201.428c-3.079-2.45-6.96-4.35-10.387-6.031c-2.046-1.003-3.978-1.949-5.384-2.845
	c-3.273-2.086-5.659-7.425-5.32-11.902c0.145-1.913,0.87-4.438,3.496-5.598c2.794-1.234,4.896,0.989,5.589,1.719
	c1.455,1.537,2.728,3.771,3.492,6.132c0.578,1.782,0.672,3.048,0.615,3.717c-1.02-0.147-2.027,0.444-2.374,1.452
	c-0.39,1.139,0.219,2.379,1.357,2.769c1.796,0.614,3.448,0.164,4.446-1.197c1.486,4.583,3.331,8.825,5.479,12.64
	C357.061,201.996,356.729,201.712,356.374,201.428z M386.092,280.299L386.092,280.299h18.242v-1.913
	c-5.361-0.345-12.364-12.337-12.785-18.819l-2.411-37.125c8.041-0.997,15.386-5.894,21.267-13.493
	c-0.232,0.905-0.344,1.837-0.341,2.795c0.019,2.978,1.65,5.512,4.364,6.785c1.132,0.528,2.341,0.787,3.535,0.787
	c1.821,0,3.606-0.601,5.019-1.768c3.154-2.598,3.497-5.848,2.206-7.712c-1.094-1.578-3.082-1.977-4.836-0.967
	c-1.042,0.6-1.402,1.933-0.802,2.975c0.379,0.661,1.056,1.048,1.763,1.089c-0.189,0.342-0.526,0.776-1.105,1.251
	c-1.035,0.855-2.613,1.014-3.93,0.396c-0.69-0.321-1.845-1.121-1.853-2.858c-0.014-2.459,1.288-4.645,4.098-6.88
	c2.707-2.156,6.365-3.948,9.59-5.528c2.16-1.057,4.198-2.057,5.81-3.086c2.266-1.443,4.261-3.892,5.615-6.896
	c1.32-2.926,1.927-6.126,1.709-9.011c-0.334-4.384-2.493-7.67-6.081-9.258c-3.875-1.708-7.968-0.427-11.231,3.52
	c-0.117,0.143-0.232,0.288-0.347,0.436c0.551-4.034,0.85-8.213,0.863-12.501h-38.362h-38.36c0.013,4.287,0.312,8.467,0.862,12.501
	c-0.113-0.148-0.229-0.294-0.348-0.436c-3.262-3.946-7.357-5.228-11.229-3.52c-3.59,1.588-5.75,4.874-6.081,9.258
	c-0.22,2.886,0.387,6.086,1.707,9.011c1.357,3.004,3.35,5.453,5.616,6.896c1.613,1.029,3.651,2.029,5.81,3.086
	c3.227,1.581,6.885,3.372,9.593,5.528c2.81,2.235,4.113,4.421,4.098,6.88c-0.011,1.737-1.166,2.538-1.853,2.858
	c-1.318,0.618-2.897,0.458-3.932-0.396c-0.579-0.475-0.913-0.909-1.105-1.251c0.71-0.041,1.384-0.428,1.766-1.089
	c0.599-1.042,0.24-2.375-0.804-2.975c-1.754-1.01-3.743-0.612-4.834,0.967c-1.292,1.865-0.949,5.115,2.203,7.712
	c1.416,1.167,3.2,1.768,5.019,1.768c1.197,0,2.406-0.259,3.535-0.787c2.716-1.273,4.347-3.807,4.364-6.785
	c0.006-0.958-0.108-1.89-0.34-2.795c5.882,7.599,13.227,12.496,21.267,13.493l-2.409,37.125
	c-0.421,6.482-7.426,18.473-12.787,18.819v1.913H386.092L386.092,280.299z M415.811,201.428L415.811,201.428
	c-0.355,0.284-0.685,0.568-1.005,0.856c2.145-3.815,3.991-8.057,5.476-12.64c1.001,1.36,2.65,1.811,4.446,1.197
	c1.14-0.39,1.747-1.63,1.357-2.769c-0.344-1.008-1.354-1.6-2.372-1.452c-0.059-0.668,0.038-1.934,0.615-3.717
	c0.763-2.361,2.037-4.595,3.492-6.132c0.691-0.73,2.794-2.953,5.589-1.719c2.625,1.16,3.351,3.685,3.495,5.598
	c0.341,4.477-2.045,9.815-5.319,11.902c-1.409,0.897-3.341,1.842-5.387,2.845C422.774,197.078,418.89,198.979,415.811,201.428
	L415.811,201.428z"/>
<path style="fill:#F5A209;" d="M416.422,162.518c0,0,7.444,50.383-28.653,59.283l2.215,37.699c-0.091,10.029,8.149,20.8,14.351,20.8
	v-1.913c-5.361-0.345-12.364-12.337-12.785-18.819l-2.411-37.125c7.994-0.99,15.3-5.837,21.167-13.361
	c0.035-0.053,0.067-0.098,0.1-0.132c0,0,2.809-3.295,4.895-7.101c-0.17,0.144-0.335,0.29-0.496,0.435
	c0.611-1.086,1.198-2.208,1.759-3.362c1.879-4.472,3.718-9.278,3.718-9.278c1.11-3.541,2.587-9.472,3.31-14.626
	c0.551-4.034,0.85-8.213,0.863-12.501H416.422L416.422,162.518z"/>
<g>
	<path style="fill:#666666;" d="M412.374,313.639h-52.56v-29.478c0-2.128,1.734-3.862,3.858-3.862h44.841
		c2.128,0,3.862,1.734,3.862,3.862L412.374,313.639L412.374,313.639z"/>
	<path style="fill:#666666;" d="M417.243,319.593H354.94v-4.983c0-1.934,1.572-3.507,3.507-3.507h55.29
		c1.937,0,3.506,1.572,3.506,3.507L417.243,319.593L417.243,319.593z"/>
</g>
<path style="fill:#FBB429;" d="M425.395,162.518h-78.604c-0.942,0-1.707-0.765-1.707-1.708v-0.035c0-0.942,0.765-1.706,1.707-1.706
	h78.604c0.942,0,1.706,0.764,1.706,1.706v0.035C427.101,161.753,426.337,162.518,425.395,162.518z"/>
<path style="fill:#20D0C2;" d="M312.611,352.871h138.7v4.68c-6.567,8.37-5.482,17.68,0,24.655v4.678h-138.7
	C290.944,386.884,290.943,352.871,312.611,352.871z"/>
<path style="fill:#FFFFFF;" d="M451.31,382.206c-5.598-8.217-6.022-16.436,0-24.655H312.609c-6.522,0-11.871,5.556-11.871,12.327
	c0,6.772,5.35,12.327,11.871,12.327H451.31z"/>
<g>
	<path style="fill:#ECF0F1;" d="M449.981,359.535c0.402-0.661,0.845-1.324,1.33-1.984H312.609c-13.264,0-16.983,19.011-3.606,24.063
		c-9.134-4.445-5.724-19.604,3.864-22.079H449.981z"/>
	<path style="fill:#ECF0F1;" d="M448.609,361.882h-145.01c0.269-0.324,0.55-0.635,0.85-0.93h144.63
		C448.914,361.261,448.757,361.572,448.609,361.882L448.609,361.882z M302.387,363.638L302.387,363.638
		c-0.172,0.302-0.335,0.613-0.481,0.93h145.666c0.094-0.31,0.196-0.621,0.309-0.93H302.387z M301.246,366.323L301.246,366.323
		c-0.091,0.305-0.169,0.617-0.236,0.931h145.958c0.046-0.311,0.1-0.62,0.16-0.931H301.246z M300.768,369.008L300.768,369.008
		c-0.02,0.288-0.029,0.578-0.029,0.87v0.063h146.046c-0.002-0.311,0.005-0.62,0.019-0.932H300.768L300.768,369.008z
		 M300.868,371.696L300.868,371.696c0.045,0.314,0.101,0.625,0.17,0.929h145.966c-0.048-0.309-0.091-0.618-0.121-0.929H300.868z
		 M301.564,374.381L301.564,374.381c0.121,0.316,0.255,0.627,0.401,0.93h145.663c-0.096-0.308-0.183-0.619-0.264-0.93H301.564z
		 M302.986,377.066L302.986,377.066c0.225,0.323,0.463,0.633,0.714,0.931h144.983c-0.146-0.307-0.285-0.619-0.416-0.931H302.986
		L302.986,377.066z M305.531,379.753L305.531,379.753c0.441,0.342,0.905,0.654,1.39,0.931h143.29
		c-0.204-0.306-0.4-0.618-0.588-0.931H305.531z"/>
</g>
<path style="fill:#FF5B61;" d="M463.204,386.884H302.315v5.976c7.618,10.695,6.359,22.591,0,31.503v5.977h160.889
	C488.339,430.341,488.339,386.884,463.204,386.884L463.204,386.884z"/>
<path style="fill:#FFFFFF;" d="M302.315,424.364c6.495-10.502,6.986-21.003,0-31.503h160.889c7.568,0,13.775,7.101,13.775,15.753
	c0,8.651-6.208,15.75-13.775,15.75H302.315z"/>
<g>
	<path style="fill:#ECF0F1;" d="M303.857,395.397c-0.466-0.846-0.978-1.693-1.542-2.537h160.889
		c15.389,0,19.703,24.292,4.183,30.748c10.598-5.683,6.641-25.05-4.48-28.211H303.857z"/>
	<path style="fill:#ECF0F1;" d="M305.45,398.395h168.21c-0.312-0.415-0.642-0.812-0.987-1.188H304.904
		C305.096,397.601,305.279,397.999,305.45,398.395L305.45,398.395z M475.063,400.638L475.063,400.638
		c0.2,0.387,0.387,0.784,0.559,1.19h-168.97c-0.11-0.398-0.229-0.793-0.358-1.19H475.063L475.063,400.638z M476.388,404.069
		L476.388,404.069c0.103,0.391,0.193,0.789,0.272,1.189H307.35c-0.052-0.395-0.114-0.792-0.186-1.189H476.388z M476.943,407.502
		L476.943,407.502c0.022,0.366,0.035,0.737,0.035,1.112l-0.002,0.078H307.568c0.001-0.396-0.006-0.793-0.022-1.189H476.943z
		 M476.825,410.933L476.825,410.933c-0.051,0.401-0.117,0.798-0.196,1.189H307.313c0.057-0.394,0.104-0.792,0.142-1.189H476.825
		L476.825,410.933z M476.019,414.366L476.019,414.366c-0.142,0.405-0.298,0.8-0.464,1.188H306.586
		c0.112-0.394,0.213-0.789,0.306-1.188H476.019L476.019,414.366z M474.37,417.797L474.37,417.797
		c-0.262,0.413-0.539,0.81-0.832,1.19H305.362c0.171-0.394,0.332-0.791,0.482-1.19H474.37z M471.418,421.228L471.418,421.228
		c-0.512,0.438-1.051,0.836-1.614,1.189H303.592c0.237-0.391,0.463-0.786,0.681-1.189H471.418z"/>
</g>
<path style="fill:#FBB429;" d="M438.76,318.802H331.666v4.677c5.071,8.37,4.233,17.68,0,24.656v4.677H438.76
	C455.493,352.813,455.494,318.802,438.76,318.802L438.76,318.802z"/>
<path style="fill:#FFFFFF;" d="M331.666,348.135c4.324-8.218,4.65-16.438,0-24.656h107.096c5.034,0,9.168,5.558,9.168,12.33
	c0,6.771-4.134,12.326-9.168,12.326L331.666,348.135L331.666,348.135z"/>
<g>
	<path style="fill:#ECF0F1;" d="M332.692,325.465c-0.309-0.663-0.65-1.325-1.026-1.986h107.096c10.241,0,13.114,19.011,2.783,24.064
		c7.055-4.446,4.42-19.604-2.982-22.078H332.692z"/>
	<path style="fill:#ECF0F1;" d="M333.753,327.812h111.968c-0.207-0.327-0.427-0.635-0.656-0.932H333.39
		C333.518,327.191,333.638,327.5,333.753,327.812z M446.655,329.566L446.655,329.566c0.134,0.304,0.257,0.613,0.371,0.932H334.553
		c-0.073-0.312-0.151-0.621-0.238-0.932H446.655z M447.537,332.253L447.537,332.253c0.068,0.307,0.13,0.615,0.18,0.931h-112.7
		c-0.034-0.311-0.075-0.62-0.124-0.931H447.537L447.537,332.253z M447.906,334.939L447.906,334.939
		c0.014,0.286,0.025,0.578,0.025,0.87l-0.001,0.06H335.162c0.001-0.309-0.005-0.62-0.015-0.93L447.906,334.939L447.906,334.939z
		 M447.83,337.625L447.83,337.625c-0.035,0.314-0.08,0.623-0.132,0.93H334.993c0.037-0.309,0.07-0.62,0.093-0.93H447.83z
		 M447.291,340.309L447.291,340.309c-0.093,0.318-0.198,0.627-0.308,0.932H334.508c0.074-0.309,0.143-0.62,0.205-0.932H447.291
		L447.291,340.309z M446.193,342.996L446.193,342.996c-0.172,0.322-0.357,0.634-0.552,0.932H333.696
		c0.113-0.308,0.219-0.619,0.321-0.932H446.193z M444.23,345.683L444.23,345.683c-0.341,0.342-0.699,0.653-1.074,0.929H332.517
		c0.157-0.307,0.308-0.615,0.451-0.929H444.23z"/>
</g>
<path style="fill:#FFFFFF;" d="M149.3,171.981c-1.53,0-2.77,1.24-2.77,2.771c0,1.529,1.24,2.769,2.77,2.769
	c1.531,0,2.771-1.24,2.771-2.769C152.071,173.221,150.831,171.981,149.3,171.981z"/>
<g>
</g>
<g>
</g>
<g>
</g>
<g>
</g>
<g>
</g>
<g>
</g>
<g>
</g>
<g>
</g>
<g>
</g>
<g>
</g>
<g>
</g>
<g>
</g>
<g>
</g>
<g>
</g>
<g>
</g>
</svg>
