<?xml version="1.0" encoding="UTF-8"?><!DOCTYPE svg PUBLIC "-//W3C//DTD SVG 1.1//EN" "http://www.w3.org/Graphics/SVG/1.1/DTD/svg11.dtd"><svg xmlns="http://www.w3.org/2000/svg" xmlns:xlink="http://www.w3.org/1999/xlink" version="1.1" id="Layer_1" x="0px" y="0px" width="512px" height="512px" viewBox="0 0 512 512" xml:space="preserve"><path d="M381.7 225.9c0-97.6-52.5-130.8-101.6-138.2 0-.5.1-1 .1-1.6 0-12.3-10.9-22.1-24.2-22.1-13.3 0-23.8 9.8-23.8 22.1 0 .6 0 1.1.1 1.6-49.2 7.5-102 40.8-102 138.4 0 113.8-28.3 126-66.3 158h384c-37.8-32.1-66.3-44.4-66.3-158.2zM107.2 368c8.6-9 16.4-18.4 22.7-31.8 12-25.3 17.4-59.2 17.4-110.2 0-46.4 12.5-80.4 37.1-101.2 22.9-19.3 51.7-23.3 71.8-23.3 20.1 0 48.9 4 71.6 23.3 24.5 20.7 37 54.5 37 100.9 0 83.8 14.9 117.3 40.3 142.3H107.2z"/><path d="M256.2 448c26.8 0 48.8-19.9 51.7-43H204.5c2.8 23.1 24.9 43 51.7 43z"/><metadata><rdf:RDF xmlns:rdf="http://www.w3.org/1999/02/22-rdf-syntax-ns#" xmlns:rdfs="http://www.w3.org/2000/01/rdf-schema#" xmlns:dc="http://purl.org/dc/elements/1.1/"><rdf:Description about="https://iconscout.com/legal#licenses" dc:title="ios,bell,outline" dc:description="ios,bell,outline" dc:publisher="Iconscout" dc:date="2017-09-24" dc:format="image/svg+xml" dc:language="en"><dc:creator><rdf:Bag><rdf:li>Benjamin J Sperry</rdf:li></rdf:Bag></dc:creator></rdf:Description></rdf:RDF></metadata></svg>