<?xml version="1.0" ?><svg height="16px" version="1.1" viewBox="0 0 16 16" width="16px" xmlns="http://www.w3.org/2000/svg" xmlns:sketch="http://www.bohemiancoding.com/sketch/ns" xmlns:xlink="http://www.w3.org/1999/xlink"><title/><desc/><defs/><g fill="none" fill-rule="evenodd" id="Page-1" stroke="none" stroke-width="1"><g fill="#000000" id="Core" transform="translate(-340.000000, -4.000000)"><g id="apps" transform="translate(340.000000, 4.000000)"><path d="M0,4 L4,4 L4,0 L0,0 L0,4 L0,4 Z M6,16 L10,16 L10,12 L6,12 L6,16 L6,16 Z M0,16 L4,16 L4,12 L0,12 L0,16 L0,16 Z M0,10 L4,10 L4,6 L0,6 L0,10 L0,10 Z M6,10 L10,10 L10,6 L6,6 L6,10 L6,10 Z M12,0 L12,4 L16,4 L16,0 L12,0 L12,0 Z M6,4 L10,4 L10,0 L6,0 L6,4 L6,4 Z M12,10 L16,10 L16,6 L12,6 L12,10 L12,10 Z M12,16 L16,16 L16,12 L12,12 L12,16 L12,16 Z" id="Shape"/></g></g></g></svg>