<svg xmlns="http://www.w3.org/2000/svg" xmlns:xlink="http://www.w3.org/1999/xlink" viewBox="0 0 150 150"><defs><style>.cls-1{fill:url(#linear-gradient);}.cls-2{fill:url(#linear-gradient-2);}</style><linearGradient id="linear-gradient" x1="124.31" y1="25.69" x2="24.56" y2="125.44" gradientUnits="userSpaceOnUse"><stop offset="0" stop-color="#ff5209"/><stop offset="1" stop-color="#ff8c09"/></linearGradient><linearGradient id="linear-gradient-2" x1="124.31" y1="25.69" x2="24.56" y2="125.44" xlink:href="#linear-gradient"/></defs><title>3006068</title><g id="OBJECTS"><path class="cls-1" d="M94.37,125H55.63A30.66,30.66,0,0,1,25,94.37V55.63A30.66,30.66,0,0,1,55.63,25H94.37A30.66,30.66,0,0,1,125,55.63V94.37A30.66,30.66,0,0,1,94.37,125ZM55.63,28.71A27,27,0,0,0,28.71,55.63V94.37a27,27,0,0,0,26.92,26.92H94.37a27,27,0,0,0,26.92-26.92V55.63A27,27,0,0,0,94.37,28.71Z"/><path class="cls-2" d="M91,70.12H90a2.54,2.54,0,0,1-2.54-2.54A12.18,12.18,0,0,0,75.25,55.4H67.78A12.38,12.38,0,0,0,55.4,67.78V82.22A12.38,12.38,0,0,0,67.78,94.6H82.22A12.38,12.38,0,0,0,94.6,82.22V73.77A3.65,3.65,0,0,0,91,70.12Zm-23.27-5H75a2.55,2.55,0,0,1,0,5.09H67.69a2.55,2.55,0,1,1,0-5.09ZM82,84.52H67.69a2.55,2.55,0,1,1,0-5.09H82a2.55,2.55,0,0,1,0,5.09Z"/><path class="cls-1" d="M94.37,125H55.63A30.66,30.66,0,0,1,25,94.37V55.63A30.66,30.66,0,0,1,55.63,25H94.37A30.66,30.66,0,0,1,125,55.63V94.37A30.66,30.66,0,0,1,94.37,125ZM55.63,28.71A27,27,0,0,0,28.71,55.63V94.37a27,27,0,0,0,26.92,26.92H94.37a27,27,0,0,0,26.92-26.92V55.63A27,27,0,0,0,94.37,28.71Z"/><path class="cls-2" d="M91,70.12H90a2.54,2.54,0,0,1-2.54-2.54A12.18,12.18,0,0,0,75.25,55.4H67.78A12.38,12.38,0,0,0,55.4,67.78V82.22A12.38,12.38,0,0,0,67.78,94.6H82.22A12.38,12.38,0,0,0,94.6,82.22V73.77A3.65,3.65,0,0,0,91,70.12Zm-23.27-5H75a2.55,2.55,0,0,1,0,5.09H67.69a2.55,2.55,0,1,1,0-5.09ZM82,84.52H67.69a2.55,2.55,0,1,1,0-5.09H82a2.55,2.55,0,0,1,0,5.09Z"/></g></svg>