<svg xmlns="http://www.w3.org/2000/svg" xmlns:xlink="http://www.w3.org/1999/xlink" viewBox="0 0 150 150"><defs><style>.cls-1{fill:url(#linear-gradient);}.cls-2{fill:url(#linear-gradient-2);}.cls-3{fill:url(#linear-gradient-3);}.cls-4{fill:url(#linear-gradient-4);}.cls-5{fill:url(#linear-gradient-5);}.cls-6{fill:url(#linear-gradient-6);}</style><linearGradient id="linear-gradient" x1="134.59" y1="18.09" x2="16.04" y2="131.31" gradientUnits="userSpaceOnUse"><stop offset="0" stop-color="#66e8ff"/><stop offset="1" stop-color="#66adff"/></linearGradient><linearGradient id="linear-gradient-2" x1="128.58" y1="11.79" x2="10.03" y2="125.02" xlink:href="#linear-gradient"/><linearGradient id="linear-gradient-3" x1="143.66" y1="27.58" x2="25.11" y2="140.8" xlink:href="#linear-gradient"/><linearGradient id="linear-gradient-4" x1="142.77" y1="26.64" x2="24.21" y2="139.87" xlink:href="#linear-gradient"/><linearGradient id="linear-gradient-5" x1="118.86" y1="1.62" x2="0.31" y2="114.84" xlink:href="#linear-gradient"/><linearGradient id="linear-gradient-6" x1="133.94" y1="17.4" x2="15.39" y2="130.63" xlink:href="#linear-gradient"/></defs><title>3006068</title><g id="OBJECTS"><path class="cls-1" d="M94.37,125H55.63A30.66,30.66,0,0,1,25,94.37V55.63A30.66,30.66,0,0,1,55.63,25H94.37A30.66,30.66,0,0,1,125,55.63V94.37A30.66,30.66,0,0,1,94.37,125ZM55.63,28.71A27,27,0,0,0,28.71,55.63V94.37a27,27,0,0,0,26.92,26.92H94.37a27,27,0,0,0,26.92-26.92V55.63A27,27,0,0,0,94.37,28.71Z"/><polygon class="cls-2" points="74.65 78.06 59.2 87.79 43.74 78.06 59.2 68.33 74.65 78.06"/><polygon class="cls-3" points="106.25 78.06 90.8 87.79 75.35 78.06 90.8 68.33 106.25 78.06"/><polygon class="cls-4" points="90.42 91.4 74.97 101.12 59.52 91.4 74.97 81.67 90.42 91.4"/><polygon class="cls-5" points="74.65 58.6 59.2 68.33 43.74 58.6 59.2 48.88 74.65 58.6"/><polygon class="cls-6" points="106.25 58.6 90.8 68.33 75.35 58.6 90.8 48.88 106.25 58.6"/></g></svg>