<svg xmlns="http://www.w3.org/2000/svg" xmlns:xlink="http://www.w3.org/1999/xlink" viewBox="0 0 150 150"><defs><style>.cls-1{fill:url(#linear-gradient);}.cls-2{fill:url(#linear-gradient-2);}</style><linearGradient id="linear-gradient" x1="118.71" y1="31.29" x2="35.07" y2="114.93" gradientUnits="userSpaceOnUse"><stop offset="0" stop-color="#66e8ff"/><stop offset="1" stop-color="#66adff"/></linearGradient><linearGradient id="linear-gradient-2" x1="116.16" y1="28.74" x2="32.52" y2="112.37" xlink:href="#linear-gradient"/></defs><title>3006068</title><g id="OBJECTS"><path class="cls-1" d="M94.37,125H55.63A30.66,30.66,0,0,1,25,94.37V55.63A30.66,30.66,0,0,1,55.63,25H94.37A30.66,30.66,0,0,1,125,55.63V94.37A30.66,30.66,0,0,1,94.37,125ZM55.63,28.71A27,27,0,0,0,28.71,55.63V94.37a27,27,0,0,0,26.92,26.92H94.37a27,27,0,0,0,26.92-26.92V55.63A27,27,0,0,0,94.37,28.71Z"/><path class="cls-2" d="M55.83,69.05l-2.06-2.64s12.07-13.29,16-7.76,3.62,28.44,9.25,19.78,6.56-13.69-.76-12.36a24.64,24.64,0,0,0,.91-2.54,13.47,13.47,0,0,1,3.44-4.86c3.2-2.69,9.28-2.66,12.08.62,3.62,4.25-.16,11.16-2.55,15-8.12,13-17.55,22.25-21.88,17.92s-8.78-22.85-9.7-24.53C59.24,65.16,55.83,69.05,55.83,69.05Z"/></g></svg>