<svg xmlns="http://www.w3.org/2000/svg" xmlns:xlink="http://www.w3.org/1999/xlink" viewBox="0 0 150 150"><defs><style>.cls-1{fill:url(#linear-gradient);}.cls-2{fill:url(#linear-gradient-2);}.cls-3{fill:url(#linear-gradient-3);}</style><linearGradient id="linear-gradient" x1="124.84" y1="25.16" x2="33.55" y2="116.45" gradientUnits="userSpaceOnUse"><stop offset="0" stop-color="#66e8ff"/><stop offset="1" stop-color="#66adff"/></linearGradient><linearGradient id="linear-gradient-2" x1="124.84" y1="25.16" x2="33.55" y2="116.45" xlink:href="#linear-gradient"/><linearGradient id="linear-gradient-3" x1="124.84" y1="25.17" x2="33.55" y2="116.45" xlink:href="#linear-gradient"/></defs><title>3006068</title><g id="OBJECTS"><path class="cls-1" d="M94.37,125H55.63A30.66,30.66,0,0,1,25,94.37V55.63A30.66,30.66,0,0,1,55.63,25H94.37A30.66,30.66,0,0,1,125,55.63V94.37A30.66,30.66,0,0,1,94.37,125ZM55.63,28.71A27,27,0,0,0,28.71,55.63V94.37a27,27,0,0,0,26.92,26.92H94.37a27,27,0,0,0,26.92-26.92V55.63A27,27,0,0,0,94.37,28.71Z"/><path class="cls-2" d="M68.3,68.47a3.76,3.76,0,0,0,2,1.9,18.5,18.5,0,0,0,3.3,1.1l1.08.29a43.74,43.74,0,0,1,4.71,1.64,17.64,17.64,0,0,1,2.84,1.07,9.17,9.17,0,0,1,4.93,5.29A8.37,8.37,0,0,1,86,87a11.58,11.58,0,0,1-5.13,4,15.81,15.81,0,0,1-17.65-4,2.87,2.87,0,0,1,4.31-3.8,10.08,10.08,0,0,0,11.08,2.52,6.15,6.15,0,0,0,2.65-2,2.76,2.76,0,0,0,.47-2.24,3.76,3.76,0,0,0-2-1.9,18.5,18.5,0,0,0-3.3-1.1l-1.08-.29a43.74,43.74,0,0,1-4.71-1.64,17.64,17.64,0,0,1-2.84-1.07,9.17,9.17,0,0,1-4.93-5.29A8.37,8.37,0,0,1,64,63a11.58,11.58,0,0,1,5.13-4,15.81,15.81,0,0,1,17.65,4,2.87,2.87,0,0,1-4.31,3.8,10.08,10.08,0,0,0-11.08-2.52,6.15,6.15,0,0,0-2.65,2A2.76,2.76,0,0,0,68.3,68.47Z"/><path class="cls-3" d="M88.52,106.79a18.2,18.2,0,0,1-8.93-2.34,30.74,30.74,0,0,1-4.59.35A29.83,29.83,0,0,1,45.2,75a29.39,29.39,0,0,1,.36-4.59A18.25,18.25,0,0,1,70.41,45.57,29.48,29.48,0,0,1,75,45.21,29.84,29.84,0,0,1,104.8,75a29.48,29.48,0,0,1-.36,4.59,18.26,18.26,0,0,1-15.92,27.19Zm10.13-8.13A14.27,14.27,0,0,0,100.71,81l-.4-.64.14-.74a26.45,26.45,0,0,0,.41-4.62A25.89,25.89,0,0,0,75,49.15a26.54,26.54,0,0,0-4.62.41l-.74.13L69,49.3A14.32,14.32,0,0,0,49.29,69l.4.65-.14.74A26.45,26.45,0,0,0,49.14,75,25.89,25.89,0,0,0,75,100.87a26.54,26.54,0,0,0,4.62-.41l.74-.14.65.4a14.33,14.33,0,0,0,17.64-2.06"/></g></svg>