<?xml version="1.0" encoding="utf-8"?>
<!-- Generator: Adobe Illustrator 23.1.0, SVG Export Plug-In . SVG Version: 6.00 Build 0)  -->
<svg version="1.1" id="BACKGROUND" xmlns="http://www.w3.org/2000/svg" xmlns:xlink="http://www.w3.org/1999/xlink" x="0px" y="0px"
	 viewBox="0 0 159.9 160.3" style="enable-background:new 0 0 159.9 160.3;" xml:space="preserve">
<style type="text/css">
	.st0{fill:#FFD400;}
</style>
<title>3006068</title>
<path d="M159.8,160.3c-53.4,0-106.7,0-159.9,0c0-53.6,0-106.9,0-160.3c53.4,0,106.6,0,159.9,0C159.8,53.5,159.8,106.9,159.8,160.3z
	 M12.3,12.3c0,45.2,0,90.3,0,135.4c45,0,89.9,0,134.7,0c0-45.3,0-90.4,0-135.4C102.1,12.3,57.3,12.3,12.3,12.3z"/>
<path class="st0" d="M53.9,30.2c17.2,0,33.9,0,50.7,0c0,3.1,0,6.1,0,9.4c3.7,0,7.2,0,10.9,0c0,13.7,0,27.1,0,40.7
	c-6.6,0-13.1,0-19.9,0c0,6.7,0,13.3,0,20c-7.3,0-14.3,0-21.4,0c0-6.9,0-13.7,0-20.9c3.1-0.2,6.1-0.4,9.3-0.6c0-2.9,0-5.7,0-8.9
	c3.7,0,7.2,0,10.9,0c0-9.8,0-19.4,0-29.1c-9.5,0-19.1,0-29,0c0,9.9,0,19.8,0,29.8c-7,0-13.7,0-20.6,0c0-10.1,0-20.2,0-30.6
	c2.9-0.2,5.9-0.3,9.1-0.5C53.9,36.5,53.9,33.4,53.9,30.2z"/>
<path class="st0" d="M95.5,110.6c0,6.5,0,13.1,0,19.8c-7.1,0-14,0-21.4,0c0-1.1,0-2.3,0-3.5c0-4.8,0.1-9.6,0.1-14.4
	c0-1.3,0.5-2,1.9-2C82.5,110.6,88.8,110.6,95.5,110.6z"/>
<path d="M21.7,33.1c0-3.7,0-7.1,0-10.6c3.5,0,6.8,0,10.6,0c0,3.2,0,6.4-0.1,9.6c0,0.4-0.7,1-1.1,1C28,33.2,24.9,33.1,21.7,33.1z"/>
<path d="M137.5,33c-3.4,0-6.7,0-10.2,0c0-3.4,0-6.9,0-10.5c3.3,0,6.7,0,10.2,0C137.5,26,137.5,29.4,137.5,33z"/>
<path d="M21.8,127.9c3.5,0,6.8,0,10.3,0c0,3.4,0,6.8,0,10.3c-3.4,0-6.8,0-10.3,0C21.8,134.8,21.8,131.5,21.8,127.9z"/>
<path d="M137.5,128c0,3.4,0,6.7,0,10.2c-3.4,0-6.8,0-10.3,0c0-3.4,0-6.7,0-10.2C130.5,128,133.9,128,137.5,128z"/>
</svg>
