<svg xmlns="http://www.w3.org/2000/svg" xmlns:xlink="http://www.w3.org/1999/xlink" viewBox="0 0 150 150"><defs><style>.cls-1{fill:url(#linear-gradient);}.cls-2{fill:url(#linear-gradient-2);}</style><linearGradient id="linear-gradient" x1="127.03" y1="22.97" x2="25.2" y2="124.8" gradientUnits="userSpaceOnUse"><stop offset="0" stop-color="#f53aff"/><stop offset="1" stop-color="#f791ff"/></linearGradient><linearGradient id="linear-gradient-2" x1="127.03" y1="22.97" x2="25.2" y2="124.8" xlink:href="#linear-gradient"/></defs><title>3006068</title><g id="OBJECTS"><path class="cls-1" d="M94.37,125H55.63A30.66,30.66,0,0,1,25,94.37V55.63A30.66,30.66,0,0,1,55.63,25H94.37A30.66,30.66,0,0,1,125,55.63V94.37A30.66,30.66,0,0,1,94.37,125ZM55.63,28.71A27,27,0,0,0,28.71,55.63V94.37a27,27,0,0,0,26.92,26.92H94.37a27,27,0,0,0,26.92-26.92V55.63A27,27,0,0,0,94.37,28.71Z"/><path class="cls-2" d="M75,47.92A27.08,27.08,0,1,0,102.08,75,27.11,27.11,0,0,0,75,47.92Zm18,13a22.74,22.74,0,0,1,4.89,13.57,37.76,37.76,0,0,0-16.33-.07q-1-2.49-2.13-4.74C84.72,67.64,89.64,64.83,93,60.88ZM90,57.8c-2.87,3.65-7.47,6.23-12.55,8.07a97.8,97.8,0,0,0-8.15-13A22.51,22.51,0,0,1,75,52.14,22.76,22.76,0,0,1,90,57.8ZM65.18,54.36a94.44,94.44,0,0,1,8.18,12.81,98.29,98.29,0,0,1-20.73,3.08A23,23,0,0,1,65.18,54.36ZM52.14,75c0-.17,0-.33,0-.5A98.38,98.38,0,0,0,75.31,71q1.05,2.16,2.09,4.55C67.26,79.08,60.55,86.3,57.69,89.91A22.75,22.75,0,0,1,52.14,75Zm8.58,17.84c2.33-3.11,8.5-10.22,18.24-13.46a102.37,102.37,0,0,1,4.88,16.7,22.83,22.83,0,0,1-23.12-3.24Zm27,1.15A109,109,0,0,0,83.1,78.31a34.49,34.49,0,0,1,14.46.41A22.93,22.93,0,0,1,87.72,94Z"/></g></svg>