<svg xmlns="http://www.w3.org/2000/svg" xmlns:xlink="http://www.w3.org/1999/xlink" viewBox="0 0 150 150"><defs><style>.cls-1{fill:url(#linear-gradient);}.cls-2{fill:url(#linear-gradient-2);}</style><linearGradient id="linear-gradient" x1="119.7" y1="30.3" x2="29.52" y2="120.48" gradientUnits="userSpaceOnUse"><stop offset="0" stop-color="#66e8ff"/><stop offset="1" stop-color="#66adff"/></linearGradient><linearGradient id="linear-gradient-2" x1="114.87" y1="25.47" x2="24.69" y2="115.66" xlink:href="#linear-gradient"/></defs><title>3006068</title><g id="OBJECTS"><path class="cls-1" d="M94.37,125H55.63A30.66,30.66,0,0,1,25,94.37V55.63A30.66,30.66,0,0,1,55.63,25H94.37A30.66,30.66,0,0,1,125,55.63V94.37A30.66,30.66,0,0,1,94.37,125ZM55.63,28.71A27,27,0,0,0,28.71,55.63V94.37a27,27,0,0,0,26.92,26.92H94.37a27,27,0,0,0,26.92-26.92V55.63A27,27,0,0,0,94.37,28.71Z"/><path class="cls-2" d="M97,59.41a13.74,13.74,0,0,0,4.36-5.92s-4.41,2.07-7.06,2.1A11.64,11.64,0,0,0,73.5,62.83a11.88,11.88,0,0,0,.59,3.65H74C56.77,65.28,49.77,54.22,49.77,54.22S45.53,63,52.42,69.88a6.9,6.9,0,0,1-3.94-1s-1.44,7.47,8,11.49a13.08,13.08,0,0,1-4.12.45,12.59,12.59,0,0,0,10.65,8s-3.52,4.45-15.8,5.31c0,0,20.32,13.29,40.07-4.67,0,0,8.62-7.29,9.7-22l5.87-9.38Z"/></g></svg>