<svg xmlns="http://www.w3.org/2000/svg" xmlns:xlink="http://www.w3.org/1999/xlink" viewBox="0 0 150 150"><defs><style>.cls-1{fill:url(#linear-gradient);}.cls-2{fill:url(#linear-gradient-2);}.cls-3{fill:url(#linear-gradient-3);}.cls-4{fill:url(#linear-gradient-4);}</style><linearGradient id="linear-gradient" x1="138.82" y1="14.01" x2="18.94" y2="128.57" gradientUnits="userSpaceOnUse"><stop offset="0" stop-color="#4eeeff"/><stop offset="1" stop-color="#4e66ff"/></linearGradient><linearGradient id="linear-gradient-2" x1="134.77" y1="9.78" x2="14.89" y2="124.33" xlink:href="#linear-gradient"/><linearGradient id="linear-gradient-3" x1="125.05" y1="-0.4" x2="5.17" y2="114.16" xlink:href="#linear-gradient"/><linearGradient id="linear-gradient-4" x1="144.34" y1="19.78" x2="24.45" y2="134.34" xlink:href="#linear-gradient"/></defs><title>3006068</title><g id="OBJECTS"><path class="cls-1" d="M94.37,125H55.63A30.66,30.66,0,0,1,25,94.37V55.63A30.66,30.66,0,0,1,55.63,25H94.37A30.66,30.66,0,0,1,125,55.63V94.37A30.66,30.66,0,0,1,94.37,125ZM55.63,28.71A27,27,0,0,0,28.71,55.63V94.37a27,27,0,0,0,26.92,26.92H94.37a27,27,0,0,0,26.92-26.92V55.63A27,27,0,0,0,94.37,28.71Z"/><rect class="cls-2" x="57.14" y="67.95" width="7.31" height="25.05"/><path class="cls-3" d="M60.79,57a4,4,0,1,0,4,4A4,4,0,0,0,60.79,57Z"/><path class="cls-4" d="M87.24,67.86c-6.81-1.92-10.41,2.67-10.41,2.67h0l-.89-3.3h-6.7V93h7.83V77.71a4.14,4.14,0,0,1,4.14-4.14h0a4.13,4.13,0,0,1,4.13,4.14V93h7.84V80.11S94,69.78,87.24,67.86Z"/></g></svg>