<svg xmlns="http://www.w3.org/2000/svg" xmlns:xlink="http://www.w3.org/1999/xlink" viewBox="0 0 150 150"><defs><style>.cls-1{fill:url(#linear-gradient);}.cls-2{fill:url(#linear-gradient-2);}</style><linearGradient id="linear-gradient" x1="114.46" y1="35.54" x2="32.52" y2="117.48" gradientUnits="userSpaceOnUse"><stop offset="0" stop-color="#3a32b8"/><stop offset="1" stop-color="#4e66ff"/></linearGradient><linearGradient id="linear-gradient-2" x1="115.67" y1="36.74" x2="33.72" y2="118.69" xlink:href="#linear-gradient"/></defs><title>3006068</title><g id="OBJECTS"><path class="cls-1" d="M94.37,125H55.63A30.66,30.66,0,0,1,25,94.37V55.63A30.66,30.66,0,0,1,55.63,25H94.37A30.66,30.66,0,0,1,125,55.63V94.37A30.66,30.66,0,0,1,94.37,125ZM55.63,28.71A27,27,0,0,0,28.71,55.63V94.37a27,27,0,0,0,26.92,26.92H94.37a27,27,0,0,0,26.92-26.92V55.63A27,27,0,0,0,94.37,28.71Z"/><path class="cls-2" d="M88.35,48.6l-7.79-.18A11.41,11.41,0,0,0,68.9,59.83v7.38H61.67a.54.54,0,0,0-.54.54V77a.54.54,0,0,0,.54.54H68.9V101a.54.54,0,0,0,.54.54H79a.54.54,0,0,0,.53-.54V77.57h7.3a.53.53,0,0,0,.53-.47l1.21-9.28a.53.53,0,0,0-.13-.42.55.55,0,0,0-.41-.19h-8.5V62.52a5.39,5.39,0,0,1,1-3.58,2.93,2.93,0,0,1,2.29-.89h5.5a.54.54,0,0,0,.54-.54V49.14A.53.53,0,0,0,88.35,48.6Z"/></g></svg>