<svg xmlns="http://www.w3.org/2000/svg" xmlns:xlink="http://www.w3.org/1999/xlink" viewBox="0 0 150 150"><defs><style>.cls-1{fill:url(#linear-gradient);}.cls-2{fill:url(#linear-gradient-2);}</style><linearGradient id="linear-gradient" x1="126.99" y1="23.01" x2="20.58" y2="129.42" gradientUnits="userSpaceOnUse"><stop offset="0" stop-color="#3ab7ff"/><stop offset="1" stop-color="#3a6bff"/></linearGradient><linearGradient id="linear-gradient-2" x1="126.99" y1="23.01" x2="20.58" y2="129.42" xlink:href="#linear-gradient"/></defs><title>3006068</title><g id="OBJECTS"><path class="cls-1" d="M94.37,125H55.63A30.66,30.66,0,0,1,25,94.37V55.63A30.66,30.66,0,0,1,55.63,25H94.37A30.66,30.66,0,0,1,125,55.63V94.37A30.66,30.66,0,0,1,94.37,125ZM55.63,28.71A27,27,0,0,0,28.71,55.63V94.37a27,27,0,0,0,26.92,26.92H94.37a27,27,0,0,0,26.92-26.92V55.63A27,27,0,0,0,94.37,28.71Z"/><path class="cls-2" d="M75.58,50.66A23.76,23.76,0,0,0,54.9,86.12L50.66,99.34l13.23-4.23A23.76,23.76,0,1,0,75.58,50.66Zm9.56,22.45c-.74.81-1.52,1.56-2.31,2.3s-1.61,1.45-2.44,2.13-1.68,1.34-2.54,2l-1.64,1.21-1.35-1.79c-.63-.85-1.23-1.72-1.83-2.6l-.65-1C71.19,76,70,76.62,68.74,77.2c-1,.44-1.93.86-2.93,1.25a27.39,27.39,0,0,1-3.1,1A30.05,30.05,0,0,1,64.8,77c.73-.78,1.49-1.52,2.26-2.25a57.47,57.47,0,0,1,4.83-4l1.62-1.22,1.35,1.79c.63.86,1.25,1.72,1.85,2.6l.65,1c.29-.17.57-.35.87-.51.94-.52,1.9-1,2.88-1.46s2-.9,3-1.29a28.83,28.83,0,0,1,3.18-1A28.24,28.24,0,0,1,85.14,73.11Z"/><path class="cls-1" d="M94.37,125H55.63A30.66,30.66,0,0,1,25,94.37V55.63A30.66,30.66,0,0,1,55.63,25H94.37A30.66,30.66,0,0,1,125,55.63V94.37A30.66,30.66,0,0,1,94.37,125ZM55.63,28.71A27,27,0,0,0,28.71,55.63V94.37a27,27,0,0,0,26.92,26.92H94.37a27,27,0,0,0,26.92-26.92V55.63A27,27,0,0,0,94.37,28.71Z"/><path class="cls-2" d="M75.58,50.66A23.76,23.76,0,0,0,54.9,86.12L50.66,99.34l13.23-4.23A23.76,23.76,0,1,0,75.58,50.66Zm9.56,22.45c-.74.81-1.52,1.56-2.31,2.3s-1.61,1.45-2.44,2.13-1.68,1.34-2.54,2l-1.64,1.21-1.35-1.79c-.63-.85-1.23-1.72-1.83-2.6l-.65-1C71.19,76,70,76.62,68.74,77.2c-1,.44-1.93.86-2.93,1.25a27.39,27.39,0,0,1-3.1,1A30.05,30.05,0,0,1,64.8,77c.73-.78,1.49-1.52,2.26-2.25a57.47,57.47,0,0,1,4.83-4l1.62-1.22,1.35,1.79c.63.86,1.25,1.72,1.85,2.6l.65,1c.29-.17.57-.35.87-.51.94-.52,1.9-1,2.88-1.46s2-.9,3-1.29a28.83,28.83,0,0,1,3.18-1A28.24,28.24,0,0,1,85.14,73.11Z"/></g></svg>