<svg xmlns="http://www.w3.org/2000/svg" xmlns:xlink="http://www.w3.org/1999/xlink" viewBox="0 0 150 150"><defs><style>.cls-1{fill:url(#linear-gradient);}.cls-2{fill:url(#linear-gradient-2);}.cls-3{fill:url(#linear-gradient-3);}.cls-4{fill:url(#linear-gradient-4);}</style><linearGradient id="linear-gradient" x1="121.79" y1="28.21" x2="34.22" y2="115.78" gradientUnits="userSpaceOnUse"><stop offset="0" stop-color="#8e3dff"/><stop offset="1" stop-color="#4e66ff"/></linearGradient><linearGradient id="linear-gradient-2" x1="113.28" y1="19.7" x2="25.71" y2="107.26" xlink:href="#linear-gradient"/><linearGradient id="linear-gradient-3" x1="131.71" y1="38.13" x2="44.14" y2="125.69" xlink:href="#linear-gradient"/><linearGradient id="linear-gradient-4" x1="121.88" y1="28.3" x2="34.31" y2="115.87" xlink:href="#linear-gradient"/></defs><title>3006068</title><g id="OBJECTS"><path class="cls-1" d="M94.37,125H55.63A30.66,30.66,0,0,1,25,94.37V55.63A30.66,30.66,0,0,1,55.63,25H94.37A30.66,30.66,0,0,1,125,55.63V94.37A30.66,30.66,0,0,1,94.37,125ZM55.63,28.71A27,27,0,0,0,28.71,55.63V94.37a27,27,0,0,0,26.92,26.92H94.37a27,27,0,0,0,26.92-26.92V55.63A27,27,0,0,0,94.37,28.71Z"/><path class="cls-2" d="M66.28,73.86H64.73a8.59,8.59,0,0,0,8.59-8.59h0a8.59,8.59,0,0,0-8.59-8.58H47.47V92.07H66.28a8.32,8.32,0,0,0,8.32-8.32V82.18A8.33,8.33,0,0,0,66.28,73.86ZM54.57,63.11h8a4.29,4.29,0,0,1,4.29,4.29h0a4.29,4.29,0,0,1-4.29,4.29h-8Zm9.06,23H54.57V77.52h9.06a4.3,4.3,0,0,1,0,8.59Z"/><path class="cls-3" d="M95.22,84.49A6.6,6.6,0,0,1,90,87.17a6.91,6.91,0,0,1-6.56-5.35h19a14,14,0,0,0,.15-2c0-7.43-5.62-13.46-12.55-13.46s-12.55,6-12.55,13.46S83.05,93.31,90,93.31a12.61,12.61,0,0,0,11.77-8.82ZM90,72.44A6.83,6.83,0,0,1,95.9,76H84.06A6.82,6.82,0,0,1,90,72.44Z"/><rect class="cls-4" x="80.76" y="58.68" width="17.06" height="4.43"/></g></svg>