<svg xmlns="http://www.w3.org/2000/svg" xmlns:xlink="http://www.w3.org/1999/xlink" viewBox="0 0 150 150"><defs><style>.cls-1{fill:url(#linear-gradient);}.cls-2{fill:url(#linear-gradient-2);}.cls-3{fill:url(#linear-gradient-3);}.cls-4{fill:url(#linear-gradient-4);}</style><linearGradient id="linear-gradient" x1="120.1" y1="29.9" x2="30.99" y2="119.01" gradientUnits="userSpaceOnUse"><stop offset="0" stop-color="#ff592c"/><stop offset="0.48" stop-color="#ff2ca0"/><stop offset="1" stop-color="#0e3a99"/></linearGradient><linearGradient id="linear-gradient-2" x1="120.1" y1="29.9" x2="30.99" y2="119.01" xlink:href="#linear-gradient"/><linearGradient id="linear-gradient-3" x1="120.1" y1="29.9" x2="30.99" y2="119.01" xlink:href="#linear-gradient"/><linearGradient id="linear-gradient-4" x1="120.01" y1="29.81" x2="30.9" y2="118.91" xlink:href="#linear-gradient"/></defs><title>3006068</title><g id="OBJECTS"><path class="cls-1" d="M94.37,125H55.63A30.66,30.66,0,0,1,25,94.37V55.63A30.66,30.66,0,0,1,55.63,25H94.37A30.66,30.66,0,0,1,125,55.63V94.37A30.66,30.66,0,0,1,94.37,125ZM55.63,28.71A27,27,0,0,0,28.71,55.63V94.37a27,27,0,0,0,26.92,26.92H94.37a27,27,0,0,0,26.92-26.92V55.63A27,27,0,0,0,94.37,28.71Z"/><path class="cls-2" d="M85.28,50.75H64.72a14,14,0,0,0-14,14V85.28a14,14,0,0,0,14,14H85.28a14,14,0,0,0,14-14V64.72A14,14,0,0,0,85.28,50.75Zm9,34.53a9,9,0,0,1-9,9H64.72a9,9,0,0,1-9-9V64.72a9,9,0,0,1,9-9H85.28a9,9,0,0,1,9,9Z"/><path class="cls-3" d="M75,63.74A11.26,11.26,0,1,0,86.26,75,11.27,11.27,0,0,0,75,63.74Zm0,17.34A6.08,6.08,0,1,1,81.08,75,6.08,6.08,0,0,1,75,81.08Z"/><path class="cls-4" d="M87.62,58.85A3.34,3.34,0,1,0,91,62.19,3.35,3.35,0,0,0,87.62,58.85Z"/></g></svg>