<svg xmlns="http://www.w3.org/2000/svg" xmlns:xlink="http://www.w3.org/1999/xlink" viewBox="0 0 150 150"><defs><style>.cls-1{fill:url(#linear-gradient);}.cls-2{fill:url(#linear-gradient-2);}</style><linearGradient id="linear-gradient" x1="121.33" y1="28.67" x2="18.41" y2="131.59" gradientUnits="userSpaceOnUse"><stop offset="0" stop-color="#ff5209"/><stop offset="1" stop-color="#ff8c09"/></linearGradient><linearGradient id="linear-gradient-2" x1="118.51" y1="25.86" x2="15.57" y2="128.8" xlink:href="#linear-gradient"/></defs><title>3006068</title><g id="OBJECTS"><path class="cls-1" d="M94.37,125H55.63A30.66,30.66,0,0,1,25,94.37V55.63A30.66,30.66,0,0,1,55.63,25H94.37A30.66,30.66,0,0,1,125,55.63V94.37A30.66,30.66,0,0,1,94.37,125ZM55.63,28.71A27,27,0,0,0,28.71,55.63V94.37a27,27,0,0,0,26.92,26.92H94.37a27,27,0,0,0,26.92-26.92V55.63A27,27,0,0,0,94.37,28.71Z"/><path class="cls-2" d="M71.91,82.68a10.66,10.66,0,0,0,9.93,3.5,14.1,14.1,0,0,0,9-5.94,21,21,0,0,0,3.48-10.33v-.19C94.85,62.48,91,55,84.21,52.06c-7.51-3.24-18-1.59-23.54,4.69a22.36,22.36,0,0,0-4.11,7,13,13,0,0,0,.12,9.78,10.32,10.32,0,0,0,2.57,3.73c.27.24,3.67,2.46,3.77,2.09.35-1.14.71-2.47,1.06-3.69a1.69,1.69,0,0,0-.28-1.52,9.9,9.9,0,0,1-1.69-8.53A13.52,13.52,0,0,1,68,58.05a12.76,12.76,0,0,1,13.29-.36c5.09,3,5.92,9.49,4.72,14.86a13.64,13.64,0,0,1-2.44,5.59,6.88,6.88,0,0,1-5.41,2.74,4.35,4.35,0,0,1-4-5.49Q75.11,72,76,68.55c.49-1.84,1-3.88-.32-5.53a4.18,4.18,0,0,0-3.77-1.49c-2.77.31-4.58,2.83-5,5.43a12.57,12.57,0,0,0,1,6.44L64.43,87.73a20.29,20.29,0,0,0-.53,6.45L64.3,99a.57.57,0,0,0,1.06.26l2.52-4a19.91,19.91,0,0,0,2.67-6.46Z"/></g></svg>