<svg xmlns="http://www.w3.org/2000/svg" xmlns:xlink="http://www.w3.org/1999/xlink" viewBox="0 0 150 150"><defs><style>.cls-1{fill:url(#linear-gradient);}.cls-2{fill:url(#linear-gradient-2);}</style><linearGradient id="linear-gradient" x1="133.42" y1="16.58" x2="8.65" y2="141.35" gradientUnits="userSpaceOnUse"><stop offset="0" stop-color="#4eeeff"/><stop offset="1" stop-color="#4e66ff"/></linearGradient><linearGradient id="linear-gradient-2" x1="137.91" y1="21.06" x2="13.14" y2="145.83" xlink:href="#linear-gradient"/></defs><title>3006068</title><g id="OBJECTS"><path class="cls-1" d="M94.37,125H55.63A30.66,30.66,0,0,1,25,94.37V55.63A30.66,30.66,0,0,1,55.63,25H94.37A30.66,30.66,0,0,1,125,55.63V94.37A30.66,30.66,0,0,1,94.37,125ZM55.63,28.71A27,27,0,0,0,28.71,55.63V94.37a27,27,0,0,0,26.92,26.92H94.37a27,27,0,0,0,26.92-26.92V55.63A27,27,0,0,0,94.37,28.71Z"/><path class="cls-2" d="M91.67,50.58,54.36,72.12A4,4,0,0,0,55,79.31l9.89,3.44L87.31,65.21,71.79,85.14V96.72a1.39,1.39,0,0,0,2.34,1L80,92.16l7.42,6.76A4,4,0,0,0,94,96.33l3.6-42A4,4,0,0,0,91.67,50.58Z"/></g></svg>