<svg xmlns="http://www.w3.org/2000/svg" xmlns:xlink="http://www.w3.org/1999/xlink" viewBox="0 0 150 150"><defs><style>.cls-1{fill:url(#linear-gradient);}.cls-2{fill:url(#linear-gradient-2);}</style><linearGradient id="linear-gradient" x1="122.12" y1="27.88" x2="35.06" y2="114.94" gradientUnits="userSpaceOnUse"><stop offset="0" stop-color="#66e8ff"/><stop offset="1" stop-color="#66adff"/></linearGradient><linearGradient id="linear-gradient-2" x1="124.32" y1="30.08" x2="37.26" y2="117.14" xlink:href="#linear-gradient"/></defs><title>3006068</title><g id="OBJECTS"><path class="cls-1" d="M94.37,125H55.63A30.66,30.66,0,0,1,25,94.37V55.63A30.66,30.66,0,0,1,55.63,25H94.37A30.66,30.66,0,0,1,125,55.63V94.37A30.66,30.66,0,0,1,94.37,125ZM55.63,28.71A27,27,0,0,0,28.71,55.63V94.37a27,27,0,0,0,26.92,26.92H94.37a27,27,0,0,0,26.92-26.92V55.63A27,27,0,0,0,94.37,28.71Z"/><path class="cls-2" d="M78.5,61.63V51.84H70.69s.87,9.61-8.8,10.66v9.27h6.47V87.14a11,11,0,0,0,11,11h8.73V88H80.76a2.68,2.68,0,0,1-2.67-2.68V71.65h10v-10Z"/><path class="cls-1" d="M94.37,125H55.63A30.66,30.66,0,0,1,25,94.37V55.63A30.66,30.66,0,0,1,55.63,25H94.37A30.66,30.66,0,0,1,125,55.63V94.37A30.66,30.66,0,0,1,94.37,125ZM55.63,28.71A27,27,0,0,0,28.71,55.63V94.37a27,27,0,0,0,26.92,26.92H94.37a27,27,0,0,0,26.92-26.92V55.63A27,27,0,0,0,94.37,28.71Z"/><path class="cls-2" d="M78.5,61.63V51.84H70.69s.87,9.61-8.8,10.66v9.27h6.47V87.14a11,11,0,0,0,11,11h8.73V88H80.76a2.68,2.68,0,0,1-2.67-2.68V71.65h10v-10Z"/></g></svg>