<svg xmlns="http://www.w3.org/2000/svg" xmlns:xlink="http://www.w3.org/1999/xlink" viewBox="0 0 150 150"><defs><style>.cls-1{fill:url(#linear-gradient);}.cls-2{fill:url(#linear-gradient-2);}.cls-3{fill:url(#linear-gradient-3);}</style><linearGradient id="linear-gradient" x1="123.61" y1="26.39" x2="35.1" y2="114.9" gradientUnits="userSpaceOnUse"><stop offset="0" stop-color="#74eb00"/><stop offset="1" stop-color="#107500"/></linearGradient><linearGradient id="linear-gradient-2" x1="123.61" y1="26.39" x2="35.1" y2="114.9" xlink:href="#linear-gradient"/><linearGradient id="linear-gradient-3" x1="123.61" y1="26.39" x2="35.1" y2="114.9" xlink:href="#linear-gradient"/></defs><title>3006068</title><g id="OBJECTS"><path class="cls-1" d="M94.37,125H55.63A30.66,30.66,0,0,1,25,94.37V55.63A30.66,30.66,0,0,1,55.63,25H94.37A30.66,30.66,0,0,1,125,55.63V94.37A30.66,30.66,0,0,1,94.37,125ZM55.63,28.71A27,27,0,0,0,28.71,55.63V94.37a27,27,0,0,0,26.92,26.92H94.37a27,27,0,0,0,26.92-26.92V55.63A27,27,0,0,0,94.37,28.71Z"/><path class="cls-2" d="M87.18,81.14,82.1,78.81a1.37,1.37,0,0,0-1.38.13l-2,1.44a2,2,0,0,1-2.07.14,63.88,63.88,0,0,1-7.16-7.18,2,2,0,0,1,.14-2.06l1.43-2a1.37,1.37,0,0,0,.14-1.39l-2.34-5.07a1.66,1.66,0,0,0-1.52-1H65.66A1.49,1.49,0,0,0,65,62c-3.14,1.34-2.94,5.23-2.94,5.23,0,5.77,4.77,11.1,7.06,13.32,2,2.11,7.57,7.4,13.64,7.4,0,0,3.89.2,5.24-2.94a1.66,1.66,0,0,0,.11-.62V82.67A1.69,1.69,0,0,0,87.18,81.14Z"/><path class="cls-3" d="M46,104l5-15.73a28.29,28.29,0,1,1,10.7,10.69ZM62.44,93.4l1,.62A23.17,23.17,0,1,0,56,86.58l.62,1-2.75,8.58Z"/></g></svg>