<svg xmlns="http://www.w3.org/2000/svg" xmlns:xlink="http://www.w3.org/1999/xlink" viewBox="0 0 150 150"><defs><style>.cls-1{fill:url(#linear-gradient);}.cls-2{fill:url(#linear-gradient-2);}</style><linearGradient id="linear-gradient" x1="114.43" y1="35.57" x2="38.59" y2="111.41" gradientUnits="userSpaceOnUse"><stop offset="0" stop-color="#ff1359"/><stop offset="1" stop-color="#940b34"/></linearGradient><linearGradient id="linear-gradient-2" x1="114.43" y1="35.57" x2="38.59" y2="111.41" xlink:href="#linear-gradient"/></defs><title>3006068</title><g id="OBJECTS"><path class="cls-1" d="M94.37,125H55.63A30.66,30.66,0,0,1,25,94.37V55.63A30.66,30.66,0,0,1,55.63,25H94.37A30.66,30.66,0,0,1,125,55.63V94.37A30.66,30.66,0,0,1,94.37,125ZM55.63,28.71A27,27,0,0,0,28.71,55.63V94.37a27,27,0,0,0,26.92,26.92H94.37a27,27,0,0,0,26.92-26.92V55.63A27,27,0,0,0,94.37,28.71Z"/><path class="cls-2" d="M91.67,54.36H58.33A10.86,10.86,0,0,0,47.47,65.22V84.78A10.86,10.86,0,0,0,58.33,95.64H91.67a10.86,10.86,0,0,0,10.86-10.86V65.22A10.86,10.86,0,0,0,91.67,54.36ZM68.22,84.05V66A1.85,1.85,0,0,1,71,64.36l15.13,9.06a1.84,1.84,0,0,1,0,3.16L71,85.64A1.85,1.85,0,0,1,68.22,84.05Z"/></g></svg>