<?xml version="1.0" encoding="iso-8859-1"?>
<!-- Generator: Adobe Illustrator 19.0.0, SVG Export Plug-In . SVG Version: 6.00 Build 0)  -->
<svg version="1.1" id="Layer_1" xmlns="http://www.w3.org/2000/svg" xmlns:xlink="http://www.w3.org/1999/xlink" x="0px" y="0px"
	 viewBox="0 0 504.124 504.124" style="enable-background:new 0 0 504.124 504.124;" xml:space="preserve">
<path style="fill:#D4B25A;" d="M252.062,409.6c25.994,0,47.262,21.268,47.262,47.262s-21.268,47.262-47.262,47.262
	S204.8,482.855,204.8,456.862S226.068,409.6,252.062,409.6z"/>
<path style="fill:#E8C15B;" d="M252.062,0c-17.329,0-31.508,14.178-31.508,31.508s14.178,31.508,31.508,31.508
	c17.33,0,31.508-14.178,31.508-31.508S269.391,0,252.062,0z M252.062,47.262c-8.665,0-15.754-7.089-15.754-15.754
	s7.089-15.754,15.754-15.754c8.665,0,15.754,7.089,15.754,15.754S260.726,47.262,252.062,47.262z"/>
<path style="fill:#EFC75E;" d="M425.354,346.585V211.102c0-94.917-77.588-171.717-173.292-171.717S78.77,116.185,78.77,211.102
	v135.483c-30.326,0-55.138,24.812-55.138,55.138s24.812,55.138,55.138,55.138h346.585c30.326,0,55.138-24.812,55.138-55.138
	S455.68,346.585,425.354,346.585z"/>
<path style="fill:#E1BB58;" d="M252.062,346.585v-307.2c-95.705,0-173.292,76.8-173.292,171.717v135.483L252.062,346.585
	L252.062,346.585z"/>
<path style="fill:#E8C15B;" d="M78.769,346.585c-30.326,0-55.138,24.812-55.138,55.138s24.812,55.138,55.138,55.138h346.585
	c30.326,0,55.138-24.812,55.138-55.138s-24.812-55.138-55.138-55.138H78.769z"/>
<g>
</g>
<g>
</g>
<g>
</g>
<g>
</g>
<g>
</g>
<g>
</g>
<g>
</g>
<g>
</g>
<g>
</g>
<g>
</g>
<g>
</g>
<g>
</g>
<g>
</g>
<g>
</g>
<g>
</g>
</svg>
