<?xml version="1.0" encoding="iso-8859-1"?>
<!-- Generator: Adobe Illustrator 19.0.0, SVG Export Plug-In . SVG Version: 6.00 Build 0)  -->
<svg version="1.1" id="Layer_1" xmlns="http://www.w3.org/2000/svg" xmlns:xlink="http://www.w3.org/1999/xlink" x="0px" y="0px"
	 viewBox="0 0 512.001 512.001" style="enable-background:new 0 0 512.001 512.001;" xml:space="preserve">
<path style="fill:#B8C8D9;" d="M428.83,5.118H83.171c-27.668,0-50.176,22.508-50.176,50.176v66.902
	c0,9.239,7.492,16.725,16.725,16.725h412.562c9.234,0,16.725-7.486,16.725-16.725V55.295C479.007,27.625,456.499,5.118,428.83,5.118
	z M150.073,72.02c-9.237,0-16.725-7.489-16.725-16.725s7.489-16.725,16.725-16.725c9.237,0,16.725,7.489,16.725,16.725
	S159.309,72.02,150.073,72.02z M361.928,72.02c-9.237,0-16.725-7.489-16.725-16.725s7.489-16.725,16.725-16.725
	c9.237,0,16.725,7.489,16.725,16.725S371.165,72.02,361.928,72.02z"/>
<path style="fill:#2860CC;" d="M461.824,506.882H50.177c-14.776,0-28.725-6.468-38.286-17.749
	c-9.549-11.27-13.632-26.101-11.205-40.681l26.733-159.001L2.299,165.48c-2.962-14.788,0.827-29.972,10.399-41.645
	s23.706-18.365,38.798-18.365h409.011c15.092,0,29.226,6.691,38.798,18.365c9.571,11.673,13.36,26.858,10.399,41.645
	l-25.121,123.971l26.733,159.001l0,0c2.429,14.58-1.655,29.411-11.205,40.681C490.548,500.414,476.6,506.882,461.824,506.882z"/>
<path style="fill:#167EE6;" d="M500.11,489.133c9.549-11.27,13.633-26.101,11.205-40.681l-26.733-159.001H27.419L0.686,448.453
	c-2.429,14.58,1.655,29.411,11.205,40.681c9.56,11.281,23.509,17.749,38.286,17.749h411.647
	C476.6,506.882,490.548,500.414,500.11,489.133z"/>
<path style="fill:#CFDBE6;" d="M368.329,173.646c-6.247-2.587-13.444-1.157-18.227,3.626l-50.176,50.176
	c-6.532,6.532-6.532,17.121,0,23.653c6.531,6.532,17.121,6.532,23.653,0l21.625-21.624v160.326c0,9.237,7.489,16.725,16.725,16.725
	c9.237,0,16.725-7.489,16.725-16.725V189.099C378.654,182.334,374.58,176.234,368.329,173.646z"/>
<path style="fill:#E6F3FF;" d="M345.203,289.451v100.353c0,9.237,7.489,16.725,16.725,16.725c9.237,0,16.725-7.489,16.725-16.725
	V289.451H345.203z"/>
<path style="fill:#CFDBE6;" d="M267.151,239.275c0-36.89-30.012-66.902-66.902-66.902s-66.902,30.012-66.902,66.902
	c0,9.237,7.489,16.725,16.725,16.725c9.237,0,16.725-7.489,16.725-16.725c0-18.445,15.006-33.451,33.451-33.451
	S233.7,220.83,233.7,239.275c0,18.445-15.006,33.451-33.451,33.451c-9.237,0-16.725,7.489-16.725,16.725
	c0,9.237,7.489,16.725,16.725,16.725c18.445,0,33.451,15.006,33.451,33.451c0,18.445-15.006,33.451-33.451,33.451
	s-33.451-15.006-33.451-33.451c0-9.237-7.489-16.725-16.725-16.725c-9.237,0-16.725,7.489-16.725,16.725
	c0,36.89,30.012,66.902,66.902,66.902s66.902-30.012,66.902-66.902c0-19.968-8.804-37.908-22.721-50.176
	C258.346,277.183,267.151,259.242,267.151,239.275z"/>
<path style="fill:#E6F3FF;" d="M200.249,306.177c18.445,0,33.451,15.006,33.451,33.451c0,18.445-15.006,33.451-33.451,33.451
	s-33.451-15.006-33.451-33.451c0-9.237-7.489-16.725-16.725-16.725c-9.237,0-16.725,7.489-16.725,16.725
	c0,36.89,30.012,66.902,66.902,66.902s66.902-30.012,66.902-66.902c0-19.968-8.804-37.908-22.721-50.176h-60.906
	C183.523,298.688,191.012,306.177,200.249,306.177z"/>
<g>
</g>
<g>
</g>
<g>
</g>
<g>
</g>
<g>
</g>
<g>
</g>
<g>
</g>
<g>
</g>
<g>
</g>
<g>
</g>
<g>
</g>
<g>
</g>
<g>
</g>
<g>
</g>
<g>
</g>
</svg>
