<svg height="512pt" viewBox="0 -7 512.00015 512" width="512pt" xmlns="http://www.w3.org/2000/svg"><path d="m169.363281 84.203125s-14.683593-72.132813-105.335937-84.203125c0 0-95.089844 145.199219-1.589844 238.699219" fill="#353959"/><path d="m62.441406 238.699219 54.929688-79.355469-9.894532-38.332031c0-75.542969-43.449218-121.011719-43.449218-121.011719s-95.089844 145.199219-1.585938 238.699219zm0 0" fill="#d83a6f"/><path d="m95.367188 165.671875c-3.332032 0-6.394532-2.203125-7.339844-5.566406l-18.613282-66.238281c-1.140624-4.054688 1.226563-8.265626 5.28125-9.40625 4.054688-1.140626 8.265626 1.226562 9.40625 5.28125l18.613282 66.234374c1.140625 4.054688-1.226563 8.265626-5.28125 9.40625-.691406.195313-1.382813.289063-2.066406.289063zm0 0" fill="#353a59"/><path d="m86.746094 192.226562c-1.953125 0-3.90625-.746093-5.394532-2.234374l-30.03125-30.035157c-2.980468-2.976562-2.980468-7.808593 0-10.785156 2.976563-2.980469 7.808594-2.980469 10.785157 0l30.035156 30.03125c2.976563 2.980469 2.976563 7.808594 0 10.789063-1.492187 1.488281-3.441406 2.234374-5.394531 2.234374zm0 0" fill="#353a59"/><path d="m342.625 84.203125s14.6875-72.132813 105.339844-84.203125c0 0 95.089844 145.199219 1.589844 238.699219" fill="#353959"/><path d="m449.550781 238.699219-54.929687-79.355469 9.894531-38.332031c0-75.542969 43.449219-121.011719 43.449219-121.011719s95.085937 145.199219 1.585937 238.699219zm0 0" fill="#f96eb3"/><path d="m416.625 165.671875c-.683594 0-1.378906-.09375-2.066406-.289063-4.054688-1.140624-6.421875-5.351562-5.28125-9.40625l18.613281-66.234374c1.144531-4.058594 5.355469-6.421876 9.410156-5.28125 4.054688 1.140624 6.417969 5.351562 5.277344 9.40625l-18.613281 66.238281c-.945313 3.367187-4.007813 5.566406-7.339844 5.566406zm0 0" fill="#353a59"/><path d="m425.246094 192.226562c-1.953125 0-3.902344-.746093-5.394532-2.234374-2.976562-2.980469-2.976562-7.808594 0-10.789063l30.035157-30.03125c2.976562-2.980469 7.808593-2.980469 10.785156 0 2.980469 2.976563 2.980469 7.808594 0 10.785156l-30.03125 30.035157c-1.488281 1.488281-3.441406 2.234374-5.394531 2.234374zm0 0" fill="#353a59"/><path d="m427.359375 397.851562-111.570313 81.058594c-17.824218 12.949219-38.8125 19.421875-59.785156 19.421875-20.988281 0-41.976562-6.472656-59.800781-19.421875l-2.777344-2.011718-98.882812-71.855469-9.914063-7.191407c-35.644531-25.90625-50.5625-71.824218-36.953125-113.730468l38.175781-117.46875 4.445313-13.695313c13.625-41.917969 52.679687-70.300781 96.742187-70.300781h137.910157c44.074219 0 83.132812 28.382812 96.753906 70.300781l19.707031 60.675781 22.902344 70.488282c13.625 41.902344-1.292969 87.824218-36.953125 113.730468zm0 0" fill="#555a80"/><path d="m254.699219 498.308594c-20.550781-.25-41.050781-6.722656-58.507813-19.402344l-2.777344-2.015625-98.867187-71.847656-9.921875-7.195313c-35.640625-25.914062-50.566406-71.828125-36.949219-113.726562l38.167969-117.476563 4.457031-13.6875c13.621094-41.917969 52.671875-70.304687 96.730469-70.304687h23.542969c-29.023438 0-54.742188 28.386718-63.710938 70.304687l-2.933593 13.6875-25.152344 117.476563c-8.949219 41.898437.867187 87.8125 24.355468 113.726562l6.527344 7.195313 65.121094 71.847656 1.824219 2.015625c11.371093 12.539062 24.707031 19.011719 38.09375 19.402344zm0 0" fill="#353959"/><path d="m324.863281 328.140625c6.113281-6.554687 13.925781-11.703125 23.058594-14.660156 9.132813-2.953125 18.476563-3.363281 27.273437-1.628907 13.058594-14.011718 18.339844-34.492187 12.023438-54.003906-9.273438-28.648437-40.015625-44.355468-68.664062-35.082031-28.644532 9.273437-44.351563 40.015625-35.078126 68.664063 6.316407 19.515624 22.597657 33.011718 41.386719 36.710937zm0 0" fill="#fff"/><path d="m187.136719 328.140625c-6.113281-6.554687-13.925781-11.703125-23.058594-14.660156-9.132813-2.953125-18.476563-3.363281-27.273437-1.628907-13.058594-14.011718-18.339844-34.492187-12.023438-54.003906 9.273438-28.648437 40.015625-44.355468 68.664062-35.082031 28.644532 9.273437 44.351563 40.015625 35.078126 68.664063-6.316407 19.515624-22.597657 33.011718-41.386719 36.710937zm0 0" fill="#fff"/><path d="m352.726562 274.804688c0 10.179687-8.253906 18.433593-18.433593 18.433593-10.179688 0-18.433594-8.253906-18.433594-18.433593 0-10.179688 8.253906-18.433594 18.433594-18.433594 10.179687 0 18.433593 8.253906 18.433593 18.433594zm0 0" fill="#2a2d49"/><path d="m196.140625 274.804688c0 10.179687-8.253906 18.433593-18.433594 18.433593-10.179687 0-18.433593-8.253906-18.433593-18.433593 0-10.179688 8.253906-18.433594 18.433593-18.433594 10.179688 0 18.433594 8.253906 18.433594 18.433594zm0 0" fill="#2a2d49"/><path d="m308.882812 409.617188c-22.707031 0-42.535156-12.574219-52.882812-31.125-10.351562 18.550781-30.175781 31.125-52.882812 31.125-4.214844 0-7.628907-3.414063-7.628907-7.628907 0-4.210937 3.414063-7.625 7.628907-7.625 24.953124 0 45.253906-20.300781 45.253906-45.257812 0-4.210938 3.417968-7.628907 7.628906-7.628907 4.214844 0 7.628906 3.417969 7.628906 7.628907 0 24.957031 20.300782 45.257812 45.253906 45.257812 4.214844 0 7.628907 3.414063 7.628907 7.625 0 4.214844-3.414063 7.628907-7.628907 7.628907zm0 0" fill="#353a59"/><g fill="#e7e8f0"><path d="m360.972656 360.804688c-3.25 0-6.257812-2.09375-7.277344-5.359376-1.253906-4.019531.988282-8.296874 5.007813-9.554687l143.394531-44.746094c4.027344-1.257812 8.296875.988281 9.554688 5.007813 1.253906 4.019531-.988282 8.300781-5.007813 9.554687l-143.394531 44.746094c-.757812.238281-1.523438.351563-2.277344.351563zm0 0"/><path d="m504.378906 401.480469c-.15625 0-.316406-.003907-.472656-.011719l-133.226562-8.136719c-4.203126-.257812-7.402344-3.875-7.148438-8.078125.257812-4.207031 3.875-7.417968 8.078125-7.148437l133.226563 8.136719c4.203124.253906 7.402343 3.871093 7.148437 8.078124-.25 4.046876-3.605469 7.160157-7.605469 7.160157zm0 0"/><path d="m487.082031 480.808594c-.984375 0-1.984375-.191406-2.949219-.59375l-126.105468-52.882813c-3.886719-1.628906-5.714844-6.101562-4.085938-9.984375 1.628906-3.886718 6.097656-5.714844 9.984375-4.085937l126.109375 52.882812c3.882813 1.632813 5.710938 6.101563 4.082032 9.984375-1.222657 2.921875-4.054688 4.679688-7.035157 4.679688zm0 0"/><path d="m151.027344 360.804688c-.753906 0-1.519532-.113282-2.277344-.347657l-143.394531-44.75c-4.019531-1.253906-6.261719-5.53125-5.007813-9.554687 1.253906-4.019532 5.535156-6.261719 9.554688-5.007813l143.394531 44.75c4.019531 1.253907 6.261719 5.53125 5.007813 9.550781-1.019532 3.265626-4.03125 5.359376-7.277344 5.359376zm0 0"/><path d="m7.621094 401.480469c-4 0-7.359375-3.113281-7.605469-7.160157-.257813-4.207031 2.945313-7.824218 7.148437-8.078124l133.226563-8.136719c4.199219-.253907 7.820313 2.941406 8.074219 7.148437.257812 4.203125-2.941406 7.820313-7.148438 8.078125l-133.222656 8.136719c-.15625.007812-.316406.011719-.472656.011719zm0 0"/><path d="m24.917969 480.808594c-2.980469 0-5.8125-1.757813-7.035157-4.679688-1.628906-3.882812.199219-8.355468 4.082032-9.984375l126.109375-52.882812c3.886719-1.628907 8.355469.199219 9.984375 4.082031 1.628906 3.886719-.199219 8.355469-4.085938 9.984375l-126.105468 52.886719c-.964844.402344-1.964844.59375-2.949219.59375zm0 0"/></g><path d="m266.445312 308.335938h-20.890624c-12.378907 0-22.417969 10.035156-22.417969 22.417968 0 12.382813 10.039062 22.417969 22.417969 22.417969h20.890624c12.382813 0 22.417969-10.035156 22.417969-22.417969 0-12.382812-10.035156-22.417968-22.417969-22.417968zm0 0" fill="#2a2d49"/></svg>