<?xml version="1.0" encoding="iso-8859-1"?>
<!-- Generator: Adobe Illustrator 19.0.0, SVG Export Plug-In . SVG Version: 6.00 Build 0)  -->
<svg version="1.1" id="Layer_1" xmlns="http://www.w3.org/2000/svg" xmlns:xlink="http://www.w3.org/1999/xlink" x="0px" y="0px"
	 viewBox="0 0 512 512" style="enable-background:new 0 0 512 512;" xml:space="preserve">
<path style="fill:#167EE6;" d="M511.999,334.894c0.023,2.893-0.698,5.786-2.173,8.398c-3.13,5.573-68.368,121.436-71.509,127.009
	c-1.497,2.657-3.647,4.807-6.192,6.293s-5.471,2.308-8.522,2.308H88.396c-3.051,0-5.978-0.822-8.522-2.308
	c-2.544-1.486-4.694-3.636-6.192-6.293c-3.141-5.573-68.379-121.436-71.509-127.009c-1.475-2.612-2.195-5.505-2.173-8.398H511.999z"
	/>
<path style="fill:#3D55CC;" d="M511.999,334.894H256v144.008h167.604c3.051,0,5.978-0.822,8.522-2.308s4.694-3.636,6.192-6.293
	c3.141-5.573,68.379-121.436,71.509-127.009C511.301,340.68,512.022,337.787,511.999,334.894z"/>
<path style="fill:#12B347;" d="M173.796,35.35c-2.522,1.452-4.661,3.557-6.169,6.158C160.355,54.037,9.525,314.033,2.275,326.529
	c-1.497,2.589-2.263,5.471-2.274,8.364c-0.023,2.893,0.698,5.786,2.173,8.398c3.13,5.573,68.368,121.436,71.509,127.009
	c1.497,2.657,3.647,4.807,6.192,6.293L256.42,175.041L174.466,34.993C174.242,35.109,174.016,35.224,173.796,35.35z"/>
<path style="fill:#FFD500;" d="M511.999,334.894c-0.011-2.893-0.777-5.775-2.274-8.364
	c-7.272-12.519-158.091-272.514-165.353-285.022c-1.509-2.601-3.647-4.706-6.169-6.158s-5.426-2.252-8.432-2.252H182.228
	c-3.006,0-5.91,0.799-8.432,2.252l175.371,299.544L511.999,334.894L511.999,334.894z"/>
<path style="fill:#FFAA00;" d="M511.999,334.894H349.168L256,175.755V33.098h73.771c3.006,0,5.91,0.799,8.432,2.252
	c2.522,1.452,4.661,3.557,6.169,6.158c7.261,12.507,158.08,272.503,165.353,285.022C511.223,329.119,511.988,332,511.999,334.894z"
	/>
<g>
</g>
<g>
</g>
<g>
</g>
<g>
</g>
<g>
</g>
<g>
</g>
<g>
</g>
<g>
</g>
<g>
</g>
<g>
</g>
<g>
</g>
<g>
</g>
<g>
</g>
<g>
</g>
<g>
</g>
</svg>
