<?xml version="1.0" encoding="iso-8859-1"?>
<!-- Generator: Adobe Illustrator 19.0.0, SVG Export Plug-In . SVG Version: 6.00 Build 0)  -->
<svg version="1.1" id="Layer_1" xmlns="http://www.w3.org/2000/svg" xmlns:xlink="http://www.w3.org/1999/xlink" x="0px" y="0px"
	 viewBox="0 0 361.875 361.875" style="enable-background:new 0 0 361.875 361.875;" xml:space="preserve">
<g>
	<path style="fill:#A7A9AC;" d="M336.875,307.427H25c-11.046,0-20-8.954-20-20v-175.96h351.875v175.96
		C356.875,298.473,347.921,307.427,336.875,307.427z"/>
	<path style="fill:#808285;" d="M336.875,54.447H25c-11.046,0-20,8.954-20,20v37.02h351.875v-37.02
		C356.875,63.403,347.921,54.447,336.875,54.447z"/>
	<g>
		<path style="fill:#393654;" d="M336.875,49.447H25c-13.785,0-25,11.215-25,25c0,10.936,0,204.986,0,212.98
			c0,13.785,11.215,25,25,25h311.875c13.785,0,25-11.215,25-25c0-7.763,0-201.479,0-212.98
			C361.875,60.662,350.66,49.447,336.875,49.447z M10,74.447c0-8.271,6.729-15,15-15h311.875c8.272,0,15,6.729,15,15v32.02H10
			V74.447z M351.875,287.428c0,8.271-6.728,15-15,15H25c-8.271,0-15-6.729-15-15v-170.96h341.875V287.428z"/>
		<path style="fill:#393654;" d="M38.85,177.49h21.854c5.29,0,9.579-4.289,9.579-9.579v-21.854c0-5.29-4.289-9.579-9.579-9.579
			H38.85c-5.29,0-9.579,4.289-9.579,9.579v21.854C29.271,173.201,33.559,177.49,38.85,177.49z"/>
		<path style="fill:#393654;" d="M91.314,177.49h21.854c5.29,0,9.579-4.289,9.579-9.579v-21.854c0-5.29-4.289-9.579-9.579-9.579
			H91.314c-5.29,0-9.579,4.289-9.579,9.579v21.854C81.735,173.201,86.024,177.49,91.314,177.49z"/>
		<path style="fill:#393654;" d="M143.779,177.49h21.854c5.29,0,9.579-4.289,9.579-9.579v-21.854c0-5.29-4.289-9.579-9.579-9.579
			h-21.854c-5.29,0-9.579,4.289-9.579,9.579v21.854C134.2,173.201,138.488,177.49,143.779,177.49z"/>
		<path style="fill:#393654;" d="M196.243,177.49h21.854c5.29,0,9.579-4.289,9.579-9.579v-21.854c0-5.29-4.289-9.579-9.579-9.579
			h-21.854c-5.29,0-9.579,4.289-9.579,9.579v21.854C186.664,173.201,190.953,177.49,196.243,177.49z"/>
		<path style="fill:#393654;" d="M248.707,177.49h21.854c5.29,0,9.579-4.289,9.579-9.579v-21.854c0-5.29-4.289-9.579-9.579-9.579
			h-21.854c-5.29,0-9.579,4.289-9.579,9.579v21.854C239.128,173.201,243.417,177.49,248.707,177.49z"/>
		<path style="fill:#393654;" d="M301.172,177.49h21.854c5.29,0,9.579-4.289,9.579-9.579v-21.854c0-5.29-4.288-9.579-9.579-9.579
			h-21.854c-5.29,0-9.579,4.289-9.579,9.579v21.854C291.593,173.201,295.882,177.49,301.172,177.49z"/>
		<path style="fill:#393654;" d="M98.476,220.374V198.52c0-5.29-4.289-9.579-9.579-9.579H67.043c-5.29,0-9.579,4.289-9.579,9.579
			v21.854c0,5.29,4.288,9.579,9.579,9.579h21.854C94.187,229.954,98.476,225.665,98.476,220.374z"/>
		<path style="fill:#393654;" d="M141.361,229.954c5.29,0,9.579-4.288,9.579-9.579v-21.854c0-5.29-4.289-9.579-9.579-9.579h-21.854
			c-5.29,0-9.579,4.289-9.579,9.579v21.854c0,5.29,4.289,9.579,9.579,9.579H141.361z"/>
		<path style="fill:#393654;" d="M193.826,229.954c5.29,0,9.579-4.288,9.579-9.579v-21.854c0-5.29-4.288-9.579-9.579-9.579h-21.854
			c-5.29,0-9.579,4.289-9.579,9.579v21.854c0,5.29,4.289,9.579,9.579,9.579H193.826z"/>
		<path style="fill:#393654;" d="M246.29,229.954c5.29,0,9.579-4.288,9.579-9.579v-21.854c0-5.29-4.289-9.579-9.579-9.579h-21.854
			c-5.29,0-9.579,4.289-9.579,9.579v21.854c0,5.29,4.288,9.579,9.579,9.579H246.29z"/>
		<path style="fill:#393654;" d="M298.754,229.954c5.29,0,9.579-4.288,9.579-9.579v-21.854c0-5.29-4.289-9.579-9.579-9.579H276.9
			c-5.29,0-9.579,4.289-9.579,9.579v21.854c0,5.29,4.289,9.579,9.579,9.579H298.754z"/>
		<path style="fill:#393654;" d="M38.85,282.418h21.854c5.29,0,9.579-4.289,9.579-9.579v-21.853c0-5.29-4.289-9.579-9.579-9.579
			H38.85c-5.29,0-9.579,4.289-9.579,9.579v21.853C29.271,278.129,33.559,282.418,38.85,282.418z"/>
		<path style="fill:#393654;" d="M323.025,241.407h-21.854c-5.29,0-9.579,4.289-9.579,9.579v21.853c0,5.29,4.289,9.579,9.579,9.579
			h21.854c5.29,0,9.579-4.289,9.579-9.579v-21.853C332.604,245.696,328.316,241.407,323.025,241.407z"/>
		<path style="fill:#393654;" d="M270.561,241.407H91.314c-5.29,0-9.579,4.289-9.579,9.579v21.853c0,5.29,4.289,9.579,9.579,9.579
			h179.247c5.29,0,9.579-4.289,9.579-9.579v-21.853C280.14,245.696,275.851,241.407,270.561,241.407z"/>
	</g>
</g>
<g>
</g>
<g>
</g>
<g>
</g>
<g>
</g>
<g>
</g>
<g>
</g>
<g>
</g>
<g>
</g>
<g>
</g>
<g>
</g>
<g>
</g>
<g>
</g>
<g>
</g>
<g>
</g>
<g>
</g>
</svg>
