<?xml version="1.0" encoding="iso-8859-1"?>
<!-- Generator: Adobe Illustrator 19.0.0, SVG Export Plug-In . SVG Version: 6.00 Build 0)  -->
<svg xmlns="http://www.w3.org/2000/svg" xmlns:xlink="http://www.w3.org/1999/xlink" version="1.1" id="Layer_1" x="0px" y="0px" viewBox="0 0 512 512" style="enable-background:new 0 0 512 512;" xml:space="preserve" width="512" height="512">
<g>
	<g>
		<path style="fill:#0A71B8;" d="M15.001,479.977c-3.017,0-6.007-0.909-8.553-2.677C2.409,474.497,0,469.893,0,464.977V88.901    c0-6.26,3.888-11.862,9.752-14.052l112.121-41.877c2.425-0.906,5.043-1.168,7.597-0.763l260.116,41.234l101.89-40.365    c4.618-1.831,9.845-1.253,13.954,1.538c4.11,2.792,6.57,7.438,6.57,12.407v376.075c0,6.151-3.756,11.68-9.476,13.945    l-105.707,41.878c-2.499,0.99-5.216,1.29-7.873,0.87l-260.272-41.261L20.248,479.028C18.547,479.664,16.77,479.977,15.001,479.977    z"/>
	</g>
	<path style="fill:#0A4A75;" d="M505.43,34.617c-4.111-2.792-9.336-3.369-13.955-1.538L389.586,73.443L256,52.267v406.45   l132.944,21.075c2.655,0.421,5.374,0.121,7.874-0.87l105.707-41.877c5.719-2.266,9.475-7.793,9.475-13.945V47.024   C512,42.055,509.54,37.409,505.43,34.617z"/>
	<g>
		<path style="fill:#DBDBDB;" d="M391.293,133.075c-8.284,0-15-6.716-15-15V97.199c0-8.284,6.716-15,15-15s15,6.716,15,15v20.875    C406.293,126.359,399.577,133.075,391.293,133.075z"/>
	</g>
	<g>
		<path style="fill:#DBDBDB;" d="M391.293,200.796c-8.284,0-15-6.716-15-15V164.92c0-8.284,6.716-15,15-15s15,6.716,15,15v20.876    C406.293,194.08,399.577,200.796,391.293,200.796z"/>
	</g>
	<g>
		<path style="fill:#DBDBDB;" d="M391.293,268.517c-8.284,0-15-6.716-15-15v-20.875c0-8.284,6.716-15,15-15s15,6.716,15,15v20.875    C406.293,261.801,399.577,268.517,391.293,268.517z"/>
	</g>
	<g>
		<path style="fill:#DBDBDB;" d="M391.293,336.237c-8.284,0-15-6.716-15-15v-20.876c0-8.284,6.716-15,15-15s15,6.716,15,15v20.876    C406.293,329.522,399.577,336.237,391.293,336.237z"/>
	</g>
	<g>
		<path style="fill:#DBDBDB;" d="M391.293,471.679c-8.284,0-15-6.716-15-15v-20.875c0-8.284,6.716-15,15-15s15,6.716,15,15v20.875    C406.293,464.963,399.577,471.679,391.293,471.679z"/>
	</g>
	<g>
		<path style="fill:#DBDBDB;" d="M391.293,403.958c-8.284,0-15-6.716-15-15v-20.875c0-8.284,6.716-15,15-15s15,6.716,15,15v20.875    C406.293,397.242,399.577,403.958,391.293,403.958z"/>
	</g>
	<g>
		<path style="fill:#FAFAFA;" d="M127.121,92.899c-8.284,0-15-6.716-15-15V57.024c0-8.284,6.716-15,15-15s15,6.716,15,15v20.875    C142.121,86.183,135.405,92.899,127.121,92.899z"/>
	</g>
	<g>
		<path style="fill:#FAFAFA;" d="M127.121,160.62c-8.284,0-15-6.716-15-15v-20.875c0-8.284,6.716-15,15-15s15,6.716,15,15v20.875    C142.121,153.904,135.405,160.62,127.121,160.62z"/>
	</g>
	<g>
		<path style="fill:#FAFAFA;" d="M127.121,228.341c-8.284,0-15-6.716-15-15v-20.875c0-8.284,6.716-15,15-15s15,6.716,15,15v20.875    C142.121,221.625,135.405,228.341,127.121,228.341z"/>
	</g>
	<g>
		<path style="fill:#FAFAFA;" d="M127.121,296.062c-8.284,0-15-6.716-15-15v-20.875c0-8.284,6.716-15,15-15s15,6.716,15,15v20.875    C142.121,289.346,135.405,296.062,127.121,296.062z"/>
	</g>
	<g>
		<path style="fill:#FAFAFA;" d="M127.121,431.503c-8.284,0-15-6.716-15-15v-20.875c0-8.284,6.716-15,15-15s15,6.716,15,15v20.875    C142.121,424.787,135.405,431.503,127.121,431.503z"/>
	</g>
	<g>
		<path style="fill:#FAFAFA;" d="M127.121,363.782c-8.284,0-15-6.716-15-15v-20.875c0-8.284,6.716-15,15-15s15,6.716,15,15v20.875    C142.121,357.067,135.405,363.782,127.121,363.782z"/>
	</g>
	<g>
		<path style="fill:#F03B0E;" d="M256,362.123c-5.052,0-9.764-2.542-12.537-6.765l-67.765-103.154    c-0.311-0.473-0.595-0.964-0.85-1.469c-14.297-28.283-12.919-61.285,3.685-88.281c16.658-27.088,45.618-43.259,77.467-43.259    s60.809,16.171,77.467,43.259c16.604,26.997,17.981,59.999,3.685,88.281c-0.255,0.505-0.539,0.996-0.85,1.469l-67.765,103.154    C265.764,359.581,261.052,362.123,256,362.123z"/>
	</g>
	<path style="fill:#BD220D;" d="M333.467,162.455c-16.658-27.088-45.618-43.259-77.467-43.259v242.928   c5.052,0,9.764-2.542,12.537-6.765l67.765-103.154c0.311-0.473,0.595-0.964,0.85-1.469   C351.448,222.453,350.07,189.451,333.467,162.455z"/>
	<g>
		<path style="fill:#FFDD33;" d="M256,253.748c-24.639,0-44.684-20.011-44.684-44.607s20.045-44.608,44.684-44.608    s44.684,20.011,44.684,44.608S280.639,253.748,256,253.748z"/>
	</g>
	<path style="fill:#FF9D09;" d="M256,164.533v89.215c24.639,0,44.684-20.011,44.684-44.607S280.639,164.533,256,164.533z"/>
</g>















</svg>
