<?xml version="1.0" encoding="iso-8859-1"?>
<!-- Generator: Adobe Illustrator 19.0.0, SVG Export Plug-In . SVG Version: 6.00 Build 0)  -->
<svg version="1.1" id="Layer_1" xmlns="http://www.w3.org/2000/svg" xmlns:xlink="http://www.w3.org/1999/xlink" x="0px" y="0px"
	 viewBox="0 0 512 512" style="enable-background:new 0 0 512 512;" xml:space="preserve">
<path style="fill:#FF3F62;" d="M473.212,0H279.273H162.909C107.301,0,62.061,45.241,62.061,100.848v23.273h23.273
	c12.853,0,23.273,10.42,23.273,23.273c0,12.853-10.42,23.273-23.273,23.273H62.061v62.061h23.273
	c12.853,0,23.273,10.42,23.273,23.273c0,12.853-10.42,23.273-23.273,23.273H62.061v62.061h23.273
	c12.853,0,23.273,10.42,23.273,23.273s-10.42,23.273-23.273,23.273H62.061v23.273C62.061,466.759,107.301,512,162.909,512h116.364
	h193.939c12.853,0,23.273-10.42,23.273-23.273V23.273C496.485,10.42,486.065,0,473.212,0z"/>
<g>
	<path style="fill:#830018;" d="M38.788,170.667h23.273h23.273c12.853,0,23.273-10.42,23.273-23.273
		c0-12.853-10.42-23.273-23.273-23.273H62.061H38.788c-12.853,0-23.273,10.42-23.273,23.273
		C15.515,160.247,25.935,170.667,38.788,170.667z"/>
	<path style="fill:#830018;" d="M85.333,232.727H62.061H38.788c-12.853,0-23.273,10.42-23.273,23.273
		c0,12.853,10.42,23.273,23.273,23.273h23.273h23.273c12.853,0,23.273-10.42,23.273-23.273
		C108.606,243.147,98.186,232.727,85.333,232.727z"/>
	<path style="fill:#830018;" d="M85.333,341.333H62.061H38.788c-12.853,0-23.273,10.42-23.273,23.273s10.42,23.273,23.273,23.273
		h23.273h23.273c12.853,0,23.273-10.42,23.273-23.273S98.186,341.333,85.333,341.333z"/>
</g>
<path style="fill:#FFA733;" d="M279.273,141.188c-63.308,0-114.812,51.503-114.812,114.809c0,63.31,51.504,114.815,114.812,114.815
	c7.713,0,13.964-6.251,13.964-13.964c0-7.713-6.251-13.964-13.964-13.964c-47.909,0-86.885-38.977-86.885-86.888
	c0-47.906,38.976-86.882,86.885-86.882s86.885,38.976,86.885,86.882v25.217c0,6.201-5.047,11.248-11.252,11.248
	c-6.203,0-11.248-5.047-11.248-11.248v-25.217c0-35.503-28.883-64.386-64.385-64.386c-35.503,0-64.388,28.883-64.388,64.386
	c0,35.506,28.885,64.393,64.388,64.393c16.721,0,31.972-6.412,43.43-16.904c7.081,10.204,18.871,16.904,32.203,16.904
	c21.603,0,39.179-17.574,39.179-39.176v-25.217C394.085,192.69,342.581,141.188,279.273,141.188z M279.273,292.462
	c-20.105,0-36.461-16.359-36.461-36.465c0-20.103,16.356-36.459,36.461-36.459c20.103,0,36.458,16.356,36.458,36.459
	C315.73,276.105,299.376,292.462,279.273,292.462z"/>
<g>
	<path style="fill:#D8143A;" d="M214.885,255.997c0-35.503,28.885-64.386,64.388-64.386v-22.495
		c-47.909,0-86.885,38.976-86.885,86.882c0,47.911,38.976,86.888,86.885,86.888v-22.495
		C243.769,320.389,214.885,291.503,214.885,255.997z"/>
	<path style="fill:#D8143A;" d="M164.461,255.997c0-63.306,51.504-114.809,114.812-114.809V0H162.909
		C107.301,0,62.061,45.241,62.061,100.848v23.273h23.273c12.853,0,23.273,10.42,23.273,23.273c0,12.853-10.42,23.273-23.273,23.273
		H62.061v62.061h23.273c12.853,0,23.273,10.42,23.273,23.273c0,12.853-10.42,23.273-23.273,23.273H62.061v62.061h23.273
		c12.853,0,23.273,10.42,23.273,23.273s-10.42,23.273-23.273,23.273H62.061v23.273C62.061,466.759,107.301,512,162.909,512h116.364
		V370.812C215.965,370.812,164.461,319.306,164.461,255.997z"/>
	<path style="fill:#D8143A;" d="M242.812,255.997c0,20.106,16.355,36.465,36.459,36.465v-72.924
		C259.167,219.538,242.812,235.895,242.812,255.997z"/>
</g>
<g>
</g>
<g>
</g>
<g>
</g>
<g>
</g>
<g>
</g>
<g>
</g>
<g>
</g>
<g>
</g>
<g>
</g>
<g>
</g>
<g>
</g>
<g>
</g>
<g>
</g>
<g>
</g>
<g>
</g>
</svg>
