<?xml version="1.0" encoding="iso-8859-1"?>
<!-- Generator: Adobe Illustrator 19.0.0, SVG Export Plug-In . SVG Version: 6.00 Build 0)  -->
<svg version="1.1" id="Layer_1" xmlns="http://www.w3.org/2000/svg" xmlns:xlink="http://www.w3.org/1999/xlink" x="0px" y="0px"
	 viewBox="0 0 512.001 512.001" style="enable-background:new 0 0 512.001 512.001;" xml:space="preserve">
<path style="fill:#167EE6;" d="M506.408,285.162L394.42,385.409c-1.671,1.493-3.598,2.618-5.681,3.33
	c-1.738,0.613-3.575,0.924-5.458,0.924H256.001v-97.062c2.651-2.651,10.47-10.481,18.301-18.301
	c7.819-7.83,15.65-15.65,18.301-18.301h202.656C510.596,256.001,517.825,274.926,506.408,285.162z"/>
<path style="fill:#3D55CC;" d="M388.739,388.739c-1.738,0.613-3.575,0.924-5.458,0.924H256v-97.062
	c2.651-2.651,10.47-10.481,18.301-18.301L388.739,388.739z"/>
<path style="fill:#12B347;" d="M256,292.601v202.656c0,15.338-18.924,22.567-29.161,11.15L126.592,394.419
	c-1.493-1.671-2.618-3.598-3.33-5.681c-0.613-1.738-0.925-3.575-0.925-5.458V256h97.062c2.651,2.651,10.481,10.47,18.301,18.301
	C245.53,282.121,253.349,289.95,256,292.601z"/>
<path style="fill:#0F993E;" d="M237.699,274.302L123.261,388.74c-0.613-1.738-0.925-3.576-0.925-5.458V256.001h97.062
	C222.05,258.652,229.88,266.471,237.699,274.302z"/>
<path style="fill:#FFD500;" d="M256,122.338V219.4c-2.651,2.651-10.47,10.481-18.301,18.301c-7.819,7.83-15.65,15.65-18.301,18.301
	H16.743c-15.338,0-22.567-18.924-11.15-29.161l111.987-100.247c1.671-1.493,3.598-2.618,5.681-3.33
	c1.738-0.613,3.575-0.925,5.458-0.925C128.719,122.338,256,122.338,256,122.338z"/>
<path style="fill:#FFAA00;" d="M256,122.338V219.4c-2.651,2.651-10.47,10.481-18.301,18.301L123.261,123.262
	c1.738-0.613,3.575-0.925,5.458-0.925C128.719,122.338,256,122.338,256,122.338z"/>
<path style="fill:#DD4B39;" d="M388.739,123.262c-0.713-2.083-1.838-4.01-3.33-5.681L285.161,5.594
	C274.924-5.823,256,1.406,256,16.744V219.4c2.651,2.651,10.47,10.481,18.301,18.301c0.644,0.645,1.286,1.288,1.927,1.929
	l113.257-113.257C389.336,125.31,389.094,124.267,388.739,123.262z"/>
<path style="fill:#7D47B3;" d="M389.663,128.719V256h-97.062c-2.651-2.651-10.481-10.47-18.301-18.301l114.438-114.438
	C389.351,125,389.663,126.837,389.663,128.719z"/>
<g>
</g>
<g>
</g>
<g>
</g>
<g>
</g>
<g>
</g>
<g>
</g>
<g>
</g>
<g>
</g>
<g>
</g>
<g>
</g>
<g>
</g>
<g>
</g>
<g>
</g>
<g>
</g>
<g>
</g>
</svg>
