<?xml version="1.0" encoding="iso-8859-1"?>
<!-- Generator: Adobe Illustrator 19.0.0, SVG Export Plug-In . SVG Version: 6.00 Build 0)  -->
<svg version="1.1" id="Layer_1" xmlns="http://www.w3.org/2000/svg" xmlns:xlink="http://www.w3.org/1999/xlink" x="0px" y="0px"
	 viewBox="0 0 511.999 511.999" style="enable-background:new 0 0 511.999 511.999;" xml:space="preserve">
<path style="fill:#B8C9D9;" d="M461.909,133.563H320.778c-4.986,0-9.706,2.226-12.878,6.077c-3.172,3.84-4.452,8.904-3.506,13.79
	l37.108,191.607H190.331c-5.009,0-9.739,2.237-12.922,6.111c-3.172,3.862-4.43,8.96-3.45,13.857l26.713,133.563
	c1.625,8.114,8.515,13.111,15.772,13.423h245.466c27.614,0,50.086-22.472,50.086-50.086V183.649
	C511.995,156.035,489.523,133.563,461.909,133.563z"/>
<path style="fill:#E6F3FF;" d="M461.909,283.821h-50.086v-16.695c0-9.22-7.475-16.695-16.695-16.695
	c-9.22,0-16.695,7.475-16.695,16.695v16.695h-50.086c-9.22,0-16.695,7.475-16.695,16.695s7.475,16.695,16.695,16.695h17.982
	c3.195,19.862,12.261,34.916,25.553,50.151c-7.137,6.956-14.031,13.602-21.95,21.521c-6.52,6.519-6.52,17.09,0,23.611
	c6.519,6.52,17.091,6.52,23.611,0c7.794-7.793,14.674-14.425,21.586-21.163c6.902,6.729,13.789,13.368,21.586,21.163
	c6.519,6.52,17.09,6.521,23.611,0c6.52-6.52,6.52-17.091,0-23.611c-7.914-7.914-14.802-14.555-21.95-21.521
	c13.293-15.234,22.357-30.288,25.553-50.151h17.982c9.22,0,16.695-7.475,16.695-16.695S471.129,283.821,461.909,283.821z
	 M395.128,343.229c-7.323-8.736-12.152-16.753-14.652-26.017h29.303C407.279,326.476,402.449,334.494,395.128,343.229z"/>
<path style="fill:#2860CC;" d="M377.286,355.656c-2.504-6.4-8.682-10.618-15.549-10.618H190.331c-5.009,0-9.739,2.237-12.922,6.111
	c-3.172,3.862-4.43,8.96-3.45,13.857l26.713,133.563c1.625,8.114,8.515,13.111,15.772,13.423c0.479,0.011,0.957,0.011,1.436,0
	c3.706-0.167,7.413-1.581,10.496-4.419l144.693-133.563C378.121,369.346,379.79,362.056,377.286,355.656z"/>
<path style="fill:#167EE6;" d="M361.737,378.428H50.09c-27.619,0-50.086-22.467-50.086-50.086V50.086C0.004,22.468,22.472,0,50.09,0
	h244.865c8,0,14.869,5.674,16.391,13.521l66.781,345.037c0.946,4.892-0.337,9.956-3.51,13.794
	C371.443,376.2,366.726,378.428,361.737,378.428z"/>
<path style="fill:#E6F3FF;" d="M166.958,255.996c-36.814,0-66.781-29.967-66.781-66.781s29.967-66.781,66.781-66.781
	c9.032,0,17.804,1.793,26.021,5.282c8.478,3.62,12.424,13.434,8.804,21.913c-3.62,8.446-13.402,12.424-21.913,8.804
	c-4.044-1.729-8.413-2.609-12.913-2.609c-18.424,0-33.391,14.967-33.391,33.391s14.967,33.391,33.391,33.391
	c12.326,0,23.119-6.717,28.923-16.695h-12.228c-9.228,0-16.695-7.467-16.695-16.695c0-9.228,7.467-16.695,16.695-16.695h33.391
	c9.228,0,16.695,7.467,16.695,16.695C233.739,226.028,203.772,255.996,166.958,255.996z"/>
<g>
</g>
<g>
</g>
<g>
</g>
<g>
</g>
<g>
</g>
<g>
</g>
<g>
</g>
<g>
</g>
<g>
</g>
<g>
</g>
<g>
</g>
<g>
</g>
<g>
</g>
<g>
</g>
<g>
</g>
</svg>
