<?xml version="1.0" encoding="iso-8859-1"?>
<!-- Generator: Adobe Illustrator 19.0.0, SVG Export Plug-In . SVG Version: 6.00 Build 0)  -->
<svg xmlns="http://www.w3.org/2000/svg" xmlns:xlink="http://www.w3.org/1999/xlink" version="1.1" id="Layer_1" x="0px" y="0px" viewBox="0 0 512 512" style="enable-background:new 0 0 512 512;" xml:space="preserve" width="512" height="512">
<g>
	<g>
		<path style="fill:#0A71B8;" d="M407,512H105C47.103,512,0,464.897,0,407V105C0,47.103,47.103,0,105,0h302    c57.897,0,105,47.103,105,105v302C512,464.897,464.897,512,407,512z"/>
	</g>
	<path style="fill:#0A4A75;" d="M407,0H256v512h151c57.897,0,105-47.103,105-105V105C512,47.103,464.897,0,407,0z"/>
	<path style="fill:#FFDD33;" d="M421.238,219.846h-26.069c-2.177-11.834-6.851-22.799-13.47-32.327l17.839-17.839   c5.858-5.858,5.858-15.355,0-21.213c-5.857-5.857-15.355-5.858-21.213,0l-17.863,17.864c-9.529-6.583-20.489-11.224-32.311-13.375   V127.51c0-8.284-6.716-15-15-15s-15,6.716-15,15v25.462c-11.787,2.158-22.714,6.792-32.219,13.358l-17.864-17.864   c-5.857-5.857-15.355-5.858-21.213,0c-5.858,5.858-5.858,15.355,0,21.213l17.839,17.838c-6.618,9.528-11.293,20.493-13.47,32.328   h-25.409c-8.284,0-15,6.716-15,15s6.716,15,15,15h25.37c2.146,11.846,6.791,22.828,13.387,32.375l-17.717,17.716   c-5.858,5.857-5.858,15.354,0,21.213c2.929,2.93,6.768,4.394,10.606,4.394c3.838,0,7.678-1.465,10.606-4.394l17.692-17.691   c9.545,6.63,20.532,11.309,32.391,13.481v25.243c0,8.284,6.716,15,15,15s15-6.716,15-15v-25.226   c11.894-2.164,22.913-6.85,32.482-13.498l17.691,17.691c2.929,2.929,6.768,4.394,10.606,4.394s7.678-1.465,10.606-4.394   c5.858-5.857,5.858-15.355,0-21.213l-17.716-17.716c6.595-9.546,11.24-20.528,13.386-32.374h26.03c8.284,0,15-6.716,15-15   S429.522,219.846,421.238,219.846z"/>
	<path style="fill:#FF9D09;" d="M421.238,219.846h-26.069c-2.177-11.834-6.851-22.799-13.47-32.327l17.839-17.839   c5.858-5.858,5.858-15.355,0-21.213c-5.857-5.857-15.355-5.858-21.213,0l-17.863,17.864c-9.529-6.583-20.489-11.224-32.311-13.375   V127.51c0-8.284-6.716-15-15-15s-15,6.716-15,15v25.462c-11.787,2.158-22.714,6.792-32.219,13.358L256,156.398v156.82l9.76-9.76   c9.545,6.63,20.532,11.309,32.391,13.481v25.243c0,8.284,6.716,15,15,15s15-6.716,15-15v-25.226   c11.894-2.164,22.913-6.85,32.482-13.498l17.691,17.691c2.929,2.929,6.768,4.394,10.606,4.394s7.678-1.465,10.606-4.394   c5.858-5.857,5.858-15.355,0-21.213l-17.716-17.716c6.595-9.546,11.24-20.528,13.386-32.374h26.03c8.284,0,15-6.716,15-15   S429.522,219.846,421.238,219.846z"/>
	<g>
		<path style="fill:#8CECFF;" d="M334.49,399.49h-95.107c-10.756,0-31.633-0.062-51.823-0.121    c-18.09-0.053-35.325-0.104-43.284-0.104c-37.778,0-68.514-30.745-68.514-68.535c0-37.779,30.735-68.515,68.514-68.515    c1.995,0,3.983,0.086,5.961,0.258c15.387-34.783,50.297-58.083,89.146-58.083c38.849,0,73.759,23.299,89.146,58.083    c1.979-0.172,3.967-0.258,5.962-0.258c37.778,0,68.514,30.791,68.514,68.638S372.269,399.49,334.49,399.49z"/>
	</g>
	<path style="fill:#67C7F0;" d="M334.49,262.216c-1.995,0-3.983,0.086-5.962,0.258c-13.153-29.734-40.577-51.062-72.528-56.631   V399.49h78.49c37.778,0,68.514-30.79,68.514-68.637S372.269,262.216,334.49,262.216z"/>
</g>















</svg>
