<?xml version="1.0" encoding="UTF-8"?>
<svg width="580px" height="483px" viewBox="0 0 580 483" version="1.1" xmlns="http://www.w3.org/2000/svg" xmlns:xlink="http://www.w3.org/1999/xlink">
    <!-- Generator: Sketch 56.3 (81716) - https://sketch.com -->
    <title>logo_forlite v0.2</title>
    <desc>Created with Sketch.</desc>
    <g id="Page-1" stroke="none" stroke-width="1" fill="none" fill-rule="evenodd">
        <g id="1000x1000_kottans_lite_bg-v0.2" transform="translate(-211.000000, -252.000000)" fill="#303846" fill-rule="nonzero">
            <path d="M470.360077,340 L531.239923,340 L572.601611,252.413063 L587.792909,252.413063 L631.461402,344.884858 L616.270105,352.058732 L580.19726,275.671378 L544.124416,352.058732 L538.6,349.449905 L538.6,356.8 L463,356.8 L463,349.449905 L457.475584,352.058732 L421.40274,275.671378 L385.329895,352.058732 L370.138598,344.884858 L413.807091,252.413063 L428.998389,252.413063 L470.360077,340 Z M404.509634,731.152843 L390.657489,721.647157 C405.605237,699.864574 413.00274,677.464597 413.00274,654.274437 C413.00274,630.959173 405.523227,606.895345 390.404001,582.00152 L404.763122,573.280531 C421.402801,600.677784 429.80274,627.702897 429.80274,654.274437 C429.80274,680.97108 421.32079,706.654812 404.509634,731.152843 Z M330.311369,627.900296 L314.00096,623.874063 L325.910549,575.627909 L342.220958,579.654142 L330.311369,627.900296 Z M362.070273,627.900296 L345.759864,623.874063 L357.669453,575.627909 L373.979862,579.654142 L362.070273,627.900296 Z M297.323333,721.647157 L283.471187,731.152843 C266.660032,706.654812 258.178082,680.97108 258.178082,654.274437 C258.178082,627.702897 266.578021,600.677784 283.2177,573.280531 L297.576821,582.00152 C282.457595,606.895345 274.978082,630.959173 274.978082,654.274437 C274.978082,677.464597 282.375585,699.864574 297.323333,721.647157 Z M718.128813,731.152843 L704.276667,721.647157 C719.224415,699.864574 726.621918,677.464597 726.621918,654.274437 C726.621918,630.959173 719.142405,606.895345 704.023179,582.00152 L718.3823,573.280531 C735.021979,600.677784 743.421918,627.702897 743.421918,654.274437 C743.421918,680.97108 734.939968,706.654812 718.128813,731.152843 Z M643.930547,627.900296 L627.620138,623.874063 L639.529727,575.627909 L655.840136,579.654142 L643.930547,627.900296 Z M675.689451,627.900296 L659.379042,623.874063 L671.288631,575.627909 L687.59904,579.654142 L675.689451,627.900296 Z M610.942511,721.647157 L597.090366,731.152843 C580.27921,706.654812 571.79726,680.97108 571.79726,654.274437 C571.79726,627.702897 580.197199,600.677784 596.836878,573.280531 L611.195999,582.00152 C596.076773,606.895345 588.59726,630.959173 588.59726,654.274437 C588.59726,677.464597 595.994763,699.864574 610.942511,721.647157 Z M437.282192,718.358974 L564.317808,718.358974 L564.317808,734.8 L437.282192,734.8 L437.282192,718.358974 Z M699.293151,493.569231 L699.293151,476.769231 L790.6,476.769231 L790.6,493.569231 L699.293151,493.569231 Z M699.293151,461.405128 L699.293151,444.605128 L790.6,444.605128 L790.6,461.405128 L699.293151,461.405128 Z M211,493.569231 L211,476.769231 L302.306849,476.769231 L302.306849,493.569231 L211,493.569231 Z M211,461.405128 L211,444.605128 L302.306849,444.605128 L302.306849,461.405128 L211,461.405128 Z M642.701415,542.18874 L628.84927,532.683055 C643.797018,510.900471 651.194521,488.500495 651.194521,465.310334 C651.194521,441.99507 643.715007,417.931242 628.595782,393.037418 L642.954903,384.316428 C659.594582,411.713682 667.994521,438.738794 667.994521,465.310334 C667.994521,492.006977 659.512571,517.69071 642.701415,542.18874 Z M364.811004,532.683055 L350.958859,542.18874 C334.147703,517.69071 325.665753,492.006977 325.665753,465.310334 C325.665753,438.738794 334.065692,411.713682 350.705371,384.316428 L365.064492,393.037418 C349.945267,417.931242 342.465753,441.99507 342.465753,465.310334 C342.465753,488.500495 349.863256,510.900471 364.811004,532.683055 Z M588.384796,492.565306 L564.317808,437.723698 L540.250821,492.565306 L524.866988,485.814181 L556.625892,413.444951 L572.009725,413.444951 L603.768629,485.814181 L588.384796,492.565306 Z M453.409453,492.565306 L429.342466,437.723698 L405.275478,492.565306 L389.891645,485.814181 L421.650549,413.444951 L437.034382,413.444951 L468.793286,485.814181 L453.409453,492.565306 Z M500.8,533.2 C493.841212,533.2 488.2,527.558788 488.2,520.6 C488.2,513.641212 493.841212,508 500.8,508 C507.758788,508 513.4,513.641212 513.4,520.6 C513.4,527.558788 507.758788,533.2 500.8,533.2 Z" id="Shape"></path>
        </g>
    </g>
</svg>
