<?xml version="1.0" encoding="iso-8859-1"?>
<!-- Generator: Adobe Illustrator 19.0.0, SVG Export Plug-In . SVG Version: 6.00 Build 0)  -->
<svg version="1.1" id="Capa_1" xmlns="http://www.w3.org/2000/svg" xmlns:xlink="http://www.w3.org/1999/xlink" x="0px" y="0px"
	 viewBox="0 0 308.799 308.799" style="enable-background:new 0 0 308.799 308.799;" xml:space="preserve">
<path id="SVGCleanerId_0" style="fill:#F7981D;" d="M124.896,171.611c-11.801,8.851-28.52,13.276-43.271,13.276
	c-20.652,0-38.846-7.376-52.614-20.16c-0.983-0.983,0-2.459,0.983-1.475c15.243,8.851,33.437,13.768,52.614,13.768
	c12.785,0,27.045-2.459,40.321-8.359C124.896,167.677,126.372,170.136,124.896,171.611z"/>
<g>
	<path id="SVGCleanerId_0_1_" style="fill:#F7981D;" d="M124.896,171.611c-11.801,8.851-28.52,13.276-43.271,13.276
		c-20.652,0-38.846-7.376-52.614-20.16c-0.983-0.983,0-2.459,0.983-1.475c15.243,8.851,33.437,13.768,52.614,13.768
		c12.785,0,27.045-2.459,40.321-8.359C124.896,167.677,126.372,170.136,124.896,171.611z"/>
</g>
<path style="fill:#E86E00;" d="M124.896,168.661c-11.801,8.359-28.52,12.785-42.78,12.785c-19.177,0-36.387-6.884-49.664-17.702
	c-0.492-0.492-1.475-0.492-1.967-0.983c-1.475-0.983-2.459,0.492-0.983,1.475c13.768,12.785,32.454,20.16,52.614,20.16
	c14.752,0,31.47-4.425,43.271-13.276C125.88,170.628,125.88,169.152,124.896,168.661z"/>
<path style="fill:#F7981D;" d="M129.322,165.71c-1.475-1.967-9.834-0.983-13.768-0.492c-0.983,0-1.475-0.983-0.492-1.475
	c6.884-4.917,17.702-3.442,18.685-1.967c1.475,1.475-0.492,12.785-6.392,17.702c-0.983,0.983-1.967,0.492-1.475-0.492
	C127.847,175.545,130.797,167.677,129.322,165.71z"/>
<path style="fill:#E86E00;" d="M134.731,162.268c1.475,1.475-0.492,12.785-6.392,17.702c-0.983,0.983-1.967,0.492-1.475-0.492
	c1.475-3.442,4.425-11.31,2.95-13.276"/>
<path d="M116.045,130.798v-4.425c0-0.492,0.492-0.983,0.983-0.983h20.652c0.492,0,0.983,0.492,0.983,0.983v3.934
	c0,0.492-0.492,1.475-1.475,2.95L126.37,148.5c3.934,0,7.868,0.492,11.801,2.459c0.983,0.492,0.983,0.983,0.983,1.967v4.917
	c0,0.492-0.492,1.475-1.475,0.983c-6.392-3.442-14.752-3.442-21.636,0c-0.492,0.492-1.475-0.492-1.475-0.983v-4.425
	c0-0.492,0-1.967,0.983-2.95l12.293-17.702h-10.818C116.537,131.782,116.045,131.29,116.045,130.798z"/>
<path d="M41.796,159.318h-6.392c-0.492,0-0.983-0.492-0.983-0.983v-31.962c0-0.492,0.492-0.983,0.983-0.983h5.901
	c0.492,0,0.983,0.492,0.983,0.983v3.934l0,0c1.475-3.934,4.425-5.901,8.359-5.901s6.392,1.967,7.868,5.901
	c1.475-3.934,4.917-5.901,8.359-5.901c2.459,0,5.409,0.983,7.376,3.442c1.967,2.459,1.475,6.392,1.475,9.834v20.16
	c0,0.492-0.492,0.983-0.983,0.983H68.35c-0.492,0-0.983-0.492-0.983-0.983v-16.718c0-1.475,0-4.917,0-5.901
	c-0.492-1.967-1.967-2.95-3.442-2.95s-2.95,0.983-3.934,2.459c-0.492,1.475-0.492,4.425-0.492,5.901v16.718
	c0,0.492-0.492,0.983-0.983,0.983h-6.392c-0.492,0-0.983-0.492-0.983-0.983v-16.718c0-3.442,0.492-8.851-3.934-8.851
	s-4.425,4.917-4.425,8.851v16.718C42.779,158.826,42.288,159.318,41.796,159.318z"/>
<path d="M156.366,124.406c9.343,0,14.26,7.868,14.26,18.194c0,9.834-5.409,17.702-14.26,17.702s-13.768-7.868-13.768-17.702
	C142.598,132.273,147.516,124.406,156.366,124.406z M156.366,130.798c-4.425,0-4.917,6.392-4.917,10.326
	c0,3.934,0,12.293,4.917,12.293s4.917-6.884,4.917-10.818c0-2.459,0-5.901-0.983-8.359
	C159.809,131.782,158.333,130.798,156.366,130.798z"/>
<path d="M182.919,159.318h-6.392c-0.492,0-0.983-0.492-0.983-0.983v-31.962c0-0.492,0.492-0.983,0.983-0.983h5.901
	c0.492,0,0.983,0.492,0.983,0.983v4.917l0,0c1.967-4.425,3.934-6.392,8.359-6.392c2.95,0,5.409,0.983,7.376,3.934
	c1.475,2.459,1.475,6.884,1.475,9.834v20.161c0,0.492-0.492,0.983-0.983,0.983h-6.392c-0.492,0-0.983-0.492-0.983-0.983v-17.21
	c0-3.442,0.492-8.359-3.934-8.359c-1.475,0-2.95,0.983-3.442,2.459c-0.983,1.967-0.983,3.934-0.983,5.901v17.21
	C183.903,158.826,183.411,159.318,182.919,159.318z"/>
<ellipse style="fill:#E86E00;" cx="208" cy="156.86" rx="2.95" ry="2.95"/>
<g>
	<path style="fill:#F7981D;" d="M270.937,159.318c-0.492,0-0.983-0.492-0.983-0.983v-31.962c0-0.492,0.492-0.983,0.983-0.983h1.967
		c0.492,0,0.983,0.492,0.983,0.983v4.425c1.475-3.442,4.425-6.392,8.359-6.392l0,0l0,0c3.934,0,6.884,2.95,8.359,7.376
		c1.475-4.425,4.917-7.376,9.343-7.376l0,0l0,0c2.95,0,5.901,1.967,7.376,4.917c1.475,2.95,1.475,6.392,1.475,9.834v19.177
		c0,0.492-0.492,0.983-0.983,0.983h-2.95c-0.492,0-0.983-0.492-0.983-0.983v-19.177c0-2.459,0-4.917-0.983-6.884
		c-0.983-1.967-2.95-3.442-4.917-3.442s-3.934,1.475-5.409,3.934c-1.475,2.95-1.475,5.409-1.475,8.359v17.21
		c0,0.492-0.492,0.983-0.983,0.983h-2.95c-0.492,0-0.983-0.492-0.983-0.983v-20.652c0-1.967,0-3.934-0.983-5.901
		c-0.983-1.967-2.95-2.95-4.917-3.442c-1.967,0-3.934,1.475-4.917,3.442c-1.475,2.459-1.967,4.917-1.967,7.868v18.194
		c0,0.492-0.492,0.983-0.983,0.983h-1.475v0.492H270.937L270.937,159.318z"/>
	<path style="fill:#F7981D;" d="M252.252,159.81c-8.851,0-12.785-8.851-12.785-18.194c0-9.343,4.425-17.702,13.768-17.702l0,0l0,0
		c8.851,0,12.785,8.851,12.785,17.702C266.02,151.451,261.595,159.81,252.252,159.81L252.252,159.81L252.252,159.81z
		 M252.744,155.384c2.95,0,5.409-1.967,6.392-4.917c0.983-2.459,1.475-5.901,1.475-8.851c0-3.442-0.492-6.392-1.967-9.343
		c-1.475-2.459-3.442-3.934-6.392-3.934s-5.409,1.967-6.392,4.917c-0.983,2.459-1.475,5.901-1.475,8.359
		c0,2.95,0.492,6.884,1.475,9.343C247.826,153.909,250.285,155.384,252.744,155.384z"/>
	<path style="fill:#F7981D;" d="M224.224,155.384c3.934,0,5.901-3.442,6.884-7.376c0-0.492,0.492-0.983,0.983-0.983h2.459
		c0.492,0,0.983,0.492,0.983,0.983c-0.983,6.884-5.409,11.801-11.31,11.801l0,0l0,0c-8.851,0-12.785-8.851-12.785-17.702
		c0-8.851,3.934-17.702,12.785-17.702l0,0l0,0c5.901,0,10.326,4.917,11.31,11.801c0,0.492-0.492,0.983-0.983,0.983h-2.95
		c-0.492,0-0.983-0.492-0.983-0.983c-0.492-3.934-2.95-6.884-6.884-7.376c-5.901,0-7.868,7.376-7.868,13.276
		C216.848,147.517,218.323,155.384,224.224,155.384z"/>
</g>
<path d="M111.128,153.417c-1.475-1.475-2.459-2.95-2.459-5.901v-9.834c0-4.425,0-7.867-2.95-10.818
	c-2.459-1.967-6.392-2.951-9.343-2.951c-5.9,0-12.293,1.967-13.768,9.343c0,0.983,0.492,1.475,0.983,1.475l5.901,0.984
	c0.492,0,0.984-0.492,0.984-0.984c0.492-2.95,2.459-3.934,4.917-3.934c1.475,0,2.459,0.492,3.442,1.475
	c0.983,0.984,0.983,2.95,0.983,4.426v0.983c-3.934,0-8.359,0.492-11.801,1.967c-3.442,1.967-6.393,5.409-6.393,10.326
	c0,6.393,3.934,9.834,9.343,9.834c4.426,0,6.884-0.983,10.326-4.425c0.984,1.475,1.475,2.459,3.442,3.934c0.492,0,0.983,0,1.475,0
	c0.984-1.475,3.442-3.442,4.917-4.426C111.62,154.892,111.62,153.909,111.128,153.417z M99.711,144.104c0,2.459,0,4.426-0.983,6.392
	c-0.983,1.967-2.459,2.951-4.426,2.951c-2.459,0-3.934-1.967-3.934-4.426c0-5.409,4.917-6.392,9.343-6.392V144.104z"/>
<path d="M29.503,153.417c-1.475-1.475-2.459-2.95-2.459-5.901v-9.834c0-4.425,0-7.867-2.95-10.818
	c-2.459-1.967-6.392-2.951-9.343-2.951c-5.9,0-12.293,1.967-13.768,9.343c0,0.983,0.492,1.475,0.983,1.475l5.901,0.984
	c0.492,0,0.983-0.492,0.983-0.984c0.492-2.95,2.459-3.934,4.917-3.934c1.475,0,2.459,0.492,3.442,1.475
	c0.983,0.984,0.983,2.95,0.983,4.426v0.983c-3.934,0-8.359,0.492-11.801,1.967C2.95,141.616,0,145.058,0,149.975
	c0,6.393,3.934,9.834,9.343,9.834c4.426,0,6.884-0.983,10.326-4.425c0.983,1.475,1.475,2.459,3.442,3.934c0.492,0,0.983,0,1.475,0
	c0.983-1.475,3.442-3.442,4.917-4.426C29.995,154.892,29.995,153.909,29.503,153.417z M17.545,144.104c0,2.459,0,4.426-0.983,6.392
	c-0.984,1.967-2.459,2.951-4.426,2.951c-2.459,0-3.934-1.967-3.934-4.426c0-5.409,4.917-6.392,9.343-6.392V144.104z"/>
<g>
	<path style="fill:#545E60;" d="M192.262,124.406c-4.425,0-6.884,1.967-8.359,6.392l0,0v-4.917c0-0.492-0.492-0.983-0.983-0.983
		h-5.901c-0.492,0-0.983,0.492-0.983,0.983v9.834c8.359-2.95,15.735-5.901,22.127-9.343
		C196.196,124.898,194.229,124.406,192.262,124.406z"/>
	<path style="fill:#545E60;" d="M156.366,124.406c-8.851,0-13.768,7.868-13.768,17.702c0,0.983,0,1.475,0,2.459
		c2.95-0.492,5.901-1.475,8.851-1.967c0-0.492,0-0.983,0-1.475c0-3.934,0.492-10.326,4.917-10.326c1.967,0,3.442,0.983,3.934,2.95
		c0.492,1.967,0.983,3.934,0.983,5.901c2.95-0.983,5.901-1.475,8.851-2.459C168.659,129.815,164.234,124.406,156.366,124.406z"/>
	<path style="fill:#545E60;" d="M137.681,124.898h-20.652c-0.492,0-0.983,0.492-0.983,0.983v4.425c0,0.492,0.492,0.983,0.983,0.983
		h10.818l-11.31,16.718c3.934-0.492,7.376-0.983,10.818-1.475l9.834-14.26c0.983-1.475,1.475-2.459,1.475-2.95v-3.934
		C139.156,125.389,138.173,124.898,137.681,124.898z"/>
	<path style="fill:#545E60;" d="M105.719,127.356c-2.459-2.459-6.392-2.95-9.343-2.95c-5.901,0-12.293,1.967-13.768,9.343
		c0,0.983,0.492,0.983,0.983,1.475l5.901,0.492c0.492,0,0.983-0.492,0.983-0.983c0.492-2.459,2.459-3.934,4.917-3.934
		c1.475,0,2.95,0.492,3.442,1.475c0.983,1.475,0.983,2.95,0.983,4.425v0.983c-3.442,0.492-8.359,0.492-11.801,1.967
		c-3.934,1.475-6.392,4.917-6.392,10.326c1.475,0,2.95,0,3.934,0c1.475,0,3.442,0,4.917,0c0-0.492,0-0.492,0-0.983
		c0-5.409,4.917-6.392,9.343-6.392v1.475c0,1.967,0,3.934-0.983,5.901c3.442,0,6.392-0.492,9.834-0.492c0-0.492,0-0.983,0-1.475
		v-9.834C108.67,133.749,108.67,129.815,105.719,127.356z"/>
	<path style="fill:#545E60;" d="M67.365,124.406c-3.442,0-6.884,1.967-8.359,5.901c-1.967-3.934-4.425-5.901-7.868-5.901
		c-3.934,0-6.884,1.967-8.359,5.901l0,0v-3.934c-0.492-0.983-0.983-1.475-1.475-1.475h-5.901c-0.492,0-0.983,0.492-0.983,0.983
		v19.177c2.95,0.492,5.409,0.983,8.359,1.475v-5.901c0-3.934,0-8.851,4.425-8.851s3.934,5.409,3.934,8.851v6.884
		c2.95,0.492,5.901,0.492,8.359,0.983v-7.868c0-1.967,0-4.425,0.492-5.901c0.492-1.475,1.967-2.459,3.934-2.459
		s3.442,0.492,3.442,2.95c0.492,1.475,0,4.425,0,5.901v8.359c2.95,0,5.901,0.492,8.359,0.492v-11.801
		c0-3.442,0.492-7.376-1.475-9.834C72.774,125.389,69.824,124.406,67.365,124.406z"/>
	<path style="fill:#545E60;" d="M14.751,123.914c-5.901,0-12.293,1.967-13.768,9.343c0,0.983,0.492,0.983,0.983,1.475l5.901,0.492
		c0.492,0,0.983-0.492,0.983-0.983c0.492-2.459,2.459-3.934,4.917-3.934c1.475,0,2.95,0.492,3.442,1.475
		c0.983,1.475,0.983,2.95,0.983,4.425v0.983c-2.95,0.983-7.376,0.983-10.818,2.459c6.392,1.967,12.785,3.442,19.669,4.917v-6.392
		c0-3.934,0.492-7.868-2.95-10.818C22.127,124.898,18.193,123.914,14.751,123.914z"/>
</g>
<g>
</g>
<g>
</g>
<g>
</g>
<g>
</g>
<g>
</g>
<g>
</g>
<g>
</g>
<g>
</g>
<g>
</g>
<g>
</g>
<g>
</g>
<g>
</g>
<g>
</g>
<g>
</g>
<g>
</g>
</svg>
