<svg version="1.1" xmlns="http://www.w3.org/2000/svg" xmlns:xlink="http://www.w3.org/1999/xlink" x="0px" y="0px"
	 viewBox="0 0 434.168 434.168" style="enable-background:new 0 0 434.168 434.168;" xml:space="preserve">
	<path d="M332.318,230.196V34.967H40.93v364.235h134.038c9.616,0,17.483,7.867,17.483,17.483s-7.867,17.483-17.483,17.483H23.446
		c-9.616,0-17.483-7.867-17.483-17.483V17.483C5.963,7.867,13.831,0,23.446,0h326.354c9.616,0,17.483,7.867,17.483,17.483v212.713
		c0,9.616-7.867,17.483-17.483,17.483S332.318,239.812,332.318,230.196z M422.357,272.739c-7.285-6.411-18.357-5.828-24.768,1.457
		l-95.867,106.648l-48.079-46.331c-6.993-6.702-18.066-6.411-24.768,0.583s-6.411,18.066,0.583,24.768l61.191,58.86
		c3.205,3.205,7.576,4.954,12.238,4.954c0.291,0,0.291,0,0.583,0c4.662-0.291,9.324-2.331,12.238-5.828l107.814-120.052
		C430.224,290.222,429.641,279.15,422.357,272.739z M268.212,101.986H110.863c-9.616,0-17.483,7.867-17.483,17.483
		s7.867,17.483,17.483,17.483h157.349c9.616,0,17.483-7.867,17.483-17.483S277.828,101.986,268.212,101.986z M285.696,215.627
		c0-9.616-7.867-17.483-17.483-17.483H110.863c-9.616,0-17.483,7.867-17.483,17.483c0,9.616,7.867,17.483,17.483,17.483h157.349
		C277.828,233.11,285.696,225.243,285.696,215.627z M110.863,291.388c-9.616,0-17.483,7.867-17.483,17.483
		c0,9.616,7.867,17.483,17.483,17.483h46.622c9.616,0,17.483-7.867,17.483-17.483c0-9.616-7.867-17.483-17.483-17.483H110.863z" style="fill: #A5ABC5;"/>
</svg>
