<svg version="1.1" xmlns="http://www.w3.org/2000/svg" xmlns:xlink="http://www.w3.org/1999/xlink" x="0px" y="0px"
	 viewBox="0 0 19.791 19.791" style="enable-background:new 0 0 19.791 19.791;" xml:space="preserve">
	<path d="M19.79,9.709V9.671V9.665l-0.003-0.047c0-0.062-0.003-0.125-0.005-0.187l-0.005-0.094l-0.005-0.072L19.77,9.227V9.214
		l-0.011-0.133l-0.002-0.037V9.042L19.75,8.977V8.972l-0.002-0.036l-0.014-0.13L19.73,8.79l-0.005-0.035L19.72,8.708
		c-0.342-2.867-1.914-5.356-4.169-6.931C14.87,1.3,14.125,0.909,13.336,0.615c-0.366-0.135-0.74-0.25-1.123-0.342l-0.037-0.008
		l-0.011-0.004l-0.07-0.016c-0.054-0.012-0.108-0.023-0.164-0.035l-0.035-0.008H11.89l-0.005-0.003
		c-0.064-0.012-0.132-0.024-0.197-0.038l-0.072-0.012c-0.07-0.014-0.14-0.024-0.208-0.035h-0.005l-0.005-0.001h-0.002
		C11.32,0.102,11.245,0.092,11.17,0.08l-0.021-0.002l-0.035-0.005c-0.145-0.019-0.291-0.032-0.438-0.044l-0.017-0.001h-0.021
		c-0.159-0.013-0.314-0.021-0.479-0.025h-0.005h-0.003C10.064,0.001,9.981,0,9.897,0C9.812,0,9.728,0.001,9.645,0.003H9.642H9.637
		c-0.162,0.004-0.32,0.012-0.479,0.025H9.136L9.12,0.03C8.975,0.042,8.826,0.055,8.684,0.074L8.649,0.079L8.638,0.08L8.627,0.081
		c-0.073,0.008-0.145,0.02-0.215,0.031L8.377,0.116C8.31,0.126,8.242,0.139,8.175,0.149L8.107,0.162
		C8.043,0.174,7.976,0.187,7.909,0.199L7.903,0.202H7.898L7.863,0.21L7.704,0.244l-0.08,0.019L7.618,0.265L7.583,0.273
		C7.198,0.365,6.824,0.48,6.46,0.615C5.669,0.909,4.923,1.3,4.243,1.777C2.288,3.14,0.848,5.191,0.275,7.581l0,0L0.259,7.648v0.003
		L0.256,7.662L0.25,7.685C0.237,7.744,0.224,7.804,0.213,7.864L0.189,7.969L0.178,8.036L0.17,8.073l-0.002,0.01L0.146,8.21v0.004
		L0.138,8.25L0.129,8.306L0.11,8.426v0.001L0.105,8.464L0.086,8.597L0.082,8.645L0.076,8.681L0.06,8.826L0.057,8.863L0.054,8.868
		L0.052,8.915C0.043,8.977,0.038,9.04,0.036,9.104L0.03,9.149v0.005L0.027,9.191C0.022,9.252,0.019,9.315,0.014,9.375v0.011v0.025
		C0.011,9.48,0.008,9.549,0.006,9.618L0.003,9.665v0.007V9.71C0.003,9.771,0,9.833,0,9.895c0,0.063,0.003,0.125,0.003,0.186v0.039
		v0.007l0.003,0.047c0.002,0.069,0.005,0.136,0.008,0.205v0.027v0.011L0.027,10.6l0.003,0.038v0.005l0.005,0.047
		c0.002,0.061,0.008,0.121,0.013,0.182l0.008,0.054v0.004l0.002,0.035l0.016,0.146l0.006,0.036l0.005,0.046l0.019,0.133l0.005,0.038
		v0.001l0.019,0.125l0.008,0.052l0.008,0.035v0.005l0.024,0.132v0.006l0.008,0.036l0,0l0.011,0.058l0.024,0.116
		c0.01,0.058,0.024,0.115,0.037,0.173l0.008,0.041l0.016,0.068l0,0c0.573,2.39,2.013,4.442,3.968,5.806
		c0.681,0.475,1.426,0.869,2.218,1.16c0.713,0.265,1.467,0.45,2.245,0.542l0.048,0.005l0.003,0.001l0.035,0.004l0.013,0.001
		l0.132,0.014l0.038,0.004H8.98l0.06,0.005h0.005l0.036,0.004l0.134,0.008l0.013,0.002l0.036,0.003l0.072,0.004l0.094,0.004
		c0.062,0.004,0.126,0.005,0.188,0.008h0.046h0.008h0.035c0.064,0.002,0.126,0.004,0.188,0.004c0.062,0,0.124-0.001,0.186-0.004
		h0.038h0.005h0.048c0.062-0.003,0.124-0.004,0.186-0.008l0.097-0.004l0.07-0.004l0.038-0.003l0.011-0.002l0.134-0.008l0.036-0.004
		h0.007l0.054-0.005h0.011l0.038-0.004l0.134-0.014l0.011-0.001l0.035-0.004l0.005-0.001l0.043-0.005
		c0.382-0.044,0.757-0.113,1.125-0.2h0.002c0.382-0.093,0.756-0.206,1.123-0.342c0.789-0.293,1.534-0.685,2.215-1.16
		c2.255-1.575,3.825-4.064,4.169-6.931l0.006-0.044v-0.005L19.73,11v-0.011l0.017-0.134l0.002-0.037v-0.009l0.005-0.056v-0.007
		l0.002-0.038l0.011-0.133v-0.012l0.002-0.038l0.005-0.068l0.005-0.098c0.002-0.062,0.005-0.123,0.005-0.185l0.003-0.047V10.12
		v-0.039c0-0.061,0.002-0.123,0.002-0.186C19.792,9.833,19.79,9.771,19.79,9.709z M4.243,2.53C4.916,2.015,5.661,1.587,6.46,1.268
		C6.824,1.124,7.198,1,7.583,0.902v4.146c-0.404,0.193-0.78,0.436-1.123,0.72c-0.592,0.493-1.076,1.11-1.413,1.813H4.243h-3.34
		C1.427,5.543,2.625,3.776,4.243,2.53z M7.583,18.889c-0.385-0.1-0.759-0.222-1.123-0.366c-0.8-0.319-1.545-0.746-2.218-1.264
		c-1.618-1.245-2.816-3.013-3.34-5.05h3.34H5.05c0.333,0.703,0.818,1.321,1.41,1.814c0.342,0.284,0.719,0.526,1.123,0.719V18.889z
		 M9.897,14.453c-1.372,0-2.603-0.604-3.437-1.562c-0.7-0.801-1.123-1.848-1.123-2.997c0-1.145,0.423-2.192,1.123-2.994
		c0.834-0.957,2.065-1.562,3.437-1.562c1.37,0,2.601,0.607,3.438,1.565c0.697,0.801,1.12,1.847,1.12,2.992
		c0,1.147-0.423,2.194-1.12,2.995C12.498,13.847,11.268,14.453,9.897,14.453z M15.55,17.26c-0.673,0.517-1.416,0.943-2.215,1.264
		c-0.363,0.144-0.74,0.266-1.123,0.366v-4.146c0.404-0.192,0.781-0.435,1.123-0.72c0.59-0.493,1.074-1.112,1.411-1.813h0.805h3.34
		C18.366,14.247,17.168,16.013,15.55,17.26z M15.55,7.581h-0.805c-0.336-0.703-0.821-1.319-1.411-1.812
		c-0.342-0.284-0.719-0.528-1.123-0.721V0.902C12.595,1,12.972,1.124,13.335,1.268c0.799,0.32,1.542,0.748,2.215,1.264
		c1.618,1.245,2.815,3.012,3.34,5.049H15.55z" style="fill: #A5ABC5;"/>
</svg>
