<svg xmlns="http://www.w3.org/2000/svg" viewBox="0 0 511.626 511.627"><path d="M18.842 128.48C6.28 141.043 0 156.08 0 173.588v237.537c0 17.515 6.28 32.552 18.842 45.111 12.563 12.565 27.6 18.842 45.111 18.842h18.271V109.634H63.953c-17.515 0-32.551 6.283-45.111 18.846zm346.604-64.525c0-7.614-2.663-14.084-7.994-19.414-5.325-5.33-11.8-7.993-19.411-7.993H173.589c-7.612 0-14.083 2.663-19.414 7.993-5.33 5.327-7.994 11.799-7.994 19.414v45.679h-36.545v365.444h292.359V109.634h-36.549V63.955zm-36.542 45.679H182.725V73.091h146.179v36.543zm163.881 18.846c-12.563-12.562-27.601-18.846-45.111-18.846H429.4v365.444h18.274c17.511 0 32.548-6.276 45.111-18.842 12.559-12.56 18.842-27.597 18.842-45.111V173.588c-.001-17.508-6.284-32.545-18.842-45.108z" fill="#A5ABC5"/></svg>