<svg height="512pt" viewBox="-24 0 512 512" width="512pt" xmlns="http://www.w3.org/2000/svg"><path d="m360 0h-336c-13.230469 0-24 10.769531-24 24v464c0 13.230469 10.769531 24 24 24h336c13.230469 0 24-10.769531 24-24v-464c0-13.230469-10.769531-24-24-24zm8 488c0 4.40625-3.585938 8-8 8h-336c-4.40625 0-8-3.59375-8-8v-464c0-4.40625 3.59375-8 8-8h336c4.414062 0 8 3.59375 8 8zm0 0"/><path d="m344 40h-304c-4.414062 0-8 3.585938-8 8v368c0 4.414062 3.585938 8 8 8h304c4.425781 0 8-3.585938 8-8v-368c0-4.414062-3.574219-8-8-8zm-8 368h-288v-352h288zm0 0"/><path d="m192 440c-13.230469 0-24 10.769531-24 24s10.769531 24 24 24 24-10.769531 24-24-10.769531-24-24-24zm0 32c-4.40625 0-8-3.59375-8-8s3.59375-8 8-8 8 3.59375 8 8-3.59375 8-8 8zm0 0"/><path d="m464 144h-8v-40c0-.398438-.167969-.742188-.222656-1.128906-.042969-.269532.054687-.542969-.015625-.816406l-16-64c-.898438-3.558594-4.089844-6.054688-7.761719-6.054688h-8c-3.671875 0-6.863281 2.496094-7.761719 6.054688l-16 64c-.070312.273437.027344.546874-.015625.816406-.054687.386718-.222656.730468-.222656 1.128906v360c0 8.824219 7.175781 16 16 16h24c8.824219 0 16-7.175781 16-16v-248h8zm-24 272h-24v-304h24zm-12-359.015625 9.753906 39.015625h-19.507812zm-12 407.015625v-32h24l.007812 32zm0 0"/><path d="m72 200h240c4.425781 0 8-3.585938 8-8v-112c0-4.414062-3.574219-8-8-8h-240c-4.414062 0-8 3.585938-8 8v112c0 4.414062 3.585938 8 8 8zm8-112h224v96h-224zm0 0"/><path d="m72 328h104c4.414062 0 8-3.585938 8-8v-96c0-4.414062-3.585938-8-8-8h-104c-4.414062 0-8 3.585938-8 8v96c0 4.414062 3.585938 8 8 8zm8-96h88v80h-88zm0 0"/><path d="m312 216h-104c-4.414062 0-8 3.585938-8 8v96c0 4.414062 3.585938 8 8 8h104c4.425781 0 8-3.585938 8-8v-96c0-4.414062-3.574219-8-8-8zm-8 96h-88v-80h88zm0 0"/><path d="m64 344h40v16h-40zm0 0"/><path d="m120 344h64v16h-64zm0 0"/><path d="m144 376h40v16h-40zm0 0"/><path d="m64 376h64v16h-64zm0 0"/><path d="m200 344h40v16h-40zm0 0"/><path d="m256 344h64v16h-64zm0 0"/><path d="m280 376h40v16h-40zm0 0"/><path d="m200 376h64v16h-64zm0 0"/><path d="m154.34375 106.34375-24 24c-3.128906 3.128906-3.128906 8.183594 0 11.3125l24 24 11.3125-11.3125-18.34375-18.34375 18.34375-18.34375zm0 0"/><path d="m229.65625 106.34375-11.3125 11.3125 18.34375 18.34375-18.34375 18.34375 11.3125 11.3125 24-24c3.128906-3.128906 3.128906-8.183594 0-11.3125zm0 0"/><path d="m176.410156 157.476562 16.007813-48 15.179687 5.0625-16.011718 48zm0 0"/></svg>